/* XPM */
static char * rollupO_xpm[] = {
"13 46 10 1",
" 	c None",
".	c #5F5F5F",
"+	c #FFFFFF",
"@	c #1A1A1A",
"#	c #232323",
"$	c #333333",
"%	c #525252",
"&	c #3B3B3B",
"*	c #272727",
"=	c #747474",
".............",
"+++++++++++++",
"+++++++++++++",
"+++++++++++++",
"@@@@@@@@@@@@@",
"@@@@@@#@@@@@@",
"@@@@@#$#@@@@@",
"@@@@#$%$#@@@@",
"@@@#$%+%$#@@@",
"@@#$%+++%$#@@",
"@#&%+%+%+%$#@",
"@@#$&%+%&$#@@",
"@@@#$%+%$#@@@",
"@@@@#$%$#@@@@",
"@@@@@#&#@@@@@",
"@@@@@@#@@@@@@",
"@@@@@@@@@@@@@",
"@@@@@@@@@@@@@",
"@@@@@@@@@@@@@",
"@@@@@@@@@@@@@",
"@@@@@@@@@@@@@",
"@@@@@@@@@@@@@",
"@@@@@@@@@@@@@",
".............",
"+++++++++++++",
"+++++++++++++",
"+++++++++++++",
"@@@@@@@@@@@@@",
"@@@@@@*@@@@@@",
"@@@@@*&*@@@@@",
"@@@@*&=&*@@@@",
"@@@*&=+=&*@@@",
"@@*&=+++=&*@@",
"@*&=+=+=+=&*@",
"@@*&&=+=&&*@@",
"@@@*&=+=&*@@@",
"@@@@*&=&*@@@@",
"@@@@@*&*@@@@@",
"@@@@@@*@@@@@@",
"@@@@@@@@@@@@@",
"@@@@@@@@@@@@@",
"@@@@@@@@@@@@@",
"@@@@@@@@@@@@@",
"@@@@@@@@@@@@@",
"@@@@@@@@@@@@@",
"@@@@@@@@@@@@@"};
