/* XPM */
static char * frameIR_xpm[] = {
"4 2 5 1",
" 	c None",
".	c #F0F1F5",
"+	c #82939D",
"@	c #F3F4F8",
"#	c #83949E",
"...+",
"@@@#"};
