/* XPM */
static char * maximizeI_xpm[] = {
"28 36 171 2",
"  	c None",
". 	c #F9F9FB",
"+ 	c #F9F7F8",
"@ 	c #F1F0F5",
"# 	c #F3F2F7",
"$ 	c #EAEBEF",
"% 	c #F4F5F9",
"& 	c #E7E7EF",
"* 	c #E2E3E5",
"= 	c #F1F2F4",
"- 	c #E2E3E8",
"; 	c #DCDDD7",
"> 	c #F2F3ED",
", 	c #F4F5F0",
"' 	c #F1F1EF",
") 	c #F4F4F2",
"! 	c #F2F2F2",
"~ 	c #F2F4F1",
"{ 	c #C8CDC9",
"] 	c #B0B2AF",
"^ 	c #D7D9D6",
"/ 	c #DDDDDD",
"( 	c #D5D4CF",
"_ 	c #F4F3EF",
": 	c #F1F0EE",
"< 	c #F5F4F2",
"[ 	c #F3F2F0",
"} 	c #F3F3F1",
"| 	c #BBBDB8",
"1 	c #FFFEFF",
"2 	c #B3B5B0",
"3 	c #D5D5D5",
"4 	c #CDCDCD",
"5 	c #F4F4F4",
"6 	c #F3F3F5",
"7 	c #F4F2F5",
"8 	c #F1EFF4",
"9 	c #F8F3F9",
"0 	c #F3F1F6",
"a 	c #F2F1F6",
"b 	c #AEAEB0",
"c 	c #ABABAD",
"d 	c #FAFAFC",
"e 	c #CDCAD1",
"f 	c #C3C4C8",
"g 	c #F3F4F8",
"h 	c #F2F3F7",
"i 	c #F0EDF4",
"j 	c #F6F3FA",
"k 	c #F2EFF6",
"l 	c #F4F3F9",
"m 	c #BAB9BF",
"n 	c #B8B7BC",
"o 	c #F3F2F8",
"p 	c #C5C2C9",
"q 	c #AAAEAF",
"r 	c #E2E6E7",
"s 	c #E5E6E8",
"t 	c #E0E1E5",
"u 	c #E7E6EB",
"v 	c #E3E2E7",
"w 	c #DEDDE2",
"x 	c #B4B5B9",
"y 	c #FAFBFF",
"z 	c #AFB0B2",
"A 	c #AEAFB1",
"B 	c #ADAEB0",
"C 	c #FEFFFF",
"D 	c #B2B3B5",
"E 	c #E3E4E8",
"F 	c #DFE0E4",
"G 	c #ACABB0",
"H 	c #8D9192",
"I 	c #CBCFCE",
"J 	c #CCD0CF",
"K 	c #CED2D3",
"L 	c #CBCCCE",
"M 	c #D1D1D3",
"N 	c #CCCCCE",
"O 	c #CECFD3",
"P 	c #A8A9AB",
"Q 	c #FCFDFF",
"R 	c #A0A1A3",
"S 	c #D2D4D3",
"T 	c #A5A7A6",
"U 	c #F6F8F7",
"V 	c #A9AAAC",
"W 	c #D0D1D3",
"X 	c #CECFD1",
"Y 	c #8C8D8F",
"Z 	c #939594",
"` 	c #CFD1D0",
" .	c #A6A6A6",
"..	c #F5F5F5",
"+.	c #AAAAAA",
"@.	c #DCDCDC",
"#.	c #B2B2B2",
"$.	c #F8F8F8",
"%.	c #ACACAC",
"&.	c #DFDFDF",
"*.	c #E0E0E2",
"=.	c #8A8A8C",
"-.	c #8F8F8F",
";.	c #E6E6E6",
">.	c #E2E2E2",
",.	c #E0E0E0",
"'.	c #B1B1B1",
").	c #FFFFFF",
"!.	c #AEAEAE",
"~.	c #B0B0B0",
"{.	c #DBDBDB",
"].	c #DFDFE1",
"^.	c #8B8B8D",
"/.	c #89898B",
"(.	c #E4E4E6",
"_.	c #E6E6E8",
":.	c #ABABAB",
"<.	c #E5E5E5",
"[.	c #E9E9E9",
"}.	c #E7E7E9",
"|.	c #E5E5E7",
"1.	c #919193",
"2.	c #8D8D8F",
"3.	c #F2F2F4",
"4.	c #C6C6C6",
"5.	c #AFAFAF",
"6.	c #B6B6B6",
"7.	c #B7B7B7",
"8.	c #B9B9B9",
"9.	c #B5B5B5",
"0.	c #C1C1C1",
"a.	c #F0F0F0",
"b.	c #929294",
"c.	c #808082",
"d.	c #F1F1F3",
"e.	c #EDEEF0",
"f.	c #FAFBFD",
"g.	c #A0A0A2",
"h.	c #BDBDBF",
"i.	c #F7F7F9",
"j.	c #C4C4C6",
"k.	c #88888A",
"l.	c #E8E8EA",
"m.	c #EBEBED",
"n.	c #F8F8FA",
"o.	c #EBEAEF",
"p.	c #B9B8BD",
"q.	c #7D7C81",
"r.	c #C8C7CC",
"s.	c #EAEAEC",
"t.	c #C9C9CB",
"u.	c #969698",
"v.	c #858587",
"w.	c #868688",
"x.	c #878789",
"y.	c #828284",
"z.	c #848587",
"A.	c #858688",
"B.	c #808183",
"C.	c #868789",
"D.	c #838486",
"E.	c #7E7F81",
"F.	c #828385",
"G.	c #8A8B8D",
"H.	c #7D7E80",
"I.	c #858489",
"J.	c #807F84",
"K.	c #9A999E",
"L.	c #CECDD2",
"M.	c #ECEBF0",
"N.	c #000000",
". + + + + + + + + + + + + + + + + + + + + + + + + + + + ",
"@ # # # # # # # # # # # # # # # # # # # # # # # # # # # ",
"$ % % % % % % % % % % % % % % % % % % % % % % % % % % & ",
"* = = = = = = = = = = = = = = = = = = = = = = = = = = - ",
"; > > , ' ) ! ~ { ] ] ] ] ] ] ] ] ] ] ^ ! ! ! ! ! ! ! / ",
"( > > _ : < [ } | 1 1 1 1 1 1 1 1 1 1 2 } } } } } } ' 3 ",
"4 5 6 7 8 9 0 a b 1 1 1 1 1 1 1 1 1 1 c d d d d d d d e ",
"f g h # i j k l m 1 1 1 1 1 1 1 1 1 1 n o o o o o o o p ",
"q r r s t u v w x y z A A A A A A B C D E F F F F F F G ",
"H I J K L M N O P Q R S S S S S S T U V L W W W W W X Y ",
"Z ` ` ` ` ` ` `  ...+.@.@.@.@.@.@.#.$.%.3 &.&.&.&.&.*.=.",
"-.;.>.,.>.>.>.>.'.).!.+.+.+.+.+.+.+.).~.{./ / / / / ].^.",
"/.(._._._._._._.:.1 1 1 1 1 1 1 1 1 1 !.<.[.[._.}.|.*.1.",
"2.3.3.3.3.3.3.3.4.~.!.'.5.6.7.8.9.'.5.0.a.3.3.3.3.6 _.b.",
"c.}.d.d.d.d.d.d.d.e.e.e.e.e.e.e.e.e.e.f.f.f.f.f.f.f.|./.",
"g.h.i.i.i.i.i.i.i.i.i.i.i.i.i.i.i.i.i.i.i.i.i.i.i.i.j.g.",
"j.k.h.l.m.d d d n.d d d d d d d d d d d d d d d o.p.q.r.",
"s.t.u.v.w.x.y.z.A.B.C.C.D.E.z.D.F.G.H.F.z.D.D.I.J.K.L.M.",
"N.N.N.N.N.N.N.N.N.N.N.N.N.N.N.N.N.N.N.N.N.N.N.N.N.N.N.N.",
"N.N.N.N.N.N.N.N.N.N.N.N.N.N.N.N.N.N.N.N.N.N.N.N.N.N.N.N.",
"N.N.N.N.N.N.N.N.N.N.N.N.N.N.N.N.N.N.N.N.N.N.N.N.N.N.N.N.",
"N.N.N.N.N.N.N.N.N.N.N.N.N.N.N.N.N.N.N.N.N.N.N.N.N.N.N.N.",
"N.N.N.N.N.N.N.N.N.N.N.N.N.N.N.N.N.N.N.N.N.N.N.N.N.N.N.N.",
"N.N.N.N.N.N.N.N.N.N.N.N.N.N.N.N.N.N.N.N.N.N.N.N.N.N.N.N.",
"N.N.N.N.N.N.N.N.N.N.N.N.N.N.N.N.N.N.N.N.N.N.N.N.N.N.N.N.",
"N.N.N.N.N.N.N.N.N.N.N.N.N.N.N.N.N.N.N.N.N.N.N.N.N.N.N.N.",
"N.N.N.N.N.N.N.N.N.N.N.N.N.N.N.N.N.N.N.N.N.N.N.N.N.N.N.N.",
"N.N.N.N.N.N.N.N.N.N.N.N.N.N.N.N.N.N.N.N.N.N.N.N.N.N.N.N.",
"N.N.N.N.N.N.N.N.N.N.N.N.N.N.N.N.N.N.N.N.N.N.N.N.N.N.N.N.",
"N.N.N.N.N.N.N.N.N.N.N.N.N.N.N.N.N.N.N.N.N.N.N.N.N.N.N.N.",
"N.N.N.N.N.N.N.N.N.N.N.N.N.N.N.N.N.N.N.N.N.N.N.N.N.N.N.N.",
"N.N.N.N.N.N.N.N.N.N.N.N.N.N.N.N.N.N.N.N.N.N.N.N.N.N.N.N.",
"N.N.N.N.N.N.N.N.N.N.N.N.N.N.N.N.N.N.N.N.N.N.N.N.N.N.N.N.",
"N.N.N.N.N.N.N.N.N.N.N.N.N.N.N.N.N.N.N.N.N.N.N.N.N.N.N.N.",
"N.N.N.N.N.N.N.N.N.N.N.N.N.N.N.N.N.N.N.N.N.N.N.N.N.N.N.N.",
"N.N.N.N.N.N.N.N.N.N.N.N.N.N.N.N.N.N.N.N.N.N.N.N.N.N.N.N."};
