/* XPM */
static char * minimizeO_xpm[] = {
"28 36 605 2",
"  	c None",
". 	c #9FBEF6",
"+ 	c #A0BEF6",
"@ 	c #A1C0F6",
"# 	c #A3C1F6",
"$ 	c #A4C2F6",
"% 	c #A5C3F7",
"& 	c #A6C4F7",
"* 	c #A7C4F7",
"= 	c #8FB3F2",
"- 	c #91B5F5",
"; 	c #92B6F5",
"> 	c #94B8F5",
", 	c #96B9F5",
"' 	c #98BBF6",
") 	c #99BCF6",
"! 	c #9BBEF6",
"~ 	c #9CBFF6",
"{ 	c #9DBFF6",
"] 	c #9DC0F6",
"^ 	c #9ABDF6",
"/ 	c #97BAF5",
"( 	c #95B8F5",
"_ 	c #93B7F5",
": 	c #90B4F2",
"< 	c #82A7EA",
"[ 	c #87AEF4",
"} 	c #88AFF4",
"| 	c #8AB1F4",
"1 	c #8DB3F5",
"2 	c #8FB5F5",
"3 	c #91B6F5",
"4 	c #92B8F6",
"5 	c #94B9F6",
"6 	c #95BAF6",
"7 	c #96BAF6",
"8 	c #96BBF6",
"9 	c #8FB4F5",
"0 	c #739CE3",
"a 	c #7BA7F3",
"b 	c #7CA8F3",
"c 	c #7EAAF3",
"d 	c #81ACF4",
"e 	c #83AFF4",
"f 	c #85B0F4",
"g 	c #87B2F5",
"h 	c #89B4F5",
"i 	c #8AB5F5",
"j 	c #8CB6F6",
"k 	c #8CB7F6",
"l 	c #8DB8F6",
"m 	c #83AEF4",
"n 	c #80ACF4",
"o 	c #6791DB",
"p 	c #72A0F2",
"q 	c #74A2F2",
"r 	c #77A5F3",
"s 	c #79A7F3",
"t 	c #7CAAF4",
"u 	c #7EACF4",
"v 	c #81AEF5",
"w 	c #83B0F5",
"x 	c #84B2F5",
"y 	c #86B3F6",
"z 	c #87B4F6",
"A 	c #86B4F6",
"B 	c #7CA9F4",
"C 	c #5E89D4",
"D 	c #75A3F2",
"E 	c #78A5F2",
"F 	c #7BA8F3",
"G 	c #7DABF3",
"H 	c #80ADF4",
"I 	c #85B2F5",
"J 	c #87B4F5",
"K 	c #89B6F6",
"L 	c #8AB7F6",
"M 	c #8CB8F6",
"N 	c #8CB9F6",
"O 	c #82AFF4",
"P 	c #7DAAF3",
"Q 	c #7AA8F3",
"R 	c #5580CC",
"S 	c #76A3F3",
"T 	c #78A5F3",
"U 	c #7BA8F4",
"V 	c #7EAAF4",
"W 	c #81ADF5",
"X 	c #84B0F5",
"Y 	c #87B3F6",
"Z 	c #89B5F6",
"` 	c #8EB9F7",
" .	c #90BBF7",
"..	c #91BCF7",
"+.	c #92BDF8",
"@.	c #8BB7F6",
"#.	c #86B2F6",
"$.	c #4D78C5",
"%.	c #7AA6F3",
"&.	c #7DA9F3",
"*.	c #86B1F5",
"=.	c #98AED2",
"-.	c #9DAECA",
";.	c #9FB0CC",
">.	c #A1B2CE",
",.	c #A3B4CF",
"'.	c #A4B5D0",
").	c #99B1D9",
"!.	c #8EB9F6",
"~.	c #4068AD",
"{.	c #7AA0E3",
"].	c #7BA1E3",
"^.	c #7EA4E4",
"/.	c #81A7E5",
"(.	c #84AAE7",
"_.	c #87ADE8",
":.	c #8AB0E9",
"<.	c #8DB2EA",
"[.	c #9BAAC3",
"}.	c #F6F9FD",
"|.	c #F7FAFD",
"1.	c #F8FAFD",
"2.	c #9DADC6",
"3.	c #90B5EB",
"4.	c #8AAFE9",
"5.	c #87ACE8",
"6.	c #84A9E7",
"7.	c #7EA3E4",
"8.	c #32538F",
"9.	c #7998CF",
"0.	c #7A99CF",
"a.	c #7D9CD2",
"b.	c #819FD4",
"c.	c #84A3D6",
"d.	c #87A5D8",
"e.	c #8AA9DA",
"f.	c #8DABDB",
"g.	c #9BA8BD",
"h.	c #F6F9FB",
"i.	c #F7F9FC",
"j.	c #F7FAFC",
"k.	c #F8FAFC",
"l.	c #F8FBFC",
"m.	c #9EABC0",
"n.	c #90AEDE",
"o.	c #8DABDC",
"p.	c #8AA8DA",
"q.	c #83A2D5",
"r.	c #809FD3",
"s.	c #7D9CD1",
"t.	c #31538E",
"u.	c #85A3D7",
"v.	c #86A4D7",
"w.	c #89A7D9",
"x.	c #8DAADB",
"y.	c #90ADDD",
"z.	c #93B0DE",
"A.	c #97B3E0",
"B.	c #9AB6E2",
"C.	c #A1ADC0",
"D.	c #F9FAFD",
"E.	c #F9FBFD",
"F.	c #FAFBFD",
"G.	c #A3AFC3",
"H.	c #9CB9E4",
"I.	c #99B6E3",
"J.	c #96B3E1",
"K.	c #93B0DF",
"L.	c #8CAADB",
"M.	c #31538F",
"N.	c #92AEDF",
"O.	c #93AFDF",
"P.	c #96B2E1",
"Q.	c #99B4E2",
"R.	c #9DB7E4",
"S.	c #A0BAE5",
"T.	c #A3BDE6",
"U.	c #A6BFE8",
"V.	c #A5B5CE",
"W.	c #A8B3C6",
"X.	c #ABB6C9",
"Y.	c #AFB9CC",
"Z.	c #B2BCCE",
"`.	c #B4BED0",
" +	c #B1BCCE",
".+	c #AEB8CB",
"++	c #A8B8D1",
"@+	c #A9C2E9",
"#+	c #A5BFE8",
"$+	c #A2BCE6",
"%+	c #9FBAE5",
"&+	c #9CB7E4",
"*+	c #9EB8E6",
"=+	c #9FB9E6",
"-+	c #A2BBE7",
";+	c #A5BEE8",
">+	c #A8C0E9",
",+	c #ABC3EB",
"'+	c #AEC5EC",
")+	c #B1C8ED",
"!+	c #B4CAEE",
"~+	c #B7CDEF",
"{+	c #B9CFF0",
"]+	c #BCD1F1",
"^+	c #BED3F2",
"/+	c #BFD4F2",
"(+	c #B6CDEF",
"_+	c #B0C8ED",
":+	c #ABC3EA",
"<+	c #A1BBE7",
"[+	c #30528D",
"}+	c #AAC2EC",
"|+	c #ADC4ED",
"1+	c #B0C7EE",
"2+	c #B2C9EE",
"3+	c #B5CBEF",
"4+	c #B8CDF0",
"5+	c #BAD0F1",
"6+	c #BDD2F2",
"7+	c #BFD4F3",
"8+	c #C2D6F3",
"9+	c #C4D7F4",
"0+	c #C5D9F5",
"a+	c #C6D9F5",
"b+	c #C1D5F3",
"c+	c #BACFF1",
"d+	c #AFC6ED",
"e+	c #30518B",
"f+	c #9EB7E4",
"g+	c #B6CBF1",
"h+	c #B8CDF1",
"i+	c #BBCFF2",
"j+	c #BDD1F2",
"k+	c #BFD2F3",
"l+	c #C2D4F4",
"m+	c #C4D6F4",
"n+	c #C6D8F5",
"o+	c #C8DAF5",
"p+	c #CADBF6",
"q+	c #CCDCF6",
"r+	c #CDDEF7",
"s+	c #CEDEF7",
"t+	c #CDDDF7",
"u+	c #C8D9F5",
"v+	c #BDD0F2",
"w+	c #BACEF2",
"x+	c #A0B9E5",
"y+	c #365A9B",
"z+	c #6A89BF",
"A+	c #BDD2F5",
"B+	c #BED3F5",
"C+	c #C0D4F5",
"D+	c #C2D6F6",
"E+	c #C5D8F6",
"F+	c #C7D9F7",
"G+	c #C9DBF7",
"H+	c #CBDDF8",
"I+	c #CCDEF8",
"J+	c #CEDFF8",
"K+	c #CFE0F8",
"L+	c #D0E1F9",
"M+	c #D1E1F9",
"N+	c #CADCF7",
"O+	c #C4D8F6",
"P+	c #6B8AC0",
"Q+	c #4473C5",
"R+	c #315189",
"S+	c #5B7EBA",
"T+	c #85A8E4",
"U+	c #9CBCF4",
"V+	c #9EBEF5",
"W+	c #A1C0F5",
"X+	c #A3C2F6",
"Y+	c #A6C5F6",
"Z+	c #A8C6F6",
"`+	c #AAC8F7",
" @	c #ACC9F7",
".@	c #ADCBF7",
"+@	c #AECBF8",
"@@	c #AECCF8",
"#@	c #AFCCF8",
"$@	c #ADCAF7",
"%@	c #ABC9F7",
"&@	c #A6C4F6",
"*@	c #8AADE6",
"=@	c #5D81BC",
"-@	c #588FEE",
";@	c #4A77C7",
">@	c #395C99",
",@	c #314F84",
"'@	c #9EBDF5",
")@	c #9CBCF5",
"!@	c #9BBAF5",
"~@	c #99B9F5",
"{@	c #97B8F4",
"]@	c #97B7F4",
"^@	c #96B7F4",
"/@	c #95B6F4",
"(@	c #98B8F5",
"_@	c #9BBBF5",
":@	c #9DBCF5",
"<@	c #90B4F4",
"[@	c #8DB2F4",
"}@	c #8BB0F4",
"|@	c #89AEF3",
"1@	c #87ADF3",
"2@	c #86ACF3",
"3@	c #85ABF2",
"4@	c #84AAF2",
"5@	c #8BB0F3",
"6@	c #8FB3F4",
"7@	c #86ADF3",
"8@	c #83ABF3",
"9@	c #81A9F3",
"0@	c #7EA6F2",
"a@	c #7CA4F2",
"b@	c #7AA3F1",
"c@	c #78A1F1",
"d@	c #77A0F1",
"e@	c #769FF1",
"f@	c #759FF1",
"g@	c #759EF0",
"h@	c #79A2F1",
"i@	c #7CA5F2",
"j@	c #7FA7F2",
"k@	c #84ABF3",
"l@	c #78A4F2",
"m@	c #75A1F2",
"n@	c #729FF1",
"o@	c #6F9CF1",
"p@	c #6D9AF0",
"q@	c #6B98F0",
"r@	c #6997EF",
"s@	c #6795EF",
"t@	c #6694EF",
"u@	c #6593EF",
"v@	c #6895EF",
"w@	c #6997F0",
"x@	c #6B99F0",
"y@	c #6D9BF0",
"z@	c #709DF1",
"A@	c #739FF1",
"B@	c #76A2F2",
"C@	c #709EF1",
"D@	c #6D9BF1",
"E@	c #6A98F0",
"F@	c #6493EF",
"G@	c #6290EE",
"H@	c #5F8EEE",
"I@	c #5D8CEE",
"J@	c #5B8AED",
"K@	c #5A89ED",
"L@	c #5988ED",
"M@	c #5C8BED",
"N@	c #6291EF",
"O@	c #6896F0",
"P@	c #6E9CF1",
"Q@	c #719FF1",
"R@	c #6493EE",
"S@	c #6190EE",
"T@	c #5E8EED",
"U@	c #5C8CED",
"V@	c #5A8AED",
"W@	c #5988EC",
"X@	c #5887EC",
"Y@	c #5787EC",
"Z@	c #5888EC",
"`@	c #5989EC",
" #	c #5D8CED",
".#	c #5F8FEE",
"+#	c #6291EE",
"@#	c #6796EF",
"##	c #6E9CF0",
"$#	c #74A1F2",
"%#	c #719EF2",
"&#	c #6A98F1",
"*#	c #6795F0",
"=#	c #6492EF",
"-#	c #618FEF",
";#	c #5E8CEE",
">#	c #5B8AEE",
",#	c #5988EE",
"'#	c #5786ED",
")#	c #5685ED",
"!#	c #5887ED",
"~#	c #5A88EE",
"{#	c #5C8AEE",
"]#	c #5F8DEE",
"^#	c #6190EF",
"/#	c #6493F0",
"(#	c #6B99F1",
"_#	c #729FF2",
":#	c #75A2F2",
"<#	c #77A3F2",
"[#	c #73A0F1",
"}#	c #6C9AF0",
"|#	c #6880AF",
"1#	c #677A9E",
"2#	c #65789C",
"3#	c #62759A",
"4#	c #617499",
"5#	c #617498",
"6#	c #63769A",
"7#	c #687B9E",
"8#	c #6882B7",
"9#	c #6391EF",
"0#	c #6A97F0",
"a#	c #719EF1",
"b#	c #769CE1",
"c#	c #7299E0",
"d#	c #6F96DE",
"e#	c #6B92DD",
"f#	c #688FDC",
"g#	c #648CDA",
"h#	c #6188D9",
"i#	c #677896",
"j#	c #ECF1FA",
"k#	c #EBF1FA",
"l#	c #EBF0FA",
"m#	c #EAF0FA",
"n#	c #687998",
"o#	c #6289D9",
"p#	c #658CDB",
"q#	c #6990DC",
"r#	c #6C93DD",
"s#	c #7096DF",
"t#	c #739AE0",
"u#	c #779DE2",
"v#	c #7897CE",
"w#	c #7594CC",
"x#	c #7190CA",
"y#	c #6D8DC8",
"z#	c #6A89C5",
"A#	c #6686C3",
"B#	c #6282C1",
"C#	c #5F7FBF",
"D#	c #66748C",
"E#	c #EBEFF7",
"F#	c #EAEEF6",
"G#	c #E9EEF6",
"H#	c #ECF0F7",
"I#	c #67758E",
"J#	c #6080C1",
"K#	c #6383C3",
"L#	c #6787C5",
"M#	c #6A8AC7",
"N#	c #6E8EC8",
"O#	c #7291CB",
"P#	c #7595CD",
"Q#	c #84A2D6",
"R#	c #809FD4",
"S#	c #7D9BD2",
"T#	c #7998D0",
"U#	c #7594CE",
"V#	c #7191CC",
"W#	c #6E8ECB",
"X#	c #6A8AC9",
"Y#	c #6B788F",
"Z#	c #EDF1F8",
"`#	c #ECF0F8",
" $	c #EBF0F8",
".$	c #EBEFF8",
"+$	c #EAEFF8",
"@$	c #6C7991",
"#$	c #6B8BCB",
"$$	c #6F8FCC",
"%$	c #7292CE",
"&$	c #7696D0",
"*$	c #7A99D1",
"=$	c #7E9CD3",
"-$	c #819FD5",
";$	c #91ADDE",
">$	c #8EAADD",
",$	c #8AA7DB",
"'$	c #86A4D9",
")$	c #83A1D8",
"!$	c #7F9DD6",
"~$	c #7C9AD5",
"{$	c #7897D3",
"]$	c #7083A5",
"^$	c #6D7991",
"/$	c #69758E",
"($	c #65728B",
"_$	c #626F88",
":$	c #616D87",
"<$	c #636F88",
"[$	c #66738B",
"}$	c #6A768E",
"|$	c #7183A5",
"1$	c #7998D4",
"2$	c #7D9BD5",
"3$	c #809ED7",
"4$	c #84A1D8",
"5$	c #88A5DA",
"6$	c #8BA8DC",
"7$	c #8FABDD",
"8$	c #9AB5E4",
"9$	c #97B2E3",
"0$	c #93AFE2",
"a$	c #90ACE0",
"b$	c #8CA9DF",
"c$	c #89A6DE",
"d$	c #86A4DC",
"e$	c #82A1DB",
"f$	c #7F9EDA",
"g$	c #7C9BD9",
"h$	c #7999D8",
"i$	c #7797D7",
"j$	c #7898D7",
"k$	c #7A99D8",
"l$	c #7D9CD9",
"m$	c #809FDA",
"n$	c #83A1DB",
"o$	c #87A4DD",
"p$	c #8AA7DE",
"q$	c #8DAADF",
"r$	c #91ADE1",
"s$	c #94B0E2",
"t$	c #98B3E3",
"u$	c #9BB6E5",
"v$	c #A7C0EB",
"w$	c #A4BDEA",
"x$	c #A1BAE9",
"y$	c #9DB8E8",
"z$	c #9AB5E7",
"A$	c #97B3E6",
"B$	c #94B0E5",
"C$	c #91AEE4",
"D$	c #8EACE3",
"E$	c #8CAAE2",
"F$	c #8AA8E1",
"G$	c #88A7E1",
"H$	c #88A6E1",
"I$	c #8AA8E2",
"J$	c #8FACE3",
"K$	c #92AEE4",
"L$	c #95B1E5",
"M$	c #98B3E6",
"N$	c #9BB6E7",
"O$	c #9EB8E8",
"P$	c #A1BBE9",
"Q$	c #A5BEEA",
"R$	c #A8C0EB",
"S$	c #B4C9F0",
"T$	c #B1C7EF",
"U$	c #AEC5EF",
"V$	c #ACC3EE",
"W$	c #A9C0ED",
"X$	c #A6BEED",
"Y$	c #A4BCEC",
"Z$	c #A1BAEB",
"`$	c #9FB8EB",
" %	c #9DB7EA",
".%	c #9BB6EA",
"+%	c #9AB5EA",
"@%	c #9CB6EA",
"#%	c #9FB9EB",
"$%	c #A2BBEC",
"%%	c #A4BDEC",
"&%	c #A7BFED",
"*%	c #A9C1ED",
"=%	c #AFC5EF",
"-%	c #B2C7F0",
";%	c #9DB6E3",
">%	c #BCD1F4",
",%	c #B9CFF4",
"'%	c #B7CDF3",
")%	c #B4CBF3",
"!%	c #B2CAF2",
"~%	c #AFC8F2",
"{%	c #ADC6F1",
"]%	c #ABC4F1",
"^%	c #A9C3F1",
"/%	c #A8C2F0",
"(%	c #A6C1F0",
"_%	c #A5C0F0",
":%	c #A6C0F0",
"<%	c #AAC3F1",
"[%	c #ACC5F1",
"}%	c #AEC6F1",
"|%	c #B0C8F2",
"1%	c #B3CAF2",
"2%	c #B5CCF3",
"3%	c #B7CEF3",
"4%	c #BAD0F4",
"5%	c #82A5E3",
"6%	c #93B5F3",
"7%	c #90B2F2",
"8%	c #8DB0F1",
"9%	c #8AAEF1",
"0%	c #88ACF0",
"a%	c #85AAF0",
"b%	c #83A8F0",
"c%	c #81A6EF",
"d%	c #80A6EF",
"e%	c #7FA5EF",
"f%	c #82A7EF",
"g%	c #84A8F0",
"h%	c #86AAF0",
"i%	c #88ACF1",
"j%	c #8BAEF1",
"k%	c #8EB1F2",
"l%	c #91B3F2",
"m%	c #7FA3E2",
"n%	c #597CB8",
". . . . . . . + @ # $ % & * * * * & % $ # @ + . . . . . ",
"= - - - - - ; > , ' ) ! ~ { ] ] { { ! ^ ) / ( _ ; ; ; : ",
"< [ [ [ [ } | 1 2 3 4 5 6 7 8 8 7 6 5 4 3 9 1 | } [ [ < ",
"0 a a a b c d e f g h i j k l l k j i h g f m n c a a 0 ",
"o p p p q r s t u v w x y z z z A y x w v u B s r q p o ",
"C q q D E F G H w I J K L M N N M L K J I O H P Q E D C ",
"R S S T U V W X Y Z k `  ...+.+... .` @.Z #.X W V F T R ",
"$.%.%.&.n e *.h k =.-.;.>.,.'.'.,.>.;.).!.j h *.m n &.$.",
"~.{.].^./.(._.:.<.[.}.|.|.|.1.1.|.|.|.2.3.<.4.5.6./.7.~.",
"8.9.0.a.b.c.d.e.f.g.h.i.j.k.l.l.k.j.i.m.n.o.p.d.q.r.s.8.",
"t.u.v.w.x.y.z.A.B.C.i.1.D.E.F.F.E.D.1.G.H.I.J.K.y.L.w.t.",
"M.N.O.P.Q.R.S.T.U.V.W.X.Y.Z.`.`. +.+X.++@+#+$+%+&+Q.P.M.",
"t.*+=+-+;+>+,+'+)+!+~+{+]+^+/+/+^+]+{+(+!+_+'+:+>+;+<+t.",
"[+}+}+|+1+2+3+4+5+6+7+8+9+0+a+a+0+9+b+7+6+c+4+3+2+d+|+[+",
"e+f+g+h+i+j+k+l+m+n+o+p+q+r+s+s+t+q+p+u+n+m+l+k+v+w+x+e+",
"y+z+A+B+C+D+E+F+G+H+I+J+K+L+M+M+L+K+J+I+N+G+F+O+D+C+P+y+",
"Q+R+S+T+U+V+W+X+Y+Z+`+ @.@+@@@#@+@$@%@`+Z+&@X+W+*@=@R+Q+",
"-@;@>@,@,@,@,@,@,@,@,@,@,@,@,@,@,@,@,@,@,@,@,@,@,@>@;@-@",
". . . . . . '@)@!@~@{@]@^@/@/@/@^@]@(@~@_@:@. . . . . . ",
"= - - - - <@[@}@|@1@2@2@3@4@4@4@3@2@1@|@5@[@6@; ; ; ; : ",
"< [ [ [ 7@8@9@0@a@b@c@d@e@f@g@f@e@d@h@b@i@j@9@k@[ [ [ < ",
"0 a a a l@m@n@o@p@q@r@s@t@u@u@t@s@v@w@x@y@z@A@B@E a a 0 ",
"o p p C@D@E@s@F@G@H@I@J@K@L@L@L@K@M@I@H@N@u@O@x@P@Q@p o ",
"C q q C@y@E@s@R@S@T@U@V@W@X@Y@Z@`@J@ #.#+#F@@#x@##Q@q C ",
"R S $#%#D@&#*#=#-#;#>#,#'#)#)#)#!#~#{#]#^#/#O@(#P@_#:#R ",
"$.%.<#[#z@}#w@t@N@|#1#2#3#4#5#4#6#2#7#8#9#t@0#p@a#$#l@$.",
"~.{.b#c#d#e#f#g#h#i#j#k#l#m#m#m#l#k#j#n#o#p#q#r#s#t#u#~.",
"8.v#w#x#y#z#A#B#C#D#E#E#F#F#G#F#F#E#H#I#J#K#L#M#N#O#P#8.",
"t.Q#R#S#T#U#V#W#X#Y#Z#`# $.$+$.$`#`#Z#@$#$$$%$&$*$=$-$t.",
"M.;$>$,$'$)$!$~${$]$^$/$($_$:$<$[$}$^$|$1$2$3$4$5$6$7$M.",
"t.*+8$9$0$a$b$c$d$e$f$g$h$i$i$j$k$l$m$n$o$p$q$r$s$t$u$t.",
"[+}+v$w$x$y$z$A$B$C$D$E$F$G$H$G$I$E$J$K$L$M$N$O$P$Q$R$[+",
"e+f+S$T$U$V$W$X$Y$Z$`$ %.%+%+%+%@% %#%$%%%&%*%V$=%-%;%e+",
"y+z+>%,%'%)%!%~%{%]%^%/%(%_%_%:%(%/%<%[%}%|%1%2%3%4%z+y+",
"Q+R+S+5%6%7%8%9%0%a%b%c%d%e%e%e%d%f%g%h%i%j%k%l%m%n%R+Q+",
"-@;@>@,@,@,@,@,@,@,@,@,@,@,@,@,@,@,@,@,@,@,@,@,@,@>@;@-@"};
