/* XPM */
static char * workspacebuttonactive_xpm[] = {
"1 32 4 1",
" 	c None",
".	c #151A1E",
"+	c #474747",
"@	c #9A9A9A",
".",
".",
"+",
"+",
"+",
"+",
"+",
"+",
"+",
"+",
"+",
"+",
"+",
"+",
"+",
"+",
"+",
"+",
"+",
"+",
"+",
"+",
"+",
"+",
"+",
"+",
"+",
"+",
"@",
"@",
".",
"."};
