/* XPM */
static char * n1_xpm[] = {
"10 21 13 1",
" 	c None",
".	c #191919",
"+	c #161616",
"@	c #121212",
"#	c #0D0D0D",
"$	c #0B0B0B",
"%	c #101010",
"&	c #7C7C7C",
"*	c #D8D8D8",
"=	c #DBDBDB",
"-	c #BBBBBB",
";	c #929292",
">	c #4C4C4C",
"..........",
"++++++++++",
"@@@@@@@@@@",
"##########",
"$$$$$$$$$$",
"$$%&*=$$$$",
"$$-;==$$$$",
"$$>$==$$$$",
"$$$$==$$$$",
"$$$$==$$$$",
"$$$$==$$$$",
"$$$$==$$$$",
"$$$$==$$$$",
"$$$$==$$$$",
"$$======$$",
"$$$$$$$$$$",
"$$$$$$$$$$",
"$$$$$$$$$$",
"$$$$$$$$$$",
"$$$$$$$$$$",
"$$$$$$$$$$"};
