/* XPM */
static char * n4_xpm[] = {
"10 21 22 1",
" 	c None",
".	c #191919",
"+	c #161616",
"@	c #121212",
"#	c #0D0D0D",
"$	c #0B0B0B",
"%	c #C3C3C3",
"&	c #DBDBDB",
"*	c #959595",
"=	c #7B7B7B",
"-	c #575757",
";	c #B5B5B5",
">	c #0F0F0F",
",	c #232323",
"'	c #C8C8C8",
")	c #303030",
"!	c #0C0C0C",
"~	c #A6A6A6",
"{	c #6A6A6A",
"]	c #696969",
"^	c #A9A9A9",
"/	c #D4D4D4",
"..........",
"++++++++++",
"@@@@@@@@@@",
"##########",
"$$$$$$$$$$",
"$$$$.%&&$$",
"$$$$*=&&$$",
"$$$-;>&&$$",
"$$,')$&&$$",
"$!~{$$&&$$",
"$]^!$$&&$$",
"$/&&&&&&&&",
"$$$$$$&&$$",
"$$$$$$&&$$",
"$$$$&&&&&&",
"$$$$$$$$$$",
"$$$$$$$$$$",
"$$$$$$$$$$",
"$$$$$$$$$$",
"$$$$$$$$$$",
"$$$$$$$$$$"};
