/* XPM */
static char * n7_xpm[] = {
"10 20 29 1",
" 	c None",
".	c #1A1A1A",
"+	c #232323",
"@	c #FFFFFF",
"#	c #686868",
"$	c #222222",
"%	c #E2E2E2",
"&	c #F7F7F7",
"*	c #242424",
"=	c #F0F0F0",
"-	c #F9F9F9",
";	c #2F2F2F",
">	c #7E7E7E",
",	c #ABABAB",
"'	c #1C1C1C",
")	c #E3E3E3",
"!	c #474747",
"~	c #C9C9C9",
"{	c #D0D0D0",
"]	c #656565",
"^	c #525252",
"/	c #E4E4E4",
"(	c #BABABA",
"_	c #838383",
":	c #3D3D3D",
"<	c #F5F5F5",
"[	c #292929",
"}	c #A4A4A4",
"|	c #A1A1A1",
"..........",
"..........",
"..........",
"..........",
"..........",
".+@@@@@@#.",
".$%%%%&@#.",
".....*=-;.",
".....>@,..",
"....')@!..",
"....#@~...",
"....{@]...",
"...^@/'...",
"...(@_....",
"..:@<[....",
"..}@|.....",
"..........",
"..........",
"..........",
".........."};
