/* XPM */
static char * n8_xpm[] = {
"10 20 47 1",
" 	c None",
".	c #1A1A1A",
"+	c #1F1F1F",
"@	c #949494",
"#	c #E7E7E7",
"$	c #EAEAEA",
"%	c #9F9F9F",
"&	c #232323",
"*	c #FFFFFF",
"=	c #F8F8F8",
"-	c #F6F6F6",
";	c #A1A1A1",
">	c #E4E4E4",
",	c #434343",
"'	c #3B3B3B",
")	c #EDEDED",
"!	c #DCDCDC",
"~	c #626262",
"{	c #5C5C5C",
"]	c #E1E1E1",
"^	c #6C6C6C",
"/	c #3D3D3D",
"(	c #DBDBDB",
"_	c #EFEFEF",
":	c #EEEEEE",
"<	c #E0E0E0",
"[	c #404040",
"}	c #C4C4C4",
"|	c #8B8B8B",
"1	c #1B1B1B",
"2	c #8C8C8C",
"3	c #C5C5C5",
"4	c #ECECEC",
"5	c #262626",
"6	c #272727",
"7	c #EBEBEB",
"8	c #C2C2C2",
"9	c #868686",
"0	c #848484",
"a	c #C1C1C1",
"b	c #474747",
"c	c #F9F9F9",
"d	c #FAFAFA",
"e	c #484848",
"f	c #BABABA",
"g	c #BCBCBC",
"h	c #454545",
"..........",
"..........",
"..........",
"..........",
"..........",
"..+@#$%&..",
"..@*=-*;..",
"..>*,'*)..",
"..!*~{*]..",
"..~****^..",
"./(*_:*<[.",
".}*|112*3.",
".4*5..6*7.",
".8*9110*a.",
".bc*7$*de.",
"..,f74gh..",
"..........",
"..........",
"..........",
".........."};
