/* XPM */
static char * percent_xpm[] = {
"10 20 38 1",
" 	c None",
".	c #1A1A1A",
"+	c #787878",
"@	c #ECECEC",
"#	c #EAEAEA",
"$	c #747474",
"%	c #CDCDCD",
"&	c #393939",
"*	c #F1F1F1",
"=	c #7E7E7E",
"-	c #808080",
";	c #EFEFEF",
">	c #535353",
",	c #BBBBBB",
"'	c #909090",
")	c #FFFFFF",
"!	c #BCBCBC",
"~	c #595959",
"{	c #2B2B2B",
"]	c #2A2A2A",
"^	c #404040",
"/	c #DCDCDC",
"(	c #1C1C1C",
"_	c #313131",
":	c #1B1B1B",
"<	c #A9A9A9",
"[	c #7F7F7F",
"}	c #C4C4C4",
"|	c #C2C2C2",
"1	c #EEEEEE",
"2	c #3F3F3F",
"3	c #676767",
"4	c #303030",
"5	c #959595",
"6	c #A0A0A0",
"7	c #A8A8A8",
"8	c #F5F5F5",
"9	c #A7A7A7",
"..........",
"..........",
"..........",
"..........",
"..........",
"..........",
".+@#$.%&..",
".*=-;>,...",
".'))'!~...",
"..{]^/(_:.",
"....<[})|:",
"..._12)3)4",
"...56.789.",
"..........",
"..........",
"..........",
"..........",
"..........",
"..........",
".........."};
