/* XPM */
static char * windows_xpm[] = {
"20 20 77 1",
" 	c None",
".	c #D54A3A",
"+	c #E1695B",
"@	c #E16F61",
"#	c #E47565",
"$	c #E47766",
"%	c #E47867",
"&	c #E37565",
"*	c #E37365",
"=	c #E16E60",
"-	c #E0675A",
";	c #D85246",
">	c #F1AAA1",
",	c #EF988C",
"'	c #F6AD9C",
")	c #ED9388",
"!	c #F0A59E",
"~	c #D04A3F",
"{	c #E97E72",
"]	c #E76857",
"^	c #EF8069",
"/	c #E46051",
"(	c #E7796F",
"_	c #D0493F",
":	c #CA423A",
"<	c #E66D62",
"[	c #E76D5F",
"}	c #EC7E6B",
"|	c #E4685A",
"1	c #E46A5F",
"2	c #CA4239",
"3	c #C43933",
"4	c #D25954",
"5	c #D05049",
"6	c #D1544E",
"7	c #D1544D",
"8	c #CF4F49",
"9	c #D25853",
"0	c #C43833",
"a	c #9D7A7A",
"b	c #D1B2B2",
"c	c #CFADAD",
"d	c #9D9D9D",
"e	c #E8E8E8",
"f	c #E7E7E7",
"g	c #A3A3A3",
"h	c #DADADA",
"i	c #DCDCDC",
"j	c #A0A0A0",
"k	c #D2D2D2",
"l	c #E6E6E6",
"m	c #D4D4D4",
"n	c #9E9E9E",
"o	c #D1D1D1",
"p	c #E5E5E5",
"q	c #D3D3D3",
"r	c #999999",
"s	c #D7D7D7",
"t	c #989898",
"u	c #D5D5D5",
"v	c #E4E4E4",
"w	c #D8D8D8",
"x	c #959595",
"y	c #E3E3E3",
"z	c #D6D6D6",
"A	c #939393",
"B	c #E2E2E2",
"C	c #909090",
"D	c #D0D0D0",
"E	c #E1E1E1",
"F	c #8C8C8C",
"G	c #DFDFDF",
"H	c #E0E0E0",
"I	c #888888",
"J	c #828282",
"K	c #7D7D7D",
"L	c #7F7F7F",
"                    ",
"                    ",
" .+@####$%$&*###=-. ",
" ;>,'''''''''''')!; ",
" ~{]^^^^^^^^^^^^/(_ ",
" :<[}}}}}}}}}}}}|12 ",
" 345677777777777890 ",
" abccccccccccccccba ",
" deffffffffffffffed ",
" ghffffffffffffffig ",
" jkllllllllllllllmj ",
" noppppppppppppppqn ",
" rspppppppppppppphr ",
" tuvvvvvvvvvvvvvvwt ",
" xqyyyyyyyyyyyyyyzx ",
" AkBBBBBBBBBBBBBBmA ",
" CDEEEEEEEEEEEEEEqC ",
" FGHHHHHHHHHHHHHHHF ",
" IBBBBBBBBBBBBBBBBI ",
" JKLLLLLLLLLLLLLLKJ "};
