/* XPM */
static char * n0_xpm[] = {
"10 21 37 1",
" 	c None",
".	c #191919",
"+	c #161616",
"@	c #121212",
"#	c #0D0D0D",
"$	c #0B0B0B",
"%	c #313131",
"&	c #A2A2A2",
"*	c #D2D2D2",
"=	c #252525",
"-	c #D0D0D0",
";	c #929292",
">	c #1C1C1C",
",	c #949494",
"'	c #CECECE",
")	c #888888",
"!	c #DBDBDB",
"~	c #2D2D2D",
"{	c #2F2F2F",
"]	c #BFBFBF",
"^	c #131313",
"/	c #151515",
"(	c #BDBDBD",
"_	c #D6D6D6",
":	c #0C0C0C",
"<	c #D4D4D4",
"[	c #C0C0C0",
"}	c #141414",
"|	c #2C2C2C",
"1	c #272727",
"2	c #D1D1D1",
"3	c #909090",
"4	c #1B1B1B",
"5	c #919191",
"6	c #262626",
"7	c #333333",
"8	c #A3A3A3",
"..........",
"++++++++++",
"@@@@@@@@@@",
"##########",
"$$$$$$$$$$",
"$$%&**&%$$",
"$=-;>>,'=$",
"$)!~$${!)$",
"$]!^$$/!($",
"$_!:$$#!<$",
"$_!:$$#!<$",
"$[!^$$}!($",
"$)!|$${!)$",
"$12344526$",
"$$78**87$$",
"$$$$$$$$$$",
"$$$$$$$$$$",
"$$$$$$$$$$",
"$$$$$$$$$$",
"$$$$$$$$$$",
"$$$$$$$$$$"};
