/* XPM */
static char * mail_xpm[] = {
"16 16 3 1",
" 	c None",
".	c #09243C",
"+	c #FFFFFF",
"                ",
"                ",
"                ",
"                ",
"  ............  ",
"  ..++++++++..  ",
"  .+.++++++.+.  ",
"  .++.++++.++.  ",
"  .+.+.++.+.+.  ",
"  ..+++..+++..  ",
"  .++++++++++.  ",
"  ............  ",
"                ",
"                ",
"                ",
"                "};
