/* XPM */
static char * collapse_xpm[] = {
"9 19 16 1",
" 	c None",
".	c #1D3C5A",
"+	c #7D9CBA",
"@	c #5D86AC",
"#	c #436D94",
"$	c #3F678C",
"%	c #32587B",
"&	c #FFFFFF",
"*	c #355D82",
"=	c #3D678E",
"-	c #4A749B",
";	c #6386A6",
">	c #7D9FBF",
",	c #91B7DB",
"'	c #9DC6ED",
")	c #A4D0F8",
"         ",
"         ",
"  .....  ",
" .+++++. ",
".@@@@@@@.",
".#######.",
".$$.$$$$.",
".%.&.%%%.",
".**.&.**.",
".===.&.=.",
".###.&.#.",
".--.&.--.",
".;.&.;;;.",
".>>.>>>>.",
".,,,,,,,.",
".'''''''.",
" .))))). ",
"  .....  ",
"         "};
