/* XPM */
static char * closeI_xpm[] = {
"26 50 55 1",
" 	c None",
".	c #ECECEC",
"+	c #EBEBEB",
"@	c #E6E6E6",
"#	c #CBCBCB",
"$	c #8B8B8B",
"%	c #858585",
"&	c #C7C7C7",
"*	c #898989",
"=	c #A0A0A0",
"-	c #BCBCBC",
";	c #C5C5C5",
">	c #BBBBBB",
",	c #949494",
"'	c #B2B2B2",
")	c #C8C8C8",
"!	c #D1D1D1",
"~	c #D5D5D5",
"{	c #8A8A8A",
"]	c #D0D0D0",
"^	c #D8D8D8",
"/	c #D4D4D4",
"(	c #D3D3D3",
"_	c #CACACA",
":	c #A1A1A1",
"<	c #C6C6C6",
"[	c #D6D6D6",
"}	c #848484",
"|	c #B3B3B3",
"1	c #868686",
"2	c #B1B1B1",
"3	c #B9B9B9",
"4	c #8E8E8E",
"5	c #A2A2A2",
"6	c #BDBDBD",
"7	c #8D8D8D",
"8	c #989898",
"9	c #C9C9C9",
"0	c #D2D2D2",
"a	c #D7D7D7",
"b	c #B0B0B0",
"c	c #A3A3A3",
"d	c #C3C3C3",
"e	c #CECECE",
"f	c #CFCFCF",
"g	c #B5B5B5",
"h	c #B4B4B4",
"i	c #8F8F8F",
"j	c #AFAFAF",
"k	c #878787",
"l	c #B6B6B6",
"m	c #C4C4C4",
"n	c #D9D9D9",
"o	c #B8B8B8",
"p	c #BABABA",
"..........................",
"..........................",
"..........................",
"...........+..............",
"..........................",
"..........................",
".........@#$%%$#@.........",
"........&*=-;;>=*&........",
".......&,')!~~!)',).......",
"......@{']^/((/^]'*@......",
"......_:)^((((((^)=#......",
"......{-!/((((((/!>$......",
"......%<~((((((((~;%......",
"......%&[((((((((~;}......",
"......{-!/((((((/!>{......",
"......_:)^((((((^)=_......",
"......@{|]^/((/^]'{@......",
".......&,|)![[!)',).......",
"........&{:-<<-:{&........",
".........@_{}}{_@.........",
"..........................",
"..........................",
"..........................",
"..........................",
"..........................",
"..........................",
"..........................",
"..........................",
"..........................",
"..........................",
"..........................",
".........^'$11$2^.........",
"........3456;;6:73........",
".......38'9(~~0)'8>.......",
"......^4'!a(~~/^!'4^......",
"......bc9ad|efgda)=2......",
"......{6((|4bhi'00-$......",
"......1;~~f'%%je~~;k......",
"......1<[~]h%%|f~~;%......",
"......{6(/l4jji|((-{......",
"......bc9^m|ee'da952......",
"......^4|!a(~~0~!'4n......",
".......o8|9(aa(9'8p.......",
"........o4c6<<6c43........",
".........^2{%%{b^.........",
"..........................",
"..........................",
"..........................",
"..........................",
".........................."};
