/* XPM */
static char * minimizeO_xpm[] = {
"26 50 74 1",
" 	c None",
".	c #EDEDED",
"+	c #E5DCC1",
"@	c #D6B966",
"#	c #CB9F21",
"$	c #C49405",
"%	c #D7BA67",
"&	c #E5DCC2",
"*	c #D9BF79",
"=	c #D0A837",
"-	c #DCB853",
";	c #EDD181",
">	c #F3DC94",
",	c #DCB954",
"'	c #D9C07A",
")	c #D6AE41",
"!	c #E6C467",
"~	c #F7DE9B",
"{	c #FEE9B0",
"]	c #FFEEBA",
"^	c #E6C566",
"/	c #D6AF41",
"(	c #D9BF7B",
"_	c #E5DBC0",
":	c #D0A836",
"<	c #E7C467",
"[	c #FDE8AE",
"}	c #FFF0BD",
"|	c #FFECB6",
"1	c #FFEBB4",
"2	c #FDE8AD",
"3	c #E6C466",
"4	c #D6B964",
"5	c #DDB854",
"6	c #F7DF9B",
"7	c #FFF0BF",
"8	c #FFECB7",
"9	c #DCB953",
"0	c #CB9E1F",
"a	c #EED283",
"b	c #FEE9AF",
"c	c #FBE5A7",
"d	c #FBE5A8",
"e	c #CBA022",
"f	c #F4DC96",
"g	c #FFEBB3",
"h	c #F0D486",
"i	c #F5DB96",
"j	c #C59306",
"k	c #F4DC97",
"l	c #F0D485",
"m	c #FFEAB3",
"n	c #C59406",
"o	c #CB9F1F",
"p	c #EED284",
"q	c #FDE8AF",
"r	c #EED182",
"s	c #CC9F21",
"t	c #D6B963",
"u	c #DDBA55",
"v	c #F7DF9C",
"w	c #E5DBBF",
"x	c #CFA836",
"y	c #E6C667",
"z	c #FFEFBD",
"A	c #E6C567",
"B	c #D8BF78",
"C	c #D5AF41",
"D	c #FEE9B1",
"E	c #D6B042",
"F	c #F4DB95",
"G	c #F4DB96",
"H	c #C49204",
"I	c #CB9E20",
"..........................",
"..........................",
"..........................",
"..........................",
"..........................",
"..........................",
".........+@#$$#%&.........",
"........*=-;>>;,='........",
".......*)!~{]]{~^/(.......",
"......_:<[}|11|}23=&......",
"......4567888888769%......",
"......0ab[cddddc[[;e......",
"......$fgh======h1ij......",
"......$kgl======hmin......",
"......opb[cddddc[qrs......",
"......tuv788888876,@......",
"......wxy[z|11|z[A=+......",
".......BCyvD]]{6AE'.......",
"........BxupFGa5=*........",
".........wtoHHI4_.........",
"..........................",
"..........................",
"..........................",
"..........................",
"..........................",
"..........................",
"..........................",
"..........................",
"..........................",
"..........................",
"..........................",
".........+@#$$#%&.........",
"........*=-;>>;,='........",
".......*)!~{]]{~^/(.......",
"......_:<[}|11|}23=&......",
"......4567888888769%......",
"......0ab[cddddc[[;e......",
"......$fgh======h1ij......",
"......$kgl======hmin......",
"......opb[cddddc[qrs......",
"......tuv788888876,@......",
"......wxy[z|11|z[A=+......",
".......BCyvD]]{6AE'.......",
"........BxupFGa5=*........",
".........wtoHHI4_.........",
"..........................",
"..........................",
"..........................",
"..........................",
".........................."};
