/* XPM */
static char * minimizeA_xpm[] = {
"26 50 65 1",
" 	c None",
".	c #EDEDED",
"+	c #E5DCC1",
"@	c #D6B966",
"#	c #CB9F21",
"$	c #C49405",
"%	c #D7BA67",
"&	c #E5DCC2",
"*	c #D9BF79",
"=	c #D0A837",
"-	c #DCB853",
";	c #EDD181",
">	c #F3DC94",
",	c #DCB954",
"'	c #D9C07A",
")	c #D6AE41",
"!	c #E6C467",
"~	c #F7DE9B",
"{	c #FEE9B0",
"]	c #FFEEBA",
"^	c #E6C566",
"/	c #D6AF41",
"(	c #D9BF7B",
"_	c #E5DBC0",
":	c #D0A836",
"<	c #E7C467",
"[	c #FDE8AE",
"}	c #FFF0BD",
"|	c #FFECB6",
"1	c #FFEBB4",
"2	c #FDE8AD",
"3	c #E6C466",
"4	c #D6B964",
"5	c #DDB855",
"6	c #F7DF9B",
"7	c #F7DE9A",
"8	c #DCB953",
"9	c #CB9E1F",
"0	c #EED283",
"a	c #FEE9AF",
"b	c #CBA022",
"c	c #F4DC95",
"d	c #F4DB95",
"e	c #C59306",
"f	c #F4DC96",
"g	c #C59406",
"h	c #CB9F1F",
"i	c #EED284",
"j	c #FEE9B1",
"k	c #CC9F21",
"l	c #D6B963",
"m	c #DDBA55",
"n	c #F7DF9C",
"o	c #FFEFBD",
"p	c #E5DBBF",
"q	c #CFA836",
"r	c #E6C667",
"s	c #E6C567",
"t	c #D8BF78",
"u	c #D5AF41",
"v	c #D6B042",
"w	c #F4DB96",
"x	c #DDB854",
"y	c #C49204",
"z	c #CB9E20",
"..........................",
"..........................",
"..........................",
"..........................",
"..........................",
"..........................",
".........+@#$$#%&.........",
"........*=-;>>;,='........",
".......*)!~{]]{~^/(.......",
"......_:<[}|11|}23=&......",
"......456}111111}78%......",
"......90{|111111|a;b......",
"......$c]11111111]de......",
"......$f]11111111]dg......",
"......hij|111111|{;k......",
"......lmno111111o~,@......",
"......pqr[o|11|o[s=+......",
".......turnj]]{6sv'.......",
"........tqmidw0x=*........",
".........plhyyz4_.........",
"..........................",
"..........................",
"..........................",
"..........................",
"..........................",
"..........................",
"..........................",
"..........................",
"..........................",
"..........................",
"..........................",
"..........................",
".........+@#$$#%&.........",
"........*=-;>>;,='........",
".......*)!~{]]{~^/(.......",
"......_:<[}|11|}23=&......",
"......456}111111}78%......",
"......90{|111111|a;b......",
"......$c]11111111]de......",
"......$f]11111111]dg......",
"......hij|111111|{;k......",
"......lmno111111o~,@......",
"......pqr[o|11|o[s=+......",
".......turnj]]{6sv'.......",
"........tqmidw0x=*........",
".........plhyyz4_.........",
"..........................",
"..........................",
"..........................",
".........................."};
