/* XPM */
static char * frameAR_xpm[] = {
"4 2 3 1",
" 	c None",
".	c #528BEF",
"+	c #7579BA",
"...+",
"...+"};
