/* XPM */
static char * mozilla_16x16_xpm[] = {
"16 16 51 1",
" 	c None",
".	c #3B67B7",
"+	c #3A68B6",
"@	c #B37175",
"#	c #E5765B",
"$	c #EE7655",
"%	c #C9736A",
"&	c #3B68B5",
"*	c #9F7080",
"=	c #5B6BA4",
"-	c #E0755C",
";	c #E4755A",
">	c #ED7755",
",	c #E97659",
"'	c #E97558",
")	c #E2755B",
"!	c #D77461",
"~	c #BA7271",
"{	c #E6755A",
"]	c #ED7556",
"^	c #C7736A",
"/	c #4F6AAB",
"(	c #B77273",
"_	c #ED7655",
":	c #D27365",
"<	c #576AA6",
"[	c #E87658",
"}	c #886E8C",
"|	c #4169B2",
"1	c #916F87",
"2	c #ED7555",
"3	c #566BA6",
"4	c #4A69AD",
"5	c #936F86",
"6	c #E87659",
"7	c #D17465",
"8	c #C3736D",
"9	c #E77559",
"0	c #B27175",
"a	c #546AA8",
"b	c #EF7655",
"c	c #D57462",
"d	c #6D6C9B",
"e	c #3C68B6",
"f	c #A5707C",
"g	c #EE7654",
"h	c #7D6D92",
"i	c #4669B0",
"j	c #516AAA",
"k	c #9C7082",
"l	c #ED7656",
"                ",
"    .++++@#     ",
" $%+&*=++-$;>   ",
" ,')!~+++{$$$   ",
" ]$$$^/++($$$_  ",
" $$$$$:++<[$$$  ",
"$$$$$}|+++1$$$2 ",
"$$$$}3++++4$$$$ ",
"$$$$5++++++6$$$ ",
"$$$$$7890+a$$$$ ",
"b$$$$$cde+f$$$g ",
" $$$$hi+jkl$$$  ",
" $$$$$$$$$$$$$  ",
"  $$$$$$$$$$$   ",
"   $$$$$$$$$    ",
"     $$$$$      "};
