/* XPM */
static char * icewm_xpm[] = {
"25 25 593 2",
"  	c None",
". 	c #E8B943",
"+ 	c #EABC49",
"@ 	c #EBC050",
"# 	c #EDC458",
"$ 	c #EEC860",
"% 	c #F0CB68",
"& 	c #F1CD6F",
"* 	c #F1CF73",
"= 	c #F2D275",
"- 	c #F3D478",
"; 	c #F3D57B",
"> 	c #F3D57C",
", 	c #F3D67B",
"' 	c #F3D678",
") 	c #F3D674",
"! 	c #F3D56F",
"~ 	c #F2D369",
"{ 	c #F2D060",
"] 	c #F1CC56",
"^ 	c #EFC84C",
"/ 	c #EEC442",
"( 	c #ECC039",
"_ 	c #EABB30",
": 	c #E9B62A",
"< 	c #E6B024",
"[ 	c #EABC48",
"} 	c #EBC14F",
"| 	c #EDC558",
"1 	c #EEC961",
"2 	c #EFCC6A",
"3 	c #F2D27B",
"4 	c #F3D47E",
"5 	c #F4D681",
"6 	c #F4D884",
"7 	c #F5D985",
"8 	c #F5DA84",
"9 	c #F5DA82",
"0 	c #F5DA80",
"a 	c #F5DB7D",
"b 	c #F4D978",
"c 	c #F4D873",
"d 	c #F3D66D",
"e 	c #F2D265",
"f 	c #F1CF5A",
"g 	c #EFCB4F",
"h 	c #EEC644",
"i 	c #ECC139",
"j 	c #EBBC31",
"k 	c #E8B62A",
"l 	c #ECC14F",
"m 	c #EDC557",
"n 	c #EEC960",
"o 	c #EFCD6B",
"p 	c #F1D075",
"q 	c #F2D37D",
"r 	c #F3D684",
"s 	c #F4D98A",
"t 	c #F5DB8E",
"u 	c #F5DC8F",
"v 	c #F6DD8D",
"w 	c #F6DE8B",
"x 	c #F6DF8A",
"y 	c #F6DF89",
"z 	c #F5DF86",
"A 	c #F6DE82",
"B 	c #F5DC7E",
"C 	c #F5DB79",
"D 	c #EAD071",
"E 	c #DCC26F",
"F 	c #EFCF5C",
"G 	c #F0CC51",
"H 	c #EFC744",
"I 	c #EDC239",
"J 	c #EABC30",
"K 	c #EDC556",
"L 	c #EEC95F",
"M 	c #EFCD69",
"N 	c #F1D174",
"O 	c #F2D47E",
"P 	c #F3D785",
"Q 	c #F4DA8D",
"R 	c #F5DD95",
"S 	c #F5DF9A",
"T 	c #F6E099",
"U 	c #F7E196",
"V 	c #F7E294",
"W 	c #F7E392",
"X 	c #F7E390",
"Y 	c #F7E38E",
"Z 	c #F7E28C",
"` 	c #F6E088",
" .	c #F6DF83",
"..	c #D4C285",
"+.	c #928BA4",
"@.	c #B6A488",
"#.	c #F0CD50",
"$.	c #EEC743",
"%.	c #ECC138",
"&.	c #EFC85C",
"*.	c #EFCC67",
"=.	c #F1D072",
"-.	c #F2D47C",
";.	c #F3D885",
">.	c #F4DB8E",
",.	c #F5DE96",
"'.	c #F6E09D",
").	c #F7E2A1",
"!.	c #F7E4A1",
"~.	c #F7E5A0",
"{.	c #F7E69D",
"].	c #F8E79A",
"^.	c #F8E798",
"/.	c #F8E696",
"(.	c #F8E695",
"_.	c #F8E593",
":.	c #F4DF8F",
"<.	c #E9D383",
"[.	c #AAA098",
"}.	c #6F6BBF",
"|.	c #B39F7E",
"1.	c #F1D15C",
"2.	c #F0CC4F",
"3.	c #EEC643",
"4.	c #F0CB63",
"5.	c #F1CF6E",
"6.	c #F2D379",
"7.	c #F3D783",
"8.	c #F4DB8C",
"9.	c #F6E19E",
"0.	c #F7E3A3",
"a.	c #F7E6A6",
"b.	c #F8E8A8",
"c.	c #F8E9A9",
"d.	c #F8EAA7",
"e.	c #F8EAA4",
"f.	c #F9EAA1",
"g.	c #F9EA9F",
"h.	c #F8EA9D",
"i.	c #EACF9B",
"j.	c #E79C89",
"k.	c #E49282",
"l.	c #CBA67E",
"m.	c #827CB4",
"n.	c #726BB8",
"o.	c #DAC065",
"p.	c #F1D05B",
"q.	c #F0CA4D",
"r.	c #F2CE6A",
"s.	c #F2D174",
"t.	c #F3D57E",
"u.	c #F4DA89",
"v.	c #F5DD93",
"w.	c #F6E19D",
"x.	c #F7E4A3",
"y.	c #F8E6A6",
"z.	c #F8E9AA",
"A.	c #F9EBAD",
"B.	c #F9ECB0",
"C.	c #F9EDB0",
"D.	c #F9EDAE",
"E.	c #F9EDAC",
"F.	c #F9EDA9",
"G.	c #F6E8A6",
"H.	c #E9998A",
"I.	c #FB5153",
"J.	c #FD4C4D",
"K.	c #DE7B73",
"L.	c #A2928E",
"M.	c #504ED4",
"N.	c #A6957F",
"O.	c #F1D365",
"P.	c #F1CE58",
"Q.	c #F2D071",
"R.	c #F3D479",
"S.	c #F4D883",
"T.	c #F5DC8E",
"U.	c #F7E3A1",
"V.	c #F9ECAF",
"W.	c #F9EEB2",
"X.	c #FAEFB5",
"Y.	c #FAF0B7",
"Z.	c #FAF1B9",
"`.	c #FAF1B7",
" +	c #FAF0B3",
".+	c #F4E4AD",
"++	c #E97D7E",
"@+	c #FF3434",
"#+	c #FF2C2C",
"$+	c #E66166",
"%+	c #C3A981",
"&+	c #5E5AD0",
"*+	c #796EA0",
"=+	c #EAD06B",
"-+	c #F2D261",
";+	c #F3D376",
">+	c #F4D67E",
",+	c #F5DA88",
"'+	c #F5DE92",
")+	c #F6E19B",
"!+	c #F7E5A2",
"~+	c #F8E9A8",
"{+	c #F9ECAD",
"]+	c #FAF0B6",
"^+	c #FAF1BA",
"/+	c #FAF2BD",
"(+	c #FBF3C0",
"_+	c #FBF4C1",
":+	c #FAF3BC",
"<+	c #F7EDB6",
"[+	c #E79A91",
"}+	c #FB5154",
"|+	c #FD4D4E",
"1+	c #D57472",
"2+	c #D4C187",
"3+	c #6F6AC6",
"4+	c #5A54BA",
"5+	c #DDC66F",
"6+	c #F3D569",
"7+	c #F3D57A",
"8+	c #F5DC8D",
"9+	c #F6E094",
"0+	c #F7E39B",
"a+	c #F7E7A2",
"b+	c #F8EBA9",
"c+	c #F9EDAF",
"d+	c #FBF4C3",
"e+	c #FBF5C6",
"f+	c #FBF5C5",
"g+	c #FAF3BF",
"h+	c #E4D1AF",
"i+	c #DD978F",
"j+	c #D38782",
"k+	c #CDAD8A",
"l+	c #E8DA90",
"m+	c #7771C1",
"n+	c #4B48CC",
"o+	c #CFBA72",
"p+	c #F3D770",
"q+	c #F4D67F",
"r+	c #F5D988",
"s+	c #F6DD90",
"t+	c #F6E195",
"u+	c #F7E59B",
"v+	c #F8E9A2",
"w+	c #F9ECA9",
"x+	c #FAEFB0",
"y+	c #FBF3BD",
"z+	c #FBF5C3",
"A+	c #FBF6C7",
"B+	c #FCF6C9",
"C+	c #FCF6CA",
"D+	c #F6F4C5",
"E+	c #A8D885",
"F+	c #9CD176",
"G+	c #DBD89E",
"H+	c #EDE2A4",
"I+	c #F4E89E",
"J+	c #EFE096",
"K+	c #7873C4",
"L+	c #4845D1",
"M+	c #C8B475",
"N+	c #F4D875",
"O+	c #F5DB8A",
"P+	c #F6DF90",
"Q+	c #F7E396",
"R+	c #F8E79C",
"S+	c #FAEFB1",
"T+	c #FAF2B9",
"U+	c #FBF4C0",
"V+	c #FCF6C5",
"W+	c #FCF7C9",
"X+	c #FCF7CC",
"Y+	c #FCF8CD",
"Z+	c #B2DC90",
"`+	c #49D445",
" @	c #44C640",
".@	c #A5B979",
"+@	c #F7EDAC",
"@@	c #F9ECA3",
"#@	c #E9DC97",
"$@	c #726ECD",
"%@	c #4744CF",
"&@	c #C8B577",
"*@	c #F4D979",
"=@	c #F5DC8B",
"-@	c #F6E091",
";@	c #F8E497",
">@	c #F8EAA2",
",@	c #F8EDA8",
"'@	c #E8E8A4",
")@	c #EEF0BB",
"!@	c #FBF6C8",
"~@	c #ECF1C0",
"{@	c #6FD45F",
"]@	c #5AEF5A",
"^@	c #43A93F",
"/@	c #A0A977",
"(@	c #F6EDAF",
"_@	c #F9EDA6",
":@	c #DACE9A",
"<@	c #6260DD",
"[@	c #4A47C4",
"}@	c #D0BC78",
"|@	c #F4D97C",
"1@	c #F5DA83",
"2@	c #F5DD8A",
"3@	c #F7E191",
"4@	c #F7E497",
"5@	c #F8E89D",
"6@	c #F9EAA3",
"7@	c #BFD882",
"8@	c #70C654",
"9@	c #C1D08F",
"0@	c #D0E29E",
"a@	c #7BCD63",
"b@	c #ABCD8A",
"c@	c #F8F4C8",
"d@	c #A6DA86",
"e@	c #4ADA47",
"f@	c #54DD54",
"g@	c #568A45",
"h@	c #D6CF9F",
"i@	c #F9F0B2",
"j@	c #BBB1A8",
"k@	c #4F4FF0",
"l@	c #5852AF",
"m@	c #DCC779",
"n@	c #F4DA7C",
"o@	c #F5DE88",
"p@	c #F6E190",
"q@	c #F1DF95",
"r@	c #F8E79D",
"s@	c #F8EBA5",
"t@	c #AFD67A",
"u@	c #3FCB3C",
"v@	c #7DAB5F",
"w@	c #7BCA60",
"x@	c #45DB44",
"y@	c #66AE55",
"z@	c #CED8A2",
"A@	c #67D458",
"B@	c #5DF15D",
"C@	c #43A53E",
"D@	c #989F72",
"E@	c #F5ECB4",
"F@	c #F9EFB1",
"G@	c #F3E6A9",
"H@	c #928DC4",
"I@	c #4242F7",
"J@	c #736A95",
"K@	c #E8D27D",
"L@	c #F5D97A",
"M@	c #F4DA7E",
"N@	c #F5DD85",
"O@	c #E0CC88",
"P@	c #B5A992",
"Q@	c #F1E19B",
"R@	c #C6DA88",
"S@	c #4DD046",
"T@	c #419E35",
"U@	c #49C841",
"V@	c #5BEB5B",
"W@	c #51AF47",
"X@	c #73B55B",
"Y@	c #4BDE4A",
"Z@	c #52D852",
"`@	c #598845",
" #	c #DAD3A1",
".#	c #FAF0B4",
"+#	c #CEC4AA",
"@#	c #6463E1",
"##	c #3D3BDF",
"$#	c #9E907E",
"%#	c #F1D880",
"&#	c #F4D878",
"*#	c #F4DA7A",
"=#	c #F5DD82",
"-#	c #E8D487",
";#	c #91899B",
">#	c #C8BC9A",
",#	c #DDE197",
"'#	c #58CE4A",
")#	c #3BC43A",
"!#	c #3ACB3A",
"~#	c #3DC23C",
"{#	c #40BD3D",
"]#	c #3EBD39",
"^#	c #60F260",
"/#	c #44A13D",
"(#	c #A0A374",
"_#	c #F6EDB1",
":#	c #F2E6AA",
"<#	c #9791C4",
"[#	c #4646FB",
"}#	c #504BB4",
"|#	c #CCB97A",
"1#	c #F4DA81",
"2#	c #F4D675",
"3#	c #F4DA76",
"4#	c #F5DC7F",
"5#	c #F4DE87",
"6#	c #A99E9E",
"7#	c #8A85B4",
"8#	c #DED19C",
"9#	c #EDE6A0",
"0#	c #6BCD54",
"a#	c #59E859",
"b#	c #3F9E39",
"c#	c #409A34",
"d#	c #4FDE4F",
"e#	c #59E959",
"f#	c #50D24F",
"g#	c #5E8845",
"h#	c #DED69E",
"i#	c #F9EFB0",
"j#	c #F8ECAD",
"k#	c #B7AFB5",
"l#	c #5453E7",
"m#	c #2F2FE6",
"n#	c #82778B",
"o#	c #E9D284",
"p#	c #F4D97F",
"q#	c #F3D573",
"r#	c #F3D96E",
"s#	c #F4DC7A",
"t#	c #F5DF84",
"u#	c #D8C785",
"v#	c #7772B5",
"w#	c #8E88BF",
"x#	c #D9CE9D",
"y#	c #8CCC64",
"z#	c #3CB639",
"A#	c #638946",
"B#	c #83BA5E",
"C#	c #5DEB5C",
"D#	c #6CF86C",
"E#	c #459C3B",
"F#	c #A5A471",
"G#	c #F6EAA9",
"H#	c #F8EBAA",
"I#	c #C0B7B0",
"J#	c #6361DC",
"K#	c #2E2EFB",
"L#	c #504AA8",
"M#	c #C8B677",
"N#	c #F3DA84",
"O#	c #F3D77B",
"P#	c #F3D370",
"Q#	c #F3D865",
"R#	c #F4DA72",
"S#	c #F5DD7F",
"T#	c #B6A98A",
"U#	c #615EBF",
"V#	c #7B77C9",
"W#	c #9CA28E",
"X#	c #8BA35F",
"Y#	c #C3B982",
"Z#	c #BCD47F",
"`#	c #54D34C",
" $	c #46BE44",
".$	c #658944",
"+$	c #E1D595",
"@$	c #EEE1A1",
"#$	c #B3ABB3",
"$$	c #6462DB",
"%$	c #3232FD",
"&$	c #3C38BA",
"*$	c #A39477",
"=$	c #ECD583",
"-$	c #F4DA7F",
";$	c #F3D576",
">$	c #F1D16C",
",$	c #F3D65C",
"'$	c #F3D967",
")$	c #F5DB75",
"!$	c #F5DE81",
"~$	c #F0DC87",
"{$	c #AC9F8A",
"]$	c #5E5ABE",
"^$	c #4F4EDC",
"/$	c #7E79BE",
"($	c #ADA4AD",
"_$	c #C0B8A0",
":$	c #749863",
"<$	c #5D7B4F",
"[$	c #9E967E",
"}$	c #B7ADAA",
"|$	c #8983C5",
"1$	c #4E4DEA",
"2$	c #3131F8",
"3$	c #3E3BB8",
"4$	c #928679",
"5$	c #E4CE7E",
"6$	c #F4DA80",
"7$	c #F3D778",
"8$	c #F1D36F",
"9$	c #F0CE66",
"0$	c #F2D453",
"a$	c #F2D65C",
"b$	c #F3D969",
"c$	c #F4DC77",
"d$	c #F4DE82",
"e$	c #F0DC86",
"f$	c #BDAE7F",
"g$	c #6C66A9",
"h$	c #3E3CDB",
"i$	c #4140F3",
"j$	c #4C4BEC",
"k$	c #5150E1",
"l$	c #5351DB",
"m$	c #5756E6",
"n$	c #4949F3",
"o$	c #3838F7",
"p$	c #3332D5",
"q$	c #58519C",
"r$	c #A6976F",
"s$	c #E4CD7C",
"t$	c #F3D878",
"u$	c #F2D470",
"v$	c #F0D068",
"w$	c #EFCC5F",
"x$	c #F0D250",
"y$	c #F2D455",
"z$	c #F3D75E",
"A$	c #F3D96A",
"B$	c #F3DB76",
"C$	c #F4DD80",
"D$	c #F2DC85",
"E$	c #DBC77D",
"F$	c #9B8E83",
"G$	c #625BA2",
"H$	c #403DC4",
"I$	c #3534D8",
"J$	c #3433DA",
"K$	c #3634D0",
"L$	c #403CB5",
"M$	c #605891",
"N$	c #948673",
"O$	c #CDB971",
"P$	c #EDD47D",
"Q$	c #F3D777",
"R$	c #F2D46F",
"S$	c #F1D068",
"T$	c #EFCD60",
"U$	c #EEC958",
"V$	c #EFCF4C",
"W$	c #F1D150",
"X$	c #F1D455",
"Y$	c #F2D65D",
"Z$	c #F3D868",
"`$	c #F4DA74",
" %	c #F4DB7C",
".%	c #F4DC81",
"+%	c #EFD880",
"@%	c #DBC779",
"#%	c #BEAC75",
"$%	c #A99A76",
"%%	c #A49576",
"&%	c #AE9D73",
"*%	c #C1AE72",
"=%	c #D9C476",
"-%	c #EBD37C",
";%	c #F3D97B",
">%	c #F4D877",
",%	c #F3D672",
"'%	c #F2D36D",
")%	c #F1D067",
"!%	c #F0CD5F",
"~%	c #EFC958",
"{%	c #EDC550",
"]%	c #EECC49",
"^%	c #EFCE4C",
"/%	c #F0D150",
"(%	c #F0D254",
"_%	c #F1D45B",
":%	c #F2D665",
"<%	c #F3D76F",
"[%	c #F3D977",
"}%	c #F4D97B",
"|%	c #F3D981",
"1%	c #F2D883",
"2%	c #F1D884",
"3%	c #F3D980",
"4%	c #F4D97D",
"5%	c #F3D673",
"6%	c #F2D46E",
"7%	c #F1D269",
"8%	c #F1CF64",
"9%	c #EFCC5E",
"0%	c #EEC957",
"a%	c #EDC650",
"b%	c #EBC149",
". + @ # $ % & * = - ; > , ' ) ! ~ { ] ^ / ( _ : < ",
"[ } | 1 2 * 3 4 5 6 7 8 9 0 a b c d e f g h i j k ",
"l m n o p q r s t u v w x y z A B C D E F G H I J ",
"K L M N O P Q R S T U V W X Y Z `  ...+.@.F #.$.%.",
"&.*.=.-.;.>.,.'.).!.~.{.].^./.(._.:.<.[.}.|.1.2.3.",
"4.5.6.7.8.,.9.0.a.b.c.d.e.f.g.h.i.j.k.l.m.n.o.p.q.",
"r.s.t.u.v.w.x.y.z.A.B.C.D.E.F.G.H.I.J.K.L.M.N.O.P.",
"Q.R.S.T.T U.y.z.V.W.X.Y.Z.`. +.+++@+#+$+%+&+*+=+-+",
";+>+,+'+)+!+~+{+W.]+^+/+(+_+:+<+[+}+|+1+2+3+4+5+6+",
"7+S.8+9+0+a+b+c+X.^+(+d+e+e+f+g+h+i+j+k+l+m+n+o+p+",
"q+r+s+t+u+v+w+x+`.y+z+A+B+C+D+E+F+G+H+I+J+K+L+M+N+",
"6 O+P+Q+R+v+w+S+T+U+V+W+X+Y+Z+`+ @.@+@@@#@$@%@&@*@",
"7 =@-@;@R+>@,@'@T+U+)@!@Y+~@{@]@^@/@(@_@:@<@[@}@|@",
"1@2@3@4@5@6@7@8@9@0@a@b@c@d@e@f@g@h@i@w+j@k@l@m@n@",
"0 o@p@q@r@s@t@u@v@w@x@y@z@A@B@C@D@E@F@G@H@I@J@K@L@",
"M@N@O@P@Q@s@R@S@T@U@V@W@X@Y@Z@`@ #.#c++#@###$#%#&#",
"*#=#-#;#>#e.,#'#)#!#~#{#]#^#/#(#_#F@:#<#[#}#|#1#2#",
"3#4#5#6#7#8#9#0#a#b#c#d#e#f#g#h#i#j#k#l#m#n#o#p#q#",
"r#s#t#u#v#w#x#y#z#A#B#C#D#E#F#G#H#I#J#K#L#M#N#O#P#",
"Q#R#S#5#T#U#V#W#X#Y#Z#`# $.$+$@$#$$$%$&$*$=$-$;$>$",
",$'$)$!$~${$]$^$/$($_$:$<$[$}$|$1$2$3$4$5$6$7$8$9$",
"0$a$b$c$d$e$f$g$h$i$j$k$l$m$n$o$p$q$r$s$-$t$u$v$w$",
"x$y$z$A$B$C$D$E$F$G$H$I$J$K$L$M$N$O$P$|@Q$R$S$T$U$",
"V$W$X$Y$Z$`$ %.%+%@%#%$%%%&%*%=%-%;%>%,%'%)%!%~%{%",
"]%^%/%(%_%:%<%[%}%M@|%1%2%1%3%4%7$5%6%7%8%9%0%a%b%"};
