/* XPM */
static char * folder_32x32_xpm[] = {
"24 24 163 2",
"  	c None",
". 	c #FCE5A0",
"+ 	c #F0CF6F",
"@ 	c #F1CE6C",
"# 	c #F2D06E",
"$ 	c #F3D271",
"% 	c #F5D473",
"& 	c #F7D776",
"* 	c #F8D979",
"= 	c #FADB7C",
"- 	c #FBDD7F",
"; 	c #FCDF82",
"> 	c #FDE185",
", 	c #FEE388",
"' 	c #FFEBAC",
") 	c #FEEBAD",
"! 	c #F3D479",
"~ 	c #F2CF6D",
"{ 	c #F3D16F",
"] 	c #F4D372",
"^ 	c #F6D674",
"/ 	c #F8D877",
"( 	c #FADA7A",
"_ 	c #FBDD7D",
": 	c #FCDF80",
"< 	c #FDE084",
"[ 	c #FEE287",
"} 	c #FFEBAA",
"| 	c #FFECAF",
"1 	c #FFEEB7",
"2 	c #F7DB8A",
"3 	c #F4D370",
"4 	c #F6D473",
"5 	c #F9DA79",
"6 	c #FBDC7C",
"7 	c #FCDE7F",
"8 	c #FDE082",
"9 	c #FEE286",
"0 	c #FFEBA9",
"a 	c #FFEBA8",
"b 	c #FFEFBC",
"c 	c #FAE49F",
"d 	c #F4D26F",
"e 	c #F5D472",
"f 	c #F7D675",
"g 	c #F8D977",
"h 	c #FADB7B",
"i 	c #FCDD7E",
"j 	c #FCDF81",
"k 	c #FEE185",
"l 	c #FFEAA8",
"m 	c #FFEAA6",
"n 	c #FFECAE",
"o 	c #FFEFBB",
"p 	c #F3D16E",
"q 	c #F5D371",
"r 	c #F6D573",
"s 	c #F8D776",
"t 	c #FADB7A",
"u 	c #FEE183",
"v 	c #FFEAA7",
"w 	c #FFEAA5",
"x 	c #FFEEB8",
"y 	c #F4D270",
"z 	c #F6D572",
"A 	c #F8D775",
"B 	c #FADA78",
"C 	c #FFE9A3",
"D 	c #FFE9A5",
"E 	c #FFEDB5",
"F 	c #F1CE6B",
"G 	c #F5D471",
"H 	c #F7D674",
"I 	c #F9D977",
"J 	c #FADC7B",
"K 	c #FCDE7E",
"L 	c #FDE081",
"M 	c #FFE9A2",
"N 	c #FFECB2",
"O 	c #F0CE6B",
"P 	c #F3D06D",
"Q 	c #F5D370",
"R 	c #F7D673",
"S 	c #F9D876",
"T 	c #FCDE7D",
"U 	c #FFE9A4",
"V 	c #FFE8A0",
"W 	c #FFE8A1",
"X 	c #FFEBAF",
"Y 	c #F0CD69",
"Z 	c #F2D06C",
"` 	c #F8D875",
" .	c #FADA79",
"..	c #FBDD7C",
"+.	c #FDDF80",
"@.	c #FFE79E",
"#.	c #FFE79F",
"$.	c #FFEAAC",
"%.	c #EFCC68",
"&.	c #F1CF6B",
"*.	c #F4D16E",
"=.	c #F6D472",
"-.	c #FAD978",
";.	c #FDDF7F",
">.	c #FFE79C",
",.	c #FFE79D",
"'.	c #FFE9A8",
").	c #EECC68",
"!.	c #F8D774",
"~.	c #FAD977",
"{.	c #FBDC7B",
"].	c #FDDE7E",
"^.	c #FFE9A1",
"/.	c #FFE69A",
"(.	c #FFE69B",
"_.	c #FFE8A5",
":.	c #EECB67",
"<.	c #F0CD6A",
"[.	c #F2D16D",
"}.	c #F8D674",
"|.	c #FBDB7A",
"1.	c #FEE081",
"2.	c #FFE89F",
"3.	c #FFE699",
"4.	c #FFE598",
"5.	c #FFE8A2",
"6.	c #EECA66",
"7.	c #F2D06D",
"8.	c #F8D673",
"9.	c #F9D976",
"0.	c #FFE597",
"a.	c #FFE596",
"b.	c #EDC966",
"c.	c #EFCC69",
"d.	c #FBDA79",
"e.	c #FFE595",
"f.	c #FFE496",
"g.	c #FFE69C",
"h.	c #ECC965",
"i.	c #F2CF6C",
"j.	c #F7D572",
"k.	c #FFE493",
"l.	c #F7D985",
"m.	c #F9D875",
"n.	c #FFE698",
"o.	c #FFE495",
"p.	c #FFE392",
"q.	c #EAC765",
"r.	c #ECC865",
"s.	c #EFCB68",
"t.	c #F2CF6B",
"u.	c #F4D26E",
"v.	c #FCDD7D",
"w.	c #FEE080",
"x.	c #FFE390",
"y.	c #E8C562",
"z.	c #EBC865",
"A.	c #FFE391",
"B.	c #FFE28E",
"C.	c #FFE28F",
"D.	c #FFE28C",
"E.	c #FFE18C",
"F.	c #FFE08A",
"                                                ",
"                                                ",
"        . + @ # $ % & * = - ; > ,               ",
"        ' ) ! ~ { ] ^ / ( _ : < [               ",
"        } | 1 2 # 3 4 & 5 6 7 8 9               ",
"        0 a | b c d e f g h i j k               ",
"        a l m n o p q r s t _ : u               ",
"        v v w v x ~ y z A B 6 7 8               ",
"        v v C D E F { G H I J K L               ",
"        m m M C N O P Q R S t T L               ",
"        m U V W X Y Z d z `  ...+.              ",
"        w M @.#.$.%.&.*.=.A -...;.              ",
"        C V >.,.'.).F p G !.~.{.].              ",
"        ^.@./.(._.:.<.[.Q }.I |.].1.            ",
"        2.>.3.4.5.6.Y 7.Q 8.9.|.].1.            ",
"        @./.0.a.#.b.c.Z d R S d.T 1.            ",
"        >.3.e.f.g.h.%.i.d j.S d.T 1.            ",
"        /.0.k.0.l.h.%.&.d j.m.d.T 1.            ",
"        n.o.p.o.q.r.s.t.u.j.m.d.v.w.            ",
"        a.k.x.p.y.z.s.t.u.j.m.d.v.w.            ",
"        o.A.B.C.                                ",
"            D.E.                                ",
"              F.                                ",
"                                                "};
