/* XPM */
static char * media_cdrom_xpm[] = {
"16 16 156 2",
"  	c None",
". 	c #929393",
"+ 	c #A7ABAB",
"@ 	c #A5A7A7",
"# 	c #D0D6D6",
"$ 	c #E3ECEC",
"% 	c #E0EAEA",
"& 	c #DEE9E9",
"* 	c #DFE9E9",
"= 	c #CAD2D1",
"- 	c #A1A4A4",
"; 	c #898989",
"> 	c #D0D2D2",
", 	c #F1F5F5",
"' 	c #EAF0F0",
") 	c #E5EDED",
"! 	c #E2EBEA",
"~ 	c #DEE8E8",
"{ 	c #DEE7E7",
"] 	c #DDE7E7",
"^ 	c #BCC7C5",
"/ 	c #D0D1D1",
"( 	c #FDFDFD",
"_ 	c #F8F9F9",
": 	c #EFF4F4",
"< 	c #E9EFEF",
"[ 	c #E3ECEB",
"} 	c #E1E9E9",
"| 	c #DFE8E8",
"1 	c #DEE7E6",
"2 	c #D8E8E6",
"3 	c #C1F0E4",
"4 	c #B5C8C4",
"5 	c #A6A6A7",
"6 	c #F1F4F4",
"7 	c #F7F9F9",
"8 	c #EEF3F2",
"9 	c #E8EEED",
"0 	c #E3EAEA",
"a 	c #E1E8E8",
"b 	c #DBE9E6",
"c 	c #C3F0E4",
"d 	c #D0EAE4",
"e 	c #D9E4E4",
"f 	c #9FA2A2",
"g 	c #DECADD",
"h 	c #F4E9F5",
"i 	c #F3F2F5",
"j 	c #DBDCDC",
"k 	c #CBCCCC",
"l 	c #CACBCB",
"m 	c #D0D5D6",
"n 	c #CBF1E7",
"o 	c #D3EAE5",
"p 	c #D9E3E3",
"q 	c #D9E2E2",
"r 	c #C5CCCC",
"s 	c #929292",
"t 	c #E9E3EC",
"u 	c #F3E1F4",
"v 	c #F8E3F9",
"w 	c #F9ECF9",
"x 	c #DDDBDE",
"y 	c #C8C9C9",
"z 	c #C3C5C5",
"A 	c #CED6D5",
"B 	c #DEE5E5",
"C 	c #DAE2E2",
"D 	c #D8E0E0",
"E 	c #D6DFDF",
"F 	c #909191",
"G 	c #A5A7A8",
"H 	c #DBE1E2",
"I 	c #E0E4E5",
"J 	c #E8E7EB",
"K 	c #F1E9F2",
"L 	c #CECBCE",
"M 	c #D5D6D6",
"N 	c #D6D6D6",
"O 	c #C9CBCB",
"P 	c #DFE4E5",
"Q 	c #DAE0E1",
"R 	c #D6DDDE",
"S 	c #D4DBDC",
"T 	c #A3A6A6",
"U 	c #A4A6A6",
"V 	c #D6DDDD",
"W 	c #D9DFE0",
"X 	c #DDE2E3",
"Y 	c #E2E6E7",
"Z 	c #D5D5D5",
"` 	c #C4C5C5",
" .	c #D5DBDC",
"..	c #D6DCDD",
"+.	c #D2D9DA",
"@.	c #CFD7D7",
"#.	c #D2D8D8",
"$.	c #D3D9D9",
"%.	c #D5DADB",
"&.	c #D7DCDD",
"*.	c #CED0D0",
"=.	c #C1C4C4",
"-.	c #B8BEBE",
";.	c #C7CACA",
">.	c #C5CCCD",
",.	c #C4CBCC",
"'.	c #C3CACB",
").	c #8F9090",
"!.	c #BBC0C0",
"~.	c #CCD1D2",
"{.	c #CED4D4",
"].	c #D1D6D7",
"^.	c #BEC2C2",
"/.	c #BFC1C1",
"(.	c #C0C2C2",
"_.	c #C8CBCB",
":.	c #DFE2E2",
"<.	c #CED2D3",
"[.	c #C3CACA",
"}.	c #C2C9C9",
"|.	c #B4B9BA",
"1.	c #9B9C9D",
"2.	c #C9CDCF",
"3.	c #CACFD0",
"4.	c #BBC1C3",
"5.	c #B9C0C2",
"6.	c #BDC3C5",
"7.	c #C3C7C9",
"8.	c #D2D5D6",
"9.	c #DFE0E1",
"0.	c #CBD0D0",
"a.	c #C0C5C7",
"b.	c #989A9A",
"c.	c #B0B2B3",
"d.	c #B7BDBF",
"e.	c #B7BCBE",
"f.	c #B9BEBF",
"g.	c #BCC1C2",
"h.	c #BFC4C5",
"i.	c #D0D3D4",
"j.	c #DFE0E0",
"k.	c #B2B5B6",
"l.	c #A5A8A8",
"m.	c #B3B8B9",
"n.	c #B4B8BA",
"o.	c #B9BDBF",
"p.	c #BDC0C2",
"q.	c #B6B7B8",
"r.	c #939495",
"s.	c #A7A8AB",
"t.	c #B0B3B6",
"u.	c #B6B9BB",
"v.	c #ABAEAF",
"w.	c #959697",
"x.	c #8D8D8E",
"y.	c #8E8E8E",
"            . + + .             ",
"        @ # $ % & * = -         ",
"    ; > , ' ) ! * ~ { ] ^ ;     ",
"    / ( _ : < [ } | 1 2 3 4     ",
"  5 6 7 ( 7 8 9 0 a b c d e f   ",
"  g h i 7 ( j k l m n o p q r   ",
"s t u v w x y     z A B C D E F ",
"G H I J K L   M N   O P Q R S T ",
"U V W X Y l   N Z   `  ...+.@.- ",
"F #.$.%.&.*.=.    -.;.>.,.,.'.).",
"  !.~.{.].# ^./.(._.:.<.[.}.|.  ",
"  1.2.3.2.4.5.5.6.7.8.9.0.a.b.  ",
"    c.7.d.e.e.e.f.g.h.i.j.k.    ",
"    ; l.m.m.m.m.n.o.o.p.q.;     ",
"        r.s.t.t.t.u.v.w.        ",
"            x.w.w.y.            "};
