/* XPM */
static char * maximizeO_xpm[] = {
"26 52 31 1",
" 	c None",
".	c #9A9A9A",
"+	c #E8E8E7",
"@	c #A6A6A6",
"#	c #B1B1B1",
"$	c #B0B0B0",
"%	c #B3B3B3",
"&	c #FFFFFF",
"*	c #F6F6F6",
"=	c #F5F5F5",
"-	c #FBFBFB",
";	c #F4F4F4",
">	c #FAFAFA",
",	c #F2F2F2",
"'	c #F8F8F8",
")	c #F1F1F1",
"!	c #1A43BA",
"~	c #EEEEEE",
"{	c #EDEDED",
"]	c #F3F3F3",
"^	c #ECECEC",
"/	c #EBEBEB",
"(	c #E9E9E9",
"_	c #E8E8E8",
":	c #E7E7E7",
"<	c #E5E5E5",
"[	c #EAEAEA",
"}	c #E3E3E3",
"|	c #E2E2E2",
"1	c #ACACAC",
"2	c #AEAEAE",
"..........................",
"++++++++++++++++++++++++++",
"++++++++++++++++++++++++++",
"@#####################$%%%",
"@&&&&&&&&&&&&&&&&&&&&&&&&&",
"@************************&",
"@========================-",
"@;;;;;;;;;;;;;;;;;;;;;;;;>",
"@,,,,,,,,,,,,,,,,,,,,,,,,'",
"@)))))))!!!!!!!!!!)))))))*",
"@~~~~~~~!!!!!!!!!!~~~~~~~;",
"@{{{{{{{!!{{{{{{!!{{{{{{{]",
"@^^^^^^^!!^^^^^^!!^^^^^^^)",
"@///////!!//////!!///////)",
"@(((((((!!((((((!!(((((((~",
"@(((((((!!!!!!!!!!(((((((~",
"@_______!!!!!!!!!!_______{",
"@::::::::::::::::::::::::^",
"@<<<<<<<<<<<<<<<<<<<<<<<<[",
"@<<<<<<<<<<<<<<<<<<<<<<<<(",
"@}}}}}}}}}}}}}}}}}}}}}}}}_",
"@||||||||||||||||||||||||_",
"@((((((((((((((((((((((___",
"@11111111111111111111112%%",
"++++++++++++++++++++++++++",
"++++++++++++++++++++++++++",
"..........................",
"++++++++++++++++++++++++++",
"__________________________",
"@#####################$%%%",
"@&&&&&&&&&&&&&&&&&&&&&&&&&",
"@************************&",
"@========================-",
"@;;;;;;;;;;;;;;;;;;;;;;;;>",
"@,,,,,,,,,,,,,,,,,,,,,,,,'",
"@)))))))!!!!!!!!!!)))))))*",
"@~~~~~~~!!!!!!!!!!~~~~~~~;",
"@{{{{{{{!!{{{{{{!!{{{{{{{]",
"@^^^^^^^!!^^^^^^!!^^^^^^^)",
"@///////!!//////!!///////)",
"@(((((((!!((((((!!(((((((~",
"@(((((((!!!!!!!!!!(((((((~",
"@_______!!!!!!!!!!_______{",
"@::::::::::::::::::::::::^",
"@<<<<<<<<<<<<<<<<<<<<<<<<[",
"@<<<<<<<<<<<<<<<<<<<<<<<<(",
"@}}}}}}}}}}}}}}}}}}}}}}}}_",
"@||||||||||||||||||||||||_",
"@((((((((((((((((((((((___",
"@11111111111111111111112%%",
"++++++++++++++++++++++++++",
"++++++++++++++++++++++++++"};
