/* XPM */
static char * minimizeA_xpm[] = {
"26 52 36 1",
" 	c None",
".	c #9A9A9A",
"+	c #E8E8E7",
"@	c #F2F2F2",
"#	c #C3C3C3",
"$	c #B3B3B3",
"%	c #B0B0B0",
"&	c #B1B1B1",
"*	c #B2B2B2",
"=	c #E7E7E7",
"-	c #FFFFFF",
";	c #A6A6A6",
">	c #F6F6F6",
",	c #FBFBFB",
"'	c #F5F5F5",
")	c #FAFAFA",
"!	c #F4F4F4",
"~	c #F8F8F8",
"{	c #F1F1F1",
"]	c #EEEEEE",
"^	c #F3F3F3",
"/	c #EDEDED",
"(	c #ECECEC",
"_	c #EBEBEB",
":	c #A5A5A5",
"<	c #E9E9E9",
"[	c #E8E8E8",
"}	c #EAEAEA",
"|	c #E5E5E5",
"1	c #E3E3E3",
"2	c #A4A4A4",
"3	c #E2E2E2",
"4	c #D1D1D1",
"5	c #BFBFBF",
"6	c #AEAEAE",
"7	c #ACACAC",
"..........................",
"++++++++++++++++++++++++++",
"++++++++++++++++++++++++++",
"@#$%&&&&&&&&&&&&&&&&&&&&&&",
"*=------------------------",
";->>>>>>>>>>>>>>>>>>>>>>>>",
";,''''''''''''''''''''''''",
";)!!!!!!!!!!!!!!!!!!!!!!!!",
";~@@@@@@@@@@@@@@@@@@@@@@@@",
";>{{{{{{{{{{{{{{{{{{{{{{{{",
";!]]]]]]]]]]]]]]]]]]]]]]]]",
";^////////////////////////",
";{((((((((((((((((((((((((",
";{________________________",
":]<<<<<<..........<<<<<<<<",
":]<<<<<<..........<<<<<<<<",
":/[[[[[[..........[[[[[[[[",
":(========================",
":}||||||||||||||||||||||||",
":<||||||||||||||||||||||||",
":[111111111111111111111111",
"2[333333333333333333333333",
"&4[<<<<<<<<<<<<<<<<<<<<<<<",
"{5677777777777777777777777",
"++++++++++++++++++++++++++",
"++++++++++++++++++++++++++",
"..........................",
"++++++++++++++++++++++++++",
"++++++++++++++++++++++++++",
"@#$%&&&&&&&&&&&&&&&&&&&&&&",
"*=------------------------",
";->>>>>>>>>>>>>>>>>>>>>>>>",
";,''''''''''''''''''''''''",
";)!!!!!!!!!!!!!!!!!!!!!!!!",
";~@@@@@@@@@@@@@@@@@@@@@@@@",
";>{{{{{{{{{{{{{{{{{{{{{{{{",
";!]]]]]]]]]]]]]]]]]]]]]]]]",
";^////////////////////////",
";{((((((((((((((((((((((((",
";{________________________",
":]<<<<<<..........<<<<<<<<",
":]<<<<<<..........<<<<<<<<",
":/[[[[[[..........[[[[[[[[",
":(========================",
":}||||||||||||||||||||||||",
":<||||||||||||||||||||||||",
":[111111111111111111111111",
"2[333333333333333333333333",
"&4[<<<<<<<<<<<<<<<<<<<<<<<",
"{5677777777777777777777777",
"++++++++++++++++++++++++++",
"++++++++++++++++++++++++++"};
