/* XPM */
static char * linux_xpm[] = {
"60 20 202 2",
"  	c None",
". 	c #C5C5C4",
"+ 	c #C3C3C2",
"@ 	c #C1C1C0",
"# 	c #C2C2C1",
"$ 	c #C0C0BE",
"% 	c #BFBFBE",
"& 	c #858584",
"* 	c #323232",
"= 	c #898988",
"- 	c #C0C0BF",
"; 	c #C4C4C3",
"> 	c #BEBEBD",
", 	c #BFBFBD",
"' 	c #BBBBBB",
") 	c #7E7E7D",
"! 	c #828281",
"~ 	c #BABAB9",
"{ 	c #C3C2C2",
"] 	c #C1C0C0",
"^ 	c #BFBEBE",
"/ 	c #BEBDBD",
"( 	c #BDBCBC",
"_ 	c #B8B7B6",
": 	c #717070",
"< 	c #757575",
"[ 	c #666666",
"} 	c #676767",
"| 	c #737272",
"1 	c #6F6F6F",
"2 	c #B7B6B5",
"3 	c #C0BFBF",
"4 	c #BCBBBA",
"5 	c #A8A7A6",
"6 	c #AAA9A8",
"7 	c #AFAFAF",
"8 	c #5B5B5B",
"9 	c #353535",
"0 	c #595858",
"a 	c #ADADAD",
"b 	c #A2A1A1",
"c 	c #A7A6A6",
"d 	c #BBBABA",
"e 	c #B5B5B4",
"f 	c #9C9C9B",
"g 	c #B1B1B0",
"h 	c #B2B2B0",
"i 	c #5E5E5D",
"j 	c #5F5F5E",
"k 	c #B4B4B2",
"l 	c #A5A5A5",
"m 	c #737372",
"n 	c #3A3A3A",
"o 	c #3B3B3B",
"p 	c #747473",
"q 	c #A6A6A5",
"r 	c #AFAFAD",
"s 	c #515151",
"t 	c #5F5F5F",
"u 	c #B3B3B2",
"v 	c #AEAEAD",
"w 	c #999998",
"x 	c #BDBDBC",
"y 	c #828282",
"z 	c #5C5C5C",
"A 	c #4B4B4B",
"B 	c #B9B9B8",
"C 	c #6C6C6B",
"D 	c #B8B8B7",
"E 	c #ACACAB",
"F 	c #454545",
"G 	c #4D4D4D",
"H 	c #7E7E7E",
"I 	c #575757",
"J 	c #919191",
"K 	c #4E4E4E",
"L 	c #383838",
"M 	c #989897",
"N 	c #636363",
"O 	c #7A7A7A",
"P 	c #9C9C9C",
"Q 	c #ABABA9",
"R 	c #545454",
"S 	c #B8B9B8",
"T 	c #B5B6B5",
"U 	c #A0A19F",
"V 	c #333333",
"W 	c #727372",
"X 	c #373737",
"Y 	c #7F807F",
"Z 	c #717271",
"` 	c #6B6B6B",
" .	c #A5A6A4",
"..	c #B7B6B6",
"+.	c #B4B3B3",
"@.	c #989796",
"#.	c #3F3F3F",
"$.	c #3D3D3D",
"%.	c #999999",
"&.	c #B4B4B3",
"*.	c #B2B2B1",
"=.	c #7D7D7C",
"-.	c #343434",
";.	c #5D5D5C",
">.	c #8C8C8B",
",.	c #7F7F7E",
"'.	c #424242",
").	c #838382",
"!.	c #90908E",
"~.	c #616161",
"{.	c #80807F",
"].	c #B1B1B1",
"^.	c #A3A3A3",
"/.	c #8E8E8E",
"(.	c #A7A7A7",
"_.	c #777777",
":.	c #444444",
"<.	c #838383",
"[.	c #A9A9A9",
"}.	c #939392",
"|.	c #A6A6A6",
"1.	c #AFAFAE",
"2.	c #A5A5A4",
"3.	c #90908F",
"4.	c #A5A5A3",
"5.	c #AAAAA9",
"6.	c #767676",
"7.	c #434343",
"8.	c #414141",
"9.	c #ABABAA",
"0.	c #919190",
"a.	c #A7A7A6",
"b.	c #ADACAB",
"c.	c #ACABAA",
"d.	c #7C7B7B",
"e.	c #585857",
"f.	c #848383",
"g.	c #494948",
"h.	c #464646",
"i.	c #858484",
"j.	c #5C5B5B",
"k.	c #AAA9A9",
"l.	c #A9A8A8",
"m.	c #8D8C8C",
"n.	c #565555",
"o.	c #393939",
"p.	c #555454",
"q.	c #666665",
"r.	c #646464",
"s.	c #696968",
"t.	c #373736",
"u.	c #606060",
"v.	c #646463",
"w.	c #9A9A99",
"x.	c #969696",
"y.	c #868685",
"z.	c #6D6D6C",
"A.	c #8E8E8D",
"B.	c #959593",
"C.	c #535353",
"D.	c #A3A1A2",
"E.	c #737273",
"F.	c #4D4C4D",
"G.	c #494949",
"H.	c #959493",
"I.	c #9E9C9C",
"J.	c #9E9C9D",
"K.	c #616060",
"L.	c #A09E9F",
"M.	c #6A6969",
"N.	c #4B4A4B",
"O.	c #A09F9F",
"P.	c #979696",
"Q.	c #7F7F7F",
"R.	c #91908F",
"S.	c #989797",
"T.	c #505050",
"U.	c #949393",
"V.	c #888787",
"W.	c #363636",
"X.	c #636262",
"Y.	c #8A8989",
"Z.	c #939291",
"`.	c #4C4C4C",
" +	c #555554",
".+	c #8E8D8D",
"++	c #828180",
"@+	c #9E9D9D",
"#+	c #9C9B9B",
"$+	c #9B9A9A",
"%+	c #8B8B8B",
"&+	c #8B8A89",
"*+	c #908F8F",
"=+	c #515050",
"-+	c #858585",
";+	c #898888",
">+	c #9A9999",
",+	c #999898",
"'+	c #626161",
")+	c #676666",
"!+	c #5A5A5A",
"~+	c #646363",
". . . . . . . . . . . . . . . . . . . + @ @ # @ @ $ % @ & * = @ $ - @ @ @ @ # . . . . . . . . . . . . . . . . . . . . . ",
"; ; ; ; ; ; ; ; ; ; ; ; ; ; ; ; ; ; ; # - - - - > , ' % ) * ! , ~ - - - - - - ; ; ; ; ; ; ; ; ; ; ; ; ; ; ; ; ; ; ; ; ; ",
"{ { { { { { { { { { { { { { { { { { { ] ^ / ^ ( ( _ : < [ * } | 1 2 ^ ^ ^ ^ / { { { { { { { { { { { { { { { { { { { { { ",
"] ] ] ] ] ] ] ] ] ] ] ] ] ] ] ] ] ] ] 3 ( ( 4 5 6 7 8 * 9 * 9 * 0 a b c ( d 4 ] ] ] ] ] ] ] ] ] ] ] ] ] ] ] ] ] ] ] ] ] ",
"% % % % % % % % % % % % % % % % % % % e f g h i j k l m n * o p q r s t u v w % % % % % % % % % % % % % % % % % % % % % ",
"x x x x x x x x x x x x x x x x x x x y 9 z y A A 7 B B [ * C D B E F G H I 9 x x x x x x x x x x x x x x x x x x x x x ",
"' ' ' ' ' ' ' ' ' ' ' ' ' ' ' ' ' ' ' J K * L * A v M H N * } O P Q F * 9 * R ' ' ' ' ' ' ' ' ' ' ' ' ' ' ' ' ' ' ' ' ' ",
"S S S S S S S S S S S S S S S S S S S T U [ V * 9 < W V 9 * X 9 Y Z * * 9 `  .S S S S S S S S S S S S S S S S S S S S S ",
"......................................+.@.8 * n 9 * o * * * * * #.* X $.* 8 %...........................................",
"&.&.&.&.&.&.&.&.&.&.&.&.&.&.&.&.&.&.&.*.=.-.;.>.,.'.* * * * * * * F ).!.~.L {.&.&.&.&.&.&.&.&.&.&.&.&.&.&.&.&.&.&.&.&.&.",
"].].].].].].].].].].].].].].].].].].].7 ^./.(.a _.$.* * * * * * * :.<.a [.}.|.].].].].].].].].].].].].].].].].].].].].].",
"1.1.1.1.1.1.1.1.1.1.1.1.1.1.1.1.1.1.1.v 2.3.4.5.6.7.* * * * * * * 8.,.9.|.0.a.1.1.1.1.1.1.1.1.1.1.1.1.1.1.1.1.1.1.1.1.1.",
"b.b.b.b.b.b.b.b.b.b.b.b.b.b.b.b.b.b.b.c.d.9 e.f.{.g.* * * * * * * h.,.i.j.X ,.b.b.b.b.b.b.b.b.b.b.b.b.b.b.b.b.b.b.b.b.b.",
"k.k.k.k.k.k.k.k.k.k.k.k.k.k.k.k.k.k.k.l.m.n.* L X * o.* * * * * L * 9 o.* p./.k.k.k.k.k.k.k.k.k.k.k.k.k.k.k.k.k.k.k.k.k.",
"a.a.a.a.a.a.a.a.a.a.a.a.a.a.a.a.a.a.a.q M q.X * * r.s.* 9 * t.9 s.u.* * 9 v.w.a.a.a.a.a.a.a.a.a.a.a.a.a.a.a.a.a.a.a.a.a.",
"2.2.2.2.2.2.2.2.2.2.2.2.2.2.2.2.2.2.2.& K * -.* '.x.y.z.8 * u.m A.B.'.* * * C.2.2.2.2.2.2.2.2.2.2.2.2.2.2.2.2.2.2.2.2.2.",
"D.D.D.D.D.D.D.D.D.D.D.D.D.D.D.D.D.D.D.E.V F.: G.'.H.I.J.z * K.L.L.H.8.h.M.N.-.D.D.D.D.D.D.D.D.D.D.D.D.D.D.D.D.D.D.D.D.D.",
"O.O.O.O.O.O.O.O.O.O.O.O.O.O.O.O.O.O.O.P.Q.R.S.I T.U.V.~.W.* L X.Y.Z.`. +@..+++O.O.O.O.O.O.O.O.O.O.O.O.O.O.O.O.O.O.O.O.O.",
"@+@+@+@+@+@+@+@+@+@+@+@+@+@+@+@+@+@+@+#+$+$+$+%+&+*+T.* W.* X * =+0.-+;+$+>+$+@+@+@+@+@+@+@+@+@+@+@+@+@+@+@+@+@+@+@+@+@+",
"#+#+#+#+#+#+#+#+#+#+#+#+#+#+#+#+#+#+#+>+,+,+,+,+P.Z.'+)+!+* z ~+X.U.S.,+,+,+S.#+#+#+#+#+#+#+#+#+#+#+#+#+#+#+#+#+#+#+#+#+"};
