/* XPM */
static char * taskbuttonactive_xpm[] = {
"4 25 27 1",
" 	c None",
".	c #336F87",
"+	c #32BCF5",
"@	c #30BAF2",
"#	c #2EB7F0",
"$	c #2CB5ED",
"%	c #2AB3EB",
"&	c #28B0E8",
"*	c #26AEE6",
"=	c #24ACE3",
"-	c #22A9E1",
";	c #20A7DE",
">	c #1EA5DC",
",	c #1DA5DC",
"'	c #1CA3DA",
")	c #1BA1D8",
"!	c #1BA2D9",
"~	c #19A0D7",
"{	c #189ED5",
"]	c #179DD4",
"^	c #159BD2",
"/	c #149AD1",
"(	c #1398CF",
"_	c #1196CD",
":	c #1095CC",
"<	c #0F93CA",
"[	c #0D92C9",
"....",
"++++",
"@@@@",
"####",
"$$$$",
"%%%%",
"&&&&",
"****",
"====",
"----",
";;;;",
">>,,",
"''''",
"))!!",
"~~~~",
"{{{{",
"]]]]",
"^^^^",
"////",
"((((",
"____",
"::::",
"<<<<",
"[[[[",
"...."};
