/* XPM */
static char * menusel_xpm[] = {
"1 18 4 1",
" 	c None",
".	c #EDEDED",
"+	c #C4C4C4",
"@	c #FFFFFF",
".",
"+",
"@",
"+",
"+",
"+",
"+",
"+",
"+",
"+",
"+",
"+",
"+",
"+",
"+",
"@",
"+",
"."};
