/* XPM */
static char * minimizeA_xpm[] = {
"18 38 4 1",
" 	c None",
".	c #4B46F6",
"+	c #444444",
"@	c #FFFFFF",
"..................",
"..................",
"..................",
"++++++++++++++++++",
"++++++++++++++++++",
"++++++++++++++++++",
"++++++++++++++++++",
"++++++++++++++++++",
"+++++@@@@@@@++++++",
"+++++@@@@@@@++++++",
"++++++++++++++++++",
"++++++++++++++++++",
"++++++++++++++++++",
"++++++++++++++++++",
"++++++++++++++++++",
"++++++++++++++++++",
"++++++++++++++++++",
"++++++++++++++++++",
"++++++++++++++++++",
"++++++++++++++++++",
"..................",
"..................",
"..................",
"++++++++++++++++++",
"++++++++++++++++++",
"++++++++++++++++++",
"++++++++++++++++++",
"++++++++++++++++++",
"+++++@@@@@@@++++++",
"+++++@@@@@@@++++++",
"++++++++++++++++++",
"++++++++++++++++++",
"++++++++++++++++++",
"++++++++++++++++++",
"++++++++++++++++++",
"++++++++++++++++++",
"++++++++++++++++++",
"++++++++++++++++++"};
