/* XPM */
static char * maximizeI_xpm[] = {
"26 50 26 1",
" 	c None",
".	c #ECECEC",
"+	c #848484",
"@	c #747474",
"#	c #7E7E7E",
"$	c #949494",
"%	c #CACACA",
"&	c #E0E0E0",
"*	c #C8C8C8",
"=	c #7D7D7D",
"-	c #B0B0B0",
";	c #E4E4E4",
">	c #AFAFAF",
",	c #959595",
"'	c #828282",
")	c #CBCBCB",
"!	c #838383",
"~	c #969696",
"{	c #B1B1B1",
"]	c #737373",
"^	c #DDDDDD",
"/	c #717171",
"(	c #BDBDBD",
"_	c #707070",
":	c #BBBBBB",
"<	c #BEBEBE",
"..........................",
"..........................",
"..........................",
"..........................",
"..........................",
"..........................",
"..........................",
"...........+@@+...........",
".........#$%&&*$=.........",
"........#-;;;;;;>#........",
"........,;;;;;;;;$........",
".......');;;;;;;;*+.......",
".......@&;;;;;;;;&@.......",
".......@&;;;;;;;;&@.......",
".......');;;;;;;;*!.......",
"........~;;;;;;;;$........",
"........={;;;;;;-=........",
".........=~)&&),#.........",
"...........']]!...........",
"..........................",
"..........................",
"..........................",
"..........................",
"..........................",
"..........................",
"..........................",
"..........................",
"..........................",
"..........................",
"..........................",
"..........................",
"..........................",
"...........+@@+...........",
".........#$%&&*$=.........",
"........#-;;;;;;>#........",
"........,;;^////;$........",
".......');^;(/_/;*+.......",
".......@&;/:;(//;&@.......",
".......@&;/_:;(/;&@.......",
".......');/_/<;^;*!.......",
"........~;////^;;$........",
"........={;;;;;;-=........",
".........=~)&&),#.........",
"...........']]!...........",
"..........................",
"..........................",
"..........................",
"..........................",
"..........................",
".........................."};
