/* XPM */
static char * minimizeA_xpm[] = {
"26 38 111 2",
"  	c None",
". 	c #516E92",
"+ 	c #90BDF3",
"@ 	c #396090",
"# 	c #8FBCF3",
"$ 	c #50A5E6",
"% 	c #4FA4E6",
"& 	c #385F8F",
"* 	c #8DBBF3",
"= 	c #4FA2E5",
"- 	c #386090",
"; 	c #375F8F",
"> 	c #4EA1E4",
", 	c #365E8F",
"' 	c #8BBAF3",
") 	c #4DA0E3",
"! 	c #355E8F",
"~ 	c #8AB9F2",
"{ 	c #4C9EE3",
"] 	c #355D8F",
"^ 	c #345E8F",
"/ 	c #89B9F2",
"( 	c #4B9DE2",
"_ 	c #345D8F",
": 	c #335C8F",
"< 	c #88B7F2",
"[ 	c #4A9BE1",
"} 	c #223D5E",
"| 	c #223D5F",
"1 	c #87B7F2",
"2 	c #499AE0",
"3 	c #213D5E",
"4 	c #B9D5F6",
"5 	c #315B8F",
"6 	c #86B6F1",
"7 	c #4998E0",
"8 	c #213C5E",
"9 	c #B9D4F6",
"0 	c #305A8E",
"a 	c #84B5F1",
"b 	c #4897DF",
"c 	c #203C5E",
"d 	c #B8D4F6",
"e 	c #305A8D",
"f 	c #83B5F1",
"g 	c #4796DE",
"h 	c #1F3C5E",
"i 	c #2E598D",
"j 	c #83B4F1",
"k 	c #4694DD",
"l 	c #2F5A8D",
"m 	c #3A6FB0",
"n 	c #5997DB",
"o 	c #4593DD",
"p 	c #4081AF",
"q 	c #3F6BA0",
"r 	c #4A8BD9",
"s 	c #4491DC",
"t 	c #4C93E7",
"u 	c #39608E",
"v 	c #315B8C",
"w 	c #488DD6",
"x 	c #3F89D7",
"y 	c #0F68A7",
"z 	c #D8EE92",
"A 	c #588100",
"B 	c #B5DE26",
"C 	c #B5DF26",
"D 	c #B5DF27",
"E 	c #B4DF25",
"F 	c #B4DE25",
"G 	c #B3DE24",
"H 	c #B4DE24",
"I 	c #B3DD25",
"J 	c #B3DE25",
"K 	c #B2DC23",
"L 	c #B2DD24",
"M 	c #B1DC24",
"N 	c #B1DB24",
"O 	c #B0DB24",
"P 	c #B0DB25",
"Q 	c #AFDA24",
"R 	c #B0DA24",
"S 	c #AFD923",
"T 	c #AED922",
"U 	c #AFDA23",
"V 	c #AFD922",
"W 	c #AED923",
"X 	c #ADD823",
"Y 	c #7BAA10",
"Z 	c #ADD822",
"` 	c #FFFFFF",
" .	c #ABD620",
"..	c #ACD721",
"+.	c #ACD720",
"@.	c #A9D621",
"#.	c #A9D620",
"$.	c #AAD621",
"%.	c #A9D520",
"&.	c #A9D51F",
"*.	c #A8D41F",
"=.	c #A8D320",
"-.	c #A7D21F",
";.	c #648607",
">.	c #A6D21F",
",.	c #A5D21E",
"'.	c #A5D11E",
").	c #A4D11E",
"!.	c #A5D11F",
"~.	c #A4D01E",
"{.	c #498CCD",
". + + + + + + + + + + + + + + + + + + + + + + + + . ",
"@ # $ $ $ $ $ $ $ $ $ $ $ $ $ $ $ $ $ $ $ $ $ $ $ @ ",
"@ # % % % % % % % % % % % % % % % % % % % % % % % @ ",
"& * = = = = = = = = = = = = = = = = = = = = = = = - ",
"; * > > > > > > > > > > > > > > > > > > > > > > > ; ",
", ' ) ) ) ) ) ) ) ) ) ) ) ) ) ) ) ) ) ) ) ) ) ) ) , ",
"! ~ { { { { { { { { { { { { { { { { { { { { { { { ] ",
"^ / ( ( ( ( ( ( ( ( ( ( ( ( ( ( ( ( ( ( ( ( ( ( ( _ ",
": < [ [ [ [ [ [ } } } } } | } } } } [ [ [ [ [ [ [ : ",
": 1 2 2 2 2 2 3 4 4 4 4 4 4 4 4 4 4 3 2 2 2 2 2 2 : ",
"5 6 7 7 7 7 7 8 9 9 9 9 9 9 9 9 9 9 8 7 7 7 7 7 7 5 ",
"0 a b b b b b c d d d d d d d d d d c b b b b b b e ",
"e f g g g g g g h h h h h h h h h h g g g g g g g 0 ",
"i j k k k k k k k k k k k k k k k k k k k k k k k l ",
"m n o o o o o o o o o o o o o o o o o o o o o o o i ",
"p q r s s s s s s s s s s s s s s s s s s s s s s i ",
"t p u v i i i i i i i i i i i i i i i i i i i i i i ",
"w w x x x x x x x x x x x x x x x x x x x x x x x x ",
"y y y y y y y y y y y y y y y y y y y y y y y y y y ",
". z z z z z z z z z z z z z z z z z z z z z z z z . ",
"A z B C C B B C B C C B B D C B C C C B C C B B D A ",
"A z E E F E G F E E F E G H F E E F F E E F E G H A ",
"A z I I J I I I I I J I I J I I I J I I I J I I J A ",
"A z K L L L L L K L L L L L L K L L L K L L L L L A ",
"A z M N M M M M M N M M M N M M N M M M N M M M N A ",
"A z O O P O Q O O O P O Q R O O O P O O O P O Q R A ",
"A z S T T T U V S T T T U U V S T T V S T T T U U A ",
"A z W X W X X W Y Y Y Y Y Y Y Y Y Y W W X W X X W A ",
"A z Z Z Z Z Z Y ` ` ` ` ` ` ` ` ` ` Y Z Z Z Z Z Z A ",
"A z  ...+.+.+.Y ` ` ` ` ` ` ` ` ` ` Y  ...+.+.+.+.A ",
"A z @.#.$.%.%.Y ` ` ` ` ` ` ` ` ` ` Y @.#.$.%.%.$.A ",
"A z %.&.%.&.*.&.Y Y Y Y Y Y Y Y Y Y &.%.&.%.&.*.*.A ",
"A z =.=.=.=.=.=.=.=.=.=.=.-.=.=.=.=.=.=.=.=.=.=.-.A ",
";.Y >.,.'.,.>.'.>.,.'.,.>.,.'.>.,.'.'.>.,.'.,.>.,.A ",
"p A Y ).!.!.!.!.~.).!.!.!.!.!.~.).!.!.~.).!.!.!.!.A ",
"t p A A A A A A A A A A A A A A A A A A A A A A A A ",
"w w {.x x x x x x x x x x x x x x x x x x x x x x x ",
"y y y y y y y y y y y y y y y y y y y y y y y y y y "};
