/* XPM */
static char * frameABL_xpm[] = {
"6 5 5 1",
" 	c None",
".	c #0D243A",
"+	c #6D8DAE",
"@	c #7292B3",
"#	c #7C9CBD",
" .+@#.",
" .+@@#",
"  .++@",
"   ..+",
"     ."};
