/* XPM */
static char * frameAL_xpm[] = {
"5 1 4 1",
" 	c None",
".	c #2F3033",
"+	c #777777",
"@	c #5C5A58",
".+@@."};
