/* XPM */
static char * minimizeO_xpm[] = {
"26 52 8 1",
" 	c None",
".	c #2F3033",
"+	c #777777",
"@	c #303132",
"#	c #9E9C98",
"$	c #878583",
"%	c #000000",
"&	c #5C5A58",
"..........................",
"++++++++++++++++++++++++++",
"@@@@@@@@@@@@@@@@@@@@@@@@@@",
"@#########################",
"@#$$$$$$$$$$$$$$$$$$$$$$$#",
"@#$$$$$$$$$$$$$$$$$$$$$$$#",
"@#$$$$$$$$$$$$$$$$$$$$$$$#",
"@#$$$$$$$$$$$$$$$$$$$$$$$#",
"@#$$$$$$$$$$$$$$$$$$$$$$$#",
"@#$$$$$$$$$$$$$$$$$$$$$$$#",
"@#$$$$$$$$$$$$$$$$$$$$$$$#",
"@#$$$$$$$$$$$$$$$$$$$$$$$#",
"@#$$$$$$$$$$$$$$$$$$$$$$$#",
"@#$$$$$$$$$$$$$$$$$$$$$$$#",
"@#$$$$$$%%%%%%%%%%$$$$$$$#",
"@#$$$$$$%%%%%%%%%%$$$$$$$#",
"@#$$$$$$%%%%%%%%%%$$$$$$$#",
"@#$$$$$$$$$$$$$$$$$$$$$$$#",
"@#$$$$$$$$$$$$$$$$$$$$$$$#",
"@#$$$$$$$$$$$$$$$$$$$$$$$#",
"@#$$$$$$$$$$$$$$$$$$$$$$$#",
"@#$$$$$$$$$$$$$$$$$$$$$$$#",
"@#########################",
"@@@@@@@@@@@@@@@@@@@@@@@@@@",
"&&&&&&&&&&&&&&&&&&&&&&&&&&",
"..........................",
"..........................",
"++++++++++++++++++++++++++",
"@@@@@@@@@@@@@@@@@@@@@@@@@@",
"@#########################",
"@#$$$$$$$$$$$$$$$$$$$$$$$#",
"@#$$$$$$$$$$$$$$$$$$$$$$$#",
"@#$$$$$$$$$$$$$$$$$$$$$$$#",
"@#$$$$$$$$$$$$$$$$$$$$$$$#",
"@#$$$$$$$$$$$$$$$$$$$$$$$#",
"@#$$$$$$$$$$$$$$$$$$$$$$$#",
"@#$$$$$$$$$$$$$$$$$$$$$$$#",
"@#$$$$$$$$$$$$$$$$$$$$$$$#",
"@#$$$$$$$$$$$$$$$$$$$$$$$#",
"@#$$$$$$$$$$$$$$$$$$$$$$$#",
"@#$$$$$$%%%%%%%%%%$$$$$$$#",
"@#$$$$$$%%%%%%%%%%$$$$$$$#",
"@#$$$$$$%%%%%%%%%%$$$$$$$#",
"@#$$$$$$$$$$$$$$$$$$$$$$$#",
"@#$$$$$$$$$$$$$$$$$$$$$$$#",
"@#$$$$$$$$$$$$$$$$$$$$$$$#",
"@#$$$$$$$$$$$$$$$$$$$$$$$#",
"@#$$$$$$$$$$$$$$$$$$$$$$$#",
"@#########################",
"@@@@@@@@@@@@@@@@@@@@@@@@@@",
"&&&&&&&&&&&&&&&&&&&&&&&&&&",
".........................."};
