/* XPM */
static char * windows_xpm[] = {
"20 20 25 1",
" 	c None",
".	c #222222",
"+	c #060606",
"@	c #4E4E4E",
"#	c #727272",
"$	c #7E7E7E",
"%	c #464646",
"&	c #797979",
"*	c #3D3D3D",
"=	c #363636",
"-	c #8C8C8C",
";	c #646464",
">	c #2E2E2E",
",	c #5E5E5E",
"'	c #292929",
")	c #575757",
"!	c #252525",
"~	c #747474",
"{	c #525252",
"]	c #5F5F5F",
"^	c #494949",
"/	c #1E1E1E",
"(	c #505050",
"_	c #121212",
":	c #0B0B0B",
"                    ",
".++++++++++++++++++.",
"+@################@+",
"+$%%%%%%%%%%%%%%%%$+",
"+&**++++++++******&+",
"+#=+----+-+-+=====#+",
"+;>+----+-+-+>>>>>;+",
"+,'+++++++++++++'',+",
"+)!+~~~~~~~~+-+-+!)+",
"+{.+]]]]]]]]+-+-+.{+",
"+^/+((((((((+++++/^+",
"+>_+========+~~~+_>+",
"+>__++++++++]]]]+_>+",
"+>_____+((((((((+_>+",
"+>_____+========+_>+",
"+>______++++++++__>+",
"+>________________>+",
"+>________________>+",
"+:>>>>>>>>>>>>>>>>:+",
":++++++++++++++++++:"};
