/* XPM */
static char * maximizeA_xpm[] = {
"26 50 124 2",
"  	c None",
". 	c #EDEDED",
"+ 	c #C1DDC7",
"@ 	c #66BE78",
"# 	c #21A63D",
"$ 	c #059A24",
"% 	c #67BF79",
"& 	c #C2DEC8",
"* 	c #79C389",
"= 	c #35B051",
"- 	c #4CC467",
"; 	c #72E28C",
"> 	c #81ED9C",
", 	c #71E28C",
"' 	c #4BC468",
") 	c #7AC389",
"! 	c #79C388",
"~ 	c #3CB958",
"{ 	c #5AD477",
"] 	c #87F1A1",
"^ 	c #99FDB2",
"/ 	c #A2FFBB",
"( 	c #99FCB2",
"_ 	c #58D376",
": 	c #3CB858",
"< 	c #7BC48A",
"[ 	c #C0DDC6",
"} 	c #34AF4F",
"| 	c #5AD476",
"1 	c #97FBB1",
"2 	c #A5FFBD",
"3 	c #9FFFB7",
"4 	c #9DFFB6",
"5 	c #A5FFBE",
"6 	c #97FBB0",
"7 	c #59D376",
"8 	c #64BD78",
"9 	c #4DC467",
"0 	c #86F1A1",
"a 	c #4BC467",
"b 	c #1FA63C",
"c 	c #73E38D",
"d 	c #9AFDB3",
"e 	c #9EFFB7",
"f 	c #70E28D",
"g 	c #22A83E",
"h 	c #82ED9D",
"i 	c #81ED9D",
"j 	c #069C26",
"k 	c #83ED9D",
"l 	c #A3FFBB",
"m 	c #1FA53C",
"n 	c #73E38E",
"o 	c #71E28D",
"p 	c #21A63E",
"q 	c #63BD77",
"r 	c #4DC568",
"s 	c #88F1A2",
"t 	c #66BD79",
"u 	c #BFDCC5",
"v 	c #5BD477",
"w 	c #98FCB1",
"x 	c #98FBB1",
"y 	c #5AD377",
"z 	c #78C287",
"A 	c #3CB959",
"B 	c #3EB859",
"C 	c #83ED9E",
"D 	c #1EA53C",
"E 	c #049A25",
"F 	c #1FA53D",
"G 	c #64BD77",
"H 	c #9BFEB4",
"I 	c #A8FFC0",
"J 	c #A8FFC1",
"K 	c #A0FFB8",
"L 	c #8AF3A4",
"M 	c #5AD376",
"N 	c #93F8AC",
"O 	c #72E38E",
"P 	c #77E793",
"Q 	c #78E793",
"R 	c #94F9AE",
"S 	c #95FAAF",
"T 	c #8CF4A6",
"U 	c #49C967",
"V 	c #29B549",
"W 	c #26B346",
"X 	c #58D375",
"Y 	c #89F3A4",
"Z 	c #93F8AD",
"` 	c #93F9AD",
" .	c #6FE28B",
"..	c #13A734",
"+.	c #009419",
"@.	c #27B347",
"#.	c #79E894",
"$.	c #9FFFB8",
"%.	c #A9FFC1",
"&.	c #72E38D",
"*.	c #48C966",
"=.	c #6CE088",
"-.	c #75E590",
";.	c #2BB54B",
">.	c #78E794",
",.	c #2AB549",
"'.	c #12A533",
").	c #71E38C",
"!.	c #9CFFB6",
"~.	c #70E28C",
"{.	c #4BCA69",
"].	c #73E48E",
"^.	c #A0FFB9",
"/.	c #009319",
"(.	c #13A634",
"_.	c #94FAAE",
":.	c #8DF4A6",
"<.	c #9BFDB4",
"[.	c #8BF3A5",
"}.	c #58D275",
"|.	c #4ACA67",
"1.	c #5BD478",
"2.	c #96FAAF",
"3.	c #77E792",
". . . . . . . . . . . . . . . . . . . . . . . . . . ",
". . . . . . . . . . . . . . . . . . . . . . . . . . ",
". . . . . . . . . . . . . . . . . . . . . . . . . . ",
". . . . . . . . . . . . . . . . . . . . . . . . . . ",
". . . . . . . . . . . . . . . . . . . . . . . . . . ",
". . . . . . . . . . . . . . . . . . . . . . . . . . ",
". . . . . . . . . + @ # $ $ # % & . . . . . . . . . ",
". . . . . . . . * = - ; > > , ' = ) . . . . . . . . ",
". . . . . . . ! ~ { ] ^ / / ( ] _ : < . . . . . . . ",
". . . . . . [ } | 1 2 3 4 4 3 5 6 7 = & . . . . . . ",
". . . . . . 8 9 ] 2 4 4 4 4 4 4 5 0 a % . . . . . . ",
". . . . . . b c d e 4 4 4 4 4 4 3 ( f g . . . . . . ",
". . . . . . $ h / 4 4 4 4 4 4 4 4 / i j . . . . . . ",
". . . . . . $ k l 4 4 4 4 4 4 4 4 / i j . . . . . . ",
". . . . . . m n d e 4 4 4 4 4 4 3 ( o p . . . . . . ",
". . . . . . q r s 2 4 4 4 4 4 4 2 ] ' t . . . . . . ",
". . . . . . u } v w 2 e 4 4 e 2 x y = + . . . . . . ",
". . . . . . . z A v s d l l d ] { B ) . . . . . . . ",
". . . . . . . . z } r n k C c 9 = * . . . . . . . . ",
". . . . . . . . . u q D E E F G [ . . . . . . . . . ",
". . . . . . . . . . . . . . . . . . . . . . . . . . ",
". . . . . . . . . . . . . . . . . . . . . . . . . . ",
". . . . . . . . . . . . . . . . . . . . . . . . . . ",
". . . . . . . . . . . . . . . . . . . . . . . . . . ",
". . . . . . . . . . . . . . . . . . . . . . . . . . ",
". . . . . . . . . . . . . . . . . . . . . . . . . . ",
". . . . . . . . . . . . . . . . . . . . . . . . . . ",
". . . . . . . . . . . . . . . . . . . . . . . . . . ",
". . . . . . . . . . . . . . . . . . . . . . . . . . ",
". . . . . . . . . . . . . . . . . . . . . . . . . . ",
". . . . . . . . . . . . . . . . . . . . . . . . . . ",
". . . . . . . . . + @ # $ $ # % & . . . . . . . . . ",
". . . . . . . . * = - ; > > , ' = ) . . . . . . . . ",
". . . . . . . ! ~ { ] H I J K L 7 : < . . . . . . . ",
". . . . . . [ } M w 5 N O P Q R S 7 = & . . . . . . ",
". . . . . . 8 9 ] 5 e T U V W X R Y a % . . . . . . ",
". . . . . . b c H Z T `  ...+.@.#.$.f g . . . . . . ",
". . . . . . $ h %.&.*.=.4 -...;.>.J i j . . . . . . ",
". . . . . . $ k %.Q ,.'.).!.~.{.].J i j . . . . . . ",
". . . . . . m n ^.#.@./.(.)._.:.N <.o p . . . . . . ",
". . . . . . q r [.` }.W V |.T e 5 ] ' t . . . . . . ",
". . . . . . u } 1.2.` Q 3.&.N 5 w y = + . . . . . . ",
". . . . . . . z : 1.[.^.%.%.H ] { B ) . . . . . . . ",
". . . . . . . . z } r n k C c 9 = * . . . . . . . . ",
". . . . . . . . . u q D E E F G [ . . . . . . . . . ",
". . . . . . . . . . . . . . . . . . . . . . . . . . ",
". . . . . . . . . . . . . . . . . . . . . . . . . . ",
". . . . . . . . . . . . . . . . . . . . . . . . . . ",
". . . . . . . . . . . . . . . . . . . . . . . . . . ",
". . . . . . . . . . . . . . . . . . . . . . . . . . "};
