/* XPM */
static char * colon_xpm[] = {
"4 20 8 1",
" 	c None",
".	c #FFFFFF",
"+	c #EFEFEF",
"@	c #1A1A1A",
"#	c #ECECEC",
"$	c #FBFBFB",
"%	c #D3D3D3",
"&	c #5F5F5F",
"....",
"....",
"....",
"....",
"....",
"....",
"....",
"+@@.",
"#@@.",
"....",
"....",
"....",
"$%%.",
"#@@.",
"#@@.",
"....",
"....",
"....",
"....",
"&&&&"};
