/* XPM */
static char * percent_xpm[] = {
"10 20 22 1",
" 	c None",
".	c #FFFFFF",
"+	c #9F9F9F",
"@	c #4F4F4F",
"#	c #636363",
"$	c #BABABA",
"%	c #515151",
"&	c #A8A8A8",
"*	c #727272",
"=	c #555555",
"-	c #CFCFCF",
";	c #9C9C9C",
">	c #4E4E4E",
",	c #9E9E9E",
"'	c #8E8E8E",
")	c #8A8A8A",
"!	c #D2D2D2",
"~	c #535353",
"{	c #757575",
"]	c #A1A1A1",
"^	c #BCBCBC",
"/	c #5D5D5D",
"..........",
"..........",
"..........",
"..........",
"..........",
"..........",
".+@+..#$..",
".%.%.&*...",
".%.%.=-...",
".;>,')+@+.",
"...!~.%.%.",
"...{].%.%.",
"..^/..,>,.",
"..........",
"..........",
"..........",
"..........",
"..........",
"..........",
".........."};
