/* XPM */
static char * frameIB_xpm[] = {
"3 4 3 1",
" 	c None",
".	c #F3F4F8",
"+	c #83949E",
"...",
"...",
"...",
"+++"};
