/* XPM */
static char * n4_xpm[] = {
"10 19 22 1",
" 	c None",
".	c #87A8C9",
"+	c #7E9FC1",
"@	c #7799BD",
"#	c #7195BA",
"$	c #678BB1",
"%	c #6185A9",
"&	c #1D3C5A",
"*	c #587BA0",
"=	c #FFFFFF",
"-	c #52769B",
";	c #4C6F93",
">	c #2A4158",
",	c #35516D",
"'	c #3F5F80",
")	c #496E94",
"!	c #51789F",
"~	c #597FA6",
"{	c #6286AC",
"]	c #6D91B5",
"^	c #7597BA",
"/	c #80A0C1",
"..........",
"++++++++++",
"@@@@@@@@@@",
"##########",
"$$$$$$$$$$",
"%%&%%%%&%%",
"*&=&**&=&*",
"-&=&--&=&-",
";&=&&&&=&;",
">>&=====>>",
",,,&&&&=&,",
"''''''&=&'",
"))))))&=&)",
"!!!!!!!&!!",
"~~~~~~~~~~",
"{{{{{{{{{{",
"]]]]]]]]]]",
"^^^^^^^^^^",
"//////////"};
