/* XPM */
static char * nomail_xpm[] = {
"16 16 3 1",
" 	c None",
".	c #09243C",
"+	c #FFFFFF",
"                ",
"                ",
"                ",
"  ...........   ",
"  ...........   ",
"  .+.......+.   ",
"  ..+.....+..   ",
"  ...+...+...   ",
"  ....+.+....   ",
"  .....+.....   ",
"  ...........   ",
"  ...........   ",
"                ",
"                ",
"                ",
"                "};
