/* XPM */
static char *closeA[] = {
/* columns rows colors chars-per-pixel */
"20 58 117 2 ",
"   c #0E0E0F",
".  c #0E0E10",
"X  c #262629",
"o  c #27272A",
"O  c #27272B",
"+  c #28282A",
"@  c #29292D",
"#  c #2B2B2F",
"$  c #2D2D31",
"%  c #303034",
"&  c #333337",
"*  c #3C3A37",
"=  c #3C3C37",
"-  c #333338",
";  c #35353A",
":  c #3D3B38",
">  c #3F3F3B",
",  c #3F3F3C",
"<  c #403E3B",
"1  c #403F3C",
"2  c #41413C",
"3  c #43413D",
"4  c #42423C",
"5  c #44433D",
"6  c #44423E",
"7  c #46443E",
"8  c #444340",
"9  c #464640",
"0  c #454442",
"q  c #4A4841",
"w  c #4B4841",
"e  c #4B4A42",
"r  c #4C4A43",
"t  c #494847",
"y  c #4A4947",
"u  c #4C4A44",
"i  c #4F4D45",
"p  c #4B4A49",
"a  c #4D4C4B",
"s  c #514F47",
"d  c #525048",
"f  c #54524A",
"g  c #52524F",
"h  c #56554D",
"j  c #535250",
"k  c #595750",
"l  c #5B5A53",
"z  c #5E5C55",
"x  c #5E5D55",
"c  c #59595B",
"v  c #5B5B5D",
"b  c #5C5C5E",
"n  c #5D5C5E",
"m  c #605F58",
"M  c #5E5E61",
"N  c #5E5E62",
"B  c #636367",
"V  c #646367",
"C  c #676769",
"Z  c #66656B",
"A  c #6C6C72",
"S  c #6B6B74",
"D  c #74747B",
"F  c #77777F",
"G  c #777781",
"H  c #787880",
"J  c #7C7B86",
"K  c #7C7C85",
"L  c #7C7C86",
"P  c #7F7F8A",
"I  c #828286",
"U  c #848489",
"Y  c #86858B",
"T  c #83838E",
"R  c #84848E",
"E  c #858590",
"W  c #888893",
"Q  c #8C8C93",
"!  c #888894",
"~  c #8A8A96",
"^  c #8B8B96",
"/  c #8E8E97",
"(  c #8C8C98",
")  c #8C8C99",
"_  c #8E8E9B",
"`  c #8F8F9B",
"'  c #8F8F9C",
"]  c #92929F",
"[  c #94949D",
"{  c #94949F",
"}  c #9393A0",
"|  c #9393A1",
" . c #9494A1",
".. c #9595A3",
"X. c #9696A3",
"o. c #9696A4",
"O. c #9998A2",
"+. c #9898A5",
"@. c #9B9BA5",
"#. c #9898A6",
"$. c #9999A7",
"%. c #9B9BA9",
"&. c #9E9EA8",
"*. c #9D9DAA",
"=. c #A3A3AB",
"-. c #A0A0AD",
";. c #A2A2AF",
":. c #A5A5AD",
">. c #A7A7AF",
",. c #A5A5B2",
"<. c #A6A6B2",
"1. c #A7A7B3",
"2. c #AAAAB4",
"3. c #ABABB7",
"4. c #AFAFBB",
"5. c #B0B0BB",
"6. c #B2B2BC",
/* pixels */
"m m m m m m m m m m m m m m z m m m m m ",
"z z z z z z z z z z z z z z z z z z z z ",
"l l l l l l l l l l l l l l l l l l z l ",
"k k k k k k k k k k k k l k k k k k k l ",
"h h h h h h h h h h h h h h h h h h h h ",
"f f f d f f f f f f f f f f f g f f f f ",
"d d d d d s e 9 2 < * > e e d d s s s s ",
"i s i i e 6 g Y >.6.5.:.Y j 7 e s i s i ",
"e e u 9 6 Q 5.5.5.5.5.5.5.5.W 4 e e e e ",
"e q 6 0 *.3.3.3.3.3.3.3.1.3.3.@.7 7 e e ",
"7 6 < [ <.1.<.<.<.<.<.<.<.<.<.<.) 6 7 7 ",
"7 6 C ;.;.;.;.;.;.;.;.;.;.;.*.;.*.C 2 4 ",
"2 < [ *.*.*.F % o.%.%.%.% G %.%.*.{ > < ",
"< a $.$.$.$...; @ [ [ @ ; ..$.o.$...y > ",
"* b ............; o o ; ........o.o.b * ",
"* C ..{ ..| ....) . . ) | | [ ..} [ V * ",
"* v { { { | | ) @ - % o ) { { { { | c * ",
"* a ~ ..) ) ~ o % ) ) $ o ~ ) ) ) ) y * ",
"* , R ) ) ) S @ ~ ) ) ~ @ S ) ) ) T > * ",
"* > M ) ~ ) ~ ~ ~ ~ ~ ~ ~ ~ ~ ~ ~ v > * ",
"* * > F E ) E ~ ~ ~ ! E E ~ W ~ H 2 = * ",
"* * > 2 J E E W E E E E E E E L , > * = ",
"= * * * , A T T T R E R T T A , * * = * ",
"* = * = : , y C G H J F B y < * * * * = ",
"= * = * = * = > 2 2 * > > * * = = * = * ",
"* = * = * = = * * = * * = * = * * = * = ",
"= * = * * = * = = * = * * = * = = * = * ",
"* = * = = * = * * = * = = * = * * = * = ",
"* = = = * > = * = = = = = = = = = * = * ",
"m m m m x z m z m m m m m m m m m m m m ",
"z z z z z z z z z z z z z z z z z z z z ",
"l l l l l l l l l l l l l l l l l l l l ",
"l h l k k k k k k k k k k k k k l k k k ",
"h h h h k j h h h h h h h h h h h h h h ",
"f f d f f f f f f s f d f f f f f f f f ",
"d d d d d d u 9 2 < < 6 7 e d d d d d d ",
"i i s s e < y C H P P H C t , e s i i i ",
"e e e 9 < A R E T T T T T T A 1 7 e e u ",
"e e 6 9 L E W E E ! E E E E E J 6 7 e e ",
"7 7 1 H ~ E ~ E ! ! W W ! W W ~ F < 6 7 ",
"6 2 M ~ ( ( ~ ~ ~ ~ ~ ~ ~ ~ ~ ~ ) b 2 6 ",
"2 1 E ) ) ) S @ ~ ) ) ! # S ) ) ) T 2 > ",
": t ) _ ) { ) - o ~ ~ o - ) ) ' ) ) y > ",
"* M { | ' { | ) - o o & ' ) { | ' { c * ",
"* C ..| ..| ..{ )     ) } } } } { { B * ",
"* b ....o.....| @ - - @ | ....o.....v * ",
"> a $.$.%.+.} @ ; ....% @ } $.$.$.$.y * ",
"* 2 [ *.*.*.H % +.*.%.%.% F %.%.$.{ > = ",
"* < C ;.;.;.;.;.;.;.;.;.;.-.;.-.-.C > * ",
"* * 2 [ <.<.<.<.>.1.<.<.<.<.<.<./ > * = ",
"= * = 6 *.1.3.3.3.3.3.1.1.1.3.O.2 * * * ",
"* = = > 7 ( 5.5.5.5.5.5.5.5.W 7 > * * = ",
"= * = * * 6 j I &.1.3.:.U g 2 * = * = * ",
"* = * = = * * 2 > > = 2 2 * = = * = * = ",
"= * = * = * * * * = * = * * = * = * = * ",
"* = * = * = * * = * = * * * * = * = * = ",
"= * = * = * = * = * = * = * = * = * = * ",
"* = * = * = * = * = * = * = * = * = * = "
};
