/* XPM */
static char * windows_xpm[] = {
"16 25 298 2",
"  	c None",
". 	c #F8F8F8",
"+ 	c #FCFCFC",
"@ 	c #FBFBFB",
"# 	c #FAFAFA",
"$ 	c #E4E4E4",
"% 	c #CECECE",
"& 	c #F5F5F6",
"* 	c #EBECEE",
"= 	c #EBEDEF",
"- 	c #ECEDEF",
"; 	c #ECEEEE",
"> 	c #EBECED",
", 	c #EFF0F1",
"' 	c #EDEDEC",
") 	c #C9C9C9",
"! 	c #DBE0E9",
"~ 	c #8EA8CF",
"{ 	c #96B5DB",
"] 	c #9CBDDF",
"^ 	c #A3C4E5",
"/ 	c #A9CAE9",
"( 	c #ADCDEA",
"_ 	c #AACBE9",
": 	c #A4C4E5",
"< 	c #9EBDE1",
"[ 	c #96B6DC",
"} 	c #8BAAD4",
"| 	c #A8BBDA",
"1 	c #EAEBEE",
"2 	c #CBCBCB",
"3 	c #C3CEE0",
"4 	c #4275BF",
"5 	c #4C88D2",
"6 	c #5896DA",
"7 	c #65A4E3",
"8 	c #6FAEE9",
"9 	c #74B2EB",
"0 	c #70AFE9",
"a 	c #65A3E2",
"b 	c #5996DA",
"c 	c #4D89D3",
"d 	c #3975C6",
"e 	c #6A8FCB",
"f 	c #E3E6EB",
"g 	c #C4D0E2",
"h 	c #4279C7",
"i 	c #4182D2",
"j 	c #4F91DB",
"k 	c #5C9EE3",
"l 	c #65A6E8",
"m 	c #7CB4EB",
"n 	c #69A9E8",
"o 	c #6AA6E4",
"p 	c #609BDD",
"q 	c #4585D3",
"r 	c #3272C9",
"s 	c #6790CF",
"t 	c #E0E3E9",
"u 	c #CCCCCC",
"v 	c #C6D1E3",
"w 	c #437BC8",
"x 	c #3D7ED1",
"y 	c #4B8CD9",
"z 	c #5799E0",
"A 	c #66A4E4",
"B 	c #A7C9ED",
"C 	c #78ADE5",
"D 	c #9EC3EB",
"E 	c #8BB3E3",
"F 	c #4584D2",
"G 	c #3071C8",
"H 	c #6791D0",
"I 	c #DADDE3",
"J 	c #C6D2E4",
"K 	c #4078C7",
"L 	c #397ACE",
"M 	c #4587D5",
"N 	c #5293DB",
"O 	c #5F9CDE",
"P 	c #A3C5EB",
"Q 	c #7CADE3",
"R 	c #A8C8ED",
"S 	c #6FA0DB",
"T 	c #3C7CCE",
"U 	c #2C6DC6",
"V 	c #648DCC",
"W 	c #D1D4DA",
"X 	c #D0D0D0",
"Y 	c #C5D1E4",
"Z 	c #3A71C3",
"` 	c #3575CB",
" .	c #4181D2",
"..	c #5F98DC",
"+.	c #6EA3DE",
"@.	c #93BBE8",
"#.	c #8DB8E7",
"$.	c #90B8E6",
"%.	c #4985D1",
"&.	c #3676CB",
"*.	c #2767C3",
"=.	c #5F88C9",
"-.	c #CED1D7",
";.	c #D1D1D1",
">.	c #C4CFE3",
",.	c #2E65BB",
"'.	c #2E6EC6",
").	c #3B7BCE",
"!.	c #5690D7",
"~.	c #679CDA",
"{.	c #8CB8E8",
"].	c #9CC5ED",
"^.	c #74A6DF",
"/.	c #397ACC",
"(.	c #3171C8",
"_.	c #2161BE",
":.	c #5B82C4",
"<.	c #CDD0D6",
"[.	c #D2D2D2",
"}.	c #C3CFE2",
"|.	c #2157B2",
"1.	c #205EBD",
"2.	c #3576CB",
"3.	c #4688D4",
"4.	c #4E8BD3",
"5.	c #85B7E9",
"6.	c #97C5EF",
"7.	c #6FA6E2",
"8.	c #4786D3",
"9.	c #2D6CC5",
"0.	c #1654B6",
"a.	c #587CC1",
"b.	c #CCCFD5",
"c.	c #D4D4D4",
"d.	c #1C51AF",
"e.	c #0E4BB1",
"f.	c #3071C7",
"g.	c #4C90D9",
"h.	c #4685D2",
"i.	c #78B0E6",
"j.	c #83B9E9",
"k.	c #7EB7EA",
"l.	c #619BDB",
"m.	c #2765C0",
"n.	c #0944AD",
"o.	c #5678BF",
"p.	c #CACED4",
"q.	c #D5D5D5",
"r.	c #C5D0E4",
"s.	c #1D52AF",
"t.	c #0745AD",
"u.	c #2161BD",
"v.	c #4788D3",
"w.	c #4684D1",
"x.	c #7AB3E7",
"y.	c #6CA4DF",
"z.	c #8AC1ED",
"A.	c #659EDC",
"B.	c #1451B5",
"C.	c #013BA7",
"D.	c #5578BE",
"E.	c #C9CCD2",
"F.	c #D6D6D6",
"G.	c #C5D1E5",
"H.	c #2056B2",
"I.	c #0D4BB0",
"J.	c #1958B8",
"K.	c #4482CF",
"L.	c #5C97D9",
"M.	c #7FB6E7",
"N.	c #6098D8",
"O.	c #85BBEA",
"P.	c #66A0DC",
"Q.	c #1250B4",
"R.	c #033EA9",
"S.	c #C7CBD1",
"T.	c #C7D3E6",
"U.	c #265CB6",
"V.	c #1453B5",
"W.	c #1E5DBB",
"X.	c #548FD4",
"Y.	c #83B9E8",
"Z.	c #88BBE8",
"`.	c #78AEE3",
" +	c #78B0E5",
".+	c #4581CD",
"++	c #1452B5",
"@+	c #0743AC",
"#+	c #C6CACF",
"$+	c #D7D7D7",
"%+	c #C9D4E7",
"&+	c #2C62BA",
"*+	c #1B5ABA",
"=+	c #2665C0",
"-+	c #5590D6",
";+	c #79AFE3",
">+	c #92C2EA",
",+	c #77AEE3",
"'+	c #5D99DA",
")+	c #1857B8",
"!+	c #0D4AB0",
"~+	c #557BBF",
"{+	c #C5C8CE",
"]+	c #D8D8D8",
"^+	c #CAD5E8",
"/+	c #3168BE",
"(+	c #2260BE",
"_+	c #2C6CC5",
":+	c #3D7CCD",
"<+	c #4A86D1",
"[+	c #8CBCE8",
"}+	c #5691D6",
"|+	c #3E7DCD",
"1+	c #2867C2",
"2+	c #1F5EBC",
"3+	c #577EC2",
"4+	c #C4C7CC",
"5+	c #CBD7E9",
"6+	c #366EC1",
"7+	c #2868C3",
"8+	c #3C7DCF",
"9+	c #4685D4",
"0+	c #71A7E1",
"a+	c #4A88D4",
"b+	c #3070C8",
"c+	c #2564C1",
"d+	c #1756B8",
"e+	c #5881C4",
"f+	c #C2C5CB",
"g+	c #DADADA",
"h+	c #CCD8E9",
"i+	c #3E75C5",
"j+	c #3170C7",
"k+	c #3C7CCF",
"l+	c #4686D4",
"m+	c #4C8CD8",
"n+	c #5996DC",
"o+	c #4383D3",
"p+	c #3A79CD",
"q+	c #2F6EC6",
"r+	c #1F5EBD",
"s+	c #5D86C6",
"t+	c #C1C4CA",
"u+	c #D3DDEC",
"v+	c #608ED0",
"w+	c #568CD3",
"x+	c #6096DA",
"y+	c #6A9FDF",
"z+	c #6FA5E3",
"A+	c #70A7E4",
"B+	c #6EA5E3",
"C+	c #689EDF",
"D+	c #6095D9",
"E+	c #568BD3",
"F+	c #487DCC",
"G+	c #799BD0",
"H+	c #C2C5C9",
"I+	c #E6EAF1",
"J+	c #B2C7E4",
"K+	c #ACC4E4",
"L+	c #AFC7E4",
"M+	c #B1C9E5",
"N+	c #B1CAE5",
"O+	c #B0C8E3",
"P+	c #ADC6E0",
"Q+	c #A8C0DC",
"R+	c #A2BAD8",
"S+	c #9CB3D4",
"T+	c #94ABCE",
"U+	c #A7B6CE",
"V+	c #C3C4C6",
"W+	c #DEDEDE",
"X+	c #F5F5F5",
"Y+	c #F1F1F1",
"Z+	c #EDEDED",
"`+	c #E9E9E8",
" @	c #E5E5E5",
".@	c #E0E0E0",
"+@	c #DCDBDB",
"@@	c #D8D7D7",
"#@	c #D4D3D3",
"$@	c #CCCCCB",
"%@	c #C8C8C7",
"&@	c #C4C4C4",
"*@	c #C6C5C5",
"=@	c #EBEBEB",
"-@	c #E7E7E7",
";@	c #E1E1E1",
">@	c #DDDCDC",
",@	c #D9D9D9",
"'@	c #D6D5D5",
")@	c #C8C8C8",
"!@	c #C5C5C5",
"~@	c #BCBCBC",
"{@	c #C7C7C7",
"]@	c #D3D3D3",
"^@	c #CFCFCF",
"/@	c #858585",
"                                ",
"  . + + + + + + + + + @ @ # $   ",
"% & * * = = - ; - = = > > , '   ",
") ! ~ { ] ^ / ( _ : < [ } | 1   ",
"2 3 4 5 6 7 8 9 0 a b c d e f   ",
"2 g h i j k l m n o p q r s t   ",
"u v w x y z A B C D E F G H I   ",
"% J K L M N O P Q R S T U V W   ",
"X Y Z `  ...+.@.#.$.%.&.*.=.-.  ",
";.>.,.'.).!.~.{.].^./.(._.:.<.  ",
"[.}.|.1.2.3.4.5.6.7.8.9.0.a.b.  ",
"c.>.d.e.f.g.h.i.j.k.l.m.n.o.p.  ",
"q.r.s.t.u.v.w.x.y.z.A.B.C.D.E.  ",
"F.G.H.I.J.K.L.M.N.O.P.Q.R.D.S.  ",
"F.T.U.V.W.X.Y.Z.`. +.+++@+D.#+  ",
"$+%+&+*+=+-+;+>+,+'+m.)+!+~+{+  ",
"]+^+/+(+_+:+<+[+}+|+1+2+Q.3+4+  ",
"]+5+6+7+r 8+9+0+a+).b+c+d+e+f+  ",
"g+h+i+j+k+l+m+n+m+o+p+q+r+s+t+  ",
"g+u+v+w+x+y+z+A+B+C+D+E+F+G+H+  ",
"]+I+J+K+L+M+N+O+P+Q+R+S+T+U+V+  ",
"W+X+Y+Z+`+ @.@+@@@#@X $@%@&@*@  ",
"  =@=@-@$ ;@>@,@'@[.X u )@!@~@  ",
"  {@,@]+F.F.q.]@[.;.;.^@^@2 /@  ",
"                                "};
