/* XPM */
static char *menusel[] = {
/* columns rows colors chars-per-pixel */
"10 20 200 2 ",
"   c #6FAD6B",
".  c #6FAD6B",
"X  c #6FAD6B",
"o  c #6FAD6B",
"O  c #6FAD6B",
"+  c #6FAD6B",
"@  c #6FAD6B",
"#  c #6FAD6B",
"$  c #6FAD6B",
"%  c #6FAD6B",
"&  c #6EAB6A",
"*  c #6EAB6A",
"=  c #6EAB6A",
"-  c #6EAB6A",
";  c #6EAB6A",
":  c #6EAB6A",
">  c #6EAB6A",
",  c #6EAB6A",
"<  c #6EAB6A",
"1  c #6EAB6A",
"2  c #6DA969",
"3  c #6DA969",
"4  c #6DA969",
"5  c #6DA969",
"6  c #6DA969",
"7  c #6DA969",
"8  c #6DA969",
"9  c #6DA969",
"0  c #6DA969",
"q  c #6DA969",
"w  c #6BA767",
"e  c #6BA767",
"r  c #6BA767",
"t  c #6BA767",
"y  c #6BA767",
"u  c #6BA767",
"i  c #6BA767",
"p  c #6BA767",
"a  c #6BA767",
"s  c #6BA767",
"d  c #6AA566",
"f  c #6AA566",
"g  c #6AA566",
"h  c #6AA566",
"j  c #6AA566",
"k  c #6AA566",
"l  c #6AA566",
"z  c #6AA566",
"x  c #6AA566",
"c  c #6AA566",
"v  c #69A365",
"b  c #69A365",
"n  c #69A365",
"m  c #69A365",
"M  c #69A365",
"N  c #69A365",
"B  c #69A365",
"V  c #69A365",
"C  c #69A365",
"Z  c #69A365",
"A  c #67A164",
"S  c #67A164",
"D  c #67A164",
"F  c #67A164",
"G  c #67A164",
"H  c #67A164",
"J  c #67A164",
"K  c #67A164",
"L  c #67A164",
"P  c #67A164",
"I  c #669F63",
"U  c #669F63",
"Y  c #669F63",
"T  c #669F63",
"R  c #669F63",
"E  c #669F63",
"W  c #669F63",
"Q  c #669F63",
"!  c #669F63",
"~  c #669F63",
"^  c #659D61",
"/  c #659D61",
"(  c #659D61",
")  c #659D61",
"_  c #659D61",
"`  c #659D61",
"'  c #659D61",
"]  c #659D61",
"[  c #659D61",
"{  c #659D61",
"}  c #649B60",
"|  c #649B60",
" . c #649B60",
".. c #649B60",
"X. c #649B60",
"o. c #649B60",
"O. c #649B60",
"+. c #649B60",
"@. c #649B60",
"#. c #649B60",
"$. c #62985F",
"%. c #62985F",
"&. c #62985F",
"*. c #62985F",
"=. c #62985F",
"-. c #62985F",
";. c #62985F",
":. c #62985F",
">. c #62985F",
",. c #62985F",
"<. c #61965E",
"1. c #61965E",
"2. c #61965E",
"3. c #61965E",
"4. c #61965E",
"5. c #61965E",
"6. c #61965E",
"7. c #61965E",
"8. c #61965E",
"9. c #61965E",
"0. c #60945C",
"q. c #60945C",
"w. c #60945C",
"e. c #60945C",
"r. c #60945C",
"t. c #60945C",
"y. c #60945C",
"u. c #60945C",
"i. c #60945C",
"p. c #60945C",
"a. c #5F925B",
"s. c #5F925B",
"d. c #5F925B",
"f. c #5F925B",
"g. c #5F925B",
"h. c #5F925B",
"j. c #5F925B",
"k. c #5F925B",
"l. c #5F925B",
"z. c #5F925B",
"x. c #5D905A",
"c. c #5D905A",
"v. c #5D905A",
"b. c #5D905A",
"n. c #5D905A",
"m. c #5D905A",
"M. c #5D905A",
"N. c #5D905A",
"B. c #5D905A",
"V. c #5D905A",
"C. c #5C8E59",
"Z. c #5C8E59",
"A. c #5C8E59",
"S. c #5C8E59",
"D. c #5C8E59",
"F. c #5C8E59",
"G. c #5C8E59",
"H. c #5C8E59",
"J. c #5C8E59",
"K. c #5C8E59",
"L. c #5B8C58",
"P. c #5B8C58",
"I. c #5B8C58",
"U. c #5B8C58",
"Y. c #5B8C58",
"T. c #5B8C58",
"R. c #5B8C58",
"E. c #5B8C58",
"W. c #5B8C58",
"Q. c #5B8C58",
"!. c #598A56",
"~. c #598A56",
"^. c #598A56",
"/. c #598A56",
"(. c #598A56",
"). c #598A56",
"_. c #598A56",
"`. c #598A56",
"'. c #598A56",
"]. c #598A56",
"[. c #588855",
"{. c #588855",
"}. c #588855",
"|. c #588855",
" X c #588855",
".X c #588855",
"XX c #588855",
"oX c #588855",
"OX c #588855",
"+X c #588855",
"@X c #578654",
"#X c #578654",
"$X c #578654",
"%X c #578654",
"&X c #578654",
"*X c #578654",
"=X c #578654",
"-X c #578654",
";X c #578654",
":X c #578654",
/* pixels */
"  . X o O + @ # $ % ",
"& * = - ; : > , < 1 ",
"2 3 4 5 6 7 8 9 0 q ",
"w e r t y u i p a s ",
"d f g h j k l z x c ",
"v b n m M N B V C Z ",
"A S D F G H J K L P ",
"I U Y T R E W Q ! ~ ",
"^ / ( ) _ ` ' ] [ { ",
"} |  ...X.o.O.+.@.#.",
"$.%.&.*.=.-.;.:.>.,.",
"<.1.2.3.4.5.6.7.8.9.",
"0.q.w.e.r.t.y.u.i.p.",
"a.s.d.f.g.h.j.k.l.z.",
"x.c.v.b.n.m.M.N.B.V.",
"C.Z.A.S.D.F.G.H.J.K.",
"L.P.I.U.Y.T.R.E.W.Q.",
"!.~.^./.(.)._.`.'.].",
"[.{.}.|. X.XXXoXOX+X",
"@X#X$X%X&X*X=X-X;X:X"
};
