/* XPM */
static char * closeI_xpm[] = {
"46 38 74 1",
" 	c None",
".	c #598100",
"+	c #D8EE92",
"@	c #654F68",
"#	c #4FA2E5",
"$	c #B5DF26",
"%	c #B5DE26",
"&	c #B5DF27",
"*	c #858C5C",
"=	c #4EA1E4",
"-	c #B4DE25",
";	c #B4DF25",
">	c #B3DE24",
",	c #B4DE24",
"'	c #4DA0E3",
")	c #B3DD25",
"!	c #B3DE25",
"~	c #7BAA10",
"{	c #4C9EE3",
"]	c #B2DD24",
"^	c #B2DC23",
"/	c #FFFFFF",
"(	c #4B9DE2",
"_	c #B1DC24",
":	c #B1DB24",
"<	c #4A9BE1",
"[	c #B0DB24",
"}	c #B0DB25",
"|	c #AFDA24",
"1	c #B0DA24",
"2	c #499AE0",
"3	c #AFD922",
"4	c #AFD923",
"5	c #AED922",
"6	c #AFDA23",
"7	c #4998E0",
"8	c #AED923",
"9	c #ADD823",
"0	c #4897DF",
"a	c #ACD721",
"b	c #ADD822",
"c	c #4796DE",
"d	c #ABD620",
"e	c #ACD720",
"f	c #4694DD",
"g	c #AAD621",
"h	c #A9D621",
"i	c #A9D620",
"j	c #A9D520",
"k	c #4593DD",
"l	c #A9D51F",
"m	c #A8D41F",
"n	c #4491DC",
"o	c #A8D320",
"p	c #A7D21F",
"q	c #4490DB",
"r	c #A5D11E",
"s	c #A6D21F",
"t	c #A5D21E",
"u	c #6E6564",
"v	c #438EDA",
"w	c #A5D11F",
"x	c #A4D01E",
"y	c #A4D11E",
"z	c #A4D11F",
"A	c #636DAC",
"B	c #428DDA",
"C	c #636DAD",
"D	c #4081AF",
"E	c #418BD9",
"F	c #4D8DCB",
"G	c #5296E9",
"H	c #408AD8",
"I	c #3F89D7",
".+++++++++++++++++++++++++++++++++++++++++@###",
".+$%$$%%&%%$$%%&%%$$%%&%$$%%&%$%%&%%$$%%&%*===",
".+-;;-;>,,;;-;>,,;;-;>,,;-;>,,-;>,,;;-;>,,*'''",
".+)))!))!!))!))!!~~~))!~~~))!!!))!!))!))!!*{{{",
".+]^]]]]]]^]]]]]~///~]~///~]]]]]]]]^]]]]]]*(((",
".+__:___:__:___:_~///~///~__:____:__:___:_*<<<",
".+[[[}[|11[[}[|11[~/////~}[|11}[|11[[}[|11*222",
".+34555666455566645~///~555666556664555666*777",
".+88989989898998989~///~989989899898989989*000",
".+abbbbbbbbbbbbbbb~/////~bbbbbbbbbbbbbbbbb*ccc",
".+ddaeeeeddaeeeed~///~///~eeedeeeeddaeeeed*fff",
".+ghigjjgghigjjg~///~j~///~jgggjjgghigjjgg*kkk",
".+ljljlmmmjljlmmm~~~lmm~~~lmmmjlmmmjljlmmm*nnn",
".+oooooopoooooopoooooopooooopoooopoooooopo*qqq",
".+rstrtstrstrtstrstrtstrtrtstrrtstrstrtstruvvv",
".+wxywwwwzxywwwwzxywwwwzywwwwzwwwwzxywwww*ABBB",
".****************************************CDEEE",
".........................................FGHHH",
"IIIIIIIIIIIIIIIIIIIIIIIIIIIIIIIIIIIIIIIIIIIIII",
".+++++++++++++++++++++++++++++++++++++++++@###",
".+$%$$%%&%%$$%%&%%$$%%&%$$%%&%$%%&%%$$%%&%*===",
".+-;;-;>,,;;-;>,,;;-;>,,;-;>,,-;>,,;;-;>,,*'''",
".+)))!))!!))!))!!~~~))!~~~))!!!))!!))!))!!*{{{",
".+]^]]]]]]^]]]]]~///~]~///~]]]]]]]]^]]]]]]*(((",
".+__:___:__:___:_~///~///~__:____:__:___:_*<<<",
".+[[[}[|11[[}[|11[~/////~}[|11}[|11[[}[|11*222",
".+34555666455566645~///~555666556664555666*777",
".+88989989898998989~///~989989899898989989*000",
".+abbbbbbbbbbbbbbb~/////~bbbbbbbbbbbbbbbbb*ccc",
".+ddaeeeeddaeeeed~///~///~eeedeeeeddaeeeed*fff",
".+ghigjjgghigjjg~///~j~///~jgggjjgghigjjgg*kkk",
".+ljljlmmmjljlmmm~~~lmm~~~lmmmjlmmmjljlmmm*nnn",
".+oooooopoooooopoooooopooooopoooopoooooopo*qqq",
".+rstrtstrstrtstrstrtstrtrtstrrtstrstrtstruvvv",
".+wxywwwwzxywwwwzxywwwwzywwwwzwwwwzxywwww*ABBB",
".****************************************CDEEE",
".........................................FGHHH",
"IIIIIIIIIIIIIIIIIIIIIIIIIIIIIIIIIIIIIIIIIIIIII"};
