/* XPM */
static char * closeA_xpm[] = {
"46 38 134 2",
"  	c None",
". 	c #516E92",
"+ 	c #90BDF3",
"@ 	c #4FA2E5",
"# 	c #396090",
"$ 	c #8FBCF3",
"% 	c #50A5E6",
"& 	c #4EA1E4",
"* 	c #4FA4E6",
"= 	c #4DA0E3",
"- 	c #386090",
"; 	c #8DBBF3",
"> 	c #253F5F",
", 	c #4C9EE3",
"' 	c #375F8F",
") 	c #8DBAF3",
"! 	c #BDD7F7",
"~ 	c #BDD6F7",
"{ 	c #253E5F",
"] 	c #4B9DE2",
"^ 	c #365F8F",
"/ 	c #8BB9F2",
"( 	c #243E5E",
"_ 	c #BCD6F6",
": 	c #BCD6F7",
"< 	c #243E5F",
"[ 	c #365E8F",
"} 	c #4A9BE1",
"| 	c #355D8F",
"1 	c #8AB9F2",
"2 	c #233E5F",
"3 	c #BBD6F6",
"4 	c #BBD6F7",
"5 	c #355E8F",
"6 	c #499AE0",
"7 	c #345D8F",
"8 	c #89B9F2",
"9 	c #233E5E",
"0 	c #4998E0",
"a 	c #335C8F",
"b 	c #88B7F2",
"c 	c #213D5E",
"d 	c #BAD5F6",
"e 	c #BAD5F7",
"f 	c #223D5E",
"g 	c #4897DF",
"h 	c #87B7F2",
"i 	c #B9D5F6",
"j 	c #335C8E",
"k 	c #4796DE",
"l 	c #315B8F",
"m 	c #86B6F2",
"n 	c #213C5E",
"o 	c #B9D4F6",
"p 	c #4694DD",
"q 	c #305A8D",
"r 	c #84B5F1",
"s 	c #203C5E",
"t 	c #B8D4F6",
"u 	c #305B8D",
"v 	c #4593DD",
"w 	c #83B5F1",
"x 	c #1F3C5E",
"y 	c #4695DD",
"z 	c #4491DC",
"A 	c #2F5A8D",
"B 	c #83B4F1",
"C 	c #4593DC",
"D 	c #4490DB",
"E 	c #2E598D",
"F 	c #82B4F1",
"G 	c #4392DB",
"H 	c #4690DD",
"I 	c #3565A0",
"J 	c #438EDA",
"K 	c #81B4F0",
"L 	c #4390DA",
"M 	c #468DDD",
"N 	c #3465A0",
"O 	c #4587D4",
"P 	c #428DDA",
"Q 	c #4587D5",
"R 	c #4081AF",
"S 	c #418BD9",
"T 	c #4D8DCB",
"U 	c #5296E9",
"V 	c #408AD8",
"W 	c #3F89D7",
"X 	c #F29392",
"Y 	c #654F68",
"Z 	c #F5A0A0",
"` 	c #D95351",
" .	c #5C3C5A",
"..	c #F6A19F",
"+.	c #D85250",
"@.	c #260807",
"#.	c #5B3C5A",
"$.	c #D8514F",
"%.	c #FEFEFE",
"&.	c #5A3B59",
"*.	c #F69F9E",
"=.	c #D84F4D",
"-.	c #270707",
";.	c #5A3A59",
">.	c #F6A09E",
",.	c #593A59",
"'.	c #D84D4B",
").	c #D94C4A",
"!.	c #270706",
"~.	c #583959",
"{.	c #F69E9E",
"].	c #D84B49",
"^.	c #573958",
"/.	c #D84846",
"(.	c #270605",
"_.	c #573959",
":.	c #D74846",
"<.	c #563958",
"[.	c #F69D9C",
"}.	c #D74745",
"|.	c #563858",
"1.	c #D64644",
"2.	c #D34644",
"3.	c #553858",
"4.	c #D84544",
"5.	c #CB4240",
"6.	c #5A446B",
"7.	c #D34442",
"8.	c #801C24",
"9.	c #636DAC",
"0.	c #4C4065",
"a.	c #543758",
"b.	c #4F3B5E",
"c.	c #636DAD",
". + + + + + + + + + + + + + + + + + + + + + + + + + + + + + + + + + + + + + + + + + . @ @ @ ",
"# $ % % % % % % % % % % % % % % % % % % % % % % % % % % % % % % % % % % % % % % % % # & & & ",
"# $ * * * * * * * * * * * * * * * * * * * * * * * * * * * * * * * * * * * * * * * * # = = = ",
"- ; @ @ @ @ @ @ @ @ @ @ @ @ @ @ @ > > > @ @ @ > > > @ @ @ @ @ @ @ @ @ @ @ @ @ @ @ @ - , , , ",
"' ) & & & & & & & & & & & & & & > ! ! ~ { & > ! ! ! > & & & & & & & & & & & & & & & ' ] ] ] ",
"^ / = = = = = = = = = = = = = = = ( _ : _ < : : _ < = = = = = = = = = = = = = = = = [ } } } ",
"| 1 , , , , , , , , , , , , , , , , 2 3 3 3 3 4 2 , , , , , , , , , , , , , , , , , 5 6 6 6 ",
"7 8 ] ] ] ] ] ] ] ] ] ] ] ] ] ] ] ] ] 2 3 3 4 9 ] ] ] ] ] ] ] ] ] ] ] ] ] ] ] ] ] ] 7 0 0 0 ",
"a b } } } } } } } } } } } } } } } } } c d e d f } } } } } } } } } } } } } } } } } } a g g g ",
"a h 6 6 6 6 6 6 6 6 6 6 6 6 6 6 6 6 c i i i i i c 6 6 6 6 6 6 6 6 6 6 6 6 6 6 6 6 6 j k k k ",
"l m 0 0 0 0 0 0 0 0 0 0 0 0 0 0 0 n o o o n o o o n 0 0 0 0 0 0 0 0 0 0 0 0 0 0 0 0 l p p p ",
"q r g g g g g g g g g g g g g g s t t t s g s t t t s g g g g g g g g g g g g g g g u v v v ",
"u w k k k k k k k k k k k k k k k x x x k k k x x x k k k k k k k y k k k k k k k k q z z z ",
"A B p p p p p p p p p p p p p p p p p p p p p p p p p p p p p p p C p p p p p p p p A D D D ",
"E F v v v v v v v v v v v v v v v v v v v v v v v v v v v v v v v G v v v v v v v H I J J J ",
"E K z z z z z z z z z z z z z z z z z z z z z z z z z z z z z z z L z z z z z z M N O P P P ",
"E E E E E E E E E E E E E E E E E E E E E E E E E E E E E E E E E E E E E E E E E Q R S S S ",
"R R R R R R R R R R R R R R R R R R R R R R R R R R R R R R R R R R R R R R R R R T U V V V ",
"W W W W W W W W W W W W W W W W W W W W W W W W W W W W W W W W W W W W W W W W W W W W W W ",
". X X X X X X X X X X X X X X X X X X X X X X X X X X X X X X X X X X X X X X X X X Y @ @ @ ",
"# Z ` ` ` ` ` ` ` ` ` ` ` ` ` ` ` ` ` ` ` ` ` ` ` ` ` ` ` ` ` ` ` ` ` ` ` ` ` ` ` `  .& & & ",
"# Z ` ` ` ` ` ` ` ` ` ` ` ` ` ` ` ` ` ` ` ` ` ` ` ` ` ` ` ` ` ` ` ` ` ` ` ` ` ` ` `  .= = = ",
"- ..+.+.+.+.+.+.+.+.+.+.+.+.+.+.+.@.@.@.+.+.+.@.@.@.+.+.+.+.+.+.+.+.+.+.+.+.+.+.+.+.#., , , ",
"' ..$.$.$.$.$.$.$.$.$.$.$.$.$.$.@.%.%.%.@.$.@.%.%.%.@.$.$.$.$.$.$.$.$.$.$.$.$.$.$.$.&.] ] ] ",
"^ *.=.=.=.=.=.=.=.=.=.=.=.=.=.=.=.-.%.%.%.-.%.%.%.-.=.=.=.=.=.=.=.=.=.=.=.=.=.=.=.=.;.} } } ",
"| >.=.=.=.=.=.=.=.=.=.=.=.=.=.=.=.=.-.%.%.%.%.%.-.=.=.=.=.=.=.=.=.=.=.=.=.=.=.=.=.=.,.6 6 6 ",
"7 >.'.'.'.'.'.'.'.'.'.'.'.'.'.'.'.'.'.-.%.%.%.-.'.'.'.'.'.'.'.'.'.'.'.'.'.'.'.'.'.'.,.0 0 0 ",
"a >.).).).).).).).).).).).).).).).).).!.%.%.%.!.).).).).).).).).).).).).).).).).).).~.g g g ",
"a {.].].].].].].].].].].].].].].].].!.%.%.%.%.%.!.].].].].].].].].].].].].].].].].].^.k k k ",
"l {./././././././././././././././.(.%.%.%.(.%.%.%.(././././././././././././././././._.p p p ",
"q {.:.:.:.:.:.:.:.:.:.:.:.:.:.:.(.%.%.%.(.:.(.%.%.%.(.:.:.:.:.:.:.:.:.:.:.:.:.:.:.:.<.v v v ",
"u [.}.}.}.}.}.}.}.}.}.}.}.}.}.}.}.(.(.(.}.}.}.(.(.(.}.}.}.}.}.}.}.}.}.}.}.}.}.}.}.}.|.z z z ",
"A [.1.1.1.1.1.1.1.1.1.1.1.1.1.1.1.1.1.1.1.1.1.1.1.1.1.1.1.1.1.1.1.1.1.1.1.1.1.1.1.2.3.D D D ",
"E [.4.4.4.4.4.4.4.4.4.4.4.4.4.4.4.4.4.4.4.4.4.4.4.4.4.4.4.4.4.4.4.4.4.4.4.4.4.4.4.5.6.J J J ",
"E [.4.4.4.4.4.4.4.4.4.4.4.4.4.4.4.4.4.4.4.4.4.4.4.4.4.4.4.4.4.4.4.4.4.4.4.4.4.7.5.8.9.P P P ",
"E 0.a.a.a.a.a.a.a.a.a.a.a.a.a.a.a.a.a.a.a.a.a.a.a.a.a.a.a.a.a.a.a.a.a.a.a.a.a.a.b.c.R S S S ",
"R R R R R R R R R R R R R R R R R R R R R R R R R R R R R R R R R R R R R R R R R T U V V V ",
"W W W W W W W W W W W W W W W W W W W W W W W W W W W W W W W W W W W W W W W W W W W W W W "};
