/* XPM */
static char * maximizeA_xpm[] = {
"26 38 125 2",
"  	c None",
". 	c #516E92",
"+ 	c #90BDF3",
"@ 	c #396090",
"# 	c #8FBCF3",
"$ 	c #50A5E6",
"% 	c #4FA4E6",
"& 	c #386090",
"* 	c #8DBBF3",
"= 	c #4FA2E5",
"- 	c #5088CC",
"; 	c #253F5F",
"> 	c #375F8F",
", 	c #8DBAF3",
"' 	c #4EA1E4",
") 	c #BDD6F7",
"! 	c #BDD7F7",
"~ 	c #365E8F",
"{ 	c #8BB9F2",
"] 	c #4DA0E3",
"^ 	c #243E5F",
"/ 	c #BCD6F7",
"( 	c #BCD6F6",
"_ 	c #365F8F",
": 	c #355D8F",
"< 	c #8AB9F2",
"[ 	c #4C9EE3",
"} 	c #233E5F",
"| 	c #BBD6F7",
"1 	c #BBD6F6",
"2 	c #233E5E",
"3 	c #345D8F",
"4 	c #89B9F3",
"5 	c #4B9DE2",
"6 	c #335C8F",
"7 	c #88B7F2",
"8 	c #4A9BE1",
"9 	c #223D5E",
"0 	c #BAD5F6",
"a 	c #223D5F",
"b 	c #87B7F2",
"c 	c #499AE0",
"d 	c #213D5E",
"e 	c #B9D5F6",
"f 	c #315B8F",
"g 	c #86B6F1",
"h 	c #4998E0",
"i 	c #213C5E",
"j 	c #B9D4F6",
"k 	c #B8D4F6",
"l 	c #305A8D",
"m 	c #84B5F1",
"n 	c #4897DF",
"o 	c #203C5E",
"p 	c #B7D3F6",
"q 	c #305A8E",
"r 	c #83B5F1",
"s 	c #4796DE",
"t 	c #4480C8",
"u 	c #1F3C5E",
"v 	c #1F3B5E",
"w 	c #4480C9",
"x 	c #305B8D",
"y 	c #2F5A8D",
"z 	c #83B4F1",
"A 	c #4694DD",
"B 	c #2E598D",
"C 	c #82B4F0",
"D 	c #4593DD",
"E 	c #81B3F1",
"F 	c #4491DC",
"G 	c #2D598D",
"H 	c #418CD8",
"I 	c #438EDA",
"J 	c #0F68A7",
"K 	c #D8EE92",
"L 	c #588100",
"M 	c #B5DE26",
"N 	c #B5DF26",
"O 	c #B5DF27",
"P 	c #B4DF25",
"Q 	c #B4DE25",
"R 	c #B3DE24",
"S 	c #B4DE24",
"T 	c #B3DD25",
"U 	c #B3DE25",
"V 	c #858C5C",
"W 	c #7BAA10",
"X 	c #B2DC23",
"Y 	c #B2DD24",
"Z 	c #FFFFFF",
"` 	c #B1DC24",
" .	c #B1DB24",
"..	c #B0DB24",
"+.	c #B0DB25",
"@.	c #AFDA24",
"#.	c #B0DA24",
"$.	c #AFD923",
"%.	c #AED922",
"&.	c #AFDA23",
"*.	c #AFD922",
"=.	c #AED923",
"-.	c #ADD823",
";.	c #ADD822",
">.	c #ABD620",
",.	c #ACD721",
"'.	c #ACD720",
").	c #A9D621",
"!.	c #A9D620",
"~.	c #AAD621",
"{.	c #A9D520",
"].	c #A9D51F",
"^.	c #A8D41F",
"/.	c #A8D320",
"(.	c #A7D21F",
"_.	c #A6D21F",
":.	c #A5D21E",
"<.	c #A5D11E",
"[.	c #A4D01E",
"}.	c #A4D11E",
"|.	c #A5D11F",
"1.	c #488DD6",
"2.	c #498CCD",
"3.	c #4788BF",
"4.	c #4081AF",
". + + + + + + + + + + + + + + + + + + + + + + + + . ",
"@ # $ $ $ $ $ $ $ $ $ $ $ $ $ $ $ $ $ $ $ $ $ $ $ @ ",
"@ # % % % % % % % % % % % % % % % % % % % % % % % @ ",
"& * = = = = = - ; ; ; ; ; ; ; ; ; ; - = = = = = = & ",
"> , ' ' ' ' ' ; ) ! ! ! ! ) ! ! ! ) ; ' ' ' ' ' ' > ",
"~ { ] ] ] ] ] ^ / / ( / / / ( ( / / ^ ] ] ] ] ] ] _ ",
": < [ [ [ [ [ } | 1 } 2 } } 2 2 1 1 2 [ [ [ [ [ [ : ",
"3 4 5 5 5 5 5 2 | | } 5 5 5 5 2 1 1 2 5 5 5 5 5 5 3 ",
"6 7 8 8 8 8 8 9 0 0 9 8 8 8 8 a 0 0 9 8 8 8 8 8 8 6 ",
"6 b c c c c c d e e d d d d d d e e d c c c c c c 6 ",
"f g h h h h h i j j j j j k j j j j i h h h h h h f ",
"l m n n n n n o k k k p k k k k k k o n n n n n n l ",
"q r s s s s s t u u u u u v u u u u w s s s s s s x ",
"y z A A A A A A A A A A A A A A A A A A A A A A A y ",
"B C D D D D D D D D D D D D D D D D D D D D D D D B ",
"B E F F F F F F F F F F F F F F F F F F F F F F F B ",
"B B B B B B B B B B B B B B B B B B B B B B B G B B ",
"H I I I I I I I I I I I I I I I I I I I I I I I I I ",
"J J J J J J J J J J J J J J J J J J J J J J J J J J ",
". K K K K K K K K K K K K K K K K K K K K K K K K . ",
"L K M N N M M N M N N M M O N M N N N M N N M M O L ",
"L K P P Q P R Q P P Q P R S Q P P Q Q P P Q P R S L ",
"L K T T U T T V W W W W W W W W W W V T T U T T U L ",
"L K X Y Y Y Y W Z Z Z Z Z Z Z Z Z Z W X Y Y Y Y Y L ",
"L K `  .` ` ` W Z Z Z Z Z Z Z Z Z Z W `  .` ` `  .L ",
"L K ....+...@.W Z Z W W W W W W Z Z W ....+...@.#.L ",
"L K $.%.%.%.&.W Z Z W %.&.&.*.W Z Z W $.%.%.%.&.&.L ",
"L K =.-.=.-.-.W Z Z W -.-.=.=.W Z Z W =.-.=.-.-.=.L ",
"L K ;.;.;.;.;.W Z Z W W W W W W Z Z W ;.;.;.;.;.;.L ",
"L K >.,.'.'.'.W Z Z Z Z Z Z Z Z Z Z W >.,.'.'.'.'.L ",
"L K ).!.~.{.{.W Z Z Z Z Z Z Z Z Z Z W ).!.~.{.{.~.L ",
"L K {.].{.].^.V W W W W W W W W W W V {.].{.].^.^.L ",
"L K /././././././././././.(././././././././././.(.L ",
"L K _.:.<.:._.<._.:.<.:._.:.<._.:.<.<._.:.<.:._.:.L ",
"L K [.}.|.|.|.|.[.}.|.|.|.|.|.[.}.|.|.[.}.|.|.|.|.L ",
"L L L L L L L L L L L L L L L L L L L L L L L L L L ",
"1.1.2.3.4.4.4.4.4.4.4.4.4.4.4.4.4.4.4.4.4.4.4.4.4.4.",
"J J J J J J J J J J J J J J J J J J J J J J J J J J "};
