/* XPM */
static char * taskbuttonactive_xpm[] = {
"4 25 26 1",
" 	c None",
".	c #84B7D4",
"+	c #8ACEF3",
"@	c #8ACDF2",
"#	c #89CCF2",
"$	c #88CBF1",
"%	c #88CAF0",
"&	c #87C8EF",
"*	c #87C7EE",
"=	c #86C6EE",
"-	c #85C5ED",
";	c #85C4EC",
">	c #84C3EB",
",	c #83C1EA",
"'	c #82C0EA",
")	c #81BFE9",
"!	c #80BEE9",
"~	c #7FBDE9",
"{	c #7EBCE8",
"]	c #7FBDE8",
"^	c #7DBBE8",
"/	c #7CBAE7",
"(	c #7BB9E7",
"_	c #7AB8E6",
":	c #7BB9E6",
"<	c #6EA0C5",
"....",
"++++",
"@@@@",
"####",
"$$$$",
"%%%%",
"&&&&",
"****",
"====",
"----",
";;;;",
">>>>",
",,,,",
",'',",
"''''",
"))))",
"!!!!",
"~~~~",
"{{]{",
"{{{{",
"^^^^",
"////",
"((((",
"___:",
"<<<<"};
