/* XPM */
static char * closeO_xpm[] = {
"46 52 7 1",
" 	c None",
".	c #2F3033",
"+	c #777777",
"@	c #E6796E",
"#	c #D36357",
"$	c #000000",
"%	c #5C5A58",
"..............................................",
"++++++++++++++++++++++++++++++++++++++++++++++",
"..............................................",
".@@@@@@@@@@@@@@@@@@@@@@@@@@@@@@@@@@@@@@@@@@@@.",
".@##########################################@.",
".@##########################################@.",
".@##########################################@.",
".@##########################################@.",
".@##########################################@.",
".@################$$$###$$$#################@.",
".@#################$$$#$$$##################@.",
".@##################$$$$$###################@.",
".@###################$$$####################@.",
".@###################$$$####################@.",
".@##################$$$$$###################@.",
".@#################$$$#$$$##################@.",
".@################$$$###$$$#################@.",
".@##########################################@.",
".@##########################################@.",
".@##########################################@.",
".@##########################################@.",
".@##########################################@.",
".@@@@@@@@@@@@@@@@@@@@@@@@@@@@@@@@@@@@@@@@@@@@.",
"..............................................",
"%%%%%%%%%%%%%%%%%%%%%%%%%%%%%%%%%%%%%%%%%%%%%%",
"..............................................",
"..............................................",
"++++++++++++++++++++++++++++++++++++++++++++++",
"..............................................",
".@@@@@@@@@@@@@@@@@@@@@@@@@@@@@@@@@@@@@@@@@@@@.",
".@##########################################@.",
".@##########################################@.",
".@##########################################@.",
".@##########################################@.",
".@##########################################@.",
".@################$$$###$$$#################@.",
".@#################$$$#$$$##################@.",
".@##################$$$$$###################@.",
".@###################$$$####################@.",
".@###################$$$####################@.",
".@##################$$$$$###################@.",
".@#################$$$#$$$##################@.",
".@################$$$###$$$#################@.",
".@##########################################@.",
".@##########################################@.",
".@##########################################@.",
".@##########################################@.",
".@##########################################@.",
".@@@@@@@@@@@@@@@@@@@@@@@@@@@@@@@@@@@@@@@@@@@@.",
"..............................................",
"%%%%%%%%%%%%%%%%%%%%%%%%%%%%%%%%%%%%%%%%%%%%%%",
".............................................."};
