/* XPM */
static char * frameATR_xpm[] = {
"6 31 5 1",
" 	c None",
".	c #2F3033",
"+	c #777777",
"@	c #5C5A58",
"#	c #5A5C5E",
"      ",
"      ",
"      ",
"      ",
"      ",
"......",
"+++++.",
"@@@@+.",
"@@@@+.",
"@@@@+.",
"@@@@+.",
"@@@@+.",
"@@@@+.",
"@@@@+.",
"@@@@+.",
"@@@@+.",
"@@@@+.",
"@@@@+.",
"@@@@+.",
"@@@@+.",
"@@@@+.",
"@@@@+.",
"@@@@+.",
"@@@@+.",
"@@@@+.",
"@@##+.",
"@@@@+.",
"@@@@+.",
"@@@@+.",
"@@@@+.",
"@@@@+."};
