/* XPM */
static char * frameABR_xpm[] = {
"6 6 4 1",
" 	c None",
".	c #5C5A58",
"+	c #777777",
"@	c #2F3033",
"....+@",
"....+@",
"....+@",
"....+@",
"+++++@",
"@@@@@@"};
