/* XPM */
static char * frameAB_xpm[] = {
"1 5 4 1",
" 	c None",
".	c #2F3033",
"+	c #5C5A58",
"@	c #777777",
".",
"+",
"+",
"@",
"."};
