/* XPM */
static char * frameAR_xpm[] = {
"5 1 4 1",
" 	c None",
".	c #E8E8E7",
"+	c #FFFFFF",
"@	c #9A9A9A",
"...+@"};
