/* XPM */
static char * titleIJ_xpm[] = {
"23 23 22 1",
" 	c #5F5F5F",
".	c #FFFFFF",
"+	c #F1F1F1",
"@	c #6E6E6E",
"#	c #FCFCFC",
"$	c #4D4D4D",
"%	c #1A1A1A",
"&	c #A1A1A1",
"*	c #EFEFEF",
"=	c #2B2B2B",
"-	c #7A7A7A",
";	c #D7D7D7",
">	c #1D1D1D",
",	c #545454",
"'	c #B4B4B4",
")	c #F7F7F7",
"!	c #363636",
"~	c #8D8D8D",
"{	c #E2E2E2",
"]	c #222222",
"^	c #ADADAD",
"/	c #303030",
"                       ",
".......................",
".......................",
".......................",
".....................+@",
"....................#$%",
"....................&%%",
"...................*=%%",
"...................-%%%",
"..................;>%%%",
"..................,%%%%",
".................'%%%%%",
"................)!%%%%%",
"................~%%%%%%",
"...............{]%%%%%%",
".............{^/%%%%%%%",
"%%%%%%%%%%%%%%%%%%%%%%%",
"%%%%%%%%%%%%%%%%%%%%%%%",
"%%%%%%%%%%%%%%%%%%%%%%%",
"%%%%%%%%%%%%%%%%%%%%%%%",
"%%%%%%%%%%%%%%%%%%%%%%%",
"%%%%%%%%%%%%%%%%%%%%%%%",
"%%%%%%%%%%%%%%%%%%%%%%%"};
