/* XPM */
static char *closeO[] = {
/* columns rows colors chars-per-pixel */
"20 58 121 2 ",
"   c #180C05",
".  c #170F0B",
"X  c #3C3B37",
"o  c #3E3D38",
"O  c #42220D",
"+  c #4B260C",
"@  c #572D0F",
"#  c #4B2912",
"$  c #432A1F",
"%  c #552C11",
"&  c #422A20",
"*  c #4B2E22",
"=  c #4C3126",
"-  c #543427",
";  c #55362A",
":  c #57392C",
">  c #433E37",
",  c #483F35",
"<  c #433E39",
"1  c #4A4136",
"2  c #45423C",
"3  c #4A443C",
"4  c #5C4635",
"5  c #5D4837",
"6  c #5A4C3E",
"7  c #604632",
"8  c #7E5435",
"9  c #4D4640",
"0  c #4D4B43",
"q  c #514F47",
"w  c #5C4B42",
"e  c #54534B",
"r  c #5C544B",
"t  c #595750",
"y  c #5D5B54",
"u  c #7E5D4E",
"i  c #605F58",
"p  c #BB5E1D",
"a  c #8B562F",
"s  c #835533",
"d  c #865C3B",
"f  c #915B34",
"g  c #AD5E23",
"h  c #BC6422",
"j  c #B7652D",
"k  c #DF6F1C",
"l  c #DD701F",
"z  c #E06D19",
"x  c #F37316",
"c  c #F6771A",
"v  c #F6791F",
"b  c #D36D24",
"n  c #DF7F3B",
"m  c #EE7925",
"M  c #E77A2D",
"N  c #EA792A",
"B  c #F57B24",
"V  c #F37E2B",
"C  c #EB7E33",
"Z  c #815F4E",
"A  c #81604F",
"S  c #8A614F",
"D  c #9C764B",
"F  c #896959",
"G  c #906754",
"H  c #936955",
"J  c #AF7B49",
"K  c #A56B51",
"L  c #AB6D53",
"P  c #BB7356",
"I  c #B97558",
"U  c #BB7A60",
"Y  c #C57D43",
"T  c #EE8136",
"R  c #EB8139",
"E  c #F38133",
"W  c #F2843A",
"Q  c #A78C79",
"!  c #B58F7B",
"~  c #B7937E",
"^  c #CC8245",
"/  c #CE8649",
"(  c #D38B4C",
")  c #C48F53",
"_  c #D8835E",
"`  c #C99154",
"'  c #D49957",
"]  c #EE8B42",
"[  c #EB9047",
"{  c #E8954D",
"}  c #E59B53",
"|  c #CD8161",
" . c #D48362",
".. c #DD8763",
"X. c #CE957A",
"o. c #D19A7E",
"O. c #E48962",
"+. c #E38E6B",
"@. c #ED936E",
"#. c #F39067",
"$. c #F4946C",
"%. c #E39676",
"&. c #EB9571",
"*. c #EC9977",
"=. c #E29878",
"-. c #EE9D7B",
";. c #F49770",
":. c #F49A75",
">. c #F49D79",
",. c #F5A17E",
"<. c #D7A287",
"1. c #D9A58B",
"2. c #D5AE94",
"3. c #D7B097",
"4. c #F3A685",
"5. c #F3A887",
"6. c #F1AD8D",
"7. c #EFB495",
"8. c #EEB99C",
"9. c #F0B394",
"0. c #E8BCA2",
/* pixels */
"i i i i i i i i i i i i i i i i i i i i ",
"y y y y y y y i y y y i i y y y y i y y ",
"y y y y t y y y y t y y y y t y y y y y ",
"t t t t t t t t t t t t t t t t t t t t ",
"e e e e e e e t e e t e e e e t e e e e ",
"e e e e e e e e e e e e e e e e e e e e ",
"e e e e q q 0 0 9 X X 9 0 0 q q e e e e ",
"0 0 0 0 0 2 r Q 3.0.0.2.Q r 9 0 0 0 0 0 ",
"0 0 0 2 9 ~ 8.8.8.8.8.8.8.8.! , 9 0 0 0 ",
"0 0 9 3 1.7.7.7.7.7.7.7.9.9.9.<.0 2 0 9 ",
"9 9 o o.6.6.6.6.6.6.6.6.6.6.6.5.X.o 2 9 ",
"o 2 F 5.5.5.5.5.4.4.4.4.4.4.4.4.4.F 2 2 ",
"o 2 =.,.,.4.U = -.,.>.-.= U ,.,.-.=.X 2 ",
"X e >.>.>.>.>.: & *.*.& : -.>.>.>.>.w X ",
"X A >.>.>.>.>.>.: $ & ; -.>.>.>.>.>.u o ",
"X H >.>.>.:.:.:.%.. . &.:.:.:.>.:.:.G o ",
"< Z :.:.:.:.:.&.& - ; & &.:.:.:.:.:.u X ",
"X w :.:.:.;.@.$ - ;.;.= & @.;.:.;.;.w X ",
"X < +.;.;.;.P = @.;.;.$.* P ;.;.;.+.X o ",
"X < S $.;.$.$.$.;.$.$.;.$.$.$.$.$.S X X ",
"X X < | $.$.$.$.$.$.$.$.$.$.$.$.| 2 X X ",
"X X X ,  .$.$.$.#.#.$.#.#.#.#...3 X X X ",
"X X X X < I #.#.#.#.#.#.#.#.P < o X X X ",
"X X X X < , 5 L _ O.#.U K 6 < X o X X X ",
"X X X X X X X < 3 < < > < o X X X X X X ",
"X X X X X X X X X X o X X o X X X X X X ",
"X X X X X X X X X X X X X X X X X X X X ",
"X X X X X X X X X X X X X X X X X X X X ",
"X X X X X X X X X X X X X X X X X o X X ",
"i i i i i i i i i y i i i i i y y i i y ",
"y y y y y y i y y y y y y i y y y y y i ",
"y y y y y t y y y y y y y y y y y y y y ",
"t t t t t t t t t t y t t y t t t t t t ",
"e t t e e e t e t e e e e e e e t t e t ",
"e e e e e e e e e e e e e e e e e e e e ",
"q q q q e q 0 1 1 X > , 3 0 q e q q q e ",
"q 0 0 q 0 3 7 g z x x z g 7 > 3 q q 0 0 ",
"0 0 0 2 > h c c c c c c x c h 1 2 0 0 0 ",
"9 9 9 , k c c v c c v c c c c l 1 2 3 0 ",
"9 2 X b B v v v v v v v v v v v b < 2 2 ",
"2 2 a B B B B m B B m B v B B v v a 2 2 ",
"< > N B B B p + m B B m + p B B v l o > ",
"X 4 B V V V V % O m m O @ V V V v E 4 > ",
"X s E V V E V V @ O O % V V V V E E 8 X ",
"X f E E E E E V M     M V V E E E E f X ",
"X 8 E E E E E C O % % O C E E E E E 8 X ",
"X 5 W W E W R O % W R # O C E W E T 4 X ",
"X X R W W W j # R W W R # j W W W n X X ",
"X 2 d W ] ] W [ ] W [ W [ W W [ W d > X ",
"X X 2 ^ [ [ [ [ [ [ [ [ [ [ [ [ Y o X X ",
"X X X 1 ( { } { { { { { { { { / 1 X X X ",
"X X X X 2 J } } } } } } } } J 1 > X X X ",
"X X X X X > 6 D ) ' ' ` D 6 2 X X X X X ",
"X X X X X X X > 1 o o 2 2 X X X X X X X ",
"X X X X X X X X X X X X X X X X X X X X ",
"X X X X X X X X X X X X X X X X X X X X ",
"X X X X X X X X X X X X X X X X X X X X ",
"X X X X X X X X X X X X X X X X X X X X "
};
