/* XPM */
static char * dot_xpm[] = {
"4 20 3 1",
" 	c None",
".	c #EDEDED",
"+	c #474747",
"....",
"....",
"....",
"....",
"....",
"....",
"....",
"....",
"....",
"....",
"....",
"....",
"....",
"....",
".++.",
".++.",
"....",
"....",
"....",
"...."};
