/* XPM */
static char * m_xpm[] = {
"13 20 3 1",
" 	c None",
".	c #EDEDED",
"+	c #474747",
".............",
".............",
".............",
".............",
".............",
".............",
".............",
".............",
"..++++.++++..",
".+++++++++++.",
".+.++.+.++.+.",
".++..+++..++.",
".++..+++..++.",
".++...+...++.",
".+.........+.",
".............",
".............",
".............",
".............",
"............."};
