/* XPM */
static char * n0_xpm[] = {
"10 20 3 1",
" 	c None",
".	c #EDEDED",
"+	c #474747",
"..........",
"..........",
"..........",
"...+++++..",
"..+.+++.+.",
"..++...++.",
"..++...++.",
"..++...++.",
"..+.....+.",
"..........",
"..+.....+.",
"..++...++.",
"..++...++.",
"..++...++.",
"..+.+++.+.",
"...+++++..",
"..........",
"..........",
"..........",
".........."};
