/* XPM */
static char * percent_xpm[] = {
"10 20 27 1",
" 	c None",
".	c #EDEDED",
"+	c #9F9F9F",
"@	c #4F4F4F",
"#	c #EAEAEA",
"$	c #636363",
"%	c #BABABA",
"&	c #515151",
"*	c #C5C5C5",
"=	c #A8A8A8",
"-	c #727272",
";	c #E1E1E1",
">	c #555555",
",	c #CFCFCF",
"'	c #9C9C9C",
")	c #4E4E4E",
"!	c #9E9E9E",
"~	c #8E8E8E",
"{	c #8A8A8A",
"]	c #D2D2D2",
"^	c #535353",
"/	c #E0E0E0",
"(	c #757575",
"_	c #A1A1A1",
":	c #BCBCBC",
"<	c #5D5D5D",
"[	c #E9E9E9",
"..........",
"..........",
"..........",
"..........",
"..........",
"..........",
".+@+.#$%..",
".&*&.=-...",
".&*&;>,...",
".')!~{+@+.",
"...]^/&*&.",
"...(_.&*&.",
"..:<[.!)!.",
"..........",
"..........",
"..........",
"..........",
"..........",
"..........",
".........."};
