/* XPM */
static char * restoreA_xpm[] = {
"29 36 148 2",
"  	c None",
". 	c #C2C2C2",
"+ 	c #C1C1C1",
"@ 	c #C0C0C0",
"# 	c #9B9B9B",
"$ 	c #676767",
"% 	c #515151",
"& 	c #4E4E4E",
"* 	c #BEBEBE",
"= 	c #ADADAD",
"- 	c #565656",
"; 	c #93A0B1",
"> 	c #92D8F4",
", 	c #7CD8F6",
"' 	c #BBBBBB",
") 	c #A7A7A7",
"! 	c #4C4C4C",
"~ 	c #636669",
"{ 	c #4AA1DB",
"] 	c #58B4E6",
"^ 	c #68C5EE",
"/ 	c #6CCBF1",
"( 	c #4AA3DD",
"_ 	c #B8B8B8",
": 	c #B7B7B7",
"< 	c #4F4F4F",
"[ 	c #585B60",
"} 	c #327EC5",
"| 	c #3E93D2",
"1 	c #4AA4DD",
"2 	c #54B0E4",
"3 	c #58B5E7",
"4 	c #585B62",
"5 	c #B5B5B5",
"6 	c #868686",
"7 	c #4A4A4A",
"8 	c #266AB3",
"9 	c #2C75BC",
"0 	c #3382C6",
"a 	c #388CCF",
"b 	c #3F94D4",
"c 	c #B1B1B1",
"d 	c #555555",
"e 	c #394D67",
"f 	c #2263AD",
"g 	c #2668B1",
"h 	c #2973BC",
"i 	c #3484C8",
"j 	c #3A8ECE",
"k 	c #3D92D1",
"l 	c #388BCB",
"m 	c #307BC0",
"n 	c #AFAFAF",
"o 	c #494949",
"p 	c #20569C",
"q 	c #1E5BA5",
"r 	c #296FB5",
"s 	c #3181C5",
"t 	c #3A91D0",
"u 	c #409AD6",
"v 	c #449ED9",
"w 	c #439ED8",
"x 	c #4097D5",
"y 	c #398BCC",
"z 	c #307BC1",
"A 	c #ABABAB",
"B 	c #484848",
"C 	c #2667B1",
"D 	c #307DC3",
"E 	c #3C95D3",
"F 	c #46A4DD",
"G 	c #4FAFE3",
"H 	c #54B4E6",
"I 	c #4CACE2",
"J 	c #44A0DA",
"K 	c #2D77BF",
"L 	c #245EA4",
"M 	c #3C4F69",
"N 	c #307CC3",
"O 	c #3E94D4",
"P 	c #4EAAE1",
"Q 	c #5CBAEA",
"R 	c #6BC8F1",
"S 	c #64C3ED",
"T 	c #3C8ECF",
"U 	c #405771",
"V 	c #535353",
"W 	c #A4A4A4",
"X 	c #7A7A7A",
"Y 	c #444444",
"Z 	c #388ACD",
"` 	c #4CA7E0",
" .	c #5FBEEB",
"..	c #70CFF2",
"+.	c #80DBF6",
"@.	c #88E0F8",
"#.	c #7CD9F6",
"$.	c #5AB9E8",
"%.	c #459BD8",
"&.	c #7F7F7F",
"*.	c #A2A2A2",
"=.	c #A3A3A3",
"-.	c #494D51",
";.	c #70CCF2",
">.	c #84DFF8",
",.	c #9AEBFB",
"'.	c #A4F0FD",
").	c #A3F0FD",
"!.	c #94E8FB",
"~.	c #80DBF7",
"{.	c #69C8F0",
"].	c #4D5155",
"^.	c #9F9F9F",
"/.	c #979797",
"(.	c #434343",
"_.	c #4D4F52",
":.	c #70CDF2",
"<.	c #95E9FB",
"[.	c #AEF4FD",
"}.	c #BEFAFE",
"|.	c #BCF9FE",
"1.	c #A8F2FD",
"2.	c #84DDF8",
"3.	c #4F5256",
"4.	c #9E9E9E",
"5.	c #9C9C9C",
"6.	c #A0A0A0",
"7.	c #424242",
"8.	c #697889",
"9.	c #9CE2F8",
"0.	c #CCFCFE",
"a.	c #AEECFA",
"b.	c #708091",
"c.	c #525252",
"d.	c #A9A9A9",
"e.	c #999999",
"f.	c #B3B3B3",
"g.	c #414141",
"h.	c #4B4B4B",
"i.	c #6B6B6B",
"j.	c #BCBCBC",
"k.	c #989898",
"l.	c #A8A8A8",
"m.	c #B9B9B9",
"n.	c #C8C8C8",
"o.	c #D1D1D1",
"p.	c #404040",
"q.	c #000000",
". . . . . . . . . . . . . . . . . . . . . . . . . . . . . ",
"+ + + + + + + + + + + + + + + + + + + + + + + + + + + + + ",
"@ @ @ @ @ @ @ @ @ @ @ # $ % & % $ # @ @ @ @ @ @ @ @ @ @ @ ",
"* * * * * * * * * = - & ; > , > ; & - = * * * * * * * * * ",
"' ' ' ' ' ' ' ' ) ! ~ { ] ^ / ^ ] ( ~ ! ) ' ' ' ' ' ' ' ' ",
"_ _ _ _ _ _ _ : < [ } | 1 2 3 2 1 | } 4 < : _ _ _ _ _ _ _ ",
"5 5 5 5 5 5 5 6 7 8 9 0 a | b | a 0 9 8 7 6 5 5 5 5 5 5 5 ",
"c c c c c c c d e f g h i j | k l m g f e d c c c c c c c ",
"n n n n n n n o p q r s t u v w x y z f p o n n n n n n n ",
"A A A A A A A B p C D E F G H H I J a K L B A A A A A A A ",
") ) ) ) ) ) ) % M N O P Q ^ / R S 3 1 T U V ) ) ) ) ) ) ) ",
"W W W W W W W X Y Z `  ...+.@.@.#./ $.%.Y &.W W W W W W W ",
"*.*.*.*.*.*.*.=.o -.3 ;.>.,.'.).!.~.{.].7 ) *.*.*.*.*.*.*.",
"^.^.^.^.^.^.^.^./.(._.:.<.[.}.|.1.2.3.(.4.^.^.^.^.^.^.^.^.",
"5.5.5.5.5.5.5.5.6.6.< 7.8.9.0.a.b.7.c.d.=.5.5.5.5.5.5.5.5.",
"e.e.e.e.e.e.e.e.e.^.f./.$ 7 g.h.i.^.j.=.e.e.e.e.e.e.e.e.e.",
"k.k.k.k.k.k.k.k.k.k.k.l.m.n.o.o.. = k.k.k.k.k.k.k.k.k.k.k.",
"p.p.p.p.p.p.p.p.p.p.p.p.p.p.p.p.p.p.p.p.p.p.p.p.p.p.p.p.p.",
"q.q.q.q.q.q.q.q.q.q.q.q.q.q.q.q.q.q.q.q.q.q.q.q.q.q.q.q.q.",
"q.q.q.q.q.q.q.q.q.q.q.q.q.q.q.q.q.q.q.q.q.q.q.q.q.q.q.q.q.",
"q.q.q.q.q.q.q.q.q.q.q.q.q.q.q.q.q.q.q.q.q.q.q.q.q.q.q.q.q.",
"q.q.q.q.q.q.q.q.q.q.q.q.q.q.q.q.q.q.q.q.q.q.q.q.q.q.q.q.q.",
"q.q.q.q.q.q.q.q.q.q.q.q.q.q.q.q.q.q.q.q.q.q.q.q.q.q.q.q.q.",
"q.q.q.q.q.q.q.q.q.q.q.q.q.q.q.q.q.q.q.q.q.q.q.q.q.q.q.q.q.",
"q.q.q.q.q.q.q.q.q.q.q.q.q.q.q.q.q.q.q.q.q.q.q.q.q.q.q.q.q.",
"q.q.q.q.q.q.q.q.q.q.q.q.q.q.q.q.q.q.q.q.q.q.q.q.q.q.q.q.q.",
"q.q.q.q.q.q.q.q.q.q.q.q.q.q.q.q.q.q.q.q.q.q.q.q.q.q.q.q.q.",
"q.q.q.q.q.q.q.q.q.q.q.q.q.q.q.q.q.q.q.q.q.q.q.q.q.q.q.q.q.",
"q.q.q.q.q.q.q.q.q.q.q.q.q.q.q.q.q.q.q.q.q.q.q.q.q.q.q.q.q.",
"q.q.q.q.q.q.q.q.q.q.q.q.q.q.q.q.q.q.q.q.q.q.q.q.q.q.q.q.q.",
"q.q.q.q.q.q.q.q.q.q.q.q.q.q.q.q.q.q.q.q.q.q.q.q.q.q.q.q.q.",
"q.q.q.q.q.q.q.q.q.q.q.q.q.q.q.q.q.q.q.q.q.q.q.q.q.q.q.q.q.",
"q.q.q.q.q.q.q.q.q.q.q.q.q.q.q.q.q.q.q.q.q.q.q.q.q.q.q.q.q.",
"q.q.q.q.q.q.q.q.q.q.q.q.q.q.q.q.q.q.q.q.q.q.q.q.q.q.q.q.q.",
"q.q.q.q.q.q.q.q.q.q.q.q.q.q.q.q.q.q.q.q.q.q.q.q.q.q.q.q.q.",
"q.q.q.q.q.q.q.q.q.q.q.q.q.q.q.q.q.q.q.q.q.q.q.q.q.q.q.q.q."};
