/* XPM */
static char * titleAB_xpm[] = {
"4 18 19 1",
" 	c None",
".	c #C2C2C2",
"+	c #C1C1C1",
"@	c #C0C0C0",
"#	c #BEBEBE",
"$	c #BBBBBB",
"%	c #B8B8B8",
"&	c #B5B5B5",
"*	c #B1B1B1",
"=	c #AFAFAF",
"-	c #ABABAB",
";	c #A7A7A7",
">	c #A4A4A4",
",	c #A2A2A2",
"'	c #9F9F9F",
")	c #9C9C9C",
"!	c #999999",
"~	c #989898",
"{	c #404040",
"....",
"++++",
"@@@@",
"####",
"$$$$",
"%%%%",
"&&&&",
"****",
"====",
"----",
";;;;",
">>>>",
",,,,",
"''''",
"))))",
"!!!!",
"~~~~",
"{{{{"};
