/* XPM */
static char * frameAT_xpm[] = {
"6 31 20 1",
" 	c None",
".	c #A1A1A1",
"+	c #FFFFFF",
"@	c #F8F8F8",
"#	c #F7F7F7",
"$	c #F6F6F6",
"%	c #F5F5F5",
"&	c #F4F4F4",
"*	c #F3F3F3",
"=	c #F2F2F2",
"-	c #F1F1F1",
";	c #F0F0F0",
">	c #EFEFEF",
",	c #EEEEEE",
"'	c #EDEDED",
")	c #ECECEC",
"!	c #EBEBEB",
"~	c #EAEAEA",
"{	c #E9E9E9",
"]	c #E8E8E7",
"      ",
"      ",
"      ",
"      ",
"      ",
"......",
"++++++",
"@@@@@@",
"######",
"$$$$$$",
"%%%%%%",
"&&&&&&",
"******",
"======",
"------",
";;;;;;",
">>>>>>",
",,,,,,",
"''''''",
"))))))",
"))))))",
"!!!!!!",
"~~~~~~",
"{{{{{{",
"]]]]]]",
"]]]]]]",
"]]]]]]",
"]]]]]]",
"]]]]]]",
"]]]]]]",
"]]]]]]"};
