/* XPM */
static char * n0_xpm[] = {
"10 20 23 1",
" 	c None",
".	c #171717",
"+	c #161616",
"@	c #151515",
"#	c #383838",
"$	c #4F4F4F",
"%	c #2F2F2F",
"&	c #545454",
"*	c #2D2D2D",
"=	c #141414",
"-	c #484848",
";	c #181818",
">	c #474747",
",	c #131313",
"'	c #121212",
")	c #111111",
"!	c #464646",
"~	c #101010",
"{	c #2A2A2A",
"]	c #373737",
"^	c #0F0F0F",
"/	c #0E0E0E",
"(	c #0D0D0D",
"..........",
"..........",
"..........",
"..........",
"++++++++++",
"++++++++++",
"@@@#$$#@@@",
"@@%&**&%@@",
"==-&;;&>==",
",,$&,=&$,,",
"''$&,,&$''",
"))>&+.&!))",
"~~*&{{&*~~",
"~~~]$$]~~~",
"^^^^^^^^^^",
"//////////",
"//////////",
"((((((((((",
"((((((((((",
"(((((((((("};
