/* XPM */
static char * slash_xpm[] = {
"6 20 27 1",
" 	c None",
".	c #171717",
"+	c #161616",
"@	c #151515",
"#	c #2A2A2A",
"$	c #4A4A4A",
"%	c #3E3E3E",
"&	c #353535",
"*	c #141414",
"=	c #4F4F4F",
"-	c #212121",
";	c #131313",
">	c #252525",
",	c #4D4D4D",
"'	c #121212",
")	c #393939",
"!	c #111111",
"~	c #101010",
"{	c #222222",
"]	c #1E1E1E",
"^	c #333333",
"/	c #3B3B3B",
"(	c #0F0F0F",
"_	c #484848",
":	c #262626",
"<	c #0E0E0E",
"[	c #0D0D0D",
"......",
"......",
"......",
"......",
"++++++",
"++++++",
"@@@#$@",
"@@@%&@",
"**@=-*",
";;>,';",
"''))''",
"!~,{!!",
"~]=!~~",
"~^/~~~",
"(_:(((",
"<<<<<<",
"<<<<<<",
"[[[[[[",
"[[[[[[",
"[[[[[["};
