/* XPM */
static char * desktop_xpm[] = {
"24 20 15 1",
" 	c None",
".	c #FFFFFF",
"+	c #1A1A1A",
"@	c #272727",
"#	c #2A2A2A",
"$	c #2E2E2E",
"%	c #333333",
"&	c #373737",
"*	c #3A3A3A",
"=	c #3E3E3E",
"-	c #434343",
";	c #474747",
">	c #4A4A4A",
",	c #4E4E4E",
"'	c #535353",
"                        ",
"                        ",
"  ....................  ",
"  ..............+.+.+.  ",
"  ....................  ",
"  .@@@@@@@@@@@@@@@@@@.  ",
"  .##################.  ",
"  .$$$$$$$$$$$$$$$$$$.  ",
"  .%%%%%%%%%%%%%%%%%%.  ",
"  .&&&&&&&&&&&&&&&&&&.  ",
"  .******************.  ",
"  .==================.  ",
"  .------------------.  ",
"  .;;;;;;;;;;;;;;;;;;.  ",
"  .>>>>>>>>>>>>>>>>>>.  ",
"  .,,,,,,,,,,,,,,,,,,.  ",
"  .''''''''''''''''''.  ",
"  ....................  ",
"                        ",
"                        "};
