/* XPM */
static char * m_xpm[] = {
"13 20 27 1",
" 	c None",
".	c #1A1A1A",
"+	c #FFFFFF",
"@	c #F8F8F8",
"#	c #8E8E8E",
"$	c #EDEDED",
"%	c #DCDCDC",
"&	c #737373",
"*	c #323232",
"=	c #BCBCBC",
"-	c #F0F0F0",
";	c #919191",
">	c #1C1C1C",
",	c #E4E4E4",
"'	c #FDFDFD",
")	c #FCFCFC",
"!	c #989898",
"~	c #666666",
"{	c #5E5E5E",
"]	c #707070",
"^	c #585858",
"/	c #E5E5E5",
"(	c #272727",
"_	c #202020",
":	c #2B2B2B",
"<	c #1B1B1B",
"[	c #F7F7F7",
".............",
".............",
".............",
".............",
".............",
".............",
".............",
".............",
"+@#$%&*=-%;>.",
"+++,'+$+,)+!.",
"++~.{++].^+/.",
"++(._++:.<)).",
"+@...+@...[+.",
"+[...+[...[+.",
"+[...+[...[+.",
"+[...+[...[+.",
".............",
".............",
".............",
"............."};
