/* XPM */
static char * n4_xpm[] = {
"10 20 23 1",
" 	c None",
".	c #1A1A1A",
"+	c #303030",
"@	c #EEEEEE",
"#	c #F7F7F7",
"$	c #BCBCBC",
"%	c #FFFFFF",
"&	c #747474",
"*	c #363636",
"=	c #F4F4F4",
"-	c #C8C8C8",
";	c #1B1B1B",
">	c #C6C6C6",
",	c #F5F5F5",
"'	c #393939",
")	c #7F7F7F",
"!	c #797979",
"~	c #3D3D3D",
"{	c #C2C2C2",
"]	c #AFAFAF",
"^	c #E7E7E7",
"/	c #DBDBDB",
"(	c #B7B7B7",
"..........",
"..........",
"..........",
"..........",
"..........",
".....+@#..",
".....$%#..",
"....&%%#..",
"...*=-%#..",
"..;>,'%#..",
"..)%!.%#..",
".~#{;.%#..",
".]%^//%%/.",
".(%%%%%%%.",
"......%#..",
"......%#..",
"..........",
"..........",
"..........",
".........."};
