/* XPM */
static char * n5_xpm[] = {
"10 20 45 1",
" 	c None",
".	c #1A1A1A",
"+	c #2F2F2F",
"@	c #FFFFFF",
"#	c #EDEDED",
"$	c #5A5A5A",
"%	c #EFEFEF",
"&	c #E2E2E2",
"*	c #D3D3D3",
"=	c #868686",
"-	c #656565",
";	c #B2B2B2",
">	c #BABABA",
",	c #CECECE",
"'	c #A9A9A9",
")	c #3B3B3B",
"!	c #DCDCDC",
"~	c #F4F4F4",
"{	c #3C3C3C",
"]	c #909090",
"^	c #C9C9C9",
"/	c #515151",
"(	c #2B2B2B",
"_	c #B1B1B1",
":	c #333333",
"<	c #E3E3E3",
"[	c #575757",
"}	c #9E9E9E",
"|	c #292929",
"1	c #E4E4E4",
"2	c #E9E9E9",
"3	c #2A2A2A",
"4	c #919191",
"5	c #B3B3B3",
"6	c #B6B6B6",
"7	c #F5F5F5",
"8	c #E8E8E8",
"9	c #F7F7F7",
"0	c #3D3D3D",
"a	c #1B1B1B",
"b	c #8B8B8B",
"c	c #D7D7D7",
"d	c #F1F1F1",
"e	c #C2C2C2",
"f	c #444444",
"..........",
"..........",
"..........",
"..........",
"..........",
"..+@@@@#..",
"..$@%&&*..",
"..=@-.....",
"..;@>,')..",
"..!@@@@~{.",
"..]^/(;@_.",
"......:@<.",
".[}-..|@1.",
".[@23.4@5.",
"..6@78@90.",
"..abcdef..",
"..........",
"..........",
"..........",
".........."};
