/* XPM */
static char * slash_xpm[] = {
"10 20 36 1",
" 	c None",
".	c #1A1A1A",
"+	c #2B2B2B",
"@	c #FAFAFA",
"#	c #656565",
"$	c #7B7B7B",
"%	c #F0F0F0",
"&	c #202020",
"*	c #CFCFCF",
"=	c #A3A3A3",
"-	c #3D3D3D",
";	c #FFFFFF",
">	c #4E4E4E",
",	c #919191",
"'	c #E0E0E0",
")	c #1B1B1B",
"!	c #E4E4E4",
"~	c #8D8D8D",
"{	c #535353",
"]	c #3A3A3A",
"^	c #A7A7A7",
"/	c #CBCBCB",
"(	c #222222",
"_	c #F2F2F2",
":	c #777777",
"<	c #696969",
"[	c #F9F9F9",
"}	c #292929",
"|	c #BDBDBD",
"1	c #B5B5B5",
"2	c #2E2E2E",
"3	c #FCFCFC",
"4	c #606060",
"5	c #7F7F7F",
"6	c #EDEDED",
"7	c #1E1E1E",
"..........",
"..........",
"..........",
"..........",
"..........",
".....+@#..",
".....$%&..",
".....*=...",
"....-;>...",
"....,'....",
"...)!~....",
"...{;]....",
"...^/.....",
"..(_:.....",
"..<[}.....",
"..|1......",
".234......",
".567......",
"..........",
".........."};
