/* XPM */
static char * maximizeO_xpm[] = {
"26 50 148 2",
"  	c None",
". 	c #EDEDED",
"+ 	c #9DD0A8",
"@ 	c #2DAA47",
"# 	c #099E29",
"$ 	c #009920",
"% 	c #2EAB48",
"& 	c #9FD2A9",
"* 	c #3EAE55",
"= 	c #14A635",
"- 	c #3EC15C",
"; 	c #71E28B",
"> 	c #81ED9C",
", 	c #70E28B",
"' 	c #3CC05C",
") 	c #14A535",
"! 	c #3FAD55",
"~ 	c #3EAE54",
"{ 	c #28B348",
"] 	c #5AD477",
"^ 	c #87F1A1",
"/ 	c #9BFEB4",
"( 	c #A8FFC0",
"_ 	c #A8FFC1",
": 	c #A0FFB8",
"< 	c #8AF3A4",
"[ 	c #59D376",
"} 	c #27B247",
"| 	c #40AE56",
"1 	c #9BD0A6",
"2 	c #14A534",
"3 	c #5AD376",
"4 	c #98FCB1",
"5 	c #A5FFBE",
"6 	c #93F8AC",
"7 	c #72E38E",
"8 	c #77E793",
"9 	c #78E793",
"0 	c #94F9AE",
"a 	c #95FAAF",
"b 	c #2CA948",
"c 	c #3FC15C",
"d 	c #9EFFB7",
"e 	c #8CF4A6",
"f 	c #49C967",
"g 	c #29B549",
"h 	c #26B346",
"i 	c #58D375",
"j 	c #89F3A4",
"k 	c #3CC05B",
"l 	c #099E2A",
"m 	c #72E38C",
"n 	c #93F8AD",
"o 	c #93F9AD",
"p 	c #6FE28B",
"q 	c #13A734",
"r 	c #009419",
"s 	c #27B347",
"t 	c #79E894",
"u 	c #9FFFB8",
"v 	c #6FE28C",
"w 	c #0AA029",
"x 	c #82ED9D",
"y 	c #A9FFC1",
"z 	c #72E38D",
"A 	c #48C966",
"B 	c #6CE088",
"C 	c #9DFFB6",
"D 	c #75E590",
"E 	c #2BB54B",
"F 	c #78E794",
"G 	c #81ED9D",
"H 	c #009A21",
"I 	c #83ED9D",
"J 	c #2AB549",
"K 	c #12A533",
"L 	c #71E38C",
"M 	c #9CFFB6",
"N 	c #70E28C",
"O 	c #4BCA69",
"P 	c #73E48E",
"Q 	c #099D2A",
"R 	c #A0FFB9",
"S 	c #009319",
"T 	c #13A634",
"U 	c #94FAAE",
"V 	c #8DF4A6",
"W 	c #9BFDB4",
"X 	c #2BAA47",
"Y 	c #3FC25D",
"Z 	c #8BF3A5",
"` 	c #58D275",
" .	c #4ACA67",
"..	c #3DC15C",
"+.	c #2DA948",
"@.	c #9ACFA5",
"#.	c #15A535",
"$.	c #5BD478",
"%.	c #96FAAF",
"&.	c #77E792",
"*.	c #5AD377",
"=.	c #3DAC53",
"-.	c #29B248",
";.	c #83ED9E",
">.	c #089D2A",
",.	c #009921",
"'.	c #2CA947",
").	c #C1DDC7",
"!.	c #66BE78",
"~.	c #21A63D",
"{.	c #059A24",
"].	c #67BF79",
"^.	c #C2DEC8",
"/.	c #79C389",
"(.	c #35B051",
"_.	c #4CC467",
":.	c #72E28C",
"<.	c #71E28C",
"[.	c #4BC468",
"}.	c #7AC389",
"|.	c #79C388",
"1.	c #3CB958",
"2.	c #3CB858",
"3.	c #7BC48A",
"4.	c #C0DDC6",
"5.	c #34AF4F",
"6.	c #64BD78",
"7.	c #4DC467",
"8.	c #4BC467",
"9.	c #1FA63C",
"0.	c #73E38D",
"a.	c #70E28D",
"b.	c #22A83E",
"c.	c #069C26",
"d.	c #1FA53C",
"e.	c #73E38E",
"f.	c #71E28D",
"g.	c #21A63E",
"h.	c #63BD77",
"i.	c #4DC568",
"j.	c #66BD79",
"k.	c #BFDCC5",
"l.	c #78C287",
"m.	c #3EB859",
"n.	c #1EA53C",
"o.	c #049A25",
"p.	c #1FA53D",
"q.	c #64BD77",
". . . . . . . . . . . . . . . . . . . . . . . . . . ",
". . . . . . . . . . . . . . . . . . . . . . . . . . ",
". . . . . . . . . . . . . . . . . . . . . . . . . . ",
". . . . . . . . . . . . . . . . . . . . . . . . . . ",
". . . . . . . . . . . . . . . . . . . . . . . . . . ",
". . . . . . . . . . . . . . . . . . . . . . . . . . ",
". . . . . . . . . + @ # $ $ # % & . . . . . . . . . ",
". . . . . . . . * = - ; > > , ' ) ! . . . . . . . . ",
". . . . . . . ~ { ] ^ / ( _ : < [ } | . . . . . . . ",
". . . . . . 1 2 3 4 5 6 7 8 9 0 a [ ) & . . . . . . ",
". . . . . . b c ^ 5 d e f g h i 0 j k % . . . . . . ",
". . . . . . l m / n e o p q r s t u v w . . . . . . ",
". . . . . . $ x y z A B C D q E F _ G H . . . . . . ",
". . . . . . $ I y 9 J K L M N O P _ G H . . . . . . ",
". . . . . . Q z R t s S T L U V 6 W N l . . . . . . ",
". . . . . . X Y Z o ` h g  .e d 5 ^ ..+.. . . . . . ",
". . . . . . @.#.$.%.o 9 &.z 6 5 4 *.) + . . . . . . ",
". . . . . . . =.-.$.Z R y y / ^ ] -.! . . . . . . . ",
". . . . . . . . =.#.Y z I ;.m c ) * . . . . . . . . ",
". . . . . . . . . @.X >.,.,.>.'.1 . . . . . . . . . ",
". . . . . . . . . . . . . . . . . . . . . . . . . . ",
". . . . . . . . . . . . . . . . . . . . . . . . . . ",
". . . . . . . . . . . . . . . . . . . . . . . . . . ",
". . . . . . . . . . . . . . . . . . . . . . . . . . ",
". . . . . . . . . . . . . . . . . . . . . . . . . . ",
". . . . . . . . . . . . . . . . . . . . . . . . . . ",
". . . . . . . . . . . . . . . . . . . . . . . . . . ",
". . . . . . . . . . . . . . . . . . . . . . . . . . ",
". . . . . . . . . . . . . . . . . . . . . . . . . . ",
". . . . . . . . . . . . . . . . . . . . . . . . . . ",
". . . . . . . . . . . . . . . . . . . . . . . . . . ",
". . . . . . . . . ).!.~.{.{.~.].^.. . . . . . . . . ",
". . . . . . . . /.(._.:.> > <.[.(.}.. . . . . . . . ",
". . . . . . . |.1.] ^ / ( _ : < [ 2.3.. . . . . . . ",
". . . . . . 4.5.3 4 5 6 7 8 9 0 a [ (.^.. . . . . . ",
". . . . . . 6.7.^ 5 d e f g h i 0 j 8.].. . . . . . ",
". . . . . . 9.0./ n e o p q r s t u a.b.. . . . . . ",
". . . . . . {.x y z A B C D q E F _ G c.. . . . . . ",
". . . . . . {.I y 9 J K L M N O P _ G c.. . . . . . ",
". . . . . . d.e.R t s S T L U V 6 W f.g.. . . . . . ",
". . . . . . h.i.Z o ` h g  .e d 5 ^ [.j.. . . . . . ",
". . . . . . k.5.$.%.o 9 &.z 6 5 4 *.(.).. . . . . . ",
". . . . . . . l.2.$.Z R y y / ^ ] m.}.. . . . . . . ",
". . . . . . . . l.5.i.e.I ;.0.7.(./.. . . . . . . . ",
". . . . . . . . . k.h.n.o.o.p.q.4.. . . . . . . . . ",
". . . . . . . . . . . . . . . . . . . . . . . . . . ",
". . . . . . . . . . . . . . . . . . . . . . . . . . ",
". . . . . . . . . . . . . . . . . . . . . . . . . . ",
". . . . . . . . . . . . . . . . . . . . . . . . . . ",
". . . . . . . . . . . . . . . . . . . . . . . . . . "};
