/* XPM */
static char * app_32x32_xpm[] = {
"24 24 213 2",
"  	c None",
". 	c #8D8E88",
"+ 	c #8F8F8A",
"@ 	c #8D8F8B",
"# 	c #8B8D89",
"$ 	c #8B8B87",
"% 	c #CDCAC9",
"& 	c #989994",
"* 	c #8E8E89",
"= 	c #979893",
"- 	c #8D908A",
"; 	c #898B86",
"> 	c #EDE9E9",
", 	c #8D8E8A",
"' 	c #92938F",
") 	c #F6F3F3",
"! 	c #E2DFDF",
"~ 	c #8A8B87",
"{ 	c #ACABA8",
"] 	c #EAE6E6",
"^ 	c #90918C",
"/ 	c #8D8E89",
"( 	c #8D8E8B",
"_ 	c #8F908B",
": 	c #FCF9FA",
"< 	c #FAF7F8",
"[ 	c #F7F5F5",
"} 	c #F7F0F2",
"| 	c #F9F4F5",
"1 	c #F7F4F5",
"2 	c #FBF8F9",
"3 	c #F3EFF0",
"4 	c #8D8F8A",
"5 	c #8F8F8B",
"6 	c #8E8F8A",
"7 	c #8C8E89",
"8 	c #E8E2E3",
"9 	c #C6C3C1",
"0 	c #E4E0E0",
"a 	c #F8F1F3",
"b 	c #F6EFF1",
"c 	c #FBF7F8",
"d 	c #FAF7F7",
"e 	c #F9F5F6",
"f 	c #F3E9EB",
"g 	c #F8F2F4",
"h 	c #E4DFE0",
"i 	c #DED7D8",
"j 	c #E5DDDE",
"k 	c #DED9D9",
"l 	c #F7F1F2",
"m 	c #F8F2F3",
"n 	c #FAF5F6",
"o 	c #DBD6D6",
"p 	c #B2B0AE",
"q 	c #93948E",
"r 	c #B1AFAC",
"s 	c #D9D2D2",
"t 	c #F8F1F2",
"u 	c #F2E7E9",
"v 	c #C0BCBA",
"w 	c #E0DBDB",
"x 	c #F5EDEE",
"y 	c #F2ECEE",
"z 	c #ACABA9",
"A 	c #ABA8A5",
"B 	c #EEE5E7",
"C 	c #F1E6E8",
"D 	c #D9D0D1",
"E 	c #8C8D8A",
"F 	c #DFD9D9",
"G 	c #EBE4E5",
"H 	c #F6EEF0",
"I 	c #F6F0F1",
"J 	c #ABA9A5",
"K 	c #8B8E89",
"L 	c #8B8C87",
"M 	c #A9A4A3",
"N 	c #F1E5E7",
"O 	c #ECDCDF",
"P 	c #EFE2E4",
"Q 	c #DACDCE",
"R 	c #8B8C88",
"S 	c #A3A29E",
"T 	c #F5ECEE",
"U 	c #F1E5E8",
"V 	c #D3CCCC",
"W 	c #CDC2C2",
"X 	c #E8D4D8",
"Y 	c #E7D8DB",
"Z 	c #E8DFE0",
"` 	c #F2E7EA",
" .	c #AAA6A5",
"..	c #A9A3A2",
"+.	c #EAD7DC",
"@.	c #DFCED1",
"#.	c #8E8E8B",
"$.	c #898B87",
"%.	c #93938F",
"&.	c #CAC2C1",
"*.	c #EEE2E5",
"=.	c #90908B",
"-.	c #93938E",
";.	c #E9D7DA",
">.	c #E0C6CA",
",.	c #D7C2C5",
"'.	c #B1A5A5",
").	c #8C8C87",
"!.	c #B6B0AE",
"~.	c #DED3D3",
"{.	c #ECDBDE",
"].	c #8E908A",
"^.	c #969692",
"/.	c #EAD6DA",
"(.	c #DEC1C7",
"_.	c #BCACAC",
":.	c #908F8A",
"<.	c #8C8C88",
"[.	c #DCCDD0",
"}.	c #F2E8E9",
"|.	c #ABA7A4",
"1.	c #B4B0AF",
"2.	c #E6D2D5",
"3.	c #D0B7BB",
"4.	c #8A8A86",
"5.	c #8C8D89",
"6.	c #DDCACE",
"7.	c #EFE2E5",
"8.	c #D3CBCB",
"9.	c #8D8D88",
"0.	c #DBD0D2",
"a.	c #E0C5CB",
"b.	c #D6B3BA",
"c.	c #97918F",
"d.	c #8C8B88",
"e.	c #8A8B88",
"f.	c #CBBABC",
"g.	c #DFC8CD",
"h.	c #E3CCD1",
"i.	c #F6EFF0",
"j.	c #A8A3A1",
"k.	c #B9B4B4",
"l.	c #F0E2E5",
"m.	c #D2ADB4",
"n.	c #C2A3A8",
"o.	c #BA9EA3",
"p.	c #BBACAE",
"q.	c #EAD8DC",
"r.	c #F6F1F2",
"s.	c #AEA9A7",
"t.	c #BCB7B6",
"u.	c #F8F4F5",
"v.	c #D8B7BE",
"w.	c #B59B9F",
"x.	c #8B8C86",
"y.	c #8D8C88",
"z.	c #A59C9B",
"A.	c #DBBDC3",
"B.	c #E7D3D7",
"C.	c #FCF9F9",
"D.	c #DFD7D8",
"E.	c #B9B4B3",
"F.	c #989894",
"G.	c #9E9E99",
"H.	c #BEB7B7",
"I.	c #E8E1E2",
"J.	c #DABAC0",
"K.	c #CFA6AE",
"L.	c #B29A9D",
"M.	c #C4AEB1",
"N.	c #B9A7A9",
"O.	c #BAA6A9",
"P.	c #DBBCC3",
"Q.	c #EBDADE",
"R.	c #F0E3E6",
"S.	c #E5CFD3",
"T.	c #D0A8B1",
"U.	c #B2999C",
"V.	c #9F9292",
"W.	c #B9999F",
"X.	c #8B8B86",
"Y.	c #8A8B86",
"Z.	c #858581",
"`.	c #C6AAAF",
" +	c #D4B0B7",
".+	c #C7A8AD",
"++	c #D2ABB3",
"@+	c #D1A9B1",
"#+	c #C4A3A9",
"$+	c #C7A2A9",
"%+	c #CCA2AA",
"&+	c #888985",
"*+	c #70726C",
"=+	c #898885",
"-+	c #8A8A85",
";+	c #858580",
">+	c #BDA4A7",
",+	c #928D8A",
"'+	c #898985",
")+	c #AD999A",
"!+	c #C2A1A6",
"~+	c #888885",
"{+	c #B99A9F",
"]+	c #898A85",
"^+	c #7D7F79",
"/+	c #8A8A87",
"(+	c #797975",
"_+	c #A39293",
":+	c #676766",
"<+	c #878884",
"[+	c #878782",
"}+	c #82817E",
"|+	c #888984",
"                                                ",
"                      . +                       ",
"              @ #   $ % &   * = -               ",
"              ; > , ' ) ! ~ { ] ^               ",
"        / (   _ : < [ } | 1 2 3 4 5 6 7         ",
"        6 8 9 0 a b c d d e f g h i j ,         ",
"        5 k l m n o p q q r s t u f v           ",
"    - ^ , w x y z 6         6 A B C D 7 ; E     ",
"    ' F G H I J K             L M N O P Q R     ",
"    * S T U V 6                 / W X Y R       ",
"      ~ Z `  .                    ..+.@.#.$.    ",
"  + %.&.*.` =.                    -.;.>.,.'.).  ",
"  . !.~.{.u ].                    ^./.(._.:.<.  ",
"    $.( [.}.|.                    1.2.3.4.      ",
"      5.6.7.8.*                 9.0.a.b.c.d.    ",
"    e.f.g.h.i.j.L             L k.l.m.n.o.$     ",
"    5.; ; p.q.r.s./         9.t.u.v.w.x.y.).    ",
"          z.A.B.C.D.E.F.G.H.I.l J.K.L.y.        ",
"        5.M.N.O.P.Q.f 2 | R.S.T.U.V.W.X.        ",
"        Y.Y.Z.4.`. +.+++@+#+$+%+&+*+=+-+        ",
"              ;+>+,+'+)+!+~+'+{+]+              ",
"              ^+/+(+  X._+:+  <+[+              ",
"                      }+|+                      ",
"                                                "};
