/* XPM */
static char * closeI_xpm[] = {
"46 46 152 2",
"  	c None",
". 	c #293454",
"+ 	c #003259",
"@ 	c #798092",
"# 	c #E7F1FF",
"$ 	c #E8F2FF",
"% 	c #E9F1FF",
"& 	c #E5EFFF",
"* 	c #E3EDFF",
"= 	c #E4EEFF",
"- 	c #E4EDFF",
"; 	c #E2EFFF",
"> 	c #E3EFFF",
", 	c #DFEBFF",
"' 	c #4E5571",
") 	c #E9F0F4",
"! 	c #797F95",
"~ 	c #DFE6F9",
"{ 	c #CFD6F3",
"] 	c #CDD6F5",
"^ 	c #CED7F6",
"/ 	c #CDD6F7",
"( 	c #CCD5F4",
"_ 	c #CCD7F5",
": 	c #CDD6F3",
"< 	c #98B5D1",
"[ 	c #797F8F",
"} 	c #E4EAFF",
"| 	c #CFD6F0",
"1 	c #CFD6F2",
"2 	c #CDD7F2",
"3 	c #505666",
"4 	c #9CB7D1",
"5 	c #CFD7EE",
"6 	c #D0D6EE",
"7 	c #D0D6F0",
"8 	c #E0E5F8",
"9 	c #525566",
"0 	c #9DB8D3",
"a 	c #CED7F4",
"b 	c #838BA2",
"c 	c #848AA0",
"d 	c #51566A",
"e 	c #515669",
"f 	c #505769",
"g 	c #848B9E",
"h 	c #D0D6EC",
"i 	c #838AA4",
"j 	c #9FBAD5",
"k 	c #CCD5F2",
"l 	c #50566C",
"m 	c #515767",
"n 	c #FBFFFF",
"o 	c #FCFFFF",
"p 	c #535760",
"q 	c #878A99",
"r 	c #535763",
"s 	c #D0D7F1",
"t 	c #848AA2",
"u 	c #858A9D",
"v 	c #535762",
"w 	c #FAFDFF",
"x 	c #FCFDFF",
"y 	c #54575E",
"z 	c #FBFEFF",
"A 	c #CED5EF",
"B 	c #A1BCD7",
"C 	c #7A7F92",
"D 	c #535665",
"E 	c #F9F9FF",
"F 	c #FAF9FE",
"G 	c #F9FAFE",
"H 	c #F9FAFF",
"I 	c #F8FBFF",
"J 	c #525662",
"K 	c #858A9E",
"L 	c #CCD7F3",
"M 	c #A3BED9",
"N 	c #E4EBFE",
"O 	c #858B9B",
"P 	c #565660",
"Q 	c #E9E9EB",
"R 	c #E8E9ED",
"S 	c #545760",
"T 	c #535667",
"U 	c #A5C0DB",
"V 	c #CFD7EC",
"W 	c #D1D7EF",
"X 	c #848A9A",
"Y 	c #E8E9EB",
"Z 	c #53565F",
"` 	c #E1E6F9",
" .	c #A7C2DD",
"..	c #D0D8EF",
"+.	c #DFE2E9",
"@.	c #E1E2E6",
"#.	c #E1E2E7",
"$.	c #E0E3EA",
"%.	c #A9C4DF",
"&.	c #D9DCE3",
"*.	c #DBDCE0",
"=.	c #DADDE6",
"-.	c #DBDCE1",
";.	c #828AA1",
">.	c #ABC6E1",
",.	c #798093",
"'.	c #D3D7E2",
").	c #D4D7DE",
"!.	c #D4D7E0",
"~.	c #D3D7E3",
"{.	c #4F576C",
"].	c #CED8F3",
"^.	c #ADC8E3",
"/.	c #848B9D",
"(.	c #DEE4F4",
"_.	c #555867",
":.	c #B1C8E7",
"<.	c #CFD5ED",
"[.	c #CDD7F0",
"}.	c #D3D9EF",
"|.	c #D3D9E9",
"1.	c #B3C9E5",
"2.	c #E5EAFD",
"3.	c #D1D6EA",
"4.	c #CED6ED",
"5.	c #D0D8ED",
"6.	c #D3DAED",
"7.	c #DDE2F5",
"8.	c #A9ACBB",
"9.	c #B3CDE4",
"0.	c #797F8D",
"a.	c #F0F3FF",
"b.	c #E0E6F6",
"c.	c #DFE6F8",
"d.	c #E0E7F9",
"e.	c #E0E5F9",
"f.	c #DEE6F9",
"g.	c #DEE7F8",
"h.	c #E2E7FA",
"i.	c #C9CFDF",
"j.	c #9BA1AF",
"k.	c #575A69",
"l.	c #B4D1E6",
"m.	c #525661",
"n.	c #505662",
"o.	c #505664",
"p.	c #525564",
"q.	c #B5D3EA",
"r.	c #B7D1ED",
"s.	c #B9D1F0",
"t.	c #BDD0EE",
"u.	c #CEDBF0",
". . . . . . . . . . . . . . . . . . . . . . . . . . . . . . . . . . . . . . . . . . . + + + ",
"@ # # # # # # $ $ % % $ $ % % # & & & * = = = - = = = = = = = ; ; = = = = = = = > , ' ) ) ) ",
"! ~ { ] ] ^ ] ] ] ] ] ] ] ] ] ] ^ ] ] ] ] ^ ] / ] ( ] ] ] ] ] _ _ ] ] ] ] ] ] ] : ~ ' < < < ",
"[ } | 1 : : : : : : : : : : : 2 2 2 2 2 2 : : 2 1 1 1 2 2 : : : : : : 2 2 : : : | ~ 3 4 4 4 ",
"@ } 5 1 : ] ] : : : : : : : 2 | | | | | | 1 1 | 6 6 7 1 2 { { : : : : : : : : : | 8 9 0 0 0 ",
"@ } 5 1 a ] ] : : : : : : : 2 b c d e f g h c e e d c i 2 { { : : : : : : : : : | 8 9 j j j ",
"@ } 5 1 k ] ] : : : : : : : 1 l m n o o p q r o o n e l s 2 : : : : : : : : : : | 8 9 j j j ",
"@ } 5 1 : ] ] : : : : : : : 1 t u v w x x y w x z r u b A 2 : : : : : : : : : : | 8 9 B B B ",
"C } 5 | 2 : : : : : : { { : : 1 5 g D E F G H I J K | 1 2 : : : : : : : : L L ] 1 8 9 M M M ",
"C N 5 | 2 : : : : : : { { : : : 2 6 O P Q Q R S O 6 1 : : k : : : : : : : L L ] 1 8 T U U U ",
"@ N V 1 : : : : : : : : : : : : 2 W X S Y Q R Z O 6 1 : : : : : : : : : : 2 2 : | ` 9  . . .",
"@ N V 1 : : : : : : : : : : : 1 ..g D +.@.@.#.$.J K | 1 2 : : : : : : : : 2 2 : | 8 9 %.%.%.",
"@ N 5 1 : : : : : : : : : : 1 t u v &.*.*.S =.-.&.r u ;.| 2 : : : : : : : : : : | 8 9 >.>.>.",
",.} 5 1 : : : : : : : : : : 1 l m '.).).p q D !.).~.e {.| ].: : : : : : : : : : | 8 9 ^.^.^.",
",.} 5 1 : : : : : : : : : : 2 i c d e f /.h c e e d c i 2 : : : : : : : : : : 1 6 (._.:.:.:.",
",.N h | 2 2 2 2 2 2 2 1 2 1 1 | 5 W <.V 5 | 7 6 h 6 6 | [.2 ].2 2 2 2 2 2 2 1 | }.|.T 1.1.1.",
"C 2.3.V 4.| | 5 5 | | 6 5 7 5 5 5 6 6 V 5.6 W h h h h 5 5 | | 5 5 | 5 5 V 5 h 6.7.8.T 9.9.9.",
"0.a.b.c.d.~ ~ ~ c.~ ~ e.c.e.~ f.g.~ ~ ~ c.e.e.~ c.8 8 c.c.~ ~ ~ c.~ ~ c.c.d.h.i.j.k.l.l.l.l.",
"m.J J n.n.o.n.n.n.o.n.J n.p.n.n.n.o.n.n.n.D J n.n.J J n.n.o.n.n.n.o.n.n.n.n.n.T T q.q.q.q.q.",
"r.r.r.r.r.r.r.r.r.r.r.r.r.r.r.r.r.r.r.r.r.r.r.r.r.r.r.r.r.r.r.r.r.r.r.r.r.r.r.r.r.r.r.r.r.r.",
"s.s.s.s.s.s.s.s.s.s.s.s.s.s.s.s.s.s.s.s.s.s.s.s.s.s.s.s.s.s.s.s.s.s.s.s.s.s.s.s.s.s.s.s.s.s.",
"t.t.t.t.t.t.t.t.t.t.t.t.t.t.t.t.t.t.t.t.t.t.t.t.t.t.t.t.t.t.t.t.t.t.t.t.t.t.t.t.t.t.t.t.t.t.",
"u.u.u.u.u.u.u.u.u.u.u.u.u.u.u.u.u.u.u.u.u.u.u.u.u.u.u.u.u.u.u.u.u.u.u.u.u.u.u.u.u.u.u.u.u.u.",
". . . . . . . . . . . . . . . . . . . . . . . . . . . . . . . . . . . . . . . . . . . + + + ",
"@ # # # # # # $ $ % % $ $ % % # & & & * = = = - = = = = = = = ; ; = = = = = = = > , 9 ) ) ) ",
"! ~ { ] ] ^ ] ] ] ] ] ] ] ] ] ] ^ ] ] ] ] ^ ] / ] ( ] ] ] ] ] _ _ ] ] ] ] ] ] ] : ~ 9 < < < ",
"[ } | 1 : : : : : : : : : : : 2 2 2 2 2 2 : : 2 1 1 1 2 2 : : : : : : 2 2 : : : | ~ 3 4 4 4 ",
"@ } 5 1 : ] ] : : : : : : : 2 | | | | | | 1 1 | 6 6 7 1 2 { { : : : : : : : : : | 8 9 0 0 0 ",
"@ } 5 1 a ] ] : : : : : : : 2 b c d e f g h c e e d c i 2 { { : : : : : : : : : | 8 9 j j j ",
"@ } 5 1 k ] ] : : : : : : : 1 l m n o o p q r o o n e l s 2 : : : : : : : : : : | 8 9 j j j ",
"@ } 5 1 : ] ] : : : : : : : 1 t u v w x x y w x z r u b A 2 : : : : : : : : : : | 8 9 B B B ",
"C } 5 | 2 : : : : : : { { : : 1 5 g D E F G H I J K | 1 2 : : : : : : : : L L ] 1 8 9 M M M ",
"C N 5 | 2 : : : : : : { { : : : 2 6 O P Q Q R S O 6 1 : : k : : : : : : : L L ] 1 8 T U U U ",
"@ N V 1 : : : : : : : : : : : : 2 W X S Y Q R Z O 6 1 : : : : : : : : : : 2 2 : | ` 9  . . .",
"@ N V 1 : : : : : : : : : : : 1 ..g D +.@.@.#.$.J K | 1 2 : : : : : : : : 2 2 : | 8 9 %.%.%.",
"@ N 5 1 : : : : : : : : : : 1 t u v &.*.*.S =.-.&.r u ;.| 2 : : : : : : : : : : | 8 9 >.>.>.",
",.} 5 1 : : : : : : : : : : 1 l m '.).).p q D !.).~.e {.| ].: : : : : : : : : : | 8 9 ^.^.^.",
",.} 5 1 : : : : : : : : : : 2 i c d e f /.h c e e d c i 2 : : : : : : : : : : 1 6 (._.:.:.:.",
",.N h | 2 2 2 2 2 2 2 1 2 1 1 | 5 W <.V 5 | 7 6 h 6 6 | [.2 ].2 2 2 2 2 2 2 1 | }.|.T 1.1.1.",
"C 2.3.V 4.| | 5 5 | | 6 5 7 5 5 5 6 6 V 5.6 W h h h h 5 5 | | 5 5 | 5 5 V 5 h 6.7.8.T 9.9.9.",
"0.a.b.c.d.~ ~ ~ c.~ ~ e.c.e.~ f.g.~ ~ ~ c.e.e.~ c.8 8 c.c.~ ~ ~ c.~ ~ c.c.d.h.i.j.k.l.l.l.l.",
"m.J J n.n.o.n.n.n.o.n.J n.p.n.n.n.o.n.n.n.D J n.n.J J n.n.o.n.n.n.o.n.n.n.n.n.T T q.q.q.q.q.",
"r.r.r.r.r.r.r.r.r.r.r.r.r.r.r.r.r.r.r.r.r.r.r.r.r.r.r.r.r.r.r.r.r.r.r.r.r.r.r.r.r.r.r.r.r.r.",
"s.s.s.s.s.s.s.s.s.s.s.s.s.s.s.s.s.s.s.s.s.s.s.s.s.s.s.s.s.s.s.s.s.s.s.s.s.s.s.s.s.s.s.s.s.s.",
"t.t.t.t.t.t.t.t.t.t.t.t.t.t.t.t.t.t.t.t.t.t.t.t.t.t.t.t.t.t.t.t.t.t.t.t.t.t.t.t.t.t.t.t.t.t.",
"u.u.u.u.u.u.u.u.u.u.u.u.u.u.u.u.u.u.u.u.u.u.u.u.u.u.u.u.u.u.u.u.u.u.u.u.u.u.u.u.u.u.u.u.u.u."};
