/* XPM */
static char * frameAT_xpm[] = {
"1 26 9 1",
" 	c None",
".	c #000000",
"+	c #2E2E2E",
"@	c #222222",
"#	c #191919",
"$	c #161616",
"%	c #121212",
"&	c #0D0D0D",
"*	c #0B0B0B",
" ",
" ",
" ",
".",
".",
".",
"+",
"@",
"#",
"$",
"%",
"&",
"*",
"*",
"*",
"*",
"*",
"*",
"*",
"*",
"*",
"*",
"*",
"*",
"*",
"*"};
