/* XPM */
static char *closeA[] = {
/* columns rows colors chars-per-pixel */
"20 58 133 2 ",
"   c #090F09",
".  c #192A18",
"X  c #1B2D19",
"o  c #1B2C1A",
"O  c #1C2E1C",
"+  c #1E311D",
"@  c #1F331E",
"#  c #20351F",
"$  c #213720",
"%  c #223920",
"&  c #233B22",
"*  c #3C3A37",
"=  c #3C3B37",
"-  c #3C3C37",
";  c #3D3F38",
":  c #3D3E39",
">  c #3E3F39",
",  c #403F3B",
"<  c #3D4038",
"1  c #3F4139",
"2  c #3E4239",
"3  c #3F413B",
"4  c #40413A",
"5  c #41423B",
"6  c #41443B",
"7  c #44433D",
"8  c #41443C",
"9  c #42443D",
"0  c #45453D",
"q  c #45443E",
"w  c #46443E",
"e  c #47453F",
"r  c #424A3D",
"t  c #414C3C",
"y  c #434E3E",
"u  c #464840",
"i  c #474840",
"p  c #4A4841",
"a  c #4B4A42",
"s  c #4C4A43",
"d  c #4C4A44",
"f  c #4F4D45",
"g  c #514F47",
"h  c #485043",
"j  c #485143",
"k  c #485243",
"l  c #485D43",
"z  c #485E44",
"x  c #525048",
"c  c #54524A",
"v  c #56554D",
"b  c #595750",
"n  c #5B5A53",
"m  c #5E5C55",
"M  c #5E5D55",
"N  c #605F58",
"B  c #496044",
"V  c #496245",
"C  c #496046",
"Z  c #4A6046",
"A  c #4A6346",
"S  c #4D6848",
"D  c #4F694A",
"F  c #4F6A4B",
"G  c #4E6C4A",
"H  c #477445",
"J  c #4C7F49",
"K  c #50734D",
"L  c #51744D",
"P  c #547C50",
"I  c #557F51",
"U  c #4C8049",
"Y  c #568251",
"T  c #568454",
"R  c #578554",
"E  c #588554",
"W  c #588955",
"Q  c #5A8E57",
"!  c #5B9057",
"~  c #5B9158",
"^  c #5C9358",
"/  c #5C9359",
"(  c #5B9658",
")  c #5C9459",
"_  c #5D9659",
"`  c #5C9858",
"'  c #5D985A",
"]  c #5D995A",
"[  c #5E985A",
"{  c #5F9B5B",
"}  c #5E9C5B",
"|  c #5F9F5B",
" . c #62835E",
".. c #62855E",
"X. c #63945F",
"o. c #63965F",
"O. c #609D5C",
"+. c #609F5C",
"@. c #5FA05B",
"#. c #60A25C",
"$. c #61A35D",
"%. c #62A55E",
"&. c #648560",
"*. c #648B60",
"=. c #658C60",
"-. c #658E62",
";. c #659961",
":. c #679A63",
">. c #6B9D66",
",. c #64A760",
"<. c #65A861",
"1. c #66A862",
"2. c #69AA65",
"3. c #6AAB66",
"4. c #6BAB67",
"5. c #6CA269",
"6. c #6EA26A",
"7. c #6EAC6A",
"8. c #6FAD6B",
"9. c #72A06E",
"0. c #73A56F",
"q. c #73AF6F",
"w. c #73B06F",
"e. c #74A370",
"r. c #78AB74",
"t. c #79AD75",
"y. c #74B070",
"u. c #77B273",
"i. c #78B274",
"p. c #78B374",
"a. c #79B375",
"s. c #7AB276",
"d. c #7BB277",
/* pixels */
"N N N N N N N N N N N N N N N N N N N N ",
"m m m m m m m m m n n N N m m n n N m m ",
"n n n n n n n n n n n n n n n n n n n n ",
"b b b b b b b b b b b n n b b b b b b n ",
"v v v v v v v v v v v v v v v v v v v v ",
"c c c x c c c c c x c c c c c x c x c c ",
"x x x x x g a u 9 : : 8 p a x x x g g g ",
"f g f f a 5 k &.0.d.s.0.&.h 8 a g f g f ",
"a a d w 5 -.i.i.i.i.i.u.u.u.*.1 e s s s ",
"a p w 8 5.y.y.y.q.q.q.q.y.y.q.>.6 e s e ",
"w w 1 ;.7.7.8.8.7.7.7.7.7.7.8.4.o.5 7 7 ",
"w 8 D 2.2.2.2.2.2.2.2.2.2.2.2.2.2.F 5 w ",
": : +.1.1.1.J # %.%.%.#.# J %.<.,.+.- , ",
": y %.%.%.#.#.& X #.| X & #.<.%.%.%.r - ",
"* A #.#.#.#.#.+.% . . % #.#.#.#.#.#.A * ",
"* F #.+.#.+.+.#.`     ` +.+.+.+.O.+.S - ",
"* z | | @.@.} ] o # # . ^ | | #.O.O.l : ",
"* u { { { ` ) O # { ) @ o ^ { ` ` O.r - ",
": 1 / ' ) ` H O ^ ` _ ) O H _ ` ` Q - - ",
"* * A ` ) ` ) ) ) ) _ ^ _ _ _ ) _ l 1 * ",
": = : I ^ ^ ^ / ) ~ ^ / ^ ) ) ^ Y : * - ",
"= = = 1 Y ^ ^ Q ^ ^ ^ ~ ! ! ^ T 5 - - * ",
"= = = = 1 K ~ ~ W ~ Q Q Q Q K : * - * - ",
"= = = = * 1 3 F I T T P G 1 1 = - * - * ",
"= = = = = = = : 1 1 = 1 : = = = * - * - ",
"= = = = = = = - * - - = = = = = - * - * ",
"= = = = = = = = - * - * = = = = * - * - ",
"= = = = = = = = * - * * = = = = - * - * ",
"= = = = = : = = - - - 1 * - - - * - * - ",
"N N N N m N N N N N m N N N N N N N N m ",
"m m m m m m m m n m m m m m N m m m m m ",
"n n n n n n n n n n n n n n n n n n n m ",
"b b b b b b b b b b b b b b b b b b b b ",
"v v v v v v v v v v v v v v v v b c v v ",
"x v g x x v v x x x x c c x c c c c c c ",
"x x x x x x d u 8 = : 5 u a x x g c g g ",
"g f f f a 1 r F Y W W I F 9 : a d g d g ",
"a d f 7 1 K W ~ Q Q Q Q ~ ~ L : w d s s ",
"a d 7 1 T ^ ~ ~ Q ^ ~ ~ ~ ~ ^ E 8 w p p ",
"7 7 1 Y ` _ ~ _ ^ ^ _ ^ ~ ^ ^ ^ Y = u w ",
"8 , z { _ _ _ _ _ _ _ _ _ _ _ _ _ l 8 w ",
", : ~ ` | o.H O ^ ' ) ^ O H { ` _ Q : , ",
": r ` | ` o.` $ . ^ ^ . $ ' { { ` | r : ",
"= A | | | @.#.` $ . . & { { | { +.| l * ",
"= F #.O.| @.@.| )     ) | | @.#.+.+.D - ",
"= Z #.,.%.@.%.#.o & & O | | | 1.#.#.l - ",
": r %.%.<.%.@.o % @.| + . | ,.,.%.%.t - ",
"= , | 1.<.<.U @ ,.,.,.1.+ J ,.,.1.| : * ",
"= : D 2.4.4.4.2.2.4.4.4.2.4.4.2.2.D < * ",
"* * 1 ;.8.y.8.8.7.7.7.8.7.7.7.7.o.1 - * ",
"- * 1 5 5.w.u.q.u.w.y.y.p.w.w.>.1 - * - ",
"* - = = 8 -.s.p.p.p.s.s.p.i.=.1 : * - * ",
"* - * - : 5 k  .9.t.t.0...j 5 - * - * - ",
"- * - * * * - - < - - < : = = * - * - * ",
"* - * - * - * * - * - * * * * - * - * - ",
"- * - * - * - * * - * - * - - * - * - * ",
"* - * - * - * - * - * - * - * - * - * - ",
"- * - * - * - * - * - * - * - * - * - * "
};
