/* XPM */
static char * closeA_xpm[] = {
"30 36 82 1",
" 	c None",
".	c #7BA7F3",
"+	c #9FBFF6",
"@	c #72A0F2",
"#	c #90B4F2",
"$	c #92B6F5",
"%	c #91B5F5",
"&	c #6C9CF1",
"*	c #83A8EA",
"=	c #88AFF4",
"-	c #87AEF4",
";	c #6497F1",
">	c #739CE3",
",	c #5E93F0",
"'	c #6791DB",
")	c #5183DB",
"!	c #5F89D4",
"~	c #75A2F2",
"{	c #74A2F2",
"]	c #5E89D4",
"^	c #416DBB",
"/	c #5580CC",
"(	c #76A3F3",
"_	c #8295B6",
":	c #4371C1",
"<	c #4D78C5",
"[	c #7AA6F3",
"}	c #8597B6",
"|	c #F2F6FE",
"1	c #4575C9",
"2	c #4068AD",
"3	c #7AA0E3",
"4	c #8494B0",
"5	c #F2F6FC",
"6	c #4879D0",
"7	c #325390",
"8	c #7998D0",
"9	c #8491A8",
"0	c #F2F5FA",
"a	c #8491A7",
"b	c #7998CF",
"c	c #32538F",
"d	c #4A7DD7",
"e	c #31538F",
"f	c #85A3D8",
"g	c #8995AB",
"h	c #F3F6FB",
"i	c #8995AA",
"j	c #85A3D7",
"k	c #31538E",
"l	c #4D81DD",
"m	c #92AEDF",
"n	c #8E99AE",
"o	c #F4F7FC",
"p	c #4F85E5",
"q	c #9EB8E6",
"r	c #939EB1",
"s	c #F6F8FD",
"t	c #528AEC",
"u	c #30528D",
"v	c #AAC2EC",
"w	c #98A2B3",
"x	c #5990F0",
"y	c #30518B",
"z	c #9EB7E4",
"A	c #B6CBF1",
"B	c #365A9B",
"C	c #6A89BF",
"D	c #BDD2F5",
"E	c #709FF2",
"F	c #4473C5",
"G	c #315189",
"H	c #5B7EBA",
"I	c #85A8E4",
"J	c #99BAF4",
"K	c #444675",
"L	c #578EEE",
"M	c #4976C7",
"N	c #385B99",
"O	c #314F84",
"P	c #304F84",
"Q	c #000000",
"..++++++++++++++++++++++++++++",
"@@#$$%%%%%%%%%%%%$$$$$$$$$$$$#",
"&&*==------------============*",
";;>..........................>",
",,'@@@@@@@@@@@@@@@@@@@@@@@@@@'",
"))!~~~~~~~~~~~~~~{{{{{{{{{{{{]",
"^^/(((((((((___(((___((((((((/",
"::<[[[[[[[[}|||}[}|||}[[[[[[[<",
"112333333333455545554333333332",
"6678888888888900000abbbbbbbbbc",
"ddeffffffffffghhhhhijjjjjjjjjk",
"llemmmmmmmmmnooonooonmmmmmmmme",
"ppkqqqqqqqqrsssrqrsssrqqqqqqqk",
"ttuvvvvvvvvvwwwvvvwwwvvvvvvvvu",
"xxyzAAAAAAAAAAAAAAAAAAAAAAAAzy",
";;BCDDDDDDDDDDDDDDDDDDDDDDDDCB",
"EEFGHIJJJJJJJJJJJJJJJJJJJJIHGF",
"KKLMNOOOOOOOOOOOOPPPPPPPPPPNML",
"QQQQQQQQQQQQQQQQQQQQQQQQQQQQQQ",
"QQQQQQQQQQQQQQQQQQQQQQQQQQQQQQ",
"QQQQQQQQQQQQQQQQQQQQQQQQQQQQQQ",
"QQQQQQQQQQQQQQQQQQQQQQQQQQQQQQ",
"QQQQQQQQQQQQQQQQQQQQQQQQQQQQQQ",
"QQQQQQQQQQQQQQQQQQQQQQQQQQQQQQ",
"QQQQQQQQQQQQQQQQQQQQQQQQQQQQQQ",
"QQQQQQQQQQQQQQQQQQQQQQQQQQQQQQ",
"QQQQQQQQQQQQQQQQQQQQQQQQQQQQQQ",
"QQQQQQQQQQQQQQQQQQQQQQQQQQQQQQ",
"QQQQQQQQQQQQQQQQQQQQQQQQQQQQQQ",
"QQQQQQQQQQQQQQQQQQQQQQQQQQQQQQ",
"QQQQQQQQQQQQQQQQQQQQQQQQQQQQQQ",
"QQQQQQQQQQQQQQQQQQQQQQQQQQQQQQ",
"QQQQQQQQQQQQQQQQQQQQQQQQQQQQQQ",
"QQQQQQQQQQQQQQQQQQQQQQQQQQQQQQ",
"QQQQQQQQQQQQQQQQQQQQQQQQQQQQQQ",
"QQQQQQQQQQQQQQQQQQQQQQQQQQQQQQ"};
