/* XPM */
static char * n2_xpm[] = {
"8 20 35 1",
" 	c None",
".	c #212121",
"+	c #243E44",
"@	c #7AE1FF",
"#	c #49A6C1",
"$	c #57A4BA",
"%	c #529FB5",
"&	c #4E9BB1",
"*	c #000000",
"=	c #050B0D",
"-	c #172F36",
";	c #438598",
">	c #418CA2",
",	c #3F899F",
"'	c #295967",
")	c #0D1D22",
"!	c #3C869B",
"~	c #357689",
"{	c #060D0F",
"]	c #30798E",
"^	c #2D7286",
"/	c #09181C",
"(	c #000001",
"_	c #205260",
":	c #2E768A",
"<	c #0C2025",
"[	c #010303",
"}	c #1F4E5B",
"|	c #3B859A",
"1	c #152F36",
"2	c #000101",
"3	c #2A5E6C",
"4	c #1D3E48",
"5	c #275563",
"6	c #4691A7",
"........",
"++++++++",
"@@@@@@@@",
"########",
"$$$$$$$$",
"%%%%%%%%",
"&***=-;&",
">>>,'*)>",
"!!!!~*{!",
"]]]^/(_]",
"]]:<[}]]",
"!|123!!!",
">4*5>>>>",
"6******6",
"%%%%%%%%",
"$$$$$$$$",
"########",
"@@@@@@@@",
"++++++++",
"........"};
