/* XPM */
static char * n4_xpm[] = {
"8 20 26 1",
" 	c None",
".	c #212121",
"+	c #243E44",
"@	c #7AE1FF",
"#	c #49A6C1",
"$	c #57A4BA",
"%	c #529FB5",
"&	c #4E9BB1",
"*	c #4992A7",
"=	c #0B171B",
"-	c #000000",
";	c #418CA2",
">	c #408BA1",
",	c #132A31",
"'	c #1B3A43",
")	c #3C869B",
"!	c #1D424D",
"~	c #0E2025",
"{	c #3A8397",
"]	c #30798E",
"^	c #215362",
"/	c #050E10",
"(	c #2B6E81",
"_	c #040A0C",
":	c #266071",
"<	c #4691A7",
"........",
"++++++++",
"@@@@@@@@",
"########",
"$$$$$$$$",
"%%%%%%%%",
"&&&*=--&",
";;>,'--;",
"))!~{--)",
"]^/(]--]",
"]_:]]--]",
")-------",
";;;;;--;",
"<<<<<--<",
"%%%%%%%%",
"$$$$$$$$",
"########",
"@@@@@@@@",
"++++++++",
"........"};
