/* XPM */
static char * n5_xpm[] = {
"8 20 28 1",
" 	c None",
".	c #212121",
"+	c #243E44",
"@	c #7AE1FF",
"#	c #49A6C1",
"$	c #57A4BA",
"%	c #529FB5",
"&	c #4E9BB1",
"*	c #000000",
"=	c #418CA2",
"-	c #3C869B",
";	c #30798E",
">	c #010405",
",	c #03080A",
"'	c #0F262D",
")	c #2A6B7E",
"!	c #2E7488",
"~	c #183D48",
"{	c #0C1E24",
"]	c #397F93",
"^	c #030607",
"/	c #3F889D",
"(	c #234C58",
"_	c #12262D",
":	c #4691A7",
"<	c #060D0F",
"[	c #19353D",
"}	c #3F8498",
"........",
"++++++++",
"@@@@@@@@",
"########",
"$$$$$$$$",
"%%%%%%%%",
"&*****&&",
"=**=====",
"-**-----",
";**>,');",
";;;!~*{;",
"----]*^-",
"===/(*_=",
":***<[}:",
"%%%%%%%%",
"$$$$$$$$",
"########",
"@@@@@@@@",
"++++++++",
"........"};
