/* XPM */
static char * n6_xpm[] = {
"8 20 41 1",
" 	c None",
".	c #212121",
"+	c #243E44",
"@	c #7AE1FF",
"#	c #49A6C1",
"$	c #57A4BA",
"%	c #529FB5",
"&	c #4E9BB1",
"*	c #29525E",
"=	c #070F11",
"-	c #000000",
";	c #418CA2",
">	c #2A5C6A",
",	c #18353E",
"'	c #3E869B",
")	c #3C869B",
"!	c #0D1E23",
"~	c #337385",
"{	c #30798E",
"]	c #03080A",
"^	c #09171B",
"/	c #010405",
"(	c #0A1A1F",
"_	c #276476",
":	c #020506",
"<	c #235868",
"[	c #235867",
"}	c #09181C",
"|	c #0A171B",
"1	c #3A8297",
"2	c #020607",
"3	c #244E5A",
"4	c #2F6676",
"5	c #12272D",
"6	c #4691A7",
"7	c #448EA4",
"8	c #1E3F48",
"9	c #04090B",
"0	c #040809",
"a	c #162E35",
"b	c #3E8295",
"........",
"++++++++",
"@@@@@@@@",
"########",
"$$$$$$$$",
"%%%%%%%%",
"&&*=--&&",
";>-,';;;",
")!-~))))",
"{]-^/(_{",
"{:-<[-}{",
")|-11-2)",
";3-44-5;",
"67890ab6",
"%%%%%%%%",
"$$$$$$$$",
"########",
"@@@@@@@@",
"++++++++",
"........"};
