/* XPM */
static char * n7_xpm[] = {
"8 20 31 1",
" 	c None",
".	c #212121",
"+	c #243E44",
"@	c #7AE1FF",
"#	c #49A6C1",
"$	c #57A4BA",
"%	c #529FB5",
"&	c #4E9BB1",
"*	c #000000",
"=	c #418CA2",
"-	c #295A68",
";	c #0B181B",
">	c #3C869B",
",	c #0B191D",
"'	c #275866",
")	c #30798E",
"!	c #235968",
"~	c #071316",
"{	c #2F788C",
"]	c #0D2228",
"^	c #1E4D5B",
"/	c #316F80",
"(	c #081316",
"_	c #3B8499",
":	c #18343C",
"<	c #285765",
"[	c #4691A7",
"}	c #3F8397",
"|	c #010303",
"1	c #091215",
"2	c #448EA4",
"........",
"++++++++",
"@@@@@@@@",
"########",
"$$$$$$$$",
"%%%%%%%%",
"&******&",
"====-*;=",
">>>>,*'>",
")))!*~{)",
")))]*^))",
">>/*(_>>",
"==:*<===",
"[}|12[[[",
"%%%%%%%%",
"$$$$$$$$",
"########",
"@@@@@@@@",
"++++++++",
"........"};
