/* XPM */
static char * frameATR_xpm[] = {
"6 31 4 1",
" 	c None",
".	c #2F3033",
"+	c #5C5A58",
"@	c #5A5C5E",
"      ",
"      ",
"      ",
"      ",
"      ",
"......",
"+++++.",
"+++++.",
"+++++.",
"+++++.",
"+++++.",
"+++++.",
"+++++.",
"+++++.",
"+++++.",
"+++++.",
"+++++.",
"+++++.",
"+++++.",
"+++++.",
"+++++.",
"+++++.",
"+++++.",
"+++++.",
"+++++.",
"++@@+.",
"+++++.",
"+++++.",
"+++++.",
"+++++.",
"+++++."};
