/* XPM */
static char * amule_11x11_xpm[] = {
"16 16 114 2",
"  	c None",
". 	c #905A03",
"+ 	c #935D05",
"@ 	c #955E05",
"# 	c #925C05",
"$ 	c #935F11",
"% 	c #925D10",
"& 	c #935E07",
"* 	c #CBA05E",
"= 	c #9C6815",
"- 	c #905A06",
"; 	c #946011",
"> 	c #986212",
", 	c #9E6B1A",
"' 	c #BE8E41",
") 	c #935D07",
"! 	c #915A03",
"~ 	c #945D06",
"{ 	c #96620F",
"] 	c #A77A34",
"^ 	c #9A6918",
"/ 	c #925B03",
"( 	c #915A02",
"_ 	c #B88A3E",
": 	c #D09F4F",
"< 	c #C89646",
"[ 	c #AF7D2B",
"} 	c #925D07",
"| 	c #9C660F",
"1 	c #905A02",
"2 	c #B28234",
"3 	c #DDA03E",
"4 	c #DF9D33",
"5 	c #CC891E",
"6 	c #BC7F1E",
"7 	c #B67F27",
"8 	c #915B04",
"9 	c #935C03",
"0 	c #B5873D",
"a 	c #AA9A7E",
"b 	c #A8936C",
"c 	c #AD8442",
"d 	c #C2BDB0",
"e 	c #A99065",
"f 	c #905802",
"g 	c #A38149",
"h 	c #EBEBE9",
"i 	c #CDCDCB",
"j 	c #AC9F87",
"k 	c #BEBEBD",
"l 	c #BAAF9C",
"m 	c #8F5A03",
"n 	c #A47B37",
"o 	c #ABA9A3",
"p 	c #6B6B6B",
"q 	c #79705D",
"r 	c #4E4E4E",
"s 	c #8D8066",
"t 	c #955C04",
"u 	c #B0761A",
"v 	c #816C4A",
"w 	c #434441",
"x 	c #6F716F",
"y 	c #9B9D9C",
"z 	c #999995",
"A 	c #615D51",
"B 	c #7B520D",
"C 	c #885708",
"D 	c #5D533F",
"E 	c #5F6160",
"F 	c #DFE0E0",
"G 	c #EDEDEC",
"H 	c #DADCD9",
"I 	c #D4D5D2",
"J 	c #626867",
"K 	c #666661",
"L 	c #685125",
"M 	c #524B38",
"N 	c #CFCFCF",
"O 	c #747776",
"P 	c #949696",
"Q 	c #D8D9D6",
"R 	c #C5C8C2",
"S 	c #B9BCB5",
"T 	c #5B5E5C",
"U 	c #D8D8D7",
"V 	c #4F504A",
"W 	c #484842",
"X 	c #DFE0DE",
"Y 	c #CBCDC8",
"Z 	c #7A7F7C",
"` 	c #B1B4AF",
" .	c #BABDB6",
"..	c #B4B7B0",
"+.	c #888B8A",
"@.	c #B9BBB8",
"#.	c #404647",
"$.	c #444439",
"%.	c #727471",
"&.	c #C2C5C1",
"*.	c #9A9E9A",
"=.	c #ACB0AA",
"-.	c #636464",
";.	c #4D3B3C",
">.	c #3C4142",
",.	c #3E4545",
"'.	c #626866",
").	c #6F7472",
"!.	c #545656",
"~.	c #712323",
"{.	c #B30000",
"].	c #A10000",
"^.	c #920000",
"/.	c #9E0000",
"    . +                         ",
"    + @ #   $     %             ",
"      & * = - ; ; >             ",
"        , ' ) ! ~ { ] ^ /       ",
"        ( ! _ : < [ } | / 1     ",
"        1 2 3 4 5 6 7 8 ! 9 (   ",
"        9 0 a b c d e f         ",
"        / g h i j k l m         ",
"        / n o p q r s t         ",
"        ! u v w x y z A B       ",
"        C D E F G H I J K L     ",
"        M N O P Q R S T U V     ",
"        W X Y Z `  ...+.@.#.    ",
"        $.%.&.*.=. . .-.;.      ",
"            >.,.'.).!.~.{.].    ",
"                      ^./.      "};
