/* XPM */
static char * desktop_xpm[] = {
"20 20 209 2",
"  	c None",
". 	c #262626",
"+ 	c #7C7B7A",
"@ 	c #F5F4F1",
"# 	c #FFFFFF",
"$ 	c #FFFFFE",
"% 	c #FFFFFD",
"& 	c #FFFFFC",
"* 	c #FFFFFB",
"= 	c #F5F3EE",
"- 	c #7C7B79",
"; 	c #262727",
"> 	c #3D3D3C",
", 	c #8E969A",
"' 	c #45555E",
") 	c #4F5D65",
"! 	c #515F67",
"~ 	c #54626A",
"{ 	c #55646C",
"] 	c #54656D",
"^ 	c #546670",
"/ 	c #556C78",
"( 	c #536A77",
"_ 	c #4E6571",
": 	c #4B6370",
"< 	c #48616E",
"[ 	c #435F6D",
"} 	c #385562",
"| 	c #89959A",
"1 	c #3D3C3B",
"2 	c #A8B0B3",
"3 	c #6E767C",
"4 	c #B2B5B7",
"5 	c #A5AAAB",
"6 	c #758188",
"7 	c #7A8A92",
"8 	c #7A8B95",
"9 	c #788D97",
"0 	c #758C98",
"a 	c #738F9E",
"b 	c #6F90A2",
"c 	c #688B9D",
"d 	c #608699",
"e 	c #598295",
"f 	c #497389",
"g 	c #A4B7BD",
"h 	c #A3ACAF",
"i 	c #878E93",
"j 	c #F6F5F6",
"k 	c #DADADA",
"l 	c #999D9F",
"m 	c #6C7F88",
"n 	c #768B96",
"o 	c #748C98",
"p 	c #718C9A",
"q 	c #6F8E9E",
"r 	c #6A8C9E",
"s 	c #63889C",
"t 	c #5D8599",
"u 	c #568196",
"v 	c #46738A",
"w 	c #A3B6BE",
"x 	c #A2ABAE",
"y 	c #818B91",
"z 	c #E2E2E4",
"A 	c #E4E3E4",
"B 	c #BFC4C6",
"C 	c #637884",
"D 	c #758D9B",
"E 	c #738E9D",
"F 	c #7191A2",
"G 	c #7094A9",
"H 	c #6B93A9",
"I 	c #648DA4",
"J 	c #5D89A0",
"K 	c #55849D",
"L 	c #46768F",
"M 	c #A2B7C0",
"N 	c #A0AAAF",
"O 	c #838E94",
"P 	c #F1F0EF",
"Q 	c #F4F3F2",
"R 	c #D0D4D7",
"S 	c #617B8A",
"T 	c #7491A2",
"U 	c #7596A8",
"V 	c #779EB2",
"W 	c #7AA7C2",
"X 	c #74A3C0",
"Y 	c #6695AF",
"Z 	c #5B8DA8",
"` 	c #5286A2",
" .	c #407694",
"..	c #A0B7C1",
"+.	c #A6B0B4",
"@.	c #50616B",
"#.	c #607079",
"$.	c #627580",
"%.	c #68818D",
"&.	c #718FA1",
"*.	c #749CB2",
"=.	c #6E9FBF",
"-.	c #6A9FCA",
";.	c #5793C2",
">.	c #4385B0",
",.	c #31739A",
"'.	c #246890",
").	c #20688F",
"!.	c #135C83",
"~.	c #90ADBB",
"{.	c #A2ACB0",
"].	c #606D74",
"^.	c #A9B0B5",
"/.	c #9FAAAE",
"(.	c #597B8C",
"_.	c #437995",
":.	c #3F82AF",
"<.	c #4F8EC8",
"[.	c #4C8AC5",
"}.	c #377DAE",
"|.	c #2D76A4",
"1.	c #28719E",
"2.	c #1F6893",
"3.	c #1C6994",
"4.	c #145F88",
"5.	c #91AEBD",
"6.	c #9BA7AA",
"7.	c #77838A",
"8.	c #F5F5F5",
"9.	c #DAD9D9",
"0.	c #7F8C93",
"a.	c #154A66",
"b.	c #245D7D",
"c.	c #235F80",
"d.	c #206082",
"e.	c #1F6083",
"f.	c #236891",
"g.	c #246E99",
"h.	c #1F6C96",
"i.	c #1A6A95",
"j.	c #13628E",
"k.	c #91B1C0",
"l.	c #909CA0",
"m.	c #627077",
"n.	c #E0E1E2",
"o.	c #E4E4E4",
"p.	c #ADB6BA",
"q.	c #0C374F",
"r.	c #1B4C66",
"s.	c #1A506C",
"t.	c #195372",
"u.	c #19587A",
"v.	c #1C6087",
"w.	c #1D6790",
"x.	c #1B6994",
"y.	c #176793",
"z.	c #11628F",
"A.	c #90B2C1",
"B.	c #8B969A",
"C.	c #606C73",
"D.	c #F4F3F3",
"E.	c #FAF8F7",
"F.	c #C1C8CC",
"G.	c #0A354C",
"H.	c #1A4B65",
"I.	c #194E6A",
"J.	c #174F6D",
"K.	c #185678",
"L.	c #1A5F86",
"M.	c #19648D",
"N.	c #1A6893",
"O.	c #166995",
"P.	c #106390",
"Q.	c #90B1C1",
"R.	c #868582",
"S.	c #8F9A9C",
"T.	c #04151D",
"U.	c #182A32",
"V.	c #1B3543",
"W.	c #1A3A4A",
"X.	c #113C53",
"Y.	c #154864",
"Z.	c #134B69",
"`.	c #115070",
" +	c #145B7E",
".+	c #17648E",
"++	c #166894",
"@+	c #166E9E",
"#+	c #116FA2",
"$+	c #0B699B",
"%+	c #92B6C6",
"&+	c #85817C",
"*+	c #555554",
"=+	c #858887",
"-+	c #899091",
";+	c #899292",
">+	c #8A9293",
",+	c #899191",
"'+	c #8A9191",
")+	c #8A9292",
"!+	c #8B9292",
"~+	c #8C9393",
"{+	c #8B9291",
"]+	c #898E8C",
"^+	c #898E8D",
"/+	c #848786",
"(+	c #0E0E0E",
"_+	c #323131",
":+	c #ADACAC",
"                                        ",
"                                        ",
"                                        ",
"  . + @ # # $ $ % $ & & & & & * = - ;   ",
"  > , ' ) ! ~ { ] ^ / ( _ : < [ } | 1   ",
"    2 3 4 5 6 7 8 9 0 a b c d e f g     ",
"    h i j k l m n o p q r s t u v w     ",
"    x y z A B C D E F G H I J K L M     ",
"    N O P Q R S T U V W X Y Z `  ...    ",
"    +.@.#.$.%.&.*.=.-.;.>.,.'.).!.~.    ",
"    {.].^./.(._.:.<.[.}.|.1.2.3.4.5.    ",
"    6.7.8.9.0.a.b.c.d.e.f.g.h.i.j.k.    ",
"    l.m.n.o.p.q.r.s.t.u.v.w.x.y.z.A.    ",
"    B.C.D.E.F.G.H.I.J.K.L.M.N.O.P.Q.    ",
"  R.S.T.U.V.W.X.Y.Z.`. +.+++@+#+$+%+&+  ",
"  *+=+-+;+>+,+'+)+,+'+!+~+{+!+]+^+/+*+  ",
"  (+_+:+                        :+_+(+  ",
"                                        ",
"                                        ",
"                                        "};
