/* XPM */
static char * closeO_xpm[] = {
"20 50 5 1",
" 	c None",
".	c #FFFFFF",
"+	c #EDEDED",
"@	c #965454",
"#	c #943B3B",
"....................",
"++++++++++++++++++++",
"++++++++++++++++++++",
"++++++++++++++++++++",
"++++++++++++++++++++",
"++++++++++++++++++++",
"++++++++++++++++++++",
"++++++++++++++++++++",
"++++++@@+++@@+++++++",
"++++++@@@+@@@+++++++",
"+++++++@@@@@++++++++",
"++++++++@@@+++++++++",
"++++++++@@@+++++++++",
"+++++++@@@@@++++++++",
"++++++@@@+@@@+++++++",
"++++++@@+++@@+++++++",
"++++++++++++++++++++",
"++++++++++++++++++++",
"++++++++++++++++++++",
"++++++++++++++++++++",
"++++++++++++++++++++",
"++++++++++++++++++++",
"++++++++++++++++++++",
"++++++++++++++++++++",
"++++++++++++++++++++",
"....................",
"++++++++++++++++++++",
"++++++++++++++++++++",
"++++++++++++++++++++",
"++++++++++++++++++++",
"++++++++++++++++++++",
"++++++++++++++++++++",
"++++++++++++++++++++",
"++++++++++++++++++++",
"++++++##+++##+++++++",
"++++++###+###+++++++",
"+++++++#####++++++++",
"++++++++###+++++++++",
"++++++++###+++++++++",
"+++++++#####++++++++",
"++++++###+###+++++++",
"++++++##+++##+++++++",
"++++++++++++++++++++",
"++++++++++++++++++++",
"++++++++++++++++++++",
"++++++++++++++++++++",
"++++++++++++++++++++",
"++++++++++++++++++++",
"++++++++++++++++++++",
"++++++++++++++++++++"};
