/* XPM */
static char * taskbuttonactive_xpm[] = {
"1 24 23 1",
" 	c None",
".	c #4F606F",
"+	c #425363",
"@	c #7193B5",
"#	c #6789AC",
"$	c #6386A9",
"%	c #5E82A6",
"&	c #5A7EA2",
"*	c #54779B",
"=	c #4D7094",
"-	c #44698F",
";	c #3F6387",
">	c #203C58",
",	c #284564",
"'	c #2E4C6B",
")	c #335170",
"!	c #375574",
"~	c #3C5977",
"{	c #425E7C",
"]	c #466380",
"^	c #4C6885",
"/	c #597591",
"(	c #5D6B79",
".",
"+",
"@",
"#",
"$",
"%",
"&",
"*",
"=",
"-",
";",
">",
",",
"'",
")",
"!",
"~",
"{",
"]",
"^",
"/",
"+",
".",
"("};
