/* XPM */
static char * minimizeO_xpm[] = {
"30 60 33 1",
" 	c None",
".	c #171717",
"+	c #161616",
"@	c #151515",
"#	c #252525",
"$	c #141414",
"%	c #243E44",
"&	c #7AE1FF",
"*	c #131313",
"=	c #49A6C1",
"-	c #419BB5",
";	c #121212",
">	c #3B8BA2",
",	c #358298",
"'	c #111111",
")	c #30798E",
"!	c #101010",
"~	c #18657B",
"{	c #FFFFFF",
"]	c #0F0F0F",
"^	c #0E0E0E",
"/	c #0D0D0D",
"(	c #0C0C0C",
"_	c #202020",
":	c #1B2F35",
"<	c #5DACC3",
"[	c #387F94",
"}	c #32778A",
"|	c #2D6A7B",
"1	c #286474",
"2	c #255C6D",
"3	c #124D5E",
"4	c #C3C3C3",
"..............................",
"..............................",
"..............................",
"++++++++++++++++++++++++++++++",
"++++++++++++++++++++++++++++++",
"@@@@@@@@@@@@@@@@@@@@@@@@@@@@@@",
"@@@########################@@@",
"$$$#%%%%%%%%%%%%%%%%%%%%%%#$$$",
"$$$#%&&&&&&&&&&&&&&&&&&&&%#$$$",
"***#%&==================&%#***",
"***#%--------------------%#***",
";;;#%>>>>>>>>>>>>>>>>>>>>%#;;;",
";;;#%,,,,,,,,,,,,,,,,,,,,%#;;;",
"'''#%))))))))))))))))))))%#'''",
"'''#%,,,,,,,,,,,,,,,,,,,,%#'''",
"!!!#%>>>>>>~~~~~~~~>>>>>>%#!!!",
"!!!#%------~{{{{{{~------%#!!!",
"]]]#%&=====~~~~~~~~=====&%#]]]",
"]]]#%&&&&&&&&&&&&&&&&&&&&%#]]]",
"^^^#%%%%%%%%%%%%%%%%%%%%%%#^^^",
"^^^########################^^^",
"//////////////////////////////",
"//////////////////////////////",
"//////////////////////////////",
"//////////////////////////////",
"((((((((((((((((((((((((((((((",
"((((((((((((((((((((((((((((((",
"((((((((((((((((((((((((((((((",
"((((((((((((((((((((((((((((((",
"((((((((((((((((((((((((((((((",
"..............................",
"..............................",
"..............................",
"++++++++++++++++++++++++++++++",
"++++++++++++++++++++++++++++++",
"@@@@@@@@@@@@@@@@@@@@@@@@@@@@@@",
"@@@________________________@@@",
"$$$_::::::::::::::::::::::_$$$",
"$$$_:<<<<<<<<<<<<<<<<<<<<:_$$$",
"***_:<[[[[[[[[[[[[[[[[[[<:_***",
"***_:}}}}}}}}}}}}}}}}}}}}:_***",
";;;_:||||||||||||||||||||:_;;;",
";;;_:11111111111111111111:_;;;",
"'''_:22222222222222222222:_'''",
"'''_:11111111111111111111:_'''",
"!!!_:||||||||||||||||||||:_!!!",
"!!!_:}}}}}}33333333}}}}}}:_!!!",
"]]]_:<[[[[[34444443[[[[[<:_]]]",
"]]]_:<<<<<<33333333<<<<<<:_]]]",
"^^^_::::::::::::::::::::::_^^^",
"^^^________________________^^^",
"//////////////////////////////",
"//////////////////////////////",
"//////////////////////////////",
"//////////////////////////////",
"((((((((((((((((((((((((((((((",
"((((((((((((((((((((((((((((((",
"((((((((((((((((((((((((((((((",
"((((((((((((((((((((((((((((((",
"(((((((((((((((((((((((((((((("};
