/* XPM */
static char * errmail_xpm[] = {
"16 16 76 1",
" 	c None",
".	c #8D8E81",
"+	c #DADBD7",
"@	c #EFEFED",
"#	c #F6F7F7",
"$	c #8C8E81",
"%	c #8C8D82",
"&	c #F3F3F1",
"*	c #EBEBE9",
"=	c #EEEEEC",
"-	c #F8F9F9",
";	c #999B90",
">	c #F0F1EF",
",	c #ECECEA",
"'	c #E8E8E6",
")	c #E4E4E1",
"!	c #F8F8F8",
"~	c #CCCCC6",
"{	c #E6E6E4",
"]	c #A0A297",
"^	c #D3D3D0",
"/	c #F5F5F3",
"(	c #E0E0DC",
"_	c #E6E6E3",
":	c #EBEBE8",
"<	c #DFDFDB",
"[	c #D3D3CD",
"}	c #D3D4D0",
"|	c #ADADA4",
"1	c #EDEDEB",
"2	c #9EA095",
"3	c #DADAD6",
"4	c #ACACA2",
"5	c #BFBFB8",
"6	c #CDCDC8",
"7	c #E2E2DE",
"8	c #E3E3E0",
"9	c #B6B7AF",
"0	c #C5C6BF",
"a	c #B6B6AE",
"b	c #A5A59B",
"c	c #ADADA3",
"d	c #F0F0EE",
"e	c #CA8F8D",
"f	c #A40000",
"g	c #993F39",
"h	c #F1F1EF",
"i	c #E5E5E3",
"j	c #B5B5AD",
"k	c #BEBEB6",
"l	c #DF421E",
"m	c #DD3B1B",
"n	c #989A8E",
"o	c #E7E7E3",
"p	c #E7E7E5",
"q	c #B4B4AC",
"r	c #B2B2A8",
"s	c #FFFFFF",
"t	c #F8D9D2",
"u	c #CC0000",
"v	c #D92E15",
"w	c #EAEAE6",
"x	c #D9D9D5",
"y	c #CACAC4",
"z	c #97998E",
"A	c #F0F0ED",
"B	c #DCDCD8",
"C	c #9D9F94",
"D	c #95978B",
"E	c #A5A69C",
"F	c #A6A89E",
"G	c #B9BAB2",
"H	c #BCBDB5",
"I	c #D8D8D5",
"J	c #DEDEDA",
"K	c #96978B",
"          ...   ",
"        ..+@#$  ",
"      %.&*@=-;  ",
"  $%...>,')!~{] ",
" .^./&(_:<[}|12 ",
"%.34@*567890@a. ",
"$>(bcdeffffffffg",
".h{ijkflllllllmf",
"nopiqrflstuutsvf",
";wp'xyfltsssstvf",
"z:A1dBflussssuvf",
"CDEFGHflussssuvf",
"  .IJKfltsssstvf",
"  %.5Iflstuutsvf",
"     .fmvvvvvvvf",
"      ffffffffff"};
