/* XPM */
static char * frameABL_xpm[] = {
"22 21 21 1",
" 	c None",
".	c #0B0A1E",
"+	c #C9C9C9",
"@	c #C8C8C8",
"#	c #C6C6C6",
"$	c #C4C4C4",
"%	c #C3C3C3",
"&	c #C0C0C0",
"*	c #BFBFBF",
"=	c #BEBEBE",
"-	c #BDBDBD",
";	c #BCBCBC",
">	c #BBBBBB",
",	c #B9B9B9",
"'	c #B7B7B7",
")	c #B6B6B6",
"!	c #B5B5B5",
"~	c #B4B4B4",
"{	c #B3B3B3",
"]	c #B1B1B1",
"^	c #B0B0B0",
".+++                  ",
".@@@                  ",
".###                  ",
".$$$                  ",
".%%%                  ",
".%%%                  ",
".&&&                  ",
".***                  ",
".===                  ",
".---                  ",
".;;;                  ",
".>>>                  ",
".,,,                  ",
".'''                  ",
".)))                  ",
".!!!                  ",
".~~~                  ",
".{{{                  ",
".]]]]]]]]]]]]]]]]]]]]]",
".^^^^^^^^^^^^^^^^^^^^^",
" ....................."};
