/* XPM */
static char * menuButtonA_xpm[] = {
"26 36 25 1",
" 	c None",
".	c #C4C4C3",
"+	c #C3C3C3",
"@	c #C3C3C2",
"#	c #C3C2C2",
"$	c #C2C2C2",
"%	c #C2C2C1",
"&	c #C2C2C0",
"*	c #C1C1C0",
"=	c #C1C2C0",
"-	c #C1C0C0",
";	c #C0C0BF",
">	c #C0C1BF",
",	c #C0BFBF",
"'	c #BFBFBE",
")	c #BFBFBF",
"!	c #BEBFBD",
"~	c #BEBEBE",
"{	c #BEBEBD",
"]	c #BDBDBC",
"^	c #BCBCBC",
"/	c #BDBCBC",
"(	c #BBBCBA",
"_	c #BBBBBA",
":	c #BBBAB9",
"..........................",
"+..++..++..++..++..++..++.",
"+@@++@@++@@++@@++@@++@@++@",
"#$$##$$##$$##$$##$$##$$##$",
"%$$%%$$%%$$%%$$%%$$%%$$%%$",
"&%%&&%%&&%%&&%%&&%%&&%%&&%",
"*==**==**==**==**==**==**=",
"-**--**--**--**--**--**--*",
";>>;;>>;;>>;;>>;;>>;;>>;;>",
",'',,'',,'',,'',,'',,'',,'",
")''))''))''))''))''))''))'",
"!~~!!~~!!~~!!~~!!~~!!~~!!~",
"{{{{{{{{{{{{{{{{{{{{{{{{{{",
"]]]]]]]]]]]]]]]]]]]]]]]]]]",
"^//^^//^^//^^//^^//^^//^^/",
"^^^^^^^^^^^^^^^^^^^^^^^^^^",
"(__((__((__((__((__((__((_",
":__::__::__::__::__::__::_",
"..........................",
"+..++..++..++..++..++..++.",
"+@@++@@++@@++@@++@@++@@++@",
"#$$##$$##$$##$$##$$##$$##$",
"%$$%%$$%%$$%%$$%%$$%%$$%%$",
"&%%&&%%&&%%&&%%&&%%&&%%&&%",
"*==**==**==**==**==**==**=",
"-**--**--**--**--**--**--*",
";>>;;>>;;>>;;>>;;>>;;>>;;>",
",'',,'',,'',,'',,'',,'',,'",
")''))''))''))''))''))''))'",
"!~~!!~~!!~~!!~~!!~~!!~~!!~",
"{{{{{{{{{{{{{{{{{{{{{{{{{{",
"]]]]]]]]]]]]]]]]]]]]]]]]]]",
"^//^^//^^//^^//^^//^^//^^/",
"^^^^^^^^^^^^^^^^^^^^^^^^^^",
"(__((__((__((__((__((__((_",
":__::__::__::__::__::__::_"};
