/* XPM */
static char * frameAT_xpm[] = {
"1 30 4 1",
" 	c None",
".	c #474747",
"+	c #FFFFFF",
"@	c #EDEDED",
" ",
" ",
" ",
" ",
".",
"+",
"@",
"@",
"@",
"@",
"@",
"@",
"@",
"@",
"@",
"@",
"@",
"@",
"@",
"@",
"@",
"@",
"@",
"@",
"@",
"@",
"@",
"@",
"@",
"@"};
