/* XPM */
static char * rollupA_xpm[] = {
"20 50 5 1",
" 	c None",
".	c #FFFFFF",
"+	c #EDEDED",
"@	c #F1F1F1",
"#	c #474747",
"....................",
"++++++++++++++++++++",
"++++++++++++++++++++",
"++++++++++++++++++++",
"++++++++++++++++++++",
"++++++++++++++++++++",
"++++++++++++++++++++",
"++++++++++++++++++++",
"++++++++@#@+++++++++",
"++++++++###@++++++++",
"++++++@##+##@+++++++",
"+++++@##+++##@++++++",
"+++++##+++++##++++++",
"+++++#+++++++#++++++",
"++++++++++++++++++++",
"++++++++++++++++++++",
"++++++++++++++++++++",
"++++++++++++++++++++",
"++++++++++++++++++++",
"++++++++++++++++++++",
"++++++++++++++++++++",
"++++++++++++++++++++",
"++++++++++++++++++++",
"++++++++++++++++++++",
"++++++++++++++++++++",
"++++++++++++++++++++",
"....................",
"++++++++++++++++++++",
"++++++++++++++++++++",
"++++++++++++++++++++",
"++++++++++++++++++++",
"++++++++++++++++++++",
"++++++++++++++++++++",
"++++++++++++++++++++",
"++++++++@#@+++++++++",
"++++++++###@++++++++",
"++++++@##+##@+++++++",
"+++++@##+++##@++++++",
"+++++##+++++##++++++",
"+++++#+++++++#++++++",
"++++++++++++++++++++",
"++++++++++++++++++++",
"++++++++++++++++++++",
"++++++++++++++++++++",
"++++++++++++++++++++",
"++++++++++++++++++++",
"++++++++++++++++++++",
"++++++++++++++++++++",
"++++++++++++++++++++",
"++++++++++++++++++++"};
