/* XPM */
static char *closeO[] = {
/* columns rows colors chars-per-pixel */
"20 58 150 2 ",
"   c #090F09",
".  c #0D110D",
"X  c #192918",
"o  c #1B2D1A",
"O  c #1B2E1A",
"+  c #1C2E1C",
"@  c #1F331D",
"#  c #1F341E",
"$  c #253123",
"%  c #223720",
"&  c #253325",
"*  c #263325",
"=  c #213920",
"-  c #223820",
";  c #293728",
":  c #2C3B2B",
">  c #3C3B37",
",  c #3C3C37",
"<  c #3E3E39",
"1  c #403F3A",
"2  c #2E402D",
"3  c #314230",
"4  c #324431",
"5  c #3E403A",
"6  c #40403B",
"7  c #43413C",
"8  c #42443C",
"9  c #43463E",
"0  c #45473F",
"q  c #48473F",
"w  c #42493D",
"e  c #464740",
"r  c #494640",
"t  c #4B4943",
"y  c #4C4A43",
"u  c #484E43",
"i  c #4E4C44",
"p  c #4F4D45",
"a  c #475142",
"s  c #465441",
"d  c #475743",
"f  c #4C5F47",
"g  c #4F564A",
"h  c #4F5F4A",
"j  c #525048",
"k  c #54524A",
"l  c #56554D",
"z  c #505D4B",
"x  c #595750",
"c  c #5B5A53",
"v  c #5E5C55",
"b  c #605F58",
"n  c #4D6048",
"m  c #4C6648",
"M  c #4D6A49",
"N  c #4D6C49",
"B  c #4E6D4A",
"V  c #4E6E4A",
"C  c #52604E",
"Z  c #53624F",
"A  c #477344",
"S  c #477345",
"D  c #4E704A",
"F  c #4C7F49",
"G  c #50714C",
"H  c #52714D",
"J  c #51724D",
"K  c #5A6555",
"L  c #596754",
"P  c #5B6757",
"I  c #5B6857",
"U  c #5F745A",
"Y  c #5F755B",
"T  c #60785D",
"R  c #637B5F",
"E  c #677D63",
"W  c #667E62",
"Q  c #4C8049",
"!  c #578354",
"~  c #598956",
"^  c #5A8B56",
"/  c #5A8B57",
"(  c #5A8F57",
")  c #5B8F57",
"_  c #5B9457",
"`  c #5B9557",
"'  c #5B9158",
"]  c #5B9258",
"[  c #5C9459",
"{  c #5D975A",
"}  c #5E9C5A",
"|  c #5F9C5B",
" . c #609F5C",
".. c #5FA15B",
"X. c #60A25C",
"o. c #61A45D",
"O. c #61A45E",
"+. c #63A75F",
"@. c #668A63",
"#. c #6B8A66",
"$. c #6A8B67",
"%. c #6A9166",
"&. c #6B9166",
"*. c #6D926B",
"=. c #64A760",
"-. c #69AA65",
";. c #6EAD6A",
":. c #70A86B",
">. c #73AF6F",
",. c #73B06F",
"<. c #7CA877",
"1. c #7DA978",
"2. c #7EAC7A",
"3. c #7FAE7C",
"4. c #77B073",
"5. c #78B374",
"6. c #7BB076",
"7. c #7DB579",
"8. c #81B07D",
"9. c #82B27F",
"0. c #83B27F",
"q. c #85A081",
"w. c #85A182",
"e. c #83B180",
"r. c #84B381",
"t. c #86B582",
"y. c #87B783",
"u. c #87B784",
"i. c #88B985",
"p. c #8ABA86",
"a. c #8ABA87",
"s. c #8BBB88",
"d. c #8BBC88",
"f. c #8CBC88",
"g. c #8DBE8A",
"h. c #96BD93",
"j. c #8FC08C",
"k. c #90C08D",
"l. c #93C290",
"z. c #93C291",
"x. c #97C494",
"c. c #97C495",
"v. c #9BC19A",
"b. c #9BC698",
"n. c #9BC699",
"m. c #9EC79C",
"M. c #9FC89C",
"N. c #9FC89D",
"B. c #9FC99D",
"V. c #A3CBA1",
/* pixels */
"b b b b b b b b b b b b b b b b b b b b ",
"v v v v v v v v v v v v v v v v v v K v ",
"c c c c c c c c c c c c c c c c c c c c ",
"x x x x x x x x x x x x x x x x x x x x ",
"l l l l l l l l l l l l l l l l l l l l ",
"k k k k k k k k k k k k k k k k k k k k ",
"j j j t e 6 > > > > > , < , 7 q t k j j ",
"i i e g w.v.V.V.V.V.V.V.V.V.h.w.k 0 t p ",
"y 0 I m.B.B.B.B.B.B.B.B.B.B.B.B.M.L 0 t ",
"t < h.n.n.n.n.n.n.n.n.n.c.n.n.b.n.h.6 q ",
"7 I c.c.c.c.x.x.c.c.c.c.c.c.x.x.x.x.L 7 ",
"1 E z.z.z.k.z.z.l.l.l.z.k.z.z.z.l.l.W < ",
"< W k.k.k.k.*.: f.f.f.f.: *.k.j.j.k.@.1 ",
", W f.f.f.j.f.4 * s.a.* 3 f.g.f.f.f.E > ",
"> W a.f.j.a.d.a.3 * $ 3 a.d.d.d.s.s.T > ",
"> R a.a.a.a.a.a.e.. . e.f.a.a.a.a.a.R > ",
", R i.i.y.a.a.9.* 2 2 * e.a.u.u.a.a.R > ",
"> R y.a.t.a.0.* 2 t.r.; * e.u.u.t.t.T > ",
"> U t.t.t.t.@.; 9.r.t.9.; @.t.t.t.t.T > ",
", U t.0.0.0.9.9.9.r.t.e.t.e.e.e.0.0.U > ",
", Z e.0.9.9.9.9.9.9.9.0.9.9.8.e.0.0.C > ",
"> < 2.0.e.3.8.8.9.8.2.8.8.8.8.8.0.<.< > ",
"> 6 z 2.2.3.3.3.3.3.3.3.3.3.3.8.8.h < > ",
"> , < u #.<.2.2.2.3.3.3.2.2.<.#.t , > > ",
"> > > > 6 , > > > > > > > > > 5 , > > > ",
"> > > > , > > > > > > > > > > > > > > > ",
"> > > > > > > > > > > > > > > > > > > > ",
"> > > > > > > > > > > > > > > > > > > > ",
"> > > > > > > > > > > > > > > > > > > > ",
"b b b b b b b b b b b b b b b b b b b b ",
"v v v v v v v v v v v v v v v K v v v v ",
"c c c c c c c c c c c c c v c c c c c c ",
"x x x x l x x x x x x x x x x x l c x x ",
"l l l l l l l l l l l l l l l l l l l l ",
"k k k k k k k j k k k k k k k k k k j j ",
"j j j t 0 , > > > > > > > < < 0 y j j j ",
"p t 7 w J ! ^ ^ ~ ^ ~ ^ ^ ^ ! J w < j j ",
"t 0 s ^ ^ ] ^ ) ^ ^ ^ ~ ^ ^ ^ ^ ^ s 7 t ",
"q , ^ ] ^ ) ) ' ' ( ' ' ) ' ) ) ' ) < r ",
"7 d ] ] ] ) ' ' ( ' ' ' ' ' ' ' ' [ s 7 ",
"1 m [ [ [ [ [ ] ' ` [ [ [ [ [ [ [ [ M 1 ",
"1 m  .[  .[ S O ` ` { ' + S { { { { M 1 ",
"> M  .]  .] [ % X ` ` X - [ { | ] [ M 1 ",
"> M ]  . . .X.[ - X X % { | | }  . .M > ",
"> B X. . . . . .{     { O...X. .X.X.B > ",
"> B  .X.X.X.X. .O - - X } O.X.X.X.X.B > ",
", B O.O.O.O.} O - ..X.# + { X.=.X.O.D > ",
", G +.+.+.+.Q @ O.+.+.O.# F =.=.=.=.G > ",
"> G -.-.-.-.-.-.-.-.-.-.-.-.-.-.-.-.G > ",
"> n ;.;.;.;.;.;.;.;.;.;.;.;.;.;.;.;.f , ",
"> 7 :.>.>.>.,.,.>.,.,.,.,.,.,.,.,.:.1 , ",
"> 1 z 4.5.5.5.5.5.5.5.5.5.5.5.5.5.f , , ",
"> > 1 a &.5.7.7.7.7.7.7.7.e.6.&.a 1 > > ",
"> > > > , , > > > > > > , > > < > > > > ",
"> > > > > > > > > > , , , , > > > > > > ",
"> > > > > > > > > > > , , , > > > > > > ",
"> > > > > > > > > > > > > > > > > > > > ",
"> > > > > > > > > > > > > > > > > > > > "
};
