/* XPM */
static char * frameABR_xpm[] = {
"22 21 45 1",
" 	c None",
".	c #C3C3C3",
"+	c #201A29",
"@	c #C0C0C0",
"#	c #BFBFBF",
"$	c #BEBEBE",
"%	c #BDBDBD",
"&	c #BCBCBC",
"*	c #BBBBBB",
"=	c #B9B9B9",
"-	c #B7B7B7",
";	c #B6B6B6",
">	c #B5B5B5",
",	c #201B29",
"'	c #B4B4B4",
")	c #211B2A",
"!	c #B3B3B3",
"~	c #B1B1B1",
"{	c #211B2B",
"]	c #B0B0B0",
"^	c #AFAFAF",
"/	c #A7A7A8",
"(	c #68656D",
"_	c #2E253B",
":	c #AEAEAE",
"<	c #A2A2A3",
"[	c #413C49",
"}	c #392E49",
"|	c #ACACAC",
"1	c #9A999B",
"2	c #3F3A47",
"3	c #2F263C",
"4	c #ABABAB",
"5	c #969597",
"6	c #605D65",
"7	c #3E3846",
"8	c #30273D",
"9	c #241F2F",
"0	c #241F2E",
"a	c #241E2E",
"b	c #231E2E",
"c	c #231E2D",
"d	c #231D2D",
"e	c #261F31",
"f	c #382F48",
"                  ...+",
"                  ...+",
"                  @@@+",
"                  ###+",
"                  $$$+",
"                  %%%+",
"                  &&&+",
"                  ***+",
"                  ===+",
"                  ---+",
"                  ;;;+",
"                  >>>,",
"                  ''')",
"                  !!!)",
"                  ~~~{",
"                  ]]])",
"                  ^/(_",
"                  :<[}",
"||||||||||||||||||123 ",
"44444444444444445678  ",
"900aaaaabcdddddde8f   "};
