/* XPM */
static char * frameATR_xpm[] = {
"22 21 43 1",
" 	c None",
".	c #2E1E3F",
"+	c #2D1E3E",
"@	c #332247",
"#	c #8E878D",
"$	c #DCDCDC",
"%	c #B3B0B7",
"&	c #736A7D",
"*	c #39264F",
"=	c #C4C4C4",
"-	c #D0D0D0",
";	c #D6D6D6",
">	c #7C7484",
",	c #6A6174",
"'	c #75707C",
")	c #C3C3C3",
"!	c #A09DA4",
"~	c #2D1D3E",
"{	c #C2C2C2",
"]	c #C1C1C1",
"^	c #C0C0C0",
"/	c #BEBEBE",
"(	c #2C1E3D",
"_	c #BBBBBB",
":	c #2C1D3D",
"<	c #B8B8B8",
"[	c #B5B5B5",
"}	c #2C1D3C",
"|	c #B1B1B1",
"1	c #2B1D3C",
"2	c #AFAFAF",
"3	c #2B1D3B",
"4	c #ABABAB",
"5	c #2B1C3B",
"6	c #A7A7A7",
"7	c #2A1C3A",
"8	c #A4A4A4",
"9	c #A2A2A2",
"0	c #291C39",
"a	c #9F9F9F",
"b	c #291B39",
"c	c #404040",
"d	c #291B38",
"...++...+...+...+@#   ",
"$$$$$$$$$$$$$$$$$%&*  ",
"=================-;>* ",
"                  =;,'",
"                  ))!@",
"                  )))~",
"                  {{{+",
"                  ]]]+",
"                  ^^^+",
"                  ///(",
"                  ___:",
"                  <<<:",
"                  [[[}",
"                  |||1",
"                  2223",
"                  4445",
"                  6667",
"                  8887",
"                  9990",
"                  aaab",
"                  cccd"};
