/* XPM */
static char * frameATL_xpm[] = {
"22 21 41 1",
" 	c None",
".	c #332247",
"+	c #2D1E3E",
"@	c #2E1E3F",
"#	c #39264F",
"$	c #736A7D",
"%	c #B3B0B7",
"&	c #DCDCDC",
"*	c #7C7484",
"=	c #D6D6D6",
"-	c #D0D0D0",
";	c #C4C4C4",
">	c #6A6174",
",	c #A09DA4",
"'	c #C3C3C3",
")	c #2D1D3E",
"!	c #C2C2C2",
"~	c #C1C1C1",
"{	c #C0C0C0",
"]	c #2C1E3D",
"^	c #BEBEBE",
"/	c #2C1D3D",
"(	c #BBBBBB",
"_	c #B8B8B8",
":	c #2C1D3C",
"<	c #B5B5B5",
"[	c #2B1D3C",
"}	c #B1B1B1",
"|	c #2B1D3B",
"1	c #AFAFAF",
"2	c #2B1C3B",
"3	c #ABABAB",
"4	c #2A1C3A",
"5	c #A7A7A7",
"6	c #A4A4A4",
"7	c #291C39",
"8	c #A2A2A2",
"9	c #291B39",
"0	c #9F9F9F",
"a	c #291B38",
"b	c #404040",
"    .+@@@+@@@+@@@++@@@",
"  #$%&&&&&&&&&&&&&&&&&",
" #*=-;;;;;;;;;;;;;;;;;",
" >=;                  ",
".,''                  ",
")'''                  ",
"+!!!                  ",
"+~~~                  ",
"+{{{                  ",
"]^^^                  ",
"/(((                  ",
"/___                  ",
":<<<                  ",
"[}}}                  ",
"|111                  ",
"2333                  ",
"4555                  ",
"4666                  ",
"7888                  ",
"9000                  ",
"abbb                  "};
