/* XPM */
static char * icewm2_xpm[] = {
"38 38 476 2",
"  	c None",
". 	c #6592C2",
"+ 	c #DBF1FF",
"@ 	c #8B8B8B",
"# 	c #767676",
"$ 	c #707070",
"% 	c #6E6E6E",
"& 	c #6D6D6D",
"* 	c #6C6C6C",
"= 	c #6B6B6B",
"- 	c #6F6F6F",
"; 	c #717171",
"> 	c #7C7C7C",
", 	c #949494",
"' 	c #FBFFFF",
") 	c #4B4B4B",
"! 	c #171717",
"~ 	c #191919",
"{ 	c #303030",
"] 	c #323232",
"^ 	c #313131",
"/ 	c #272727",
"( 	c #141414",
"_ 	c #262626",
": 	c #656565",
"< 	c #FDFEFC",
"[ 	c #525252",
"} 	c #0C0C0C",
"| 	c #4F4F4F",
"1 	c #A4A4A4",
"2 	c #9A9A9A",
"3 	c #747474",
"4 	c #343434",
"5 	c #181818",
"6 	c #797979",
"7 	c #F8FBF6",
"8 	c #929292",
"9 	c #A0A0A0",
"0 	c #A6A6A6",
"a 	c #BFBFC0",
"b 	c #D4D5D5",
"c 	c #D0D0D1",
"d 	c #AEAFAF",
"e 	c #7B7B7B",
"f 	c #1E1E1E",
"g 	c #444344",
"h 	c #F8F9F8",
"i 	c #090909",
"j 	c #4E4E4E",
"k 	c #969696",
"l 	c #9D9D9D",
"m 	c #C8C9C9",
"n 	c #F2F3F4",
"o 	c #F1F2F3",
"p 	c #EFF0F1",
"q 	c #D5D6D6",
"r 	c #A2A2A2",
"s 	c #959595",
"t 	c #909090",
"u 	c #3B3B3B",
"v 	c #232323",
"w 	c #F6F6F9",
"x 	c #515151",
"y 	c #898989",
"z 	c #8C8C8C",
"A 	c #939393",
"B 	c #979797",
"C 	c #8F8F8F",
"D 	c #D2D2D3",
"E 	c #B2B3B3",
"F 	c #AAAAAA",
"G 	c #B4B5B5",
"H 	c #D7D9D9",
"I 	c #E2E3E4",
"J 	c #8A8A8A",
"K 	c #484848",
"L 	c #1D1D1D",
"M 	c #F3F2F7",
"N 	c #0A0A0A",
"O 	c #444444",
"P 	c #7F7F7F",
"Q 	c #828282",
"R 	c #818181",
"S 	c #9F9FA0",
"T 	c #CBCCCD",
"U 	c #DCDDDD",
"V 	c #E1E2E3",
"W 	c #DFE0E1",
"X 	c #DADBDC",
"Y 	c #C4C4C5",
"Z 	c #A1A1A1",
"` 	c #F0F1F2",
" .	c #C3C4C5",
"..	c #848484",
"+.	c #838383",
"@.	c #ABABAB",
"#.	c #868686",
"$.	c #D4D5D6",
"%.	c #CBCBCC",
"&.	c #808080",
"*.	c #464646",
"=.	c #F0EFF4",
"-.	c #0B0B0B",
";.	c #333333",
">.	c #727272",
",.	c #787878",
"'.	c #BDBDBE",
").	c #EDEEEF",
"!.	c #EEEFF0",
"~.	c #EBECED",
"{.	c #BABABB",
"].	c #777777",
"^.	c #B0B1B1",
"/.	c #E3E4E5",
"(.	c #878787",
"_.	c #B8B8B9",
":.	c #D0D1D2",
"<.	c #989999",
"[.	c #DCDDDE",
"}.	c #909091",
"|.	c #EDEDF3",
"1.	c #0D0D0D",
"2.	c #646464",
"3.	c #757575",
"4.	c #BDBEBE",
"5.	c #DEDEDF",
"6.	c #BBBCBC",
"7.	c #B1B2B2",
"8.	c #ACADAD",
"9.	c #B4B4B5",
"0.	c #D5D5D6",
"a.	c #EDEEEE",
"b.	c #ECEDEE",
"c.	c #787879",
"d.	c #949595",
"e.	c #888889",
"f.	c #D7D8D9",
"g.	c #E1E1E2",
"h.	c #686868",
"i.	c #1E201E",
"j.	c #E8EBF0",
"k.	c #0E0E0E",
"l.	c #1B1B1B",
"m.	c #565656",
"n.	c #666666",
"o.	c #D5D6D7",
"p.	c #8C8D8D",
"q.	c #878788",
"r.	c #7B7B7C",
"s.	c #6E6F6F",
"t.	c #A9AAAA",
"u.	c #E8E8E9",
"v.	c #E9EAEB",
"w.	c #CCCDCE",
"x.	c #C6C7C7",
"y.	c #BCBDBD",
"z.	c #D6D7D8",
"A.	c #818282",
"B.	c #626262",
"C.	c #616161",
"D.	c #5D5D5D",
"E.	c #2B2B2B",
"F.	c #202020",
"G.	c #E7E7EB",
"H.	c #101010",
"I.	c #161616",
"J.	c #474747",
"K.	c #5C5C5C",
"L.	c #A6A7A7",
"M.	c #E6E7E8",
"N.	c #A2A3A3",
"O.	c #D2D3D3",
"P.	c #B5B5B6",
"Q.	c #5F5F5F",
"R.	c #9E9F9F",
"S.	c #E5E6E7",
"T.	c #E6E7E7",
"U.	c #E4E5E6",
"V.	c #5B5B5B",
"W.	c #BBBBBC",
"X.	c #D8D9D9",
"Y.	c #D8D9DA",
"Z.	c #BDBEBF",
"`.	c #585858",
" +	c #575757",
".+	c #222222",
"++	c #E4E3E8",
"@+	c #121212",
"#+	c #3A3A3A",
"$+	c #535353",
"%+	c #ADAEAE",
"&+	c #DDDEDF",
"*+	c #8A8A8B",
"=+	c #636363",
"-+	c #505050",
";+	c #C9CACA",
">+	c #969797",
",+	c #DEDFE0",
"'+	c #8B8B8C",
")+	c #595959",
"!+	c #939394",
"~+	c #DBDCDC",
"{+	c #D9DADB",
"]+	c #4C4C4C",
"^+	c #E1E2E7",
"/+	c #131313",
"(+	c #151515",
"_+	c #2E2E2E",
":+	c #494949",
"<+	c #929393",
"[+	c #909191",
"}+	c #4A4A4A",
"|+	c #919191",
"1+	c #B3B3B4",
"2+	c #A7A7A8",
"3+	c #DEDFDF",
"4+	c #B7B7B8",
"5+	c #A2A2A3",
"6+	c #A1A2A2",
"7+	c #A6A6A7",
"8+	c #C7C8C9",
"9+	c #454545",
"0+	c #424242",
"a+	c #3C3C3C",
"b+	c #1A1A1A",
"c+	c #252525",
"d+	c #DFDFE8",
"e+	c #6E6E6F",
"f+	c #D9DADA",
"g+	c #989899",
"h+	c #AAABAB",
"i+	c #DBDCDD",
"j+	c #DADADB",
"k+	c #383838",
"l+	c #DBDBE3",
"m+	c #212121",
"n+	c #2D2D2D",
"o+	c #8F8F90",
"p+	c #CFD0D1",
"q+	c #AFB0B0",
"r+	c #D9DCDD",
"s+	c #D1D1D3",
"t+	c #B5B6B7",
"u+	c #454546",
"v+	c #5B5C5C",
"w+	c #C2C3C4",
"x+	c #D3D4D4",
"y+	c #D1D2D3",
"z+	c #CECFD0",
"A+	c #C1C2C2",
"B+	c #4D4E4E",
"C+	c #393939",
"D+	c #D9D9E1",
"E+	c #282828",
"F+	c #626263",
"G+	c #939495",
"H+	c #8D8E8E",
"I+	c #404041",
"J+	c #7A7A7A",
"K+	c #AFAFB0",
"L+	c #878888",
"M+	c #737374",
"N+	c #686969",
"O+	c #5E5E5F",
"P+	c #242424",
"Q+	c #1F1F1F",
"R+	c #2A2A2A",
"S+	c #D4D4DC",
"T+	c #1C1C1C",
"U+	c #3B3B3A",
"V+	c #C1C3C4",
"W+	c #898A8B",
"X+	c #333232",
"Y+	c #ABABAC",
"Z+	c #919292",
"`+	c #414141",
" @	c #D1D1DA",
".@	c #343333",
"+@	c #9B9B9B",
"@@	c #B4B4B4",
"#@	c #C9CACB",
"$@	c #D1D4D4",
"%@	c #646465",
"&@	c #353535",
"*@	c #C7C7C8",
"=@	c #767777",
"-@	c #B0B1B2",
";@	c #B6B6B7",
">@	c #939494",
",@	c #4D4D4E",
"'@	c #2C2C2C",
")@	c #C7C7D2",
"!@	c #E4E4E4",
"~@	c #F7F7F7",
"{@	c #EFF0F0",
"]@	c #E5E7E7",
"^@	c #C9CBCB",
"/@	c #707171",
"(@	c #CCCECE",
"_@	c #919192",
":@	c #737373",
"<@	c #707071",
"[@	c #9B9B9C",
"}@	c #6C6C6D",
"|@	c #393838",
"1@	c #363636",
"2@	c #292929",
"3@	c #C7C7D1",
"4@	c #292828",
"5@	c #5A5A5A",
"6@	c #E9E9E9",
"7@	c #F8F9F9",
"8@	c #E5E7E8",
"9@	c #C6C7C8",
"0@	c #3E3E3E",
"a@	c #CFCFD0",
"b@	c #696969",
"c@	c #B8B9BA",
"d@	c #949495",
"e@	c #505151",
"f@	c #373737",
"g@	c #353534",
"h@	c #2F2F2F",
"i@	c #CCCCD6",
"j@	c #434343",
"k@	c #C1C2C1",
"l@	c #DEE0E0",
"m@	c #CACCCC",
"n@	c #3F3F3F",
"o@	c #404040",
"p@	c #CECFCF",
"q@	c #555555",
"r@	c #BBBCBD",
"s@	c #777878",
"t@	c #3F3E3E",
"u@	c #3D3D3D",
"v@	c #CDCDD7",
"w@	c #474646",
"x@	c #595858",
"y@	c #CACCCD",
"z@	c #6D6D6E",
"A@	c #5F6060",
"B@	c #C9C9CA",
"C@	c #A3A3A4",
"D@	c #6F6F70",
"E@	c #7E7E7E",
"F@	c #747676",
"G@	c #838585",
"H@	c #6D6E6E",
"I@	c #575858",
"J@	c #464645",
"K@	c #CFCFD9",
"L@	c #B4B5B6",
"M@	c #A5A5A6",
"N@	c #CACACB",
"O@	c #6A6B6B",
"P@	c #757676",
"Q@	c #777877",
"R@	c #AFB2B3",
"S@	c #D1D4D5",
"T@	c #AFB0B1",
"U@	c #535352",
"V@	c #D2D2DC",
"W@	c #B9BCBC",
"X@	c #666667",
"Y@	c #797A7A",
"Z@	c #5A5B5B",
"`@	c #9E9E9F",
" #	c #D6D7D7",
".#	c #C0C1C1",
"+#	c #858686",
"@#	c #CFD2D3",
"##	c #DEE0E1",
"$#	c #E3E5E5",
"%#	c #CACBCB",
"&#	c #2E2F2F",
"*#	c #353636",
"=#	c #D4D4DE",
"-#	c #A8AAAA",
";#	c #D2D5D5",
">#	c #989A9B",
",#	c #545454",
"'#	c #696A6A",
")#	c #DBDBDC",
"!#	c #7F8080",
"~#	c #B8BABA",
"{#	c #B6B8B8",
"]#	c #A3A4A4",
"^#	c #B8B9B9",
"/#	c #929392",
"(#	c #D5D5DD",
"_#	c #474847",
":#	c #8D8D8D",
"<#	c #D7D9DA",
"[#	c #D3D6D7",
"}#	c #C1C5C5",
"|#	c #4D4D4C",
"1#	c #8D8D8E",
"2#	c #AAAAAB",
"3#	c #C3C4C4",
"4#	c #C8C9CA",
"5#	c #AEAEAF",
"6#	c #B5B7B7",
"7#	c #4D4D4D",
"8#	c #D6D6DE",
"9#	c #6A6A6A",
"0#	c #CCCDCD",
"a#	c #DDDFDF",
"b#	c #CED1D2",
"c#	c #8B8D8D",
"d#	c #C1C2C3",
"e#	c #7A7A79",
"f#	c #DADAE2",
"g#	c #C9CBCA",
"h#	c #DBDDDE",
"i#	c #979999",
"j#	c #777879",
"k#	c #8B8D8E",
"l#	c #7A7B7B",
"m#	c #828383",
"n#	c #9C9E9E",
"o#	c #BFC0C1",
"p#	c #DCDEDF",
"q#	c #E6E8E8",
"r#	c #DDDDE4",
"s#	c #919392",
"t#	c #606060",
"u#	c #A3A5A6",
"v#	c #CCD0D1",
"w#	c #CBCDCE",
"x#	c #BBBEBE",
"y#	c #B9BBBB",
"z#	c #E9EBEB",
"A#	c #EEEFEF",
"B#	c #F0F1F1",
"C#	c #9B9A9B",
"D#	c #E0DEE4",
"E#	c #BEC0C1",
"F#	c #D5D8D9",
"G#	c #D8DADB",
"H#	c #5B5A5A",
"I#	c #D6D6D7",
"J#	c #F6F6F6",
"K#	c #FAFAFA",
"L#	c #C3C3C2",
"M#	c #373838",
"N#	c #E0DFE5",
"O#	c #303031",
"P#	c #DDDFE0",
"Q#	c #BEC0C0",
"R#	c #666766",
"S#	c #565655",
"T#	c #908F8F",
"U#	c #F4F4F4",
"V#	c #B1B1B0",
"W#	c #515252",
"X#	c #474848",
"Y#	c #E3E2E8",
"Z#	c #474748",
"`#	c #545555",
" $	c #868787",
".$	c #D5D7D8",
"+$	c #8D8E8D",
"@$	c #878686",
"#$	c #4F4F50",
"$$	c #E5E4EA",
"%$	c #252526",
"&$	c #484849",
"*$	c #313231",
"=$	c #E7E6EC",
"-$	c #EAE9EF",
";$	c #EBEAF0",
">$	c #EEEDF3",
",$	c #676767",
"'$	c #7D7D7D",
")$	c #EDECF2",
". . . . . . . . . . . . . . . . . . . . . . . . . . . . . . . . . . . . . . ",
"+ + + @ # $ % % & * * = = = = = = = = = = = = = = = * * * & - - ; > , + + + ",
"' ' ) ! ~ { ] ] ] ] ] ] ] ] ] ] ] ] ] ] ] ] ] ] ] ] ] ] ] ] ] ^ / ( _ : ' ' ",
"< [ } | 1 1 1 1 1 1 1 1 1 1 1 1 1 1 1 1 1 1 1 1 1 1 1 1 1 1 1 1 2 3 4 5 6 < ",
"7 ~ 4 8 9 9 9 9 9 9 9 9 9 9 9 9 9 9 9 9 9 9 9 0 a b c d 9 9 9 9 9 9 e f g 7 ",
"h i j , k k k k k k k k k k k k k k k k k l m n o p n n q r k k s , t u v h ",
"w } x y z z z @ z z A B s C @ z z @ @ z C D n b E F G H o I r @ @ J y K L w ",
"M N O P Q Q R R S T U V W X Y k R R R Q Z `  ...+.@.@ #.$.o %.+.R &.P *.L M ",
"=.-.;.>.,.,.&.'.).p ).).).!.p ~.{.P ].,.^./.(.,.,._.:.6 <.` [.}.# # 3 u L =.",
"|.1.v 2.$ 3.4.n 5.6.7.8.9.0.a.b.p  .c.$ d.I e.% % (.f.- z ).g.d.* = h.;.i.|.",
"j.k.l.m.n.}.~.o.p.: - q.r.s.t.u.v.~.9.n.& w. .> ..x.G 2.y.b.z.A.B.C.D.E.F.j.",
"G.H.I.J.K.L.M.N.K.<.D O.X P.Q.R.S.T.U.}.V.= W.X.Y.^.B.(.I S.Z.B.`. +x v .+G.",
"++@+( #+$+%+&+*+=+7.# -+3 ;+>+2.x.I V ,+'+ +-+)+`.V.!+~+I {+p.-+j ]+*.f v ++",
"^+/+(+_+:+<+5.[+| : }+J.:+|+1+) 2+,+[.3+U 4+5+6+7+8+&+W {+<+K J.9+0+a+b+c+^+",
"d+(+I._ K e+f+ .$ K K 9+}+_.g+) h+i+Y.f+{+{+Y.{+j+j+&+:.e K K 9+u k+] ~ _ d+",
"l+I.5 m+n+4 o+p+p+S q+r+s+t+u+v+w+o.$.$.x+y+:.p+z+A+R.B+C+C+C+C+C+C+C+5 / l+",
"D+5 b+F.c+E+n+F+G+d y+Y.H+I+{ J+:.p+:.K+L+M+% N+O+O ^ { { ^ { { { P+Q+5 R+D+",
"S+~ T+.+_ R+n+^ U+n.V+W+X+] O Y+y+:.Z+`+] ] ] ] ] ] ] ] ] ] ] ] ] c+F.b+E.S+",
" @l.f P+E+.@# +@@@#@$@%@&@&@ +*@:.7.9+k+=@-@;@>@,@&@&@&@&@&@&@&@&@/ .+T+'@ @",
")@T+F._ E. +!@~@{@]@^@[ k+#+/@(@T % C+_@d :@<@[@{.}@k+|@C+1@4 ] _+2@P+f _+)@",
"3@f .+4@_+5@6@7@{@8@9@| a+0@].a@#@b@x c@ +a+a+0@d@'.e@u #+C+f@g@^ '@_ Q+h@3@",
"i@Q+P+E.^ j@B k@o.l@m@ +n@o@:@p@w.& q@r@m.n@n@n@s@#@/@t@u@a+#+k+4 _+E+m+{ i@",
"v@m+c+n+;.k+u@w@x@L+y@z@0+0+A@B@D H+j@C C@D@C.0+6 p+E@F@G@H@I@J@&@^ R+v ;.v@",
"K@v / h@1@u 0@`+j@-+L@[+O *.x M@X.N@O@*.h.P@: K <.$.Q@R@S@$@m@T@U@;.'@P+4 K@",
"V@P+2@] k+0@0+9+*.*.>+W@C.K :+X@Z.X 8+Y@j :+Z@`@ #.#+#@#r+##$#%#x 1@&#_ *#V@",
"=#c+E.4 U+o@9+K :+[ -#;#>#,#) ]+'#W.)#W x+z+f.,+.#!#~#{#]#d ^#/#`+k+^ E+f@=#",
"(#/ n+1@u@j@_#) ) :#<#[#}#b@|#| | V.1#2#3#4#5#J 3 -@6#: 7#j | }+`+#+;.R+k+(#",
"8#E+h@k+o@9+}+]+9#0#a#b#c#x x x j | -+,#Z@D.Q.q.d#$.e#| -+| ]+K j@u@&@E.C+8#",
"f#2@{ C+`+J.7#j & g#h#i# +,#,#[ j#k#l#=@m#n#o#p#q#3+# $+$+x | ) 9+0@1@'@#+f#",
"r#R+^ u j@:+| [ x e s#t#m. + + +u#v#@#w#x#y#y+z#A#B#C#,#q@,#x 7#J.o@f@_+u r#",
"D#R+^ u O ) -+$+q@,#`.`.`.`.`.: E#F#G#d.t#H#&.I#J#K#L#5@m.q@[ j K `+M#n+u@D#",
"N#2@O##+j@}+| $+q@ + +`.`.`.m.l#;#P#Q#R#`.`.S#T#6@U#V#K.m.,#W#7#X#o@f@n+a+N#",
"Y#E+h@k+`+Z#7#x $+`#q@m.m.m.,# $.$l@+$$+m.m.m.,#@$y H#,#,#[ #$) 9+0@&@E.a+Y#",
"$$%$'@&@a+j@&$]+j -+x x x x -+`.P@+.`.x x x x x -+-+x x | j ) J.`+#+*$E+u $$",
"=$2@/ h@f@u@0+*.K :+}+) ) ) ) ) }+}+) ) ) ) ) ) ) ) }+}+:+J.O o@u 4 '@P+) =$",
"-$}+.+2@h@&@#+u@n@o@`+0+0+0+0+0+0+0+0+0+0+0+0+0+0+0+`+`+o@0@a+k+;.n+_ Q+> -$",
";$;$&@m+/ '@{ ] 4 1@1@f@f@f@f@f@f@f@f@f@f@f@f@f@f@f@1@1@&@4 ] h@R+c+Q+ +;$;$",
">$>$>$,$j@u@o@`+0+j@j@j@j@j@j@j@j@j@j@j@j@j@j@j@j@j@j@j@0+0+o@n@a+) '$>$)$>$"};
