/* XPM */
static char *closeA[] = {
/* columns rows colors chars-per-pixel */
"20 58 95 2 ",
"   c #020101",
".  c #130B04",
"X  c #1B0E05",
"o  c #1E1107",
"O  c #3C3B37",
"+  c #3E3E39",
"@  c #42220D",
"#  c #4B260B",
"$  c #572D0F",
"%  c #432410",
"&  c #4B2912",
"*  c #552C11",
"=  c #443D35",
"-  c #423F39",
";  c #58442F",
":  c #43403B",
">  c #49453D",
",  c #5C4531",
"<  c #594E3E",
"1  c #6E4A2C",
"2  c #744D2E",
"3  c #7A4F2F",
"4  c #74573D",
"5  c #494640",
"6  c #4D4B44",
"7  c #5C5345",
"8  c #55534B",
"9  c #595750",
"0  c #5D5B54",
"q  c #6E5940",
"w  c #725A42",
"e  c #785D44",
"r  c #605F58",
"t  c #73604B",
"y  c #874715",
"u  c #AD5C1B",
"i  c #BB5E1C",
"p  c #8D562A",
"a  c #935A2D",
"s  c #985B2E",
"d  c #965E34",
"f  c #985D31",
"g  c #975F38",
"h  c #976036",
"j  c #95633C",
"k  c #986238",
"l  c #B7662E",
"z  c #B8662E",
"x  c #DB690F",
"c  c #C1631D",
"v  c #D56710",
"b  c #DE6C13",
"n  c #D76C19",
"m  c #EA6F15",
"M  c #E07017",
"N  c #E4741D",
"B  c #EC731B",
"V  c #F77516",
"C  c #F87312",
"Z  c #F6771A",
"A  c #F6781E",
"S  c #DC7424",
"D  c #DC772A",
"F  c #E57620",
"G  c #E67824",
"H  c #EA7A25",
"J  c #E67A2B",
"K  c #EB7D2B",
"L  c #F57A23",
"P  c #F37D2B",
"I  c #E37E34",
"U  c #EB7E34",
"Y  c #936843",
"T  c #EE8232",
"R  c #EA823A",
"E  c #F28233",
"W  c #F1853B",
"Q  c #F48838",
"!  c #B08552",
"~  c #B7946C",
"^  c #DD934E",
"/  c #EE8C43",
"(  c #EA9249",
")  c #F29044",
"_  c #E59B53",
"`  c #F19851",
"'  c #D9A15B",
"]  c #E0A55D",
"[  c #EFA15D",
"{  c #DDB07D",
"}  c #E3A266",
"|  c #EEA96A",
" . c #E9AF75",
".. c #ECB176",
"X. c #EAB982",
/* pixels */
"r r r r r r r r r r r r r r r r r r r r ",
"0 0 0 0 0 0 0 r r 0 0 r r 0 r 0 0 r 0 0 ",
"0 0 0 0 9 0 0 0 0 9 0 0 9 0 9 0 9 0 0 0 ",
"9 9 9 9 9 9 9 9 9 9 9 9 9 9 9 9 9 9 9 9 ",
"8 8 8 8 8 8 8 9 8 9 8 8 8 8 8 8 8 9 8 8 ",
"8 8 8 8 8 8 8 8 8 8 8 8 8 8 8 8 8 8 8 8 ",
"8 8 8 5 > - O O + + + + + + : > 5 8 6 8 ",
"6 6 5 7 ~ { X.X.X.X.{ X.X.X.{ ~ 7 > 6 6 ",
"6 > t  . . .......................t > 6 ",
"> : } | | | | | | | | | | | | | | ] : 5 ",
"- e [ [ [ [ [ [ [ [ [ [ [ [ [ [ [ [ w : ",
"- Y ` ` ` ` ` ` ` ` ` ` ` ` ` ` ` _ Y : ",
"+ j ) ) ) ) p X R ) ( R . p ) ) ) ) Y : ",
"- k Q Q Q Q T o . R I . X Q Q Q Q Q k + ",
"O h E E T T Q T o . . X T Q T Q T T k O ",
"O d T T T T T T D     D T T T T E T h O ",
"+ a T T T T K D . o X . S T H T T T a O ",
"+ a F H G H S . o D G X . S H T T F a O ",
"O a H G F G y X S F G S X y H G H G a O ",
"O p F N F N F F F N F F F F F F F F p O ",
"O 2 M M M N M N N N M N N M N N N N 1 O ",
"O : n M M M M M M M M M M M M M M n = O ",
"O = 2 x b b b b b b b b b b b x b 1 O O ",
"O O : ; u v x x x x x x x x x u ; : O O ",
"O O O O = O O O O O O O O O O = O O O O ",
"O O O O O O O O O O O O O O O O O O O O ",
"O O O O O O O O O O O O O O O O O O O O ",
"O O O O O O O O O O O + O O O O O O O O ",
"O O O O O O O O O O O O O O O O O O O O ",
"r r r r r r r r r r r r r r r r r r r r ",
"0 r 0 0 0 0 0 0 0 0 0 0 0 0 0 0 0 0 0 0 ",
"0 0 0 0 0 9 0 0 0 0 0 0 0 0 0 0 0 0 0 0 ",
"9 9 9 9 0 9 9 0 9 9 0 9 9 9 9 9 9 9 9 9 ",
"8 8 9 8 8 8 8 8 8 8 8 8 8 8 9 8 8 8 9 8 ",
"8 8 8 8 8 8 8 8 8 8 8 8 8 8 8 8 8 8 8 8 ",
"6 8 8 > > - O + O O O O O O - > 5 8 6 8 ",
"6 6 > , c m C C C C C V C C m c , > 6 6 ",
"6 > 2 V C C C C C V V V V V V V V 2 > 6 ",
"> : B Z A Z Z Z V A V A A V V V V B - 5 ",
": 3 Z Z A A A A A A A A A A A L A A 3 - ",
"- s L L L L L L L L L L L L L A L L s + ",
"- s L P L L i * H L L L # i L L P L s = ",
"- s P P P P P $ @ H H @ * P P P P P f + ",
"O f P P P P P P $ @ @ * P P P P P P f O ",
"O f P P P Q P P J X X U U P E P P E f O ",
"O g W U U U U U % * * % U P U W E U g O ",
"- k W U U W U % * U R & & U W Q W W g O ",
"- k W W W W l & R W W U & z W W W W j O ",
"O j / / W / / / / / / / / / / / / / j O ",
"O w ( ( ( ( ( ( ( ( ( ( ( ( ( ( ( ( 4 O ",
"O = ^ _ _ _ _ _ _ ` ( _ _ ` _ ` _ ^ - O ",
"O = w _ _ _ _ _ _ _ ' _ _ ' _ ' _ q + O ",
"O O - < ! ' } ' ] ] ] ] ] ] ' ! < - O O ",
"O O O O = - O = O O O O O O O = O O O O ",
"O O O O O O O O O O O O O O O O O O O O ",
"O O O O O O O O O O O O O O O O O O O O ",
"O O O O O O O O O O O O O O O O O O O O ",
"O O O O O O O O O O O O O O O O O O O O "
};
