/* XPM */
static char * n7_xpm[] = {
"10 20 26 1",
" 	c None",
".	c #171717",
"+	c #161616",
"@	c #151515",
"#	c #545454",
"$	c #2B2B2B",
"%	c #494949",
"&	c #141414",
"*	c #474747",
"=	c #282828",
"-	c #131313",
";	c #232323",
">	c #484848",
",	c #121212",
"'	c #404040",
")	c #292929",
"!	c #111111",
"~	c #1B1B1B",
"{	c #535353",
"]	c #4A4A4A",
"^	c #101010",
"/	c #393939",
"(	c #515151",
"_	c #0F0F0F",
":	c #0E0E0E",
"<	c #0D0D0D",
"..........",
"..........",
"..........",
"..........",
"++++++++++",
"++++++++++",
"@@######@@",
"@@@@@$#%@@",
"&&&&&*#=&&",
"----;#>---",
",,,,'#),,,",
"!!!~{]!!!!",
"^^^/#)^^^^",
"^^+(]^^^^^",
"__________",
"::::::::::",
"::::::::::",
"<<<<<<<<<<",
"<<<<<<<<<<",
"<<<<<<<<<<"};
