/* XPM */
static char * n9_xpm[] = {
"10 20 33 1",
" 	c None",
".	c #171717",
"+	c #161616",
"@	c #151515",
"#	c #1B1B1B",
"$	c #3F3F3F",
"%	c #4F4F4F",
"&	c #4E4E4E",
"*	c #383838",
"=	c #424242",
"-	c #545454",
";	c #252525",
">	c #262626",
",	c #2F2F2F",
"'	c #141414",
")	c #505050",
"!	c #484848",
"~	c #131313",
"{	c #464646",
"]	c #232323",
"^	c #242424",
"/	c #121212",
"(	c #1D1D1D",
"_	c #454545",
":	c #474747",
"<	c #111111",
"[	c #444444",
"}	c #101010",
"|	c #3B3B3B",
"1	c #4C4C4C",
"2	c #0F0F0F",
"3	c #0E0E0E",
"4	c #0D0D0D",
"..........",
"..........",
"..........",
"..........",
"++++++++++",
"++++++++++",
"@@#$%&*@@@",
"@@=-;>-,@@",
"'')-@@-!''",
"~~{-]^-)~~",
"//(_):-%//",
"<<<<<#-[<<",
"}}}}/|->}}",
"}}}--1,}}}",
"2222222222",
"3333333333",
"3333333333",
"4444444444",
"4444444444",
"4444444444"};
