/* XPM */
static char * colon_xpm[] = {
"4 20 13 1",
" 	c None",
".	c #212121",
"+	c #243E44",
"@	c #7AE1FF",
"#	c #49A6C1",
"$	c #57A4BA",
"%	c #529FB5",
"&	c #4E9BB1",
"*	c #418CA2",
"=	c #000000",
"-	c #3C869B",
";	c #30798E",
">	c #4691A7",
"....",
"++++",
"@@@@",
"####",
"$$$$",
"%%%%",
"&&&&",
"*==*",
"-==-",
";;;;",
";;;;",
"-==-",
"*==*",
">>>>",
"%%%%",
"$$$$",
"####",
"@@@@",
"++++",
"...."};
