/* XPM */
static char * linux_xpm[] = {
"50 21 147 2",
"  	c None",
". 	c #5C5B56",
"+ 	c #5B5A55",
"@ 	c #5A5954",
"# 	c #595853",
"$ 	c #585752",
"% 	c #575651",
"& 	c #585753",
"* 	c #575652",
"= 	c #565551",
"- 	c #565550",
"; 	c #555450",
"> 	c #55544F",
", 	c #54534E",
"' 	c #53524E",
") 	c #52514D",
"! 	c #D4D4D3",
"~ 	c #F0F0F0",
"{ 	c #53524D",
"] 	c #D2D2D1",
"^ 	c #8B8B88",
"/ 	c #EDEDEC",
"( 	c #FFFFFF",
"_ 	c #6B6A67",
": 	c #6A6A66",
"< 	c #51504B",
"[ 	c #52514C",
"} 	c #BDBDBC",
"| 	c #F9F9F9",
"1 	c #969592",
"2 	c #51504C",
"3 	c #CACAC8",
"4 	c #888784",
"5 	c #E5E4E4",
"6 	c #CECECD",
"7 	c #C9C9C7",
"8 	c #504F4A",
"9 	c #C1C0BF",
"0 	c #767571",
"a 	c #A7A6A4",
"b 	c #A9A8A6",
"c 	c #64635F",
"d 	c #A9A9A6",
"e 	c #A6A6A3",
"f 	c #4F4E49",
"g 	c #4E4D49",
"h 	c #83827F",
"i 	c #CBCAC9",
"j 	c #959491",
"k 	c #898885",
"l 	c #CACAC9",
"m 	c #81817D",
"n 	c #D3D2D1",
"o 	c #F4F4F4",
"p 	c #D6D6D5",
"q 	c #6D6C68",
"r 	c #9D9D9A",
"s 	c #EBEBEB",
"t 	c #F7F7F7",
"u 	c #CECDCC",
"v 	c #F0F0EF",
"w 	c #F8F8F8",
"x 	c #605F5B",
"y 	c #4E4D48",
"z 	c #4D4C47",
"A 	c #C9C9C8",
"B 	c #E8E8E7",
"C 	c #F7F7F6",
"D 	c #F6F6F6",
"E 	c #61605C",
"F 	c #5D5C57",
"G 	c #EEEEED",
"H 	c #C6C5C4",
"I 	c #B8B7B5",
"J 	c #BFBEBD",
"K 	c #EEEEEE",
"L 	c #5C5B57",
"M 	c #E2E2E2",
"N 	c #AAA9A7",
"O 	c #D0D0CE",
"P 	c #4B4A46",
"Q 	c #4C4B46",
"R 	c #C6C6C4",
"S 	c #C2C1C0",
"T 	c #E7E7E7",
"U 	c #656560",
"V 	c #F5F5F5",
"W 	c #F3F3F3",
"X 	c #65645F",
"Y 	c #E9E9E9",
"Z 	c #706F6B",
"` 	c #92928F",
" .	c #5D5C58",
"..	c #7B7A77",
"+.	c #F1F1F1",
"@.	c #7D7C79",
"#.	c #F0EFEF",
"$.	c #BCBCBA",
"%.	c #C0C0BF",
"&.	c #C2C2C0",
"*.	c #BCBBBA",
"=.	c #C0BFBE",
"-.	c #BEBEBC",
";.	c #4A4945",
">.	c #757471",
",.	c #F9F9F8",
"'.	c #494844",
").	c #4D4C48",
"!.	c #908F8D",
"~.	c #848381",
"{.	c #7A7976",
"].	c #91918E",
"^.	c #E9E9E8",
"/.	c #71706D",
"(.	c #504F4B",
"_.	c #898886",
":.	c #5C5B58",
"<.	c #484743",
"[.	c #474642",
"}.	c #4C4B47",
"|.	c #5F5E5A",
"1.	c #464541",
"2.	c #A3A2A0",
"3.	c #DEDDDD",
"4.	c #454440",
"5.	c #E4E4E3",
"6.	c #A5A5A3",
"7.	c #E6E6E5",
"8.	c #73726F",
"9.	c #D7D6D5",
"0.	c #FBFBFB",
"a.	c #45443F",
"b.	c #474641",
"c.	c #A6A5A3",
"d.	c #EFEFEF",
"e.	c #D1D0CF",
"f.	c #44433F",
"g.	c #42413D",
"h.	c #43423E",
"i.	c #44433E",
"j.	c #43423D",
"k.	c #42413C",
"l.	c #41403B",
"m.	c #41403C",
"n.	c #403F3B",
"o.	c #403F3A",
"p.	c #3F3E3A",
". . . . . . . . . . . . . . . . . . + @ @ @ @ @ @ @ + + + @ @ + + @ @ @ @ @ + @ @ + + + + + . . . . ",
"# # # # # # # # # # # # # # # # # # $ $ % % $ $ $ $ # # $ $ $ $ % $ % % % % & $ % % $ $ $ $ # # # # ",
"# # # # # # # # # # # # # $ $ $ $ $ $ $ % % % * % % * * * $ $ * $ % % % % = = % % % % * $ $ $ $ # # ",
"* * * * * * * * * * * * = = = = = = = - - - - ; - - - = = = = = ; ; ; > > ; > > > ; - - - = = = * * ",
"- - - - - - - - - - - - > > > > > > > , , ' ) ' , , , > > > > ! ~ , ' ) ' , { & ] ^ ' ' ' , > > - - ",
"' ' / ( _ ' ' ' ' ' ' ' : ( / ' ' ' ' ) ) < < [ [ [ ) ) ' ' ' ( ( ) < < [ ) [ } | 1 [ [ [ 2 ) ) ' ' ",
"[ [ 3 ( 4 [ [ 5 ( 6 [ < 4 ( 7 < < < < < < < 8 8 8 < < < < < < ( ( 8 8 8 8 8 8 9 0 8 8 8 8 8 < < [ [ ",
"< < a ( b < c ( ( | $ < d ( e 8 8 8 8 8 8 8 8 8 f 8 8 8 8 8 8 ( ( 8 f f f g f f 8 f 8 8 8 8 8 8 < < ",
"< < h ( i < j ( ( ( k 8 l ( m f 8 n o | p q f f f r s t u g g ( ( v w 3 x y z ( ( f f A B C D i E 8 ",
"y y F ( G y H ( I ( J z K ( L z z M ( ( ( p z z N ( ( ( O P Q ( ( ( ( ( R Q Q ( ( z z ( ( ( ( ( S z ",
"z z z T ( U o V ; W W X ( Y Q Q Q c 8 Z ( w Q Q Y ( ` <  .Q Q ( ( ' ..( +.Q Q ( ( Q Q ( ( f @.( #.Q ",
"P P P $.( %.( &.P *.( =.( -.;.;.>.p D V ( ( ;.;.,.( g '.'.;.;.( ( '.P ( ( ;.;.( ( ;.;.( ( ;.).( ( P ",
";.;.;.!.( ( ( ~.;.{.( ( ( ].'.'.^.( /.(.( ( '.'.T ( _.P :.<.<.( ( <.<.( ( <.<.( ( <.'.( ( '.'.( ( ;.",
"[.[.[. .( ( o }.[.[.Y ( ( |.[.1.B ( ( ( ( ( 1.1.2.( ( ( 3.1.1.( ( 1.1.( ( 1.4.( ( 4.4.( ( 1.1.( ( [.",
"[.[.[.[.5.( $.[.[.[.6.( 7.1.1.1.8.9.D 0./ 6 a.a.b.c.d.w e.1.1.( ( 1.1.( ( 1.1.( ( 1.1.( ( 1.1.( ( [.",
"1.1.1.1.1.1.1.1.1.1.1.1.1.4.4.4.4.4.f.g.g.g.g.g.g.g.g.h.f.4.4.f.f.4.4.4.1.4.4.4.4.4.4.4.f.4.4.1.1.1.",
"a.a.a.a.a.a.a.a.a.a.a.a.a.a.i.i.j.j.j.k.k.l.l.l.l.l.l.k.j.j.j.j.j.j.i.i.i.i.i.i.i.i.i.i.h.i.i.a.a.a.",
"g.g.g.g.g.g.g.g.g.g.g.g.g.g.g.m.m.l.l.m.m.n.n.n.n.n.n.n.n.n.n.n.n.n.m.m.m.m.m.m.m.m.m.g.g.g.g.g.g.g.",
"l.l.l.l.l.l.l.l.l.l.l.l.l.l.l.l.l.l.o.o.o.o.o.o.o.o.o.o.o.o.o.o.o.o.o.o.o.o.o.o.o.o.l.l.l.l.l.l.l.l.",
"p.p.p.p.p.p.p.p.p.p.p.p.p.p.p.p.p.p.p.p.p.p.p.p.p.p.p.p.p.p.p.p.p.p.p.p.p.p.p.p.p.p.p.p.p.p.p.p.p.p.",
"p.p.p.p.p.p.p.p.p.p.p.p.p.p.p.p.p.p.p.p.p.p.p.p.p.p.p.p.p.p.p.p.p.p.p.p.p.p.p.p.p.p.p.p.p.p.p.p.p.p."};
