/* XPM */
static char * linux(Juan, negrita)_xpm[] = {
"50 21 110 2",
"  	c None",
". 	c #5C5B56",
"+ 	c #5B5A55",
"@ 	c #5A5954",
"# 	c #595853",
"$ 	c #585752",
"% 	c #575651",
"& 	c #585753",
"* 	c #575652",
"= 	c #565551",
"- 	c #565550",
"; 	c #555450",
"> 	c #55544F",
", 	c #FDF6F6",
"' 	c #54534E",
") 	c #53524E",
"! 	c #52514D",
"~ 	c #53524D",
"{ 	c #51504B",
"] 	c #52514C",
"^ 	c #51504C",
"/ 	c #504F4A",
"( 	c #4F4E49",
"_ 	c #8A8784",
": 	c #F7F0F0",
"< 	c #E2DCDB",
"[ 	c #A8A3A1",
"} 	c #858380",
"| 	c #D5CFCE",
"1 	c #F6EFEF",
"2 	c #EFEAE9",
"3 	c #C8C2C1",
"4 	c #65635F",
"5 	c #4E4D48",
"6 	c #FBF4F4",
"7 	c #A9A4A2",
"8 	c #7D7A77",
"9 	c #565552",
"0 	c #9C9997",
"a 	c #4D4C47",
"b 	c #DBD6D5",
"c 	c #6D6A66",
"d 	c #A29E9C",
"e 	c #D1CBCA",
"f 	c #4F4E4A",
"g 	c #4C4B46",
"h 	c #F9F3F2",
"i 	c #4C4B47",
"j 	c #4A4944",
"k 	c #4B4A45",
"l 	c #4B4A46",
"m 	c #E4DEDD",
"n 	c #716F6B",
"o 	c #595753",
"p 	c #B9B4B2",
"q 	c #E8E2E1",
"r 	c #F9F2F2",
"s 	c #FAF3F3",
"t 	c #4A4945",
"u 	c #4D4C48",
"v 	c #CBC5C4",
"w 	c #A7A2A0",
"x 	c #565450",
"y 	c #4E4D49",
"z 	c #494844",
"A 	c #6E6C68",
"B 	c #F2ECEB",
"C 	c #4E4D4A",
"D 	c #474642",
"E 	c #484743",
"F 	c #74716E",
"G 	c #CFCAC9",
"H 	c #999694",
"I 	c #4D4C49",
"J 	c #666360",
"K 	c #D9D3D3",
"L 	c #464541",
"M 	c #CCC6C5",
"N 	c #95918F",
"O 	c #6C6966",
"P 	c #E1DBDA",
"Q 	c #454440",
"R 	c #5D5B57",
"S 	c #C5BFBE",
"T 	c #EFE9E9",
"U 	c #F1EBEB",
"V 	c #D2CCCB",
"W 	c #807D7A",
"X 	c #45443F",
"Y 	c #56544F",
"Z 	c #BEB9B7",
"` 	c #F6F0F0",
" .	c #D9D4D3",
"..	c #858280",
"+.	c #44433F",
"@.	c #52504D",
"#.	c #EAE4E4",
"$.	c #42413D",
"%.	c #43423E",
"&.	c #B2AEAC",
"*.	c #44433E",
"=.	c #43423D",
"-.	c #42413C",
";.	c #41403B",
">.	c #E6DFDF",
",.	c #ABA6A4",
"'.	c #41403C",
").	c #403F3B",
"!.	c #403F3A",
"~.	c #3F3E3A",
". . . . . . . . . . . . . . . . . . + @ @ @ @ @ @ @ + + + @ @ + + @ @ @ @ @ + @ @ + + + + + . . . . ",
"# # # # # # # # # # # # # # # # # # $ $ % % $ $ $ $ # # $ $ $ $ % $ % % % % & $ % % $ $ $ $ # # # # ",
"# # # # # # # # # # # # # $ $ $ $ $ $ $ % % % * % % * * * $ $ * $ % % % % = = % % % % * $ $ $ $ # # ",
"* * * * * * * * * * * * = = = = = = = - - - - ; - - - = = = = = ; ; ; > > ; > > > ; - - - = = = * * ",
"- - - - - - - - - - , , > > > > > > > ' ' ) ! ) ' ' ' > > > > > ' ' ) ! ) ' ~ ~ ! ) ) ) ) ' > > - - ",
") ) ) ) ) ) ) ) ) ) , , ! ! ! ) ) ) ) ! ! { { ] ] ] ! ! ) ) ) ) ! ! { { ] ! ] ! ] ] ] ] ] ^ ! ! ) ) ",
"] ] ] ] ] ] ] ] ] ] , , { { { { { { { { { { / / / { { { { { { / / / / / / / / / / / / / / / { { ] ] ",
"{ { { { { { { { { { , , { { / , , / / / / , , / ( / _ , , : < [ ~ / ( , , } | 1 2 3 4 / / / / / { { ",
"{ { { { { { { { { { , , / ( 5 , 6 / ( ( ( , , ( ( 5 7 8 ) 9 0 , 7 a a , , b c - d , e f / / / { / / ",
"5 5 5 5 5 5 5 5 5 5 , , a a g , h a a i i , , a i g g j k l 5 , m l g , , n g g ' , : a a a a 5 a a ",
"a a a a a a a a a a , , g g g , h g g g g , , g g o p q r , , , s l g , , ( g g g , , g g a g a g g ",
"l l l l l l l l l l , , t t t , s t t t u , , t t v , w x t y , , z t , , t t t t , , t t t l l l l ",
"t t t t t t t t t t , , z z z : , y z z A , , z z B , C D E F , , E E , , E E E E , , z z z z t t t ",
"D D D D D D D D D D , , D D D G , H I J K , , L L M , N l O P , , L L , , L Q Q Q , , Q L L L D D D ",
"D D D D D D D D D D , , D L L R S T U V W , , X X Y Z T `  ..., , L L , , L L L Q , , Q +.L L D D D ",
"L L L L L L L L L @., #.L Q Q Q Q Q +.$.$.$.$.$.$.$.$.%.+.Q Q +.+.Q Q Q L Q Q Q Q Q Q Q +.Q Q L L L ",
"X X X X X X X X z w , &.X X *.*.=.=.=.-.-.;.;.;.;.;.;.-.=.=.=.=.=.=.*.*.*.*.*.*.*.*.*.*.%.*.*.X X X ",
"$.$.$.$.$.$.$.$.r >.,.t $.$.$.'.'.;.;.'.'.).).).).).).).).).).).).).'.'.'.'.'.'.'.'.'.$.$.$.$.$.$.$.",
";.;.;.;.;.;.;.;.;.;.;.;.;.;.;.;.;.;.!.!.!.!.!.!.!.!.!.!.!.!.!.!.!.!.!.!.!.!.!.!.!.!.;.;.;.;.;.;.;.;.",
"~.~.~.~.~.~.~.~.~.~.~.~.~.~.~.~.~.~.~.~.~.~.~.~.~.~.~.~.~.~.~.~.~.~.~.~.~.~.~.~.~.~.~.~.~.~.~.~.~.~.",
"~.~.~.~.~.~.~.~.~.~.~.~.~.~.~.~.~.~.~.~.~.~.~.~.~.~.~.~.~.~.~.~.~.~.~.~.~.~.~.~.~.~.~.~.~.~.~.~.~.~."};
