/* XPM */
static char * m_xpm[] = {
"23 20 63 1",
" 	c None",
".	c #FFFFFF",
"+	c #FEFEFE",
"@	c #C6C6C6",
"#	c #1A1A1A",
"$	c #FBFBFB",
"%	c #737373",
"&	c #E4E4E4",
"*	c #272727",
"=	c #F6F6F6",
"-	c #999999",
";	c #E0E0E0",
">	c #4E4E4E",
",	c #FDFDFD",
"'	c #B6B6B6",
")	c #191919",
"!	c #E3E3E3",
"~	c #747474",
"{	c #B4B4B4",
"]	c #353535",
"^	c #313131",
"/	c #4D4D4D",
"(	c #292929",
"_	c #848484",
":	c #AFAFAF",
"<	c #363636",
"[	c #2C2C2C",
"}	c #707070",
"|	c #F5F5F5",
"1	c #818181",
"2	c #171717",
"3	c #646464",
"4	c #595959",
"5	c #616161",
"6	c #7D7D7D",
"7	c #C8C8C8",
"8	c #4F4F4F",
"9	c #232323",
"0	c #FCFCFC",
"a	c #1D1D1D",
"b	c #DFDFDF",
"c	c #494949",
"d	c #868686",
"e	c #2A2A2A",
"f	c #383838",
"g	c #373737",
"h	c #3C3C3C",
"i	c #EFEFEF",
"j	c #4A4A4A",
"k	c #181818",
"l	c #F7F7F7",
"m	c #2B2B2B",
"n	c #E5E5E5",
"o	c #C5C5C5",
"p	c #343434",
"q	c #8D8D8D",
"r	c #DDDDDD",
"s	c #979797",
"t	c #454545",
"u	c #8A8A8A",
"v	c #424242",
"w	c #1E1E1E",
"x	c #5F5F5F",
".......................",
"....................+@#",
"....................$%#",
"....................&*#",
"...................=-##",
"...................;>##",
"..................,'))#",
"..................!~###",
"..................{]###",
".#^/(_:<[}|......=12###",
".##34##5/#6......78####",
".#90;#a$b#c......de####",
".#f.,#g.,#h.....ijk)###",
".#h..#h..#h....l{m#####",
".#h..#h..#h....n}a#####",
".#h..#h..#h....op######",
".............0iq#######",
".............rst#######",
".............uvw#######",
"xxxxxxxxxxxxxh#########"};
