/* XPM */
static char * n4_xpm[] = {
"10 20 25 1",
" 	c None",
".	c #FFFFFF",
"+	c #E7E7E7",
"@	c #282828",
"#	c #1F1F1F",
"$	c #FEFEFE",
"%	c #5B5B5B",
"&	c #1A1A1A",
"*	c #A2A2A2",
"=	c #E0E0E0",
"-	c #232323",
";	c #4F4F4F",
">	c #FDFDFD",
",	c #515151",
"'	c #222222",
")	c #DEDEDE",
"!	c #989898",
"~	c #9E9E9E",
"{	c #D9D9D9",
"]	c #545454",
"^	c #686868",
"/	c #2F2F2F",
"(	c #3C3C3C",
"_	c #606060",
":	c #5F5F5F",
"..........",
"..........",
"..........",
"..........",
"..........",
".....+@#..",
"....$%&#..",
"....*&&#..",
"...=-;&#..",
"..>,')&#..",
"..!&~.&#..",
".{#]>.&#..",
".^&/((&&(.",
"._&&&&&&&.",
"......&#..",
"......&#..",
"..........",
"..........",
"..........",
"::::::::::"};
