/* XPM */
static char * space_xpm[] = {
"11 22 45 1",
" 	c None",
".	c #FFFFFF",
"+	c #1A1A1A",
"@	c #C6C6C6",
"#	c #FEFEFE",
"$	c #737373",
"%	c #FBFBFB",
"&	c #272727",
"*	c #E4E4E4",
"=	c #999999",
"-	c #F6F6F6",
";	c #4E4E4E",
">	c #E0E0E0",
",	c #191919",
"'	c #B6B6B6",
")	c #FDFDFD",
"!	c #747474",
"~	c #E3E3E3",
"{	c #353535",
"]	c #B4B4B4",
"^	c #171717",
"/	c #818181",
"(	c #4F4F4F",
"_	c #C8C8C8",
":	c #2A2A2A",
"<	c #868686",
"[	c #181818",
"}	c #4A4A4A",
"|	c #EFEFEF",
"1	c #2B2B2B",
"2	c #F7F7F7",
"3	c #1D1D1D",
"4	c #707070",
"5	c #E5E5E5",
"6	c #343434",
"7	c #C5C5C5",
"8	c #8D8D8D",
"9	c #FCFCFC",
"0	c #454545",
"a	c #979797",
"b	c #DDDDDD",
"c	c #1E1E1E",
"d	c #424242",
"e	c #8A8A8A",
"f	c #3C3C3C",
"...........",
"+@#........",
"+$%........",
"+&*........",
"++=-.......",
"++;>.......",
"+,,')......",
"+++!~......",
"+++{]......",
"+++^/-.....",
"++++(_.....",
"++++:<.....",
"+++,[}|....",
"+++++1]2...",
"+++++345...",
"++++++67...",
"+++++++8|9.",
"+++++++0ab.",
"+++++++cde.",
"+++++++++ff",
"+++++++++++",
"+++++++++++"};
