/* XPM */
static char *closeA[] = {
/* columns rows colors chars-per-pixel */
"20 58 119 2 ",
"   c #010101",
".  c #070B06",
"X  c #070C07",
"o  c #090E09",
"O  c #091009",
"+  c #0B120B",
"@  c #0B130B",
"#  c #0C130B",
"$  c #0C140C",
"%  c #192918",
"&  c #1B2D1A",
"*  c #1B2E1A",
"=  c #1C2E1C",
"-  c #1F331D",
";  c #1F341E",
":  c #223720",
">  c #223820",
",  c #3C3B37",
"<  c #3C3C37",
"1  c #3D3E38",
"2  c #3E3E39",
"3  c #3F3F39",
"4  c #403F3A",
"5  c #3D4038",
"6  c #3F4039",
"7  c #375A34",
"8  c #375B36",
"9  c #3C6239",
"0  c #43413C",
"q  c #44433D",
"w  c #42443C",
"e  c #44463E",
"r  c #48473F",
"t  c #42493D",
"y  c #424A3D",
"u  c #494640",
"i  c #4B4942",
"p  c #4C4A43",
"a  c #4E4C44",
"s  c #4F4D45",
"d  c #455540",
"f  c #485043",
"g  c #485243",
"h  c #475943",
"j  c #4C5F47",
"k  c #4F5F4A",
"l  c #525048",
"z  c #54524A",
"x  c #56554D",
"c  c #595750",
"v  c #5B5A53",
"b  c #5E5C55",
"n  c #5E5D55",
"m  c #605F58",
"M  c #4D6048",
"N  c #4E6149",
"B  c #4C6648",
"V  c #4C6949",
"C  c #4D6A49",
"Z  c #4D6C49",
"A  c #477345",
"S  c #4E704A",
"D  c #4F714B",
"F  c #4C7F49",
"G  c #52704D",
"H  c #50724D",
"J  c #53714E",
"K  c #52764E",
"L  c #4C8049",
"P  c #568454",
"I  c #598A55",
"U  c #598956",
"Y  c #5A8B57",
"T  c #5A8C55",
"R  c #5A8C57",
"E  c #5B8E57",
"W  c #599255",
"Q  c #5B9457",
"!  c #5B9557",
"~  c #5B9757",
"^  c #5B9158",
"/  c #5A9358",
"(  c #5C9459",
")  c #5D975A",
"_  c #5C9A58",
"`  c #5E985A",
"'  c #5E9B5B",
"]  c #5F9C5B",
"[  c #5E9F5B",
"{  c #609F5C",
"}  c #5FA05B",
"|  c #5FA15B",
" . c #60A25C",
".. c #61A45E",
"X. c #62A65E",
"o. c #63A75F",
"O. c #699165",
"+. c #6B9166",
"@. c #64A760",
"#. c #66A862",
"$. c #66A962",
"%. c #69AA65",
"&. c #6AAB66",
"*. c #6BAB67",
"=. c #6EAD6A",
"-. c #6FAD6B",
";. c #70A86B",
":. c #70A96B",
">. c #73AF6F",
",. c #73B06F",
"<. c #77AC73",
"1. c #77AB74",
"2. c #76B072",
"3. c #77B273",
"4. c #78B374",
"5. c #79B375",
"6. c #7CB177",
"7. c #7CB578",
"8. c #7EB57A",
/* pixels */
"m m m m m m m m m m m m m m m m m m m m ",
"b b b b b b b b b b b b b b b b b b b b ",
"v v v v v v v v v v v v v v v v v v v v ",
"c c c c c c c c c c c v c c c c c c x v ",
"x x x x x x x x x x x x x x x x x x x x ",
"z z z z z z z z l l z z z z z z z z z z ",
"l l l i e 3 , , , , , 3 3 , q 0 i l l l ",
"a a e g O.1.7.7.7.7.7.7.7.5.1.O.g t a a ",
"p e k 2.2.2.4.2.4.5.3.5.3.3.5.3.<.k e p ",
"i 3 :.,.,.,.,.,.,.,.,.,.,.>.>.,.,.:.4 e ",
"0 N =.=.=.=.-.-.-.-.=.-.-.-.-.-.-.-.k 0 ",
"4 J &.&.*.*.*.*.*.*.*.*.*.*.*.*.*.&.G q ",
"3 J $.$.$.$.9 o  .$.$.{ O 9 $.$.$.$.J 5 ",
"3 S ........ .# . _ _ X # ........o.D < ",
", S | ...... .{ $ . . $ |  .@.} ....S < ",
", Z | ........ .W     W  . .} @. ...Z < ",
", C { { { { { Q X # + o Q ] { {  .{ C , ",
", V _ { { { W . # _ ~ o X I { { { { C , ",
", C { { { Q 8 o W ' { T o 8 _ { _ { C , ",
", C ` ) ) _ ) ) ' ) ` ` _ _ ` ` ` _ C , ",
", h ` ` ) ' ) ' _ ) ) E ) { ) ) ` ( d < ",
", 4 I ^ E ) ( E / ( E { W ) / E ` T < , ",
"< < d ^ / ( E W E / E ( E ( / / T d 4 , ",
"< , 0 t K I E ( ( E E E ( T I K t 4 , , ",
", , , , 4 , , , , , , , , , < 5 < , , , ",
", , , , , , , , , , , , , , , , , , , , ",
", , , , , , , , , , , , , , , , , , , , ",
", , , , , , , , , , , , , , , , , , < < ",
", , , , , , , , < < < < < < < < , , , , ",
"m m m m m m m m m m m m m m m m m m m m ",
"b b b b b b b b b b b b b b b b b b b b ",
"v v v v v v v v v v v v v v v v v v v v ",
"c c c c c c c c c c c c c c c c c c c c ",
"x x x x x x x x x x x x x x x x x x x x ",
"z z z z z z z z z z z z z l z z z z z l ",
"l l l p u 5 , , , , , , 3 , 3 e i l l l ",
"a a q t J P Y I Y I E I I Y P H t q l l ",
"p 0 d I E T T T I Y I I Y I E Y Y d 0 p ",
"r 4 I T Y / Y Y Y / E E E E Y / E I 4 p ",
"0 h W / / / / E ( E / / E / / / ^ E d 4 ",
"4 N ) ( ) ( / ) ) / ( ) / E ) ( _ / V , ",
"3 V ` E ` ) A & / ) ) / = A ) _ ) ) V 4 ",
"3 C ` ` ` ` / : % / ( % : ` ' ' ] _ V 3 ",
", C { { _ { { ) : % % : ` ) { { ' ' C , ",
", Z ..' } ' }  ._ o o _ { { { { ] } Z , ",
", C .. .@.} |  .% : > % _  .{ @.....Z 3 ",
"3 Z ....} ..' & > @. .: & '  .@.| ..J , ",
"< J o...@.@.L - } #. . .- F #.#.@.@.H , ",
", J &.&.&.$.&.&.$.*.*.$.*.*.*.&.&.$.Z < ",
", j -.-.=.=.=.:.-.=.=.=.=.=.=.=.=.=.j , ",
", 5 ;.>.,.,.,.,.,.,.2.1.,.,.,.,.,.;.5 < ",
", 3 k 2.5.3.2.2.5.2.5.5.2.5.3.5.2.N 0 < ",
", , 4 g O.5.5.7.7.7.7.8.7.7.6.O.g 5 , , ",
", , , , 5 3 , , , , , , , , 3 3 , , , , ",
", , , , , , , , , , , , , , , , , , , , ",
", , , , , , , , , , , , , , , , , , < < ",
", , , , , , , , , , , , , , , , , , , , ",
", , , , , , , , , , , , , , , , , , , , "
};
