/* XPM */
static char * media_skip_forward_xpm[] = {
"16 16 5 1",
" 	c None",
".	c #31373B",
"+	c #31363B",
"@	c #30353A",
"#	c #31363C",
"                ",
"                ",
"                ",
"                ",
".      .      ++",
"++@    ++@    ++",
"++++   ++++   ++",
"+++++# +++++# ++",
"++++++ ++++++ ++",
"++++   ++++   ++",
"++@    ++@    ++",
".      .      ++",
"                ",
"                ",
"                ",
"                "};
