/* XPM */
static char *xterm_16x16[] = {
/* columns rows colors chars-per-pixel */
"16 16 126 2 ",
"   c None",
".  c black",
"X  c gray2",
"o  c gray3",
"O  c gray4",
"+  c gray5",
"@  c #101010",
"#  c #111111",
"$  c #131313",
"%  c gray8",
"&  c #1B1B1B",
"*  c #1D1D1D",
"=  c #1E1D1D",
"-  c #202020",
";  c #232323",
":  c gray14",
">  c gray15",
",  c #2A2A2A",
"<  c #2C2C2C",
"1  c #2D2D2D",
"2  c #2F2F2F",
"3  c #323232",
"4  c #353535",
"5  c gray21",
"6  c #373737",
"7  c gray22",
"8  c #393939",
"9  c gray23",
"0  c #3C3C3C",
"q  c gray24",
"w  c #3E3E3E",
"e  c #3F3F3F",
"r  c gray25",
"t  c gray26",
"y  c gray27",
"u  c #464646",
"i  c #484848",
"p  c #494949",
"a  c gray29",
"s  c #565656",
"d  c #585858",
"f  c #5B5B5B",
"g  c gray36",
"h  c #5D5D5D",
"j  c #606060",
"k  c #626262",
"l  c gray39",
"z  c #646464",
"x  c DimGray",
"c  c gray42",
"v  c #6D6D6D",
"b  c gray43",
"n  c #6F6F6F",
"m  c gray44",
"M  c gray45",
"N  c #747474",
"B  c gray46",
"V  c gray47",
"C  c #818181",
"Z  c gray52",
"A  c gray53",
"S  c #8B8B8B",
"D  c #8D8D8D",
"F  c gray56",
"G  c #929292",
"H  c #959595",
"J  c gray59",
"K  c #979797",
"L  c gray60",
"P  c #999A9A",
"I  c #9A9A9A",
"U  c #9C9D9D",
"Y  c #A2A3A3",
"T  c #A3A4A4",
"R  c #A4A5A5",
"E  c #A5A5A6",
"W  c #A4A6A6",
"Q  c #A5A6A7",
"!  c #A5A7A7",
"~  c gray65",
"^  c #A6A7A7",
"/  c #A6A8A8",
"(  c #A7A8A8",
")  c gray66",
"_  c #A8A9A9",
"`  c #A8AAAA",
"'  c #AAAAAA",
"]  c #AAACAC",
"[  c #ABACAC",
"{  c #ACADAD",
"}  c #ADAFAF",
"|  c #AEAFAF",
" . c #B1B2B2",
".. c #B2B3B3",
"X. c gray70",
"o. c #B6B6B6",
"O. c gray72",
"+. c gray74",
"@. c #BFC0C1",
"#. c #C1C1C1",
"$. c #CACACA",
"%. c #D0D0D0",
"&. c #D2D2D2",
"*. c LightGray",
"=. c #D1D3D4",
"-. c #D7D7D7",
";. c #D7D9DA",
":. c #D8DADA",
">. c #DADADA",
",. c gray86",
"<. c #DADCDD",
"1. c #DFDFDF",
"2. c #DFE1E2",
"3. c gray88",
"4. c #E2E2E2",
"5. c #E2E2E3",
"6. c gray89",
"7. c #E2E3E4",
"8. c #E3E4E5",
"9. c #E4E5E6",
"0. c #E6E6E7",
"q. c #E9E9E9",
"w. c #E8E9EA",
"e. c #E9EAEA",
"r. c #EAEBEC",
"t. c #EEEFEF",
/* pixels */
"                                ",
"                                ",
"U } #.%.>.1.5.6.6.4.3.,.*.$.+.[ ",
"} X u f n C D H K S V z i % * o.",
"] . S q.L F J L I G A c : . . | ",
"( . h Z -.g l l k j 5 . . . . ( ",
") . w &.q e r t 6 + . . . . . ( ",
"_ . < 5 6 O.8 , $ # @ + o . . / ",
"` O 2 9 w 0 < : > > ; - & O O / ",
"` = 4 t w 4 5 8 8 7 4 3 1 = = ! ",
"` = 4 t w 4 5 8 8 7 4 3 1 = = ! ",
"_ 1 7 e e y i a a p u t 0 1 1 ! ",
"_ d s l x v m N B M b x z d d W ",
"Q e.t.r.w.0.8.9.7.2.<.:.;.=.@.Y ",
"I T R ~ ^ ' { ..X. .{ _ E T Y P ",
"                                "
};
