/* XPM */
static char * icewm_xpm[] = {
"25 25 358 2",
"  	c None",
". 	c #7DA6CF",
"+ 	c #82ABD5",
"@ 	c #6D90B6",
"# 	c #698DB2",
"$ 	c #688CB2",
"% 	c #688CB1",
"& 	c #688BB1",
"* 	c #698CB2",
"= 	c #6A8DB3",
"- 	c #6F92B8",
"; 	c #82ABD4",
"> 	c #FEFFFF",
", 	c #898D8F",
"' 	c #201F1E",
") 	c #31302F",
"! 	c #353433",
"~ 	c #343433",
"{ 	c #343333",
"] 	c #2A2928",
"^ 	c #2D2C2A",
"/ 	c #9CA0A2",
"( 	c #FDFFFF",
"_ 	c #D3D4D1",
": 	c #0E0E0E",
"< 	c #7D7D7D",
"[ 	c #ADADAD",
"} 	c #ACACAC",
"| 	c #ABABAB",
"1 	c #B6B6B6",
"2 	c #AAAAAA",
"3 	c #A1A1A1",
"4 	c #5A5A5A",
"5 	c #1A1A1A",
"6 	c #DDDEDC",
"7 	c #C4C5C3",
"8 	c #363636",
"9 	c #9B9B9B",
"0 	c #989898",
"a 	c #979797",
"b 	c #ACADAD",
"c 	c #EBECED",
"d 	c #F0F1F2",
"e 	c #F2F2F4",
"f 	c #DADBDB",
"g 	c #2A2A2A",
"h 	c #CBCCCB",
"i 	c #C1C1C4",
"j 	c #3A3A3A",
"k 	c #8A8A8A",
"l 	c #898989",
"m 	c #878787",
"n 	c #8C8C8D",
"o 	c #A2A2A2",
"p 	c #ADADAE",
"q 	c #A9A9A9",
"r 	c #888888",
"s 	c #949494",
"t 	c #ECEDEE",
"u 	c #B8B8B8",
"v 	c #DDDEDF",
"w 	c #E6E7E8",
"x 	c #919191",
"y 	c #8B8B8B",
"z 	c #393939",
"A 	c #C6C5C8",
"B 	c #BEBDC1",
"C 	c #262625",
"D 	c #7A7A7A",
"E 	c #797979",
"F 	c #8C8C8C",
"G 	c #E2E2E3",
"H 	c #EFF0F1",
"I 	c #CFD0D1",
"J 	c #7C7C7C",
"K 	c #757575",
"L 	c #B1B2B2",
"M 	c #B8B9B9",
"N 	c #787878",
"O 	c #9F9E9F",
"P 	c #C4C5C6",
"Q 	c #888989",
"R 	c #F3F4F5",
"S 	c #A6A7A8",
"T 	c #767676",
"U 	c #2F2F2F",
"V 	c #C2C2C5",
"W 	c #BBBCC1",
"X 	c #141414",
"Y 	c #666666",
"Z 	c #E2E4E4",
"` 	c #C9C9CA",
" .	c #919292",
"..	c #969797",
"+.	c #9D9D9E",
"@.	c #D6D7D7",
"#.	c #F2F3F4",
"$.	c #D7D8D9",
"%.	c #747475",
"&.	c #868787",
"*.	c #C3C4C5",
"=.	c #6D6D6D",
"-.	c #CACBCC",
";.	c #7E7E7E",
">.	c #AAAAAB",
",.	c #686868",
"'.	c #262626",
").	c #BFC0C4",
"!.	c #B9B9BC",
"~.	c #4F4F4F",
"{.	c #979898",
"].	c #DBDCDD",
"^.	c #626262",
"/.	c #D2D3D3",
"(.	c #CCCDCE",
"_.	c #C7C8C9",
":.	c #E7E8E8",
"<.	c #B8B9BA",
"[.	c #9D9D9D",
"}.	c #D8D9D9",
"|.	c #C9CACA",
"1.	c #636363",
"2.	c #BFC0C1",
"3.	c #E3E4E5",
"4.	c #808081",
"5.	c #585858",
"6.	c #575757",
"7.	c #1D1D1C",
"8.	c #BDBDC0",
"9.	c #B6B6BA",
"0.	c #3B3B3B",
"a.	c #C9CACB",
"b.	c #5A5A5B",
"c.	c #444444",
"d.	c #808181",
"e.	c #E0E1E2",
"f.	c #E5E6E6",
"g.	c #AEAEAF",
"h.	c #6C6C6C",
"i.	c #6A6A6A",
"j.	c #747474",
"k.	c #B9BABB",
"l.	c #E8E9EA",
"m.	c #B6B7B8",
"n.	c #535353",
"o.	c #4A4A4A",
"p.	c #464646",
"q.	c #171717",
"r.	c #BABABE",
"s.	c #B4B4BB",
"t.	c #111111",
"u.	c #656566",
"v.	c #DEDFE0",
"w.	c #414141",
"x.	c #9E9EA0",
"y.	c #D9DADA",
"z.	c #D9DADB",
"A.	c #D9D9DA",
"B.	c #DFE0E1",
"C.	c #A1A1A2",
"D.	c #484848",
"E.	c #474747",
"F.	c #353535",
"G.	c #161616",
"H.	c #B8B8BF",
"I.	c #B0B0B7",
"J.	c #222222",
"K.	c #272727",
"L.	c #757576",
"M.	c #BEBFC0",
"N.	c #B5B6B6",
"O.	c #E7E9EA",
"P.	c #A8A9AA",
"Q.	c #363637",
"R.	c #979798",
"S.	c #D2D3D4",
"T.	c #D1D2D3",
"U.	c #A8A8A9",
"V.	c #A3A4A4",
"W.	c #939394",
"X.	c #646565",
"Y.	c #303030",
"Z.	c #343434",
"`.	c #B5B5BB",
" +	c #ACACB2",
".+	c #181817",
"++	c #232323",
"@+	c #292929",
"#+	c #2D2D2D",
"$+	c #383837",
"%+	c #8B8C8D",
"&+	c #929394",
"*+	c #2C2B2B",
"=+	c #404040",
"-+	c #C3C3C4",
";+	c #676868",
">+	c #323232",
",+	c #313131",
"'+	c #212121",
")+	c #191919",
"!+	c #A6A6AE",
"~+	c #1B1B1A",
"{+	c #3C3B3B",
"]+	c #C2C2C2",
"^+	c #DDE0E0",
"/+	c #606060",
"(+	c #8F9090",
"_+	c #9C9D9D",
":+	c #9E9E9F",
"<+	c #A2A3A3",
"[+	c #646465",
"}+	c #373737",
"|+	c #242424",
"1+	c #1C1C1C",
"2+	c #AAAAB2",
"3+	c #A3A3AB",
"4+	c #1E1E1E",
"5+	c #4B4B4B",
"6+	c #F8F8F8",
"7+	c #F0F1F1",
"8+	c #DFE0E2",
"9+	c #737373",
"0+	c #D8D8D9",
"a+	c #8A8A8B",
"b+	c #555555",
"c+	c #B9B9BA",
"d+	c #4B4C4C",
"e+	c #363635",
"f+	c #282828",
"g+	c #A7A7AF",
"h+	c #A8A8B0",
"i+	c #202020",
"j+	c #2E2E2E",
"k+	c #383838",
"l+	c #6B6B6A",
"m+	c #8D8D8D",
"n+	c #C2C4C4",
"o+	c #696A6A",
"p+	c #3C3C3C",
"q+	c #656565",
"r+	c #DADADB",
"s+	c #7C7D7D",
"t+	c #777878",
"u+	c #838384",
"v+	c #545454",
"w+	c #424242",
"x+	c #B2B3B3",
"y+	c #747575",
"z+	c #5C5D5D",
"A+	c #4E4F4F",
"B+	c #3C3C3B",
"C+	c #2B2B2B",
"D+	c #ACACB4",
"E+	c #232322",
"F+	c #3F3F3F",
"G+	c #989999",
"H+	c #4E4E4E",
"I+	c #C0C1C1",
"J+	c #CDCDCE",
"K+	c #525353",
"L+	c #6E6E6E",
"M+	c #4D4D4D",
"N+	c #C8C9C9",
"O+	c #777877",
"P+	c #CACDCE",
"Q+	c #D4D7D7",
"R+	c #C2C3C4",
"S+	c #4A4A49",
"T+	c #2D2E2E",
"U+	c #AEAEB6",
"V+	c #252525",
"W+	c #3E3E3E",
"X+	c #454545",
"Y+	c #646464",
"Z+	c #CACECD",
"`+	c #49494A",
" @	c #69696A",
".@	c #CECFD0",
"+@	c #D0D0D1",
"@@	c #9D9E9E",
"#@	c #D0D1D2",
"$@	c #A7A9A9",
"%@	c #C3C5C5",
"&@	c #CACCCC",
"*@	c #C2C3C2",
"=@	c #B2B2BA",
"-@	c #B0B0B6",
";@	c #494949",
">@	c #D4D7D8",
",@	c #9D9F9F",
"'@	c #4E4E4D",
")@	c #565655",
"!@	c #959596",
"~@	c #BCBDBD",
"{@	c #B5B5B6",
"]@	c #848484",
"^@	c #9B9B9C",
"/@	c #ACAEAE",
"(@	c #B4B4BA",
"_@	c #B3B3B9",
":@	c #2B2B2A",
"<@	c #676767",
"[@	c #E1E3E3",
"}@	c #B4B7B7",
"|@	c #595A5A",
"1@	c #717272",
"2@	c #6B6C6C",
"3@	c #8C8D8D",
"4@	c #BFC0C2",
"5@	c #E4E6E6",
"6@	c #6C6C6B",
"7@	c #505050",
"8@	c #434343",
"9@	c #B7B7BD",
"0@	c #B7B7BC",
"a@	c #2C2C2C",
"b@	c #515151",
"c@	c #7F807F",
"d@	c #5F605F",
"e@	c #565656",
"f@	c #7A7B7B",
"g@	c #D0D4D5",
"h@	c #D1D3D5",
"i@	c #B5B8B8",
"j@	c #BDBEBF",
"k@	c #E9EBEB",
"l@	c #F7F8F8",
"m@	c #999899",
"n@	c #525252",
"o@	c #2D2D2C",
"p@	c #BBBBC0",
"q@	c #B9B8BC",
"r@	c #2B2B2C",
"s@	c #3D3D3D",
"t@	c #DBDDDE",
"u@	c #9FA1A1",
"v@	c #AEADAD",
"w@	c #FFFFFF",
"x@	c #B6B6B5",
"y@	c #464747",
"z@	c #BDBCC1",
"A@	c #BBBABF",
"B@	c #454546",
"C@	c #A4A5A6",
"D@	c #D3D5D5",
"E@	c #656665",
"F@	c #7F7F7F",
"G@	c #535252",
"H@	c #4C4C4C",
"I@	c #C0BFC4",
"J@	c #333333",
"K@	c #C4C3C8",
"L@	c #D0CFD4",
"M@	c #DAD9DE",
"N@	c #EFEEF4",
"O@	c #D6D5DA",
"P@	c #585857",
"Q@	c #DCDBE0",
". + @ # $ % & & & & & & & & & & & & & % * = - ; . ",
"> , ' ) ! ! ~ { { { { { { { { { { ~ ~ ! ! ] ^ / ( ",
"_ : < [ } } } } } } } } } } | | 1 1 2 | } 3 4 5 6 ",
"7 8 9 0 0 0 0 a a 0 0 0 0 0 b c d e f 9 a a a g h ",
"i j k l m n o p q 9 r m m s t u o o v w x r y z A ",
"B C D E F G H d H t I J K L M N O P Q R S T D U V ",
"W X Y T Z `  ...+.@.#.$.%.&.*.=.&.-.;.d >.Y ,.'.).",
"!.: ~.{.].^.b /.(.^._.:.<.4 [.}.|.1.2.3.4.5.6.7.8.",
"9.: 0...a.b.r c.d.>.D e.f.g.h.i.j.k.l.m.n.o.p.q.r.",
"s.t.U u.v.T c.w.K x.=.].y.z.$.$.A.B.C.D.E.j F.G.H.",
"I.X J.K.L.M.N.O.P.Q.R.S.T.N.U.V.W.X.Y.Z.Z.Z.Y.G.`.",
" +.+++@+#+$+%+&+*+=+-+T.;+>+,+>+>+>+>+>+>+Y.'+)+I.",
"!+~+'.{+]+}.^+^.>+/+$.(+c._+:+<+[+Z.}+F.Z.Y.|+1+2+",
"3+4+@+5+6+7+8+6.z 9+0+i.a+b+j =+c+d+z z e+Y.f+4+g+",
"h+i+j+k+l+m+n+o+p+q+r+s+t+u+v+w+x+y+z+A+B+>+C+'+D+",
"2+E+,+j F+w+j.G+F+H+I+J+K+Y L+M+N+O+P+Q+R+S+T+++U+",
"U+V+F.W+X+D.Y+Z+;+`+ @.@+@@@@@#@b $@%@&@*@F+>+'.=@",
"-@f+z w+;@;@L >@,@'@H+)@!@~@{@]@^@/@H+o.D.=+F.@+(@",
"_@:@0.X+5+<@[@}@|@n.4 1@/+2@3@4@5@6@7@7@5+8@k+g 9@",
"0@a@W+D.b@H+c@d@e@6.f@g@h@i@j@k@l@m@n@v+~.p.j o@p@",
"q@r@s@;@b@b+b+5.5.e@@@t@u@6.)@v@w@x@v+v+~.y@j a@z@",
"A@@+j B@H+n@v+b+b+n@C@D@E@b+e@b@F@G@n.b@H@8@}+g I@",
"z@|+J@W+p.o.H@M+M+M+7@e@M+M+M+M+5+H@H@;@c.p+Y.K.K@",
"L@C+f+>+z p+W+F+F+F+F+F+F+F+F+F+F+W+W+0.}+Y.|+}+M@",
"N@O@;@z s@F+=+=+=+=+=+=+=+=+=+=+=+=+F+F+p+z P@Q@N@"};
