/* XPM */
static char * workspacebuttonactive_xpm[] = {
"1 32 4 1",
" 	c None",
".	c #C6E0E5",
"+	c #637AA0",
"@	c #A7C0DC",
".",
".",
"+",
"+",
"+",
"+",
"+",
"+",
"+",
"+",
"+",
"+",
"+",
"+",
"+",
"+",
"+",
"+",
"+",
"+",
"+",
"+",
"+",
"+",
"+",
"+",
"+",
"+",
"+",
"+",
"@",
"@"};
