/* XPM */
static char * windows_xpm[] = {
"24 24 186 2",
"  	c None",
". 	c #19A5F8",
"+ 	c #1AA6FA",
"@ 	c #1BA6FA",
"# 	c #0FA2FA",
"$ 	c #009DFA",
"% 	c #019DFA",
"& 	c #029EFA",
"* 	c #059DF8",
"= 	c #1AA7FC",
"- 	c #1BA8FE",
"; 	c #17A7FE",
"> 	c #019FFF",
", 	c #009FFF",
"' 	c #029FFF",
") 	c #03A0FF",
"! 	c #06A1FF",
"~ 	c #07A1FF",
"{ 	c #08A2FF",
"] 	c #0AA1FD",
"^ 	c #04A0FF",
"/ 	c #0BA3FF",
"( 	c #0BA4FF",
"_ 	c #0DA3FF",
": 	c #0FA3FD",
"< 	c #1DA8FE",
"[ 	c #0FA4FF",
"} 	c #09A2FF",
"| 	c #0CA3FF",
"1 	c #0DA4FF",
"2 	c #10A4FF",
"3 	c #11A5FF",
"4 	c #12A6FF",
"5 	c #14A5FD",
"6 	c #1BA8FD",
"7 	c #20A7F7",
"8 	c #20A6F6",
"9 	c #20A5F6",
"0 	c #20A6F7",
"a 	c #1DA7FC",
"b 	c #22A7F6",
"c 	c #1AA4F6",
"d 	c #089DF6",
"e 	c #0AA1FB",
"f 	c #09A3FF",
"g 	c #15A2F4",
"h 	c #16A3F6",
"i 	c #17A3F6",
"j 	c #16A7FE",
"k 	c #17A7FF",
"l 	c #19A7FD",
"m 	c #21A7F9",
"n 	c #519BCF",
"o 	c #71A9D1",
"p 	c #BCCED9",
"q 	c #B6CBD8",
"r 	c #24ABFC",
"s 	c #39A2E4",
"t 	c #599ACB",
"u 	c #A8C6D7",
"v 	c #B9CEDA",
"w 	c #63B5E8",
"x 	c #00A4FF",
"y 	c #6C98BC",
"z 	c #72AAD3",
"A 	c #B4CAD8",
"B 	c #B0CEE1",
"C 	c #28AAF8",
"D 	c #1CA9FF",
"E 	c #1EA9FD",
"F 	c #21A7FA",
"G 	c #3D9BE0",
"H 	c #73B5E9",
"I 	c #FFFFFE",
"J 	c #ECEDEF",
"K 	c #28ADFD",
"L 	c #37A2E8",
"M 	c #3F99E1",
"N 	c #E0EDF7",
"O 	c #FEFBF9",
"P 	c #83C9F1",
"Q 	c #01A4FF",
"R 	c #5C99CF",
"S 	c #78B9EC",
"T 	c #F9FAFB",
"U 	c #E3EFF6",
"V 	c #30ADF8",
"W 	c #20ABFF",
"X 	c #23ABFD",
"Y 	c #20A7FA",
"Z 	c #3D99DD",
"` 	c #6FB1E5",
" .	c #F0F6F6",
"..	c #D9E3E9",
"+.	c #27ACFD",
"@.	c #309FE7",
"#.	c #4099DE",
"$.	c #CCE2F0",
"%.	c #E8EFF2",
"&.	c #79C4EF",
"*.	c #08A7FF",
"=.	c #5697CC",
"-.	c #74B5E7",
";.	c #E6EEF3",
">.	c #D1E3EF",
",.	c #33ADF8",
"'.	c #26ADFF",
").	c #29ADFD",
"!.	c #1FA7FB",
"~.	c #21A8FA",
"{.	c #26AAFB",
"].	c #25AAFA",
"^.	c #14A6FE",
"/.	c #049FFD",
"(.	c #0EA1FB",
"_.	c #16A5FC",
":.	c #1BA7FC",
"<.	c #1AA7FD",
"[.	c #17A8FF",
"}.	c #22A8FA",
"|.	c #26ABFB",
"1.	c #2DAEFC",
"2.	c #2FAEFC",
"3.	c #2AAEFE",
"4.	c #2BAEFF",
"5.	c #2EAFFD",
"6.	c #18A7FE",
"7.	c #02A0FF",
"8.	c #05A1FF",
"9.	c #0EA4FF",
"0.	c #13A6FF",
"a.	c #1CAAFF",
"b.	c #1FAAFF",
"c.	c #24ACFF",
"d.	c #28ADFF",
"e.	c #2AAFFF",
"f.	c #2EB0FF",
"g.	c #30B1FF",
"h.	c #32B1FD",
"i.	c #01A0FF",
"j.	c #16A6FF",
"k.	c #1AA9FF",
"l.	c #27ADFF",
"m.	c #2CAFFF",
"n.	c #2FAFFF",
"o.	c #33B1FF",
"p.	c #35B2FF",
"q.	c #38B2FD",
"r.	c #10A4FE",
"s.	c #18A7FF",
"t.	c #21ABFF",
"u.	c #2FB0FF",
"v.	c #37B2FF",
"w.	c #3AB4FF",
"x.	c #3DB5FD",
"y.	c #1CA8FE",
"z.	c #04A1FF",
"A.	c #13A7FF",
"B.	c #19A7FF",
"C.	c #1EAAFF",
"D.	c #23ACFF",
"E.	c #2DAFFF",
"F.	c #31B2FF",
"G.	c #36B3FF",
"H.	c #3EB6FF",
"I.	c #41B6FD",
"J.	c #1EA4F4",
"K.	c #1FA5F6",
"L.	c #1EA4F6",
"M.	c #089CF6",
"N.	c #039BF6",
"O.	c #0199F5",
"P.	c #059BF5",
"Q.	c #099CF5",
"R.	c #0E9FF5",
"S.	c #14A0F5",
"T.	c #19A2F5",
"U.	c #1DA4F5",
"V.	c #22A5F5",
"W.	c #28A7F5",
"X.	c #2CA9F5",
"Y.	c #31AAF5",
"Z.	c #36ADF5",
"`.	c #3AAEF5",
" +	c #43B3F7",
".+	c #47B3F5",
"                                                ",
"                                                ",
"                                                ",
"                                                ",
"                                                ",
"    . + + + + + + + + + + @ # $ $ $ % & & *     ",
"    = - - - - - - - - - - ; > , ' ) ! ~ { ]     ",
"    = - - - - - - - - - - ~ > ^ ! { / ( _ :     ",
"    = - - - - - - - - < [ ' ! } | 1 2 3 4 5     ",
"    = 6 7 8 9 0 - a b c d e f g h i . j k l     ",
"    = m n o p q r s t u v w x y z A B C D E     ",
"    = F G H I J K L M N O P Q R S T U V W X     ",
"    = Y Z `  ...+.@.#.$.%.&.*.=.-.;.>.,.'.).    ",
"    = - !.~.{.].^./.(._.:.<.[.}.|.1.2.3.4.5.    ",
"    = - - - - 6.7.8.} 9.0.k a.b.c.d.e.f.g.h.    ",
"    = - - - - } i.~ | 3 j.k.b.c.l.m.n.o.p.q.    ",
"    = - - < r., ) { 1 4 s.D t.'.e.u.o.v.w.x.    ",
"    = - y.0., , z.} 9.A.B.C.D.l.E.F.G.w.H.I.    ",
"    J.K.L.M.N.O.P.Q.R.S.T.U.V.W.X.Y.Z.`. +.+    ",
"                                                ",
"                                                ",
"                                                ",
"                                                ",
"                                                "};
