/* XPM */
static char * desktop_xpm[] = {
"16 16 143 2",
"  	c None",
". 	c #8580CB",
"+ 	c #867EC9",
"@ 	c #897DC6",
"# 	c #8A7CC4",
"$ 	c #8C7AC1",
"% 	c #8E79BF",
"& 	c #9077BD",
"* 	c #9276BA",
"= 	c #9474B8",
"- 	c #9673B6",
"; 	c #9872B5",
"> 	c #9A70B2",
", 	c #9C6EB0",
"' 	c #9F6EAE",
") 	c #5F5CBE",
"! 	c #615ABB",
"~ 	c #6458B8",
"{ 	c #6656B4",
"] 	c #6954B1",
"^ 	c #6B52AF",
"/ 	c #6D50AC",
"( 	c #704FA9",
"_ 	c #724DA5",
": 	c #754BA3",
"< 	c #7749A0",
"[ 	c #7A479D",
"} 	c #7D459A",
"| 	c #7F4397",
"1 	c #5D5EC0",
"2 	c #625ABA",
"3 	c #6458B7",
"4 	c #6756B4",
"5 	c #6C52AE",
"6 	c #6E50AB",
"7 	c #704FA8",
"8 	c #734DA5",
"9 	c #754BA2",
"0 	c #78499F",
"a 	c #7B479D",
"b 	c #7D4599",
"c 	c #5B5FC2",
"d 	c #5D5DC0",
"e 	c #605BBD",
"f 	c #6259BA",
"g 	c #6557B6",
"h 	c #6755B3",
"i 	c #6A53B1",
"j 	c #6C52AD",
"k 	c #6E50AA",
"l 	c #714EA8",
"m 	c #734CA5",
"n 	c #764AA1",
"o 	c #78489F",
"p 	c #7B469C",
"q 	c #5960C5",
"r 	c #5B5EC2",
"s 	c #5E5DBF",
"t 	c #605BBC",
"u 	c #6359B9",
"v 	c #6855B2",
"w 	c #6A53B0",
"x 	c #6D51AD",
"y 	c #7050A9",
"z 	c #714EA7",
"A 	c #744CA4",
"B 	c #79489E",
"C 	c #5762C8",
"D 	c #5A60C4",
"E 	c #5B5FC1",
"F 	c #615BBB",
"G 	c #6359B8",
"H 	c #6657B5",
"I 	c #6B53AF",
"J 	c #6D51AC",
"K 	c #6F50A9",
"L 	c #724EA6",
"M 	c #744CA3",
"N 	c #774AA0",
"O 	c #5563CA",
"P 	c #5861C7",
"Q 	c #5A5FC4",
"R 	c #5D5DC1",
"S 	c #6656B5",
"T 	c #6954B2",
"U 	c #704EA9",
"V 	c #724DA6",
"W 	c #5365CC",
"X 	c #5663C9",
"Y 	c #5861C6",
"Z 	c #5B5FC3",
"` 	c #5F5CBD",
" .	c #6F50AB",
"..	c #704EA8",
"+.	c #5167CF",
"@.	c #5465CC",
"#.	c #5663C8",
"$.	c #5961C5",
"%.	c #5C5CBF",
"&.	c #5F5BBC",
"*.	c #6159B9",
"=.	c #6456B6",
"-.	c #6756B3",
";.	c #6A54B0",
">.	c #4F68D2",
",.	c #5166CE",
"'.	c #5464CB",
").	c #535AC3",
"!.	c #DDDDF3",
"~.	c #A09FD6",
"{.	c #A19ED4",
"].	c #DDDBEF",
"^.	c #5F50B1",
"/.	c #6855B3",
"(.	c #6F4FAA",
"_.	c #4E6BD6",
":.	c #5068D2",
"<.	c #5366CF",
"[.	c #5565CB",
"}.	c #5561C8",
"|.	c #878AC7",
"1.	c #7274C0",
"2.	c #7270B9",
"3.	c #8A87C0",
"4.	c #6056B6",
"5.	c #6757B6",
"6.	c #6955B3",
"7.	c #6B54B0",
"8.	c #6F52AE",
"9.	c #364C99",
"0.	c #384B96",
"a.	c #394994",
"b.	c #3B4992",
"c.	c #3D4790",
"d.	c #3E458E",
"e.	c #41448C",
"f.	c #42438A",
"g.	c #434188",
"h.	c #464086",
"i.	c #483E83",
"j.	c #4A3D81",
"k.	c #4B3C7F",
"l.	c #4D3B7C",
"                                ",
"                                ",
"  . + @ # $ % & * = - ; > , '   ",
"  ) ! ~ { ] ^ / ( _ : < [ } |   ",
"  1 ) 2 3 4 ] 5 6 7 8 9 0 a b   ",
"  c d e f g h i j k l m n o p   ",
"  q r s t u g v w x y z A n B   ",
"  C D E s F G H v I J K L M N   ",
"  O P Q R ) ! 3 S T ^ 6 U V 9   ",
"  W X Y Z 1 ` 2 3 4 ] 5  ...8   ",
"  +.@.#.$.Z %.&.*.=.-.;.j  .z   ",
"  >.,.'.C ).!.~.{.].^./.w J (.  ",
"  _.:.<.[.}.|.1.2.3.4.5.6.7.8.  ",
"  9.0.a.b.c.d.e.f.g.h.i.j.k.l.  ",
"                                ",
"                                "};
