/* XPM */
static char * windows_xpm[] = {
"20 20 4 1",
" 	c None",
".	c #EDEDED",
"+	c #F1F1F1",
"@	c #6AA8E9",
"....................",
"....................",
"....................",
"....................",
"..++++++++++........",
"..+@@@@@@@@+........",
"..+@@@@@@@@+........",
"..+@@@@@@@@+........",
"..+@@@@@@@@+........",
"..+@@@@@++++++++++..",
"..+++++++@@@@@@@@+..",
"........+@@@@@@@@+..",
"......+.+@@@@@@@@+..",
"......+.+@@@@@@@@+..",
"........+@@@@@@@@+..",
"........++++++++++..",
"....................",
"....................",
"....................",
"...................."};
