/* XPM */
static char * maximizeA_xpm[] = {
"26 36 188 2",
"  	c None",
". 	c #C4C4C3",
"+ 	c #C3C3C3",
"@ 	c #C3C3C2",
"# 	c #A1A3A0",
"$ 	c #576553",
"% 	c #2F4428",
"& 	c #213919",
"* 	c #203818",
"= 	c #2D4326",
"- 	c #576552",
"; 	c #C3C2C2",
"> 	c #C2C2C2",
", 	c #737C70",
"' 	c #183210",
") 	c #203E15",
"! 	c #345929",
"~ 	c #4A6E40",
"{ 	c #476B3D",
"] 	c #305524",
"^ 	c #1D3B12",
"/ 	c #18310F",
"( 	c #C2C2C1",
"_ 	c #747D71",
": 	c #142E09",
"< 	c #254C14",
"[ 	c #528337",
"} 	c #97B982",
"| 	c #DFEBD5",
"1 	c #D4E4C8",
"2 	c #87AE6E",
"3 	c #4B7E2E",
"4 	c #234B12",
"5 	c #132E09",
"6 	c #C2C2C0",
"7 	c #9D9F9C",
"8 	c #1C3311",
"9 	c #285014",
"0 	c #54912D",
"a 	c #6AA642",
"b 	c #92C073",
"c 	c #C9E1B7",
"d 	c #BFDBAB",
"e 	c #85B863",
"f 	c #65A23B",
"g 	c #52902C",
"h 	c #C1C1C0",
"i 	c #C1C2C0",
"j 	c #5A6654",
"k 	c #1F3A10",
"l 	c #5C9C33",
"m 	c #69AD3B",
"n 	c #6FB441",
"o 	c #7EBE54",
"p 	c #99CC77",
"q 	c #94CA70",
"r 	c #79BB4E",
"s 	c #6EB340",
"t 	c #C1C0C0",
"u 	c #3C562E",
"v 	c #416F25",
"w 	c #73B844",
"x 	c #77BE47",
"y 	c #7BC149",
"z 	c #7FC44C",
"A 	c #84C852",
"B 	c #83C651",
"C 	c #7DC44B",
"D 	c #7AC149",
"E 	c #72B743",
"F 	c #406E25",
"G 	c #C0C0BF",
"H 	c #C0C1BF",
"I 	c #305420",
"J 	c #5B9137",
"K 	c #7FC44E",
"L 	c #84C850",
"M 	c #88CB52",
"N 	c #8CCD54",
"O 	c #90CF56",
"P 	c #90CF55",
"Q 	c #8BCD54",
"R 	c #87CB52",
"S 	c #83C850",
"T 	c #599037",
"U 	c #30541F",
"V 	c #C0BFBF",
"W 	c #BFBFBE",
"X 	c #355823",
"Y 	c #63993E",
"Z 	c #8BCC56",
"` 	c #90CF58",
" .	c #96D25B",
"..	c #9FD660",
"+.	c #A7D964",
"@.	c #A6D963",
"#.	c #9ED65F",
"$.	c #95D15B",
"%.	c #8ECE58",
"&.	c #8ACB56",
"*.	c #62973D",
"=.	c #345723",
"-.	c #BFBFBF",
";.	c #4D6A3C",
">.	c #5A8938",
",.	c #93D05C",
"'.	c #9BD460",
").	c #A5D964",
"!.	c #B1DE6C",
"~.	c #BAE274",
"{.	c #BAE273",
"].	c #AFDE6B",
"^.	c #A2D864",
"/.	c #99D45F",
"(.	c #92D05B",
"_.	c #598838",
":.	c #4B693C",
"<.	c #BEBFBD",
"[.	c #BEBEBE",
"}.	c #778A6D",
"|.	c #436829",
"1.	c #96CD5F",
"2.	c #A5D866",
"3.	c #B0DE6E",
"4.	c #BDE476",
"5.	c #C6E77E",
"6.	c #C5E77E",
"7.	c #BBE375",
"8.	c #AEDD6C",
"9.	c #A2D865",
"0.	c #95CC5E",
"a.	c #416628",
"b.	c #77896C",
"c.	c #BEBEBD",
"d.	c #AEB1AC",
"e.	c #4C6C32",
"f.	c #709946",
"g.	c #A9D96B",
"h.	c #B6E073",
"i.	c #C2E67C",
"j.	c #C9E982",
"k.	c #C8E982",
"l.	c #C0E47A",
"m.	c #B4DF72",
"n.	c #A7D86A",
"o.	c #6E9644",
"p.	c #4A6A30",
"q.	c #BDBDBC",
"r.	c #AAAAAA",
"s.	c #97A390",
"t.	c #577835",
"u.	c #85A953",
"v.	c #B1D971",
"w.	c #BEE27A",
"x.	c #C5E580",
"y.	c #C4E57F",
"z.	c #BDE279",
"A.	c #B0D870",
"B.	c #82A751",
"C.	c #547533",
"D.	c #BCBCBC",
"E.	c #BDBCBC",
"F.	c #B4B4B4",
"G.	c #9AA693",
"H.	c #648341",
"I.	c #7D9B4E",
"J.	c #98B861",
"K.	c #A7C76C",
"L.	c #A7C76B",
"M.	c #96B760",
"N.	c #7B994C",
"O.	c #62813F",
"P.	c #B3B3B3",
"Q.	c #C0C3BE",
"R.	c #869979",
"S.	c #738E55",
"T.	c #75934D",
"U.	c #75924C",
"V.	c #728D55",
"W.	c #869878",
"X.	c #BBBCBA",
"Y.	c #BBBBBA",
"Z.	c #A5A5A5",
"`.	c #B9B9B9",
" +	c #C9C9C9",
".+	c #D0D0D0",
"++	c #BBBAB9",
"@+	c #000000",
". . . . . . . . . . . . . . . . . . . . . . . . . . ",
"+ . . + + . . + + . . + + . . + + . . + + . . + + . ",
"+ @ @ + + @ @ + + # $ % & * = - # @ @ + + @ @ + + @ ",
"; > > ; ; > > ; , ' ) ! ~ { ] ^ / , > ; ; > > ; ; > ",
"( > > ( ( > > _ : < [ } | 1 2 3 4 5 _ ( ( > > ( ( > ",
"6 ( ( 6 6 ( 7 8 9 0 a b c d e f g 9 8 7 6 ( ( 6 6 ( ",
"h i i h h i j k l m n o p q r s m l k j h i i h h i ",
"t h h t t h u v w x y z A B C D x E F u t h h t t h ",
"G H H G G H I J K L M N O P Q R S K T U G H H G G H ",
"V W W V V W X Y Z `  ...+.@.#.$.%.&.*.=.V W W V V W ",
"-.W W -.-.W ;.>.,.'.).!.~.{.].^./.(._.:.-.W W -.-.W ",
"<.[.[.<.<.[.}.|.1.2.3.4.5.6.7.8.9.0.a.b.<.[.[.<.<.[.",
"c.c.c.c.c.c.d.e.f.g.h.i.j.k.l.m.n.o.p.d.c.c.c.c.c.c.",
"q.q.q.q.q.q.r.s.t.u.v.w.x.y.z.A.B.C.s.r.q.q.q.q.q.q.",
"D.E.E.D.D.E.E.F.G.H.I.J.K.L.M.N.O.G.F.D.D.E.E.D.D.E.",
"D.D.D.D.D.D.D.D.P.Q.R.S.T.U.V.W.Q.P.D.D.D.D.D.D.D.D.",
"X.Y.Y.X.X.Y.Y.X.X.Z.`. +.+.+ +`.Z.Y.Y.X.X.Y.Y.X.X.Y.",
"++Y.Y.++++Y.Y.++++Y.Y.++++Y.Y.++++Y.Y.++++Y.Y.++++Y.",
"@+@+@+@+@+@+@+@+@+@+@+@+@+@+@+@+@+@+@+@+@+@+@+@+@+@+",
"@+@+@+@+@+@+@+@+@+@+@+@+@+@+@+@+@+@+@+@+@+@+@+@+@+@+",
"@+@+@+@+@+@+@+@+@+@+@+@+@+@+@+@+@+@+@+@+@+@+@+@+@+@+",
"@+@+@+@+@+@+@+@+@+@+@+@+@+@+@+@+@+@+@+@+@+@+@+@+@+@+",
"@+@+@+@+@+@+@+@+@+@+@+@+@+@+@+@+@+@+@+@+@+@+@+@+@+@+",
"@+@+@+@+@+@+@+@+@+@+@+@+@+@+@+@+@+@+@+@+@+@+@+@+@+@+",
"@+@+@+@+@+@+@+@+@+@+@+@+@+@+@+@+@+@+@+@+@+@+@+@+@+@+",
"@+@+@+@+@+@+@+@+@+@+@+@+@+@+@+@+@+@+@+@+@+@+@+@+@+@+",
"@+@+@+@+@+@+@+@+@+@+@+@+@+@+@+@+@+@+@+@+@+@+@+@+@+@+",
"@+@+@+@+@+@+@+@+@+@+@+@+@+@+@+@+@+@+@+@+@+@+@+@+@+@+",
"@+@+@+@+@+@+@+@+@+@+@+@+@+@+@+@+@+@+@+@+@+@+@+@+@+@+",
"@+@+@+@+@+@+@+@+@+@+@+@+@+@+@+@+@+@+@+@+@+@+@+@+@+@+",
"@+@+@+@+@+@+@+@+@+@+@+@+@+@+@+@+@+@+@+@+@+@+@+@+@+@+",
"@+@+@+@+@+@+@+@+@+@+@+@+@+@+@+@+@+@+@+@+@+@+@+@+@+@+",
"@+@+@+@+@+@+@+@+@+@+@+@+@+@+@+@+@+@+@+@+@+@+@+@+@+@+",
"@+@+@+@+@+@+@+@+@+@+@+@+@+@+@+@+@+@+@+@+@+@+@+@+@+@+",
"@+@+@+@+@+@+@+@+@+@+@+@+@+@+@+@+@+@+@+@+@+@+@+@+@+@+",
"@+@+@+@+@+@+@+@+@+@+@+@+@+@+@+@+@+@+@+@+@+@+@+@+@+@+"};
