/* XPM */
static char * maximizeO_xpm[] = {
"26 52 6 1",
" 	c None",
".	c #2F3033",
"+	c #444851",
"@	c #303132",
"#	c #8E8C8A",
"$	c #000000",
"..........................",
"++++++++++++++++++++++++++",
"@@@@@@@@@@@@@@@@@@@@@@@@@@",
"@#########################",
"@#########################",
"@#########################",
"@#########################",
"@#########################",
"@#########################",
"@#######$$$$$$$$$$########",
"@#######$$$$$$$$$$########",
"@#######$$######$$########",
"@#######$$######$$########",
"@#######$$######$$########",
"@#######$$######$$########",
"@#######$$$$$$$$$$########",
"@#######$$$$$$$$$$########",
"@#########################",
"@#########################",
"@#########################",
"@#########################",
"@#########################",
"@#########################",
"@@@@@@@@@@@@@@@@@@@@@@@@@@",
"++++++++++++++++++++++++++",
"++++++++++++++++++++++++++",
"..........................",
"++++++++++++++++++++++++++",
"@@@@@@@@@@@@@@@@@@@@@@@@@@",
"@#########################",
"@#########################",
"@#########################",
"@#########################",
"@#########################",
"@#########################",
"@#######$$$$$$$$$$########",
"@#######$$$$$$$$$$########",
"@#######$$######$$########",
"@#######$$######$$########",
"@#######$$######$$########",
"@#######$$######$$########",
"@#######$$$$$$$$$$########",
"@#######$$$$$$$$$$########",
"@#########################",
"@#########################",
"@#########################",
"@#########################",
"@#########################",
"@#########################",
"@@@@@@@@@@@@@@@@@@@@@@@@@@",
"++++++++++++++++++++++++++",
"++++++++++++++++++++++++++"};
