/* XPM */
static char * m_xpm[] = {
"13 21 20 1",
" 	c None",
".	c #191919",
"+	c #161616",
"@	c #121212",
"#	c #0D0D0D",
"$	c #0B0B0B",
"%	c #DBDBDB",
"&	c #696969",
"*	c #CDCDCD",
"=	c #C6C6C6",
"-	c #4C4C4C",
";	c #6B6B6B",
">	c #C3C3C3",
",	c #474747",
"'	c #565656",
")	c #343434",
"!	c #D2D2D2",
"~	c #BABABA",
"{	c #0F0F0F",
"]	c #D7D7D7",
".............",
"+++++++++++++",
"@@@@@@@@@@@@@",
"#############",
"$$$$$$$$$$$$$",
"$$$$$$$$$$$$$",
"$$$$$$$$$$$$$",
"$$$$$$$$$$$$$",
"%%%&*=-;*>,$$",
"$%%')%!')%~$$",
"$%%{#%%{#%]$$",
"$%%$$%%$$%%$$",
"$%%$$%%$$%%$$",
"$%%$$%%$$%%$$",
"%%%%$%%$%%%%$",
"$$$$$$$$$$$$$",
"$$$$$$$$$$$$$",
"$$$$$$$$$$$$$",
"$$$$$$$$$$$$$",
"$$$$$$$$$$$$$",
"$$$$$$$$$$$$$"};
