/* XPM */
static char * n3_xpm[] = {
"10 21 41 1",
" 	c None",
".	c #191919",
"+	c #161616",
"@	c #121212",
"#	c #0D0D0D",
"$	c #0B0B0B",
"%	c #DBDBDB",
"&	c #CDCDCD",
"*	c #B7B7B7",
"=	c #777777",
"-	c #181818",
";	c #ABABAB",
">	c #303030",
",	c #0F0F0F",
"'	c #222222",
")	c #818181",
"!	c #A9A9A9",
"~	c #292929",
"{	c #141414",
"]	c #D1D1D1",
"^	c #646464",
"/	c #8C8C8C",
"(	c #9E9E9E",
"_	c #111111",
":	c #7C7C7C",
"<	c #808080",
"[	c #CBCBCB",
"}	c #262626",
"|	c #1E1E1E",
"1	c #A6A6A6",
"2	c #2C2C2C",
"3	c #2A2A2A",
"4	c #9D9D9D",
"5	c #838383",
"6	c #3A3A3A",
"7	c #8E8E8E",
"8	c #C4C4C4",
"9	c #D7D7D7",
"0	c #D0D0D0",
"a	c #AEAEAE",
"b	c #636363",
"..........",
"++++++++++",
"@@@@@@@@@@",
"##########",
"$$$$$$$$$$",
"$%%%%&*=-$",
"$%;>,')%!$",
"$%~$$${%]$",
"$$$$$,^%/$",
"$$$$$%%(,$",
"$$$$$_:%<$",
"$$$$$$-%[$",
"$%}$$$|%]$",
"$%12,34%5$",
"$67890ab#$",
"$$$$$$$$$$",
"$$$$$$$$$$",
"$$$$$$$$$$",
"$$$$$$$$$$",
"$$$$$$$$$$",
"$$$$$$$$$$"};
