/* XPM */
static char * n5_xpm[] = {
"10 21 36 1",
" 	c None",
".	c #191919",
"+	c #161616",
"@	c #121212",
"#	c #0D0D0D",
"$	c #0B0B0B",
"%	c #DBDBDB",
"&	c #6E6E6E",
"*	c #C2C2C2",
"=	c #D0D0D0",
"-	c #B2B2B2",
";	c #5E5E5E",
">	c #0C0C0C",
",	c #727272",
"'	c #333333",
")	c #101010",
"!	c #212121",
"~	c #919191",
"{	c #7B7B7B",
"]	c #1B1B1B",
"^	c #CCCCCC",
"/	c #202020",
"(	c #1D1D1D",
"_	c #9A9A9A",
":	c #272727",
"<	c #0F0F0F",
"[	c #262626",
"}	c #979797",
"|	c #757575",
"1	c #3B3B3B",
"2	c #909090",
"3	c #BCBCBC",
"4	c #D4D4D4",
"5	c #C7C7C7",
"6	c #A6A6A6",
"7	c #535353",
"..........",
"++++++++++",
"@@@@@@@@@@",
"##########",
"$$$$$$$$$$",
"$$%%%%%%$$",
"$$%%%%%%$$",
"$$%$$$$$$$",
"$$%$$$$$$$",
"$$%&*=-;>$",
"$$,')!~%{$",
"$$$$$$]%^$",
"$%/$$$(%^$",
"$%_:<[}%|$",
"$1234567$$",
"$$$$$$$$$$",
"$$$$$$$$$$",
"$$$$$$$$$$",
"$$$$$$$$$$",
"$$$$$$$$$$",
"$$$$$$$$$$"};
