/* XPM */
static char * space_xpm[] = {
"1 21 6 1",
" 	c None",
".	c #191919",
"+	c #161616",
"@	c #121212",
"#	c #0D0D0D",
"$	c #0B0B0B",
".",
"+",
"@",
"#",
"$",
"$",
"$",
"$",
"$",
"$",
"$",
"$",
"$",
"$",
"$",
"$",
"$",
"$",
"$",
"$",
"$"};
