/* XPM */
static char * restoreO_xpm[] = {
"28 36 599 2",
"  	c None",
". 	c #9FBEF6",
"+ 	c #A0BEF6",
"@ 	c #A1C0F6",
"# 	c #A3C1F6",
"$ 	c #A4C2F6",
"% 	c #A5C3F7",
"& 	c #A6C4F7",
"* 	c #A7C4F7",
"= 	c #A0BFF6",
"- 	c #9FBFF6",
"; 	c #90B4F2",
"> 	c #92B6F5",
", 	c #93B7F5",
"' 	c #95B9F5",
") 	c #97BAF5",
"! 	c #98BBF6",
"~ 	c #99BCF6",
"{ 	c #9BBDF6",
"] 	c #9CBEF6",
"^ 	c #9DBFF6",
"/ 	c #96B9F5",
"( 	c #95B8F5",
"_ 	c #82A7EA",
": 	c #87AEF4",
"< 	c #88AFF4",
"[ 	c #8AB1F4",
"} 	c #8DB3F5",
"| 	c #8FB5F5",
"1 	c #91B6F5",
"2 	c #92B8F6",
"3 	c #94B9F6",
"4 	c #95BAF6",
"5 	c #96BAF6",
"6 	c #96BBF6",
"7 	c #8FB4F5",
"8 	c #8EB4F5",
"9 	c #8BB2F4",
"0 	c #89B0F4",
"a 	c #83A8EA",
"b 	c #739CE3",
"c 	c #7BA7F3",
"d 	c #7CA8F3",
"e 	c #7EAAF3",
"f 	c #81ACF4",
"g 	c #83AFF4",
"h 	c #F3F7FE",
"i 	c #F4F7FE",
"j 	c #F4F8FE",
"k 	c #F5F8FE",
"l 	c #93A6C5",
"m 	c #8CB7F6",
"n 	c #8CB6F6",
"o 	c #8AB5F5",
"p 	c #89B4F5",
"q 	c #87B2F5",
"r 	c #85B0F4",
"s 	c #83AEF4",
"t 	c #80ACF4",
"u 	c #6791DB",
"v 	c #72A0F2",
"w 	c #74A2F2",
"x 	c #77A5F3",
"y 	c #79A7F3",
"z 	c #7CAAF4",
"A 	c #F5F9FE",
"B 	c #96A9C8",
"C 	c #86B4F6",
"D 	c #86B3F6",
"E 	c #84B2F5",
"F 	c #83B0F5",
"G 	c #81AEF5",
"H 	c #7EACF4",
"I 	c #7CA9F4",
"J 	c #5E89D4",
"K 	c #75A3F2",
"L 	c #78A5F2",
"M 	c #7BA8F3",
"N 	c #7DABF3",
"O 	c #80ADF4",
"P 	c #92A5C4",
"Q 	c #87B4F5",
"R 	c #89B6F6",
"S 	c #8AB7F6",
"T 	c #8CB8F6",
"U 	c #F6F9FE",
"V 	c #85B2F5",
"W 	c #82AFF4",
"X 	c #81ADF4",
"Y 	c #79A5F2",
"Z 	c #76A3F2",
"` 	c #5F89D4",
" .	c #5580CC",
"..	c #76A3F3",
"+.	c #78A5F3",
"@.	c #7BA8F4",
"#.	c #7EAAF4",
"$.	c #81ADF5",
"%.	c #84B0F5",
"&.	c #94A7C6",
"*.	c #8EB9F7",
"=.	c #90BBF7",
"-.	c #91BCF7",
";.	c #F7FAFE",
">.	c #8BB7F6",
",.	c #89B5F6",
"'.	c #86B2F6",
").	c #4D78C5",
"!.	c #7AA6F3",
"~.	c #7DA9F3",
"{.	c #86B1F5",
"].	c #94BEF7",
"^.	c #96C0F8",
"/.	c #97C1F8",
"(.	c #A0B3D0",
"_.	c #91BBF7",
":.	c #8EB9F6",
"<.	c #4068AD",
"[.	c #7AA0E3",
"}.	c #7BA1E3",
"|.	c #7EA4E4",
"1.	c #81A7E5",
"2.	c #84AAE7",
"3.	c #87ADE8",
"4.	c #8AB0E9",
"5.	c #98AAC9",
"6.	c #93B8ED",
"7.	c #96BBEE",
"8.	c #98BDEF",
"9.	c #9ABFF0",
"0.	c #F8FAFE",
"a.	c #A3B6D3",
"b.	c #90B5EB",
"c.	c #8DB2EA",
"d.	c #8AAFE9",
"e.	c #87ACE8",
"f.	c #84A9E7",
"g.	c #7EA3E4",
"h.	c #32538F",
"i.	c #7998CF",
"j.	c #7A99CF",
"k.	c #7D9CD2",
"l.	c #819FD4",
"m.	c #84A3D6",
"n.	c #87A5D8",
"o.	c #8AA9DA",
"p.	c #98ABCA",
"q.	c #94B2DF",
"r.	c #97B5E1",
"s.	c #9AB7E3",
"t.	c #9CBAE5",
"u.	c #F8FBFE",
"v.	c #A6B9D5",
"w.	c #93B1DF",
"x.	c #90AEDE",
"y.	c #8DABDC",
"z.	c #8AA8DA",
"A.	c #83A2D6",
"B.	c #809FD4",
"C.	c #325390",
"D.	c #31538E",
"E.	c #85A3D7",
"F.	c #86A4D7",
"G.	c #89A7D9",
"H.	c #8DAADB",
"I.	c #90ADDD",
"J.	c #93B0DE",
"K.	c #97B3E0",
"L.	c #F9FBFE",
"M.	c #A9BBD7",
"N.	c #A9C5EA",
"O.	c #A6C2E9",
"P.	c #A0BCE5",
"Q.	c #9CB9E4",
"R.	c #99B6E3",
"S.	c #96B3E1",
"T.	c #93B0DF",
"U.	c #90ADDE",
"V.	c #8CAADC",
"W.	c #89A7DA",
"X.	c #31538F",
"Y.	c #92AEDF",
"Z.	c #93AFDF",
"`.	c #96B2E1",
" +	c #99B4E2",
".+	c #9DB7E4",
"++	c #A0BAE5",
"@+	c #A3BDE6",
"#+	c #A6BFE8",
"$+	c #A9C2E9",
"%+	c #ACC5EB",
"&+	c #A2B5D2",
"*+	c #B5CDEF",
"=+	c #B7CFF0",
"-+	c #B1CAED",
";+	c #A5BFE8",
">+	c #A2BCE6",
",+	c #9FBAE5",
"'+	c #9CB7E4",
")+	c #9EB8E6",
"!+	c #9FB9E6",
"~+	c #A2BBE7",
"{+	c #A5BEE8",
"]+	c #A8C0E9",
"^+	c #ABC3EB",
"/+	c #AEC5EC",
"(+	c #B1C8ED",
"_+	c #B4CAEE",
":+	c #B7CDEF",
"<+	c #B6CDEF",
"[+	c #B0C8ED",
"}+	c #ABC3EA",
"|+	c #A1BBE7",
"1+	c #30528D",
"2+	c #AAC2EC",
"3+	c #ADC4ED",
"4+	c #B0C7EE",
"5+	c #B2C9EE",
"6+	c #B5CBEF",
"7+	c #B8CDF0",
"8+	c #BAD0F1",
"9+	c #BDD2F2",
"0+	c #BFD4F3",
"a+	c #9CAFCD",
"b+	c #9EB1CF",
"c+	c #A1B4D1",
"d+	c #9CAECC",
"e+	c #BACFF1",
"f+	c #AFC6ED",
"g+	c #30518B",
"h+	c #9EB7E4",
"i+	c #B6CBF1",
"j+	c #B8CDF1",
"k+	c #BBCFF2",
"l+	c #BDD1F2",
"m+	c #BFD2F3",
"n+	c #C2D4F4",
"o+	c #C4D6F4",
"p+	c #C6D8F5",
"q+	c #C8DAF5",
"r+	c #CADBF6",
"s+	c #CCDCF6",
"t+	c #CDDEF7",
"u+	c #CEDEF7",
"v+	c #CDDDF7",
"w+	c #C8D9F5",
"x+	c #BDD0F2",
"y+	c #BACEF2",
"z+	c #A0B9E5",
"A+	c #365A9B",
"B+	c #6A89BF",
"C+	c #BDD2F5",
"D+	c #BED3F5",
"E+	c #C0D4F5",
"F+	c #C2D6F6",
"G+	c #C5D8F6",
"H+	c #C7D9F7",
"I+	c #C9DBF7",
"J+	c #CBDDF8",
"K+	c #CCDEF8",
"L+	c #CEDFF8",
"M+	c #CFE0F8",
"N+	c #D0E1F9",
"O+	c #D1E1F9",
"P+	c #CADCF7",
"Q+	c #C4D8F6",
"R+	c #6B8AC0",
"S+	c #4473C5",
"T+	c #315189",
"U+	c #5B7EBA",
"V+	c #85A8E4",
"W+	c #9CBCF4",
"X+	c #9EBEF5",
"Y+	c #A1C0F5",
"Z+	c #A3C2F6",
"`+	c #A6C5F6",
" @	c #A8C6F6",
".@	c #AAC8F7",
"+@	c #ACC9F7",
"@@	c #ADCBF7",
"#@	c #AECBF8",
"$@	c #AECCF8",
"%@	c #AFCCF8",
"&@	c #ADCAF7",
"*@	c #ABC9F7",
"=@	c #A6C4F6",
"-@	c #8AADE6",
";@	c #5D81BC",
">@	c #588FEE",
",@	c #4A77C7",
"'@	c #395C99",
")@	c #314F84",
"!@	c #304F84",
"~@	c #385B99",
"{@	c #4976C7",
"]@	c #578EEE",
"^@	c #9EBDF5",
"/@	c #9CBCF5",
"(@	c #9BBAF5",
"_@	c #99B9F5",
":@	c #97B8F4",
"<@	c #97B7F4",
"[@	c #96B7F4",
"}@	c #95B6F4",
"|@	c #98B8F5",
"1@	c #9BBBF5",
"2@	c #9DBCF5",
"3@	c #91B5F4",
"4@	c #8EB3F4",
"5@	c #8CB1F4",
"6@	c #8AAFF3",
"7@	c #87ADF3",
"8@	c #86ACF3",
"9@	c #84AAF3",
"0@	c #84AAF2",
"a@	c #83A9F2",
"b@	c #85ABF3",
"c@	c #88ADF3",
"d@	c #8FB3F4",
"e@	c #86ADF3",
"f@	c #83ABF3",
"g@	c #81A9F3",
"h@	c #7EA6F2",
"i@	c #7CA4F2",
"j@	c #7AA3F1",
"k@	c #78A1F1",
"l@	c #77A0F1",
"m@	c #769FF1",
"n@	c #759FF1",
"o@	c #759EF0",
"p@	c #79A2F1",
"q@	c #7CA5F2",
"r@	c #7FA7F2",
"s@	c #83AAF3",
"t@	c #85ACF3",
"u@	c #78A4F2",
"v@	c #75A1F2",
"w@	c #729FF1",
"x@	c #6F9CF1",
"y@	c #EFF4FD",
"z@	c #EFF3FD",
"A@	c #EEF3FD",
"B@	c #6C7FA5",
"C@	c #6795EF",
"D@	c #6895EF",
"E@	c #6997F0",
"F@	c #6B99F0",
"G@	c #6D9BF0",
"H@	c #709DF1",
"I@	c #739FF1",
"J@	c #76A2F2",
"K@	c #709EF1",
"L@	c #6D9BF1",
"M@	c #6A98F0",
"N@	c #6493EF",
"O@	c #EDF2FD",
"P@	c #687CA2",
"Q@	c #5A89ED",
"R@	c #5C8BED",
"S@	c #5D8CEE",
"T@	c #5F8EEE",
"U@	c #6291EF",
"V@	c #6593EF",
"W@	c #6896F0",
"X@	c #6E9CF1",
"Y@	c #719FF1",
"Z@	c #6493EE",
"`@	c #6B7FA4",
" #	c #5C8CED",
".#	c #5A8AED",
"+#	c #5988EC",
"@#	c #5887EC",
"##	c #ECF1FD",
"$#	c #ECF2FD",
"%#	c #5F8FEE",
"&#	c #6291EE",
"*#	c #6896EF",
"=#	c #6C99F0",
"-#	c #6F9CF0",
";#	c #75A2F2",
">#	c #74A1F2",
",#	c #719EF2",
"'#	c #6A98F1",
")#	c #6795F0",
"!#	c #6492EF",
"~#	c #5B8AEE",
"{#	c #5988EE",
"]#	c #5786ED",
"^#	c #5685ED",
"/#	c #EBF1FD",
"(#	c #5F8DEE",
"_#	c #6190EF",
":#	c #6493F0",
"<#	c #6B99F1",
"[#	c #729FF2",
"}#	c #77A3F2",
"|#	c #73A0F1",
"1#	c #6C9AF0",
"2#	c #6694EF",
"3#	c #667AA0",
"4#	c #5787ED",
"5#	c #5685EC",
"6#	c #EBF0FD",
"7#	c #5D7199",
"8#	c #5887ED",
"9#	c #608FEE",
"0#	c #6391EF",
"a#	c #6A97F0",
"b#	c #6D9AF0",
"c#	c #719EF1",
"d#	c #769CE1",
"e#	c #7299E0",
"f#	c #6F96DE",
"g#	c #6B92DD",
"h#	c #688FDC",
"i#	c #648CDA",
"j#	c #64789F",
"k#	c #5A82D6",
"l#	c #577FD5",
"m#	c #547DD4",
"n#	c #537BD3",
"o#	c #EAF0FD",
"p#	c #5A6E96",
"q#	c #557DD4",
"r#	c #5880D5",
"s#	c #5E86D8",
"t#	c #6289D9",
"u#	c #658CDB",
"v#	c #6990DC",
"w#	c #6C93DD",
"x#	c #7096DF",
"y#	c #739AE0",
"z#	c #779DE2",
"A#	c #7897CE",
"B#	c #7594CC",
"C#	c #7190CA",
"D#	c #6D8DC8",
"E#	c #6A89C5",
"F#	c #6686C3",
"G#	c #6282C1",
"H#	c #63779E",
"I#	c #5878BA",
"J#	c #5475B8",
"K#	c #5172B6",
"L#	c #4E6FB5",
"M#	c #E9EFFD",
"N#	c #576B94",
"O#	c #5272B7",
"P#	c #5576B9",
"Q#	c #5C7CBD",
"R#	c #6080C1",
"S#	c #6383C3",
"T#	c #6787C5",
"U#	c #6A8AC7",
"V#	c #6E8ECA",
"W#	c #7291CC",
"X#	c #7595CE",
"Y#	c #84A2D6",
"Z#	c #7D9BD2",
"`#	c #7998D0",
" $	c #7594CE",
".$	c #7191CC",
"+$	c #6E8ECB",
"@$	c #556992",
"#$	c #5C7DC1",
"$$	c #6081C3",
"%$	c #6888C7",
"&$	c #6B8BCB",
"*$	c #6F8FCC",
"=$	c #7292CE",
"-$	c #7696D0",
";$	c #7A99D2",
">$	c #7E9CD4",
",$	c #819FD6",
"'$	c #91ADDE",
")$	c #8EAADD",
"!$	c #8AA7DB",
"~$	c #86A4D9",
"{$	c #83A1D8",
"]$	c #7F9DD6",
"^$	c #7C9AD5",
"/$	c #7897D3",
"($	c #7594D1",
"_$	c #7191D0",
":$	c #586C94",
"<$	c #6788CB",
"[$	c #6687CB",
"}$	c #6888CC",
"|$	c #6B8BCD",
"1$	c #6E8ECF",
"2$	c #7695D2",
"3$	c #7998D4",
"4$	c #7D9BD5",
"5$	c #809ED7",
"6$	c #84A1D8",
"7$	c #88A5DA",
"8$	c #8BA8DC",
"9$	c #8FABDD",
"0$	c #9AB5E4",
"a$	c #97B2E3",
"b$	c #93AFE2",
"c$	c #90ACE0",
"d$	c #8CA9DF",
"e$	c #89A6DE",
"f$	c #86A4DC",
"g$	c #82A1DB",
"h$	c #7F9EDA",
"i$	c #83A1DB",
"j$	c #87A4DD",
"k$	c #8AA7DE",
"l$	c #8DAADF",
"m$	c #91ADE1",
"n$	c #94B0E2",
"o$	c #98B3E3",
"p$	c #9BB6E5",
"q$	c #A7C0EB",
"r$	c #A4BDEA",
"s$	c #A1BAE9",
"t$	c #9DB8E8",
"u$	c #9AB5E7",
"v$	c #97B3E6",
"w$	c #94B0E5",
"x$	c #91AEE4",
"y$	c #8EACE3",
"z$	c #5F739A",
"A$	c #5B6F97",
"B$	c #5B7097",
"C$	c #60749B",
"D$	c #63779D",
"E$	c #92AEE4",
"F$	c #95B1E5",
"G$	c #98B3E6",
"H$	c #9BB6E7",
"I$	c #9EB8E8",
"J$	c #A1BBE9",
"K$	c #A5BEEA",
"L$	c #A8C0EB",
"M$	c #B4C9F0",
"N$	c #B1C7EF",
"O$	c #AEC5EF",
"P$	c #ACC3EE",
"Q$	c #A9C0ED",
"R$	c #A6BEED",
"S$	c #A4BCEC",
"T$	c #A1BAEB",
"U$	c #9FB8EB",
"V$	c #9DB7EA",
"W$	c #9BB6EA",
"X$	c #9AB5EA",
"Y$	c #9CB6EA",
"Z$	c #9FB9EB",
"`$	c #A2BBEC",
" %	c #A4BDEC",
".%	c #A7BFED",
"+%	c #A9C1ED",
"@%	c #AFC5EF",
"#%	c #B2C7F0",
"$%	c #9DB6E3",
"%%	c #BCD1F4",
"&%	c #B9CFF4",
"*%	c #B7CDF3",
"=%	c #B4CBF3",
"-%	c #B2CAF2",
";%	c #AFC8F2",
">%	c #ADC6F1",
",%	c #ABC4F1",
"'%	c #A9C3F1",
")%	c #A8C2F0",
"!%	c #A6C1F0",
"~%	c #A5C0F0",
"{%	c #A6C0F0",
"]%	c #AAC3F1",
"^%	c #ACC5F1",
"/%	c #AEC6F1",
"(%	c #B0C8F2",
"_%	c #B3CAF2",
":%	c #B5CCF3",
"<%	c #B7CEF3",
"[%	c #BAD0F4",
"}%	c #82A5E3",
"|%	c #93B5F3",
"1%	c #90B2F2",
"2%	c #8DB0F1",
"3%	c #8AAEF1",
"4%	c #88ACF0",
"5%	c #85AAF0",
"6%	c #83A8F0",
"7%	c #81A6EF",
"8%	c #80A6EF",
"9%	c #7FA5EF",
"0%	c #82A7EF",
"a%	c #84A8F0",
"b%	c #86AAF0",
"c%	c #88ACF1",
"d%	c #8BAEF1",
"e%	c #8EB1F2",
"f%	c #91B3F2",
"g%	c #7FA3E2",
"h%	c #597CB8",
". . . . . . . + @ # $ % & * * * * & % $ # @ = - - - - - ",
"; > > > > > , ' ) ! ~ { ] ] ^ ^ ] ] { ~ ! / ( , > > > ; ",
"_ : : : : < [ } | 1 2 3 4 5 6 6 5 4 3 2 1 7 8 9 0 < < a ",
"b c c c d e f g h i j j k k k l m n o p q r s t e c c b ",
"u v v v w x y z i j k k k A A B C D E F G H I y x w v u ",
"J w w K L M N O j P Q R S T U U U U A Q V W X e d Y Z ` ",
" .....+.@.#.$.%.k &.m *.=.-.;.;.U U U >.,.'.%.$.#.M +. .",
").!.!.~.t g {.p k B -.].^./.;.(./.^.U _.:.n p {.s t ~.).",
"<.[.}.|.1.2.3.4.k 5.6.7.8.9.0.a.9.8.;.6.b.c.d.e.f.1.g.<.",
"h.i.j.k.l.m.n.o.k p.q.r.s.t.u.v.t.s.;.w.x.y.z.n.A.B.k.C.",
"D.E.F.G.H.I.J.K.A U U ;.0.u.L.M.N.O.;.P.Q.R.S.T.U.V.W.X.",
"X.Y.Z.`. +.+++@+#+$+%+;.&+*+=+=+*+-+;.%+$+;+>+,+'+ +`.X.",
"D.)+!+~+{+]+^+/+(+_+:+;.;.0.u.u.0.;.;.<+_+[+/+}+]+{+|+D.",
"1+2+2+3+4+5+6+7+8+9+0+a+b+(.c+c+(.b+d+0+9+e+7+6+5+f+3+1+",
"g+h+i+j+k+l+m+n+o+p+q+r+s+t+u+u+v+s+r+w+p+o+n+m+x+y+z+g+",
"A+B+C+D+E+F+G+H+I+J+K+L+M+N+O+O+N+M+L+K+P+I+H+Q+F+E+R+A+",
"S+T+U+V+W+X+Y+Z+`+ @.@+@@@#@$@%@#@&@*@.@ @=@Z+Y+-@;@T+S+",
">@,@'@)@)@)@)@)@)@)@)@)@)@)@)@)@)@)@)@)@)@)@!@!@!@~@{@]@",
". . . . . . ^@/@(@_@:@<@[@}@}@}@[@<@|@_@1@2@- - - - - - ",
"; > > > > 3@4@5@6@7@8@9@0@a@a@a@0@b@8@c@6@5@d@> > > > ; ",
"_ : : : e@f@g@h@i@j@k@l@m@n@o@n@m@l@p@j@q@r@s@t@< < < a ",
"b c c c u@v@w@x@y@z@A@A@A@A@A@B@C@D@E@F@G@H@I@J@L c c b ",
"u v v K@L@M@C@N@A@A@A@O@O@O@O@P@Q@R@S@T@U@V@W@F@X@Y@v u ",
"J w w K@G@M@C@Z@A@`@ #.#+#@###$#$#O@O@%#&#N@*#=#-#w@;#` ",
" ...>#,#L@'#)#!#A@P@~#{#]#^#/#####$#O@(#_#:#W@<#X@[#;# .",
").!.}#|#H@1#E@2#O@3#R@Q@4#5#6#7#8#Q@##9#0#2#a#b#c#>#u@).",
"<.[.d#e#f#g#h#i#O@j#k#l#m#n#o#p#q#r###s#t#u#v#w#x#y#z#<.",
"h.A#B#C#D#E#F#G#O@H#I#J#K#L#M#N#O#P###Q#R#S#T#U#V#W#X#C.",
"D.Y#B.Z#`# $.$+$O@##/#o#o#M#M#@$#$$$/#%$&$*$=$-$;$>$,$X.",
"X.'$)$!$~${$]$^$/$($_$6#:$<$[$}$|$1$/#2$3$4$5$6$7$8$9$X.",
"D.)+0$a$b$c$d$e$f$g$h$6#o#o#o#o#o#/###i$j$k$l$m$n$o$p$D.",
"1+2+q$r$s$t$u$v$w$x$y$z$7#A$A$B$7#C$D$E$F$G$H$I$J$K$L$1+",
"g+h+M$N$O$P$Q$R$S$T$U$V$W$X$X$X$Y$V$Z$`$ %.%+%P$@%#%$%g+",
"A+B+%%&%*%=%-%;%>%,%'%)%!%~%~%{%!%)%]%^%/%(%_%:%<%[%B+A+",
"S+T+U+}%|%1%2%3%4%5%6%7%8%9%9%9%8%0%a%b%c%d%e%f%g%h%T+S+",
">@,@'@)@)@)@)@)@)@)@)@)@)@)@)@)@)@)@)@)@)@)@!@!@!@~@{@]@"};
