/* XPM */
static char * frameAL_xpm[] = {
"5 1 4 1",
" 	c None",
".	c #5F5F5F",
"+	c #FFFFFF",
"@	c #1A1A1A",
".+@@@"};
