/* XPM */
static char * rollupA_xpm[] = {
"13 46 4 1",
" 	c None",
".	c #5F5F5F",
"+	c #FFFFFF",
"@	c #1A1A1A",
".............",
"+++++++++++++",
"+++++++++++++",
"+++++++++++++",
"@@@@@@@@@@@@@",
"@@@@@@@@@@@@@",
"@@@@@@@@@@@@@",
"@@@@@@@@@@@@@",
"@@@@@@+@@@@@@",
"@@@@@+++@@@@@",
"@@@@+@+@+@@@@",
"@@@@@@+@@@@@@",
"@@@@@@+@@@@@@",
"@@@@@@@@@@@@@",
"@@@@@@@@@@@@@",
"@@@@@@@@@@@@@",
"@@@@@@@@@@@@@",
"@@@@@@@@@@@@@",
"@@@@@@@@@@@@@",
"@@@@@@@@@@@@@",
"@@@@@@@@@@@@@",
"@@@@@@@@@@@@@",
"@@@@@@@@@@@@@",
".............",
"+++++++++++++",
"+++++++++++++",
"+++++++++++++",
"@@@@@@@@@@@@@",
"@@@@@@@@@@@@@",
"@@@@@@@@@@@@@",
"@@@@@@@@@@@@@",
"@@@@@@+@@@@@@",
"@@@@@+++@@@@@",
"@@@@+@+@+@@@@",
"@@@@@@+@@@@@@",
"@@@@@@+@@@@@@",
"@@@@@@@@@@@@@",
"@@@@@@@@@@@@@",
"@@@@@@@@@@@@@",
"@@@@@@@@@@@@@",
"@@@@@@@@@@@@@",
"@@@@@@@@@@@@@",
"@@@@@@@@@@@@@",
"@@@@@@@@@@@@@",
"@@@@@@@@@@@@@",
"@@@@@@@@@@@@@"};
