/* XPM */
static char * titleAQ_xpm[] = {
"3 23 4 1",
" 	c None",
".	c #5F5F5F",
"+	c #FFFFFF",
"@	c #1A1A1A",
"...",
"+++",
"+++",
"+++",
"+++",
"+++",
"+++",
"+++",
"+++",
"+++",
"+++",
"+++",
"+++",
"+++",
"+++",
"+++",
"@@@",
"@@@",
"@@@",
"@@@",
"@@@",
"@@@",
"@@@"};
