/* XPM */
static char * a_xpm[] = {
"10 20 40 1",
" 	c None",
".	c #1A1A1A",
"+	c #2D2D2D",
"@	c #A5A5A5",
"#	c #DEDEDE",
"$	c #F2F2F2",
"%	c #C9C9C9",
"&	c #4B4B4B",
"*	c #F7F7F7",
"=	c #FFFFFF",
"-	c #2F2F2F",
";	c #EBEBEB",
">	c #FAFAFA",
",	c #E1E1E1",
"'	c #F9F9F9",
")	c #F8F8F8",
"!	c #A9A9A9",
"~	c #BBBBBB",
"{	c #292929",
"]	c #282828",
"^	c #B6B6B6",
"/	c #E0E0E0",
"(	c #343434",
"_	c #2E2E2E",
":	c #E3E3E3",
"<	c #2B2B2B",
"[	c #AEAEAE",
"}	c #B2B2B2",
"|	c #262626",
"1	c #232323",
"2	c #ADADAD",
"3	c #333333",
"4	c #EEEEEE",
"5	c #F5F5F5",
"6	c #FDFDFD",
"7	c #323232",
"8	c #AAAAAA",
"9	c #F1F1F1",
"0	c #C3C3C3",
"a	c #424242",
"..........",
"..........",
"..........",
"..........",
"..........",
"..........",
"..........",
"..........",
".+@#$%&*=.",
"-;=>,')==.",
"!=~{.]^==.",
"/=(..._==.",
":=-...<==.",
"[=}|.12==.",
"34=)/*56=.",
".78,90a*=.",
"..........",
"..........",
"..........",
".........."};
