/* XPM */
static char * p_xpm[] = {
"10 20 30 1",
" 	c None",
".	c #1A1A1A",
"+	c #FFFFFF",
"@	c #F7F7F7",
"#	c #626262",
"$	c #D8D8D8",
"%	c #EEEEEE",
"&	c #BFBFBF",
"*	c #434343",
"=	c #FDFDFD",
"-	c #EFEFEF",
";	c #F9F9F9",
">	c #414141",
",	c #A1A1A1",
"'	c #1C1C1C",
")	c #BABABA",
"!	c #282828",
"~	c #292929",
"{	c #EBEBEB",
"]	c #E8E8E8",
"^	c #A0A0A0",
"/	c #1B1B1B",
"(	c #B7B7B7",
"_	c #3E3E3E",
":	c #F8F8F8",
"<	c #7A7A7A",
"[	c #E1E1E1",
"}	c #BEBEBE",
"|	c #9E9E9E",
"1	c #9A9A9A",
"..........",
"..........",
"..........",
"..........",
"..........",
"..........",
"..........",
"..........",
".+@#$%&*..",
".++=-%+;>.",
".++,'',+).",
".++!..~+{.",
".++!..!+].",
".++^/',+(.",
".+++%%+@_.",
".+:<[-}>..",
".+@.......",
".+@.......",
".|1.......",
".........."};
