/* XPM */
static char * icewm_xpm[] = {
"40 25 400 2",
"  	c None",
". 	c #8C8784",
"+ 	c #A5A1A0",
"@ 	c #ACA8A6",
"# 	c #A8A3A2",
"$ 	c #999493",
"% 	c #7B7572",
"& 	c #C2BFBE",
"* 	c #F2F1F1",
"= 	c #FFFFFF",
"- 	c #F3F2F2",
"; 	c #E7E6E6",
"> 	c #D1CECD",
", 	c #86807E",
"' 	c #4A423E",
") 	c #7B7573",
"! 	c #A8A4A2",
"~ 	c #D6D3D2",
"{ 	c #E7E5E5",
"] 	c #E8E6E6",
"^ 	c #E8E7E7",
"/ 	c #E5E4E4",
"( 	c #B4B0AE",
"_ 	c #A29D9C",
": 	c #FDFDFD",
"< 	c #908B89",
"[ 	c #79726F",
"} 	c #DEDDDC",
"| 	c #FEFEFE",
"1 	c #F5F4F4",
"2 	c #C1BEBD",
"3 	c #CECBCB",
"4 	c #B9B6B4",
"5 	c #F8F8F8",
"6 	c #CECCCB",
"7 	c #E3E2E1",
"8 	c #E5E3E3",
"9 	c #807A77",
"0 	c #DAD8D7",
"a 	c #948F8D",
"b 	c #7E7775",
"c 	c #F7F7F6",
"d 	c #DAD8D8",
"e 	c #6D6663",
"f 	c #7A7371",
"g 	c #B6B2B1",
"h 	c #7E7875",
"i 	c #B4B0AF",
"j 	c #857F7D",
"k 	c #7E7774",
"l 	c #59514E",
"m 	c #9A9593",
"n 	c #A9A4A3",
"o 	c #B2AEAD",
"p 	c #F6F5F5",
"q 	c #655E5B",
"r 	c #E1DFDE",
"s 	c #B2AFAD",
"t 	c #847E7C",
"u 	c #AEAAA8",
"v 	c #AFAAA9",
"w 	c #C2BEBE",
"x 	c #473F3B",
"y 	c #F6F6F6",
"z 	c #524947",
"A 	c #B8B5B3",
"B 	c #766F6D",
"C 	c #BDBAB9",
"D 	c #B8B5B4",
"E 	c #F1F0F0",
"F 	c #918C89",
"G 	c #C4C0BF",
"H 	c #8A8482",
"I 	c #4C4440",
"J 	c #AAA6A5",
"K 	c #8C8683",
"L 	c #756E6B",
"M 	c #7A7471",
"N 	c #C9C6C6",
"O 	c #F7F6F6",
"P 	c #837C7A",
"Q 	c #6D6563",
"R 	c #817B79",
"S 	c #E4E3E2",
"T 	c #87817F",
"U 	c #DEDDDD",
"V 	c #6E6764",
"W 	c #706866",
"X 	c #736D6A",
"Y 	c #5A5250",
"Z 	c #D4D2D2",
"` 	c #928D8B",
" .	c #77706E",
"..	c #A6A2A0",
"+.	c #645C59",
"@.	c #DDDBDB",
"#.	c #F8F7F7",
"$.	c #EBEAEA",
"%.	c #4F4643",
"&.	c #EDECEC",
"*.	c #9B9795",
"=.	c #5A524F",
"-.	c #6B6461",
";.	c #5C5351",
">.	c #443A37",
",.	c #948D8C",
"'.	c #352B28",
").	c #A19D9B",
"!.	c #DCDADA",
"~.	c #FBFAFB",
"{.	c #D2D0CF",
"].	c #FEFEFD",
"^.	c #F4F3F3",
"/.	c #F0EEEE",
"(.	c #FDFCFC",
"_.	c #423936",
":.	c #716B69",
"<.	c #635B59",
"[.	c #615956",
"}.	c #68615E",
"|.	c #D0CECC",
"1.	c #D1CECE",
"2.	c #FFF8E2",
"3.	c #D5E4DA",
"4.	c #CCCAC9",
"5.	c #3C332F",
"6.	c #D4D2D1",
"7.	c #9B9694",
"8.	c #4C4441",
"9.	c #E0DEDE",
"0.	c #FAF9F9",
"a.	c #736C6A",
"b.	c #ECEBEA",
"c.	c #F0EFEF",
"d.	c #F9F8F8",
"e.	c #CFCDCC",
"f.	c #B7B4B2",
"g.	c #FEFAEF",
"h.	c #F6B537",
"i.	c #FFE3AF",
"j.	c #9FD6B7",
"k.	c #D0CECD",
"l.	c #4F4743",
"m.	c #C0BDBD",
"n.	c #DBDADB",
"o.	c #FEF5E3",
"p.	c #FFFDFA",
"q.	c #FEFFFE",
"r.	c #706966",
"s.	c #EAE9E8",
"t.	c #221814",
"u.	c #837D7B",
"v.	c #B5B2B0",
"w.	c #DBDAD9",
"x.	c #E4E2E2",
"y.	c #F0F0EF",
"z.	c #78716F",
"A.	c #E3E1E1",
"B.	c #B1ACAB",
"C.	c #FCE7BE",
"D.	c #F6B63D",
"E.	c #FBB63B",
"F.	c #65BE90",
"G.	c #B9B5B5",
"H.	c #827C79",
"I.	c #F5F3F1",
"J.	c #F5B335",
"K.	c #FEDEA7",
"L.	c #D4EDE1",
"M.	c #F2F9F5",
"N.	c #EFEEEE",
"O.	c #908A89",
"P.	c #6E6765",
"Q.	c #D0CDCD",
"R.	c #B1AEAD",
"S.	c #FCE6B9",
"T.	c #F9BA43",
"U.	c #B5B34F",
"V.	c #57B781",
"W.	c #F6FBF8",
"X.	c #76706D",
"Y.	c #878282",
"Z.	c #FDDB98",
"`.	c #F6B73D",
" +	c #FBBB48",
".+	c #77C79E",
"++	c #8F8A88",
"@+	c #95908D",
"#+	c #EAE9E9",
"$+	c #999492",
"%+	c #B5B1B0",
"&+	c #ABA6A5",
"*+	c #EFEEED",
"=+	c #FFFDF8",
"-+	c #F7C157",
";+	c #F3B73E",
">+	c #60AE65",
",+	c #51B175",
"'+	c #E9F5EE",
")+	c #9D9896",
"!+	c #867F7E",
"~+	c #F9F6EF",
"{+	c #F9CD78",
"]+	c #F8B943",
"^+	c #86AF58",
"/+	c #89CCA5",
"(+	c #817A78",
"_+	c #9F9B99",
":+	c #544C4A",
"<+	c #D0CDCC",
"[+	c #392F2C",
"}+	c #FCFCFC",
"|+	c #FFF4E0",
"1+	c #FFB93F",
"2+	c #89B15B",
"3+	c #44AC6C",
"4+	c #47AD6E",
"5+	c #E0F1E6",
"6+	c #DAD9D8",
"7+	c #A7A2A0",
"8+	c #D4D1D1",
"9+	c #96928F",
"0+	c #797370",
"a+	c #ADACAF",
"b+	c #FFD88C",
"c+	c #FCB73A",
"d+	c #BEB34D",
"e+	c #43AB69",
"f+	c #93CFA9",
"g+	c #EAE8E8",
"h+	c #989391",
"i+	c #787270",
"j+	c #716A68",
"k+	c #2A1F1C",
"l+	c #D5E8D2",
"m+	c #4CAB66",
"n+	c #40AC6D",
"o+	c #45AC6C",
"p+	c #3EA968",
"q+	c #DBF3E5",
"r+	c #8F8988",
"s+	c #938D8B",
"t+	c #C5C2C1",
"u+	c #78716E",
"v+	c #655C5B",
"w+	c #D5DACD",
"x+	c #C5AF3D",
"y+	c #91B158",
"z+	c #3BAB6F",
"A+	c #41AA69",
"B+	c #A0D5B4",
"C+	c #DFDEDD",
"D+	c #C3C0BF",
"E+	c #BDB9B8",
"F+	c #AFDBC0",
"G+	c #41AB6A",
"H+	c #46AC6C",
"I+	c #2DA560",
"J+	c #82A48F",
"K+	c #5B5350",
"L+	c #9F9A99",
"M+	c #493D3B",
"N+	c #81C59A",
"O+	c #43AB6B",
"P+	c #40AA68",
"Q+	c #B8DFC7",
"R+	c #B3AFAD",
"S+	c #E1E0DF",
"T+	c #E2E0DF",
"U+	c #96918F",
"V+	c #B5B2B1",
"W+	c #FFFDFE",
"X+	c #A7D7B9",
"Y+	c #42AB6A",
"Z+	c #3DA968",
"`+	c #00964B",
" @	c #27442F",
".@	c #A29E9C",
"+@	c #706D68",
"@@	c #62BB84",
"#@	c #1B9C54",
"$@	c #DAEFE4",
"%@	c #8C8684",
"&@	c #E0DFDF",
"*@	c #281E1A",
"=@	c #EDEDEC",
"-@	c #C8C6C5",
";@	c #201511",
">@	c #605855",
",@	c #B9B6B5",
"'@	c #675D5B",
")@	c #C1EBD2",
"!@	c #42AA69",
"~@	c #3FA969",
"{@	c #07954D",
"]@	c #01974D",
"^@	c #192D1B",
"/@	c #B2ADAC",
"(@	c #B0ACAA",
"_@	c #595D53",
":@	c #55B67A",
"<@	c #49AE6E",
"[@	c #24A05C",
"}@	c #02944B",
"|@	c #A5A09F",
"1@	c #2F2521",
"2@	c #E8E7E6",
"3@	c #E7E6E5",
"4@	c #211612",
"5@	c #819484",
"6@	c #35A865",
"7@	c #03944B",
"8@	c #00934A",
"9@	c #0F9C56",
"0@	c #3F4C40",
"a@	c #898380",
"b@	c #444C40",
"c@	c #50B476",
"d@	c #35A664",
"e@	c #0F9852",
"f@	c #009046",
"g@	c #59B98A",
"h@	c #504744",
"i@	c #5E5652",
"j@	c #453C38",
"k@	c #6C6562",
"l@	c #2A2C23",
"m@	c #169C5A",
"n@	c #28A668",
"o@	c #ADACA9",
"p@	c #3D3431",
"q@	c #2C3628",
"r@	c #18A05B",
"s@	c #01944B",
"t@	c #009349",
"u@	c #C6E7D6",
"v@	c #5D5653",
"w@	c #332926",
"x@	c #281B18",
"y@	c #7CBC9B",
"z@	c #008E43",
"A@	c #1A9E5D",
"B@	c #D0EBDD",
"C@	c #524A47",
"D@	c #A09B99",
"E@	c #D6D3D3",
"F@	c #C0BCBB",
"G@	c #BFBCBA",
"H@	c #2E2E26",
"I@	c #1EA05F",
"J@	c #009045",
"K@	c #3FAE77",
"L@	c #F9FCFB",
"M@	c #CCC9C8",
"N@	c #6F6866",
"O@	c #FAFAFA",
"P@	c #FBFBFB",
"Q@	c #433A37",
"R@	c #4A413F",
"S@	c #FBFAFA",
"T@	c #201611",
"U@	c #CFCCCB",
"V@	c #FDFCFD",
"W@	c #D7EEE2",
"X@	c #EFF8F4",
"Y@	c #BFBCBB",
"Z@	c #F3F3F3",
"`@	c #2F2220",
" #	c #7AC39F",
".#	c #008D40",
"+#	c #6AC094",
"@#	c #FAFDFC",
"##	c #7F7876",
"$#	c #C6C4C3",
"%#	c #F8F7F8",
"&#	c #5C5451",
"*#	c #706967",
"=#	c #EDECEB",
"-#	c #FEFFFF",
";#	c #E4E2E1",
">#	c #BAB7B6",
",#	c #C0BDBC",
"'#	c #ECECEB",
")#	c #F5F5F4",
"!#	c #D9D7D6",
"~#	c #D2D1D0",
"{#	c #CECBCA",
"]#	c #CBC9C8",
"^#	c #C9C7C5",
"/#	c #C6C3C3",
"(#	c #ADA9A8",
"_#	c #958F8E",
":#	c #85807D",
"<#	c #67605E",
"[#	c #7B7473",
"}#	c #BCB9B8",
"|#	c #C8C5C4",
"1#	c #B1AEAC",
"2#	c #96918E",
"3#	c #78706E",
"          . + @ # $ %                                                           ",
"      & * = = = = = = - ; > ,         ' ) ! ~ { ] ^ ^ ] / (                     ",
"    _ = = = = = = = = = = = = = = = = = = = = = = = = = = = : <                 ",
"  [ = = = } | = = = = = = = 1 = = 2 3 = = = 4 5 = = = = = = = = 6               ",
"  7 = 8 9 0 a b c = = = d e f g h i j k = l m n = = = = = = = = = o             ",
"  p = q r = = s t & u = v w = = x y = z A B C D = = = = = = E F = = G           ",
"H = = I c = = J K L M N O P Q R , S - l T U V o = = = = = = W X Y : = Z `  .    ",
"..= = +.@.= #.B $.V 1 %.&.*.= =.-.;.< ] >.= ,.2 = = = = = = '.= ).!.= = = ~.{.  ",
"J = ].+.# ^.u /.(._.Z :.<.[.H }.|.1.= = 2.= 3.4.= = = = = $.5.= 6.{.= = = = :   ",
"7.= = <.8.9.0.= = ! a.= b.| c.d.e.f.= g.h.i.j.= = = = = = k.l.= m.n.o.p.= q.=   ",
"r.0.= s.t.u.v.w.x.y.z.b.A.= = = {.B.= C.D.E.F.= = = = = = G.q = H.I.J.K.L.M.=   ",
"  d = = , 0 O N.c.#.= O.P.= = = Q.R.= S.T.U.V.W.= = = = = n X.N.Y.Z.`. +.+= =   ",
"  ++= = A.@+= #+C $+%+&+%.= = = *+/.=+-+;+>+,+'+= = = = = )+t !+~+{+]+^+/+= =   ",
"  (+= = | = _+:+& { - <+[+}+= = = = |+1+2+3+4+5+= 6+7+8+= 9+0+a+b+c+d+e+f+= g+  ",
"  h+= = | i+j+= = = = | k+N.= = = = l+m+n+o+p+q+r+s+t+u+6.h+v+w+x+y+z+A+B+= C+  ",
"  D+= = E+% = = = = = = _.} = = = = F+G+o+H+I+J+K+= = = = L+M+N+O+3+o+P+Q+= R+  ",
"  S+= = %.T+= = = = = = M o 2 U+V+W+X+Y+H+Z+`+ @7+= = = = .@+@@@o+o+H+#@$@= %@  ",
"  &@= = *@=@= = = = = = -@;@>@v.,@'@)@!@~@{@]@^@/@= = = = (@_@:@o+<@[@}@= = a.  ",
"  |@= = 1@2@= = = = = = 3@4@3@= = =.5@6@7@8@9@0@a@= = = = $+b@c@d@e@f@g@= = h@  ",
"    = = i@k.= = = = = = = j@k@= = 4.l@m@8@8@n@o@p@: = = h ` q@r@s@8@t@u@= =     ",
"    E+= m.v@= = = = = = 1.%@w@1 = = x@y@z@A@B@= C@D@E@P.F@G@H@I@8@J@K@L@= M@    ",
"    N@O@P@Q@%@= = = = _ R@S@T@8 = = U@V@W@X@= = #.%+Y@Z@1 { `@ #.#+#@#= = ##    ",
"      $#= %#&#*#L+)+a.j = = 0.= = = = = = = = = = = = = O@P@=#= -#= : ;#>#      ",
"        ,#= = c.#+'#p = = = = = = = )#7 !#~#<+{#]#^#/#,#D (#_+_#:#<#            ",
"          [#}#e.& Y@t+{.|#1#2#3#                                                "};
