/* XPM */
static char * minimizeA_xpm[] = {
"28 36 61 1",
" 	c None",
".	c #9FBEF6",
"+	c #8FB3F2",
"@	c #91B5F5",
"#	c #92B6F5",
"$	c #90B4F2",
"%	c #82A7EA",
"&	c #87AEF4",
"*	c #739CE3",
"=	c #7BA7F3",
"-	c #6791DB",
";	c #72A0F2",
">	c #5E89D4",
",	c #74A2F2",
"'	c #5580CC",
")	c #76A3F3",
"!	c #4D78C5",
"~	c #7AA6F3",
"{	c #839AC2",
"]	c #8597B6",
"^	c #829BC9",
"/	c #4068AD",
"(	c #7AA0E3",
"_	c #8494AF",
":	c #F2F6FC",
"<	c #8494B0",
"[	c #32538F",
"}	c #7998CF",
"|	c #8491A7",
"1	c #F2F5FA",
"2	c #8491A8",
"3	c #7998D0",
"4	c #31538E",
"5	c #85A3D7",
"6	c #8995AA",
"7	c #F3F6FB",
"8	c #8995AB",
"9	c #85A3D8",
"0	c #31538F",
"a	c #92AEDF",
"b	c #8E9FBC",
"c	c #8E99AE",
"d	c #9EB8E6",
"e	c #30528D",
"f	c #AAC2EC",
"g	c #30518B",
"h	c #9EB7E4",
"i	c #B6CBF1",
"j	c #365A9B",
"k	c #6A89BF",
"l	c #BDD2F5",
"m	c #4473C5",
"n	c #315189",
"o	c #5B7EBA",
"p	c #85A8E4",
"q	c #99BAF4",
"r	c #588FEE",
"s	c #4A77C7",
"t	c #395C99",
"u	c #314F84",
"v	c #000000",
"............................",
"+@@@@@@@@@@################$",
"%&&&&&&&&&&&&&&&&&&&&&&&&&&%",
"*==========================*",
"-;;;;;;;;;;;;;;;;;;;;;;;;;;-",
">,,,,,,,,,,,,,,,,,,,,,,,,,,>",
"'))))))))))))))))))))))))))'",
"!~~~~~~~~{]]]]]]]]]^~~~~~~~!",
"/((((((((_:::::::::<(((((((/",
"[}}}}}}}}|11111111123333}}}[",
"4555555556777777777899995554",
"0aaaaaaaabcccccccccbaaaaaaa0",
"4dddddddddddddddddddddddddd4",
"effffffffffffffffffffffffffe",
"ghiiiiiiiiiiiiiiiiiiiiiiiihg",
"jkllllllllllllllllllllllllkj",
"mnopqqqqqqqqqqqqqqqqqqqqponm",
"rstuuuuuuuuuuuuuuuuuuuuuutsr",
"vvvvvvvvvvvvvvvvvvvvvvvvvvvv",
"vvvvvvvvvvvvvvvvvvvvvvvvvvvv",
"vvvvvvvvvvvvvvvvvvvvvvvvvvvv",
"vvvvvvvvvvvvvvvvvvvvvvvvvvvv",
"vvvvvvvvvvvvvvvvvvvvvvvvvvvv",
"vvvvvvvvvvvvvvvvvvvvvvvvvvvv",
"vvvvvvvvvvvvvvvvvvvvvvvvvvvv",
"vvvvvvvvvvvvvvvvvvvvvvvvvvvv",
"vvvvvvvvvvvvvvvvvvvvvvvvvvvv",
"vvvvvvvvvvvvvvvvvvvvvvvvvvvv",
"vvvvvvvvvvvvvvvvvvvvvvvvvvvv",
"vvvvvvvvvvvvvvvvvvvvvvvvvvvv",
"vvvvvvvvvvvvvvvvvvvvvvvvvvvv",
"vvvvvvvvvvvvvvvvvvvvvvvvvvvv",
"vvvvvvvvvvvvvvvvvvvvvvvvvvvv",
"vvvvvvvvvvvvvvvvvvvvvvvvvvvv",
"vvvvvvvvvvvvvvvvvvvvvvvvvvvv",
"vvvvvvvvvvvvvvvvvvvvvvvvvvvv"};
