/* XPM */
static char * titleAB_xpm[] = {
"4 18 18 1",
" 	c None",
".	c #7BA7F3",
"+	c #72A0F2",
"@	c #6C9CF1",
"#	c #6497F1",
"$	c #5E93F0",
"%	c #5183DB",
"&	c #416DBB",
"*	c #4371C1",
"=	c #4575C9",
"-	c #4879D0",
";	c #4A7DD7",
">	c #4D81DD",
",	c #4F85E5",
"'	c #528AEC",
")	c #5990F0",
"!	c #709FF2",
"~	c #444675",
"....",
"++++",
"@@@@",
"####",
"$$$$",
"%%%%",
"&&&&",
"****",
"====",
"----",
";;;;",
">>>>",
",,,,",
"''''",
"))))",
"####",
"!!!!",
"~~~~"};
