/* XPM */
static char * closeO_xpm[] = {
"46 46 461 2",
"  	c None",
". 	c #293454",
"+ 	c #2A3354",
"@ 	c #2A3256",
"# 	c #293356",
"$ 	c #283255",
"% 	c #293357",
"& 	c #273359",
"* 	c #273457",
"= 	c #283353",
"- 	c #293452",
"; 	c #2A3553",
"> 	c #273456",
", 	c #003259",
"' 	c #402C29",
") 	c #F3CEC8",
"! 	c #E6998D",
"~ 	c #E8988D",
"{ 	c #E9998D",
"] 	c #EB9A8D",
"^ 	c #EC9A8C",
"/ 	c #EE9A8C",
"( 	c #F09A8C",
"_ 	c #F29B8B",
": 	c #F49C8C",
"< 	c #F79C8C",
"[ 	c #F89D8D",
"} 	c #F99D8D",
"| 	c #FA9D8C",
"1 	c #FB9E8C",
"2 	c #F89C8C",
"3 	c #F69C8C",
"4 	c #F39C8C",
"5 	c #F19C8B",
"6 	c #EB998D",
"7 	c #F0B0A5",
"8 	c #4B4A5A",
"9 	c #E9F0F4",
"0 	c #98B5D1",
"a 	c #9CB7D1",
"b 	c #EFBDB5",
"c 	c #5D403B",
"d 	c #9DB8D3",
"e 	c #402A26",
"f 	c #977375",
"g 	c #987375",
"h 	c #535666",
"i 	c #987475",
"j 	c #5C3D38",
"k 	c #9FBAD5",
"l 	c #3E2724",
"m 	c #F2C9C4",
"n 	c #E38F83",
"o 	c #E48F84",
"p 	c #E58F83",
"q 	c #E69083",
"r 	c #E89083",
"s 	c #EA9183",
"t 	c #EB9283",
"u 	c #ED9282",
"v 	c #EF9282",
"w 	c #F19383",
"x 	c #F39483",
"y 	c #F59483",
"z 	c #F69482",
"A 	c #FFFFFF",
"B 	c #977071",
"C 	c #F49483",
"D 	c #F19483",
"E 	c #F09282",
"F 	c #E79083",
"G 	c #EDB6AE",
"H 	c #5B3934",
"I 	c #3E2521",
"J 	c #F0C5BE",
"K 	c #E08577",
"L 	c #E08678",
"M 	c #E18678",
"N 	c #E38678",
"O 	c #E58778",
"P 	c #E68777",
"Q 	c #E88778",
"R 	c #EB8878",
"S 	c #EC8978",
"T 	c #EF8978",
"U 	c #F08A78",
"V 	c #F28A77",
"W 	c #F38B78",
"X 	c #966C6D",
"Y 	c #966C6C",
"Z 	c #FDFDFD",
"` 	c #F18A77",
" .	c #EF8A78",
"..	c #ED8978",
"+.	c #EA8778",
"@.	c #E78778",
"#.	c #E48678",
"$.	c #E28678",
"%.	c #EBB0A6",
"&.	c #5A3530",
"*.	c #A1BCD7",
"=.	c #3D221D",
"-.	c #EEBFB8",
";.	c #DB7A6B",
">.	c #DC7A6C",
",.	c #DE7B6B",
"'.	c #DF7B6C",
").	c #E17C6C",
"!.	c #E37D6C",
"~.	c #E57D6C",
"{.	c #E77D6C",
"].	c #E97E6C",
"^.	c #EC7F6D",
"/.	c #EC806D",
"(.	c #EF806D",
"_.	c #F1806D",
":.	c #F2806D",
"<.	c #F3816C",
"[.	c #956868",
"}.	c #FAFAFA",
"|.	c #EE806C",
"1.	c #EA7E6D",
"2.	c #E87E6C",
"3.	c #E67D6C",
"4.	c #E27C6B",
"5.	c #E17B6C",
"6.	c #DE7B6C",
"7.	c #E8A89F",
"8.	c #58312B",
"9.	c #A3BED9",
"0.	c #3B1E1A",
"a.	c #EBBAB2",
"b.	c #D66E5E",
"c.	c #D76E5E",
"d.	c #D86F5E",
"e.	c #DA705F",
"f.	c #DC715F",
"g.	c #DE715E",
"h.	c #DF715E",
"i.	c #E3725E",
"j.	c #E4735D",
"k.	c #E6735E",
"l.	c #E9745E",
"m.	c #EB745F",
"n.	c #ED755E",
"o.	c #EF755E",
"p.	c #F1755F",
"q.	c #946363",
"r.	c #E9E9E9",
"s.	c #F0755E",
"t.	c #EE755E",
"u.	c #EA745F",
"v.	c #E7745E",
"w.	c #E2725E",
"x.	c #DD715E",
"y.	c #DC6F5F",
"z.	c #D96F5F",
"A.	c #E4A196",
"B.	c #562C26",
"C.	c #A5C0DB",
"D.	c #2D0701",
"E.	c #D39188",
"F.	c #A31A06",
"G.	c #A51A06",
"H.	c #A71B05",
"I.	c #AA1C05",
"J.	c #AE1D05",
"K.	c #B11D05",
"L.	c #B51E05",
"M.	c #B81E04",
"N.	c #BC1F03",
"O.	c #C11F03",
"P.	c #C42003",
"Q.	c #C92003",
"R.	c #CC2202",
"S.	c #CE2202",
"T.	c #D02302",
"U.	c #D22302",
"V.	c #87413C",
"W.	c #D12302",
"X.	c #CF2202",
"Y.	c #CA2003",
"Z.	c #C72103",
"`.	c #C32003",
" +	c #BE1F03",
".+	c #AD1C05",
"++	c #A91C05",
"@+	c #C36A5D",
"#+	c #410A02",
"$+	c #A7C2DD",
"%+	c #2E0802",
"&+	c #D49389",
"*+	c #A51E08",
"=+	c #A71F08",
"-+	c #A92008",
";+	c #AD2108",
">+	c #B02208",
",+	c #B32207",
"'+	c #B72207",
")+	c #BA2206",
"!+	c #BE2306",
"~+	c #C32406",
"{+	c #C62406",
"]+	c #CA2505",
"^+	c #CD2605",
"/+	c #CF2605",
"(+	c #D22604",
"_+	c #88423D",
":+	c #E2E2E2",
"<+	c #D02605",
"[+	c #CB2605",
"}+	c #C82505",
"|+	c #C52406",
"1+	c #C02406",
"2+	c #BD2306",
"3+	c #B92206",
"4+	c #B52207",
"5+	c #B22207",
"6+	c #AF2208",
"7+	c #AC2108",
"8+	c #C46D5E",
"9+	c #420C03",
"0+	c #A9C4DF",
"a+	c #2F0A04",
"b+	c #D6978C",
"c+	c #A9260E",
"d+	c #AB260E",
"e+	c #AD280D",
"f+	c #B0290D",
"g+	c #B32A0D",
"h+	c #B72A0D",
"i+	c #BA2B0C",
"j+	c #BE2B0B",
"k+	c #C22D0B",
"l+	c #C52E0A",
"m+	c #C82F0A",
"n+	c #CB300A",
"o+	c #CE310A",
"p+	c #874740",
"q+	c #88473F",
"r+	c #DCDCDC",
"s+	c #87473F",
"t+	c #CF310A",
"u+	c #CC310A",
"v+	c #CA2F0A",
"w+	c #C72E0A",
"x+	c #C32D0A",
"y+	c #C12C0B",
"z+	c #BD2B0B",
"A+	c #B92B0C",
"B+	c #B62A0D",
"C+	c #AE290D",
"D+	c #C77262",
"E+	c #440F06",
"F+	c #ABC6E1",
"G+	c #300E05",
"H+	c #D99C8F",
"I+	c #B03114",
"J+	c #B23214",
"K+	c #B33413",
"L+	c #B63513",
"M+	c #B83613",
"N+	c #BB3813",
"O+	c #BF3A13",
"P+	c #C13A13",
"Q+	c #C63C13",
"R+	c #C93D12",
"S+	c #CC3F12",
"T+	c #CF4012",
"U+	c #D14311",
"V+	c #D7D7D7",
"W+	c #894F42",
"X+	c #D24211",
"Y+	c #CF4211",
"Z+	c #CE3F12",
"`+	c #CB3E12",
" @	c #C83D12",
".@	c #C53B13",
"+@	c #BE3913",
"@@	c #BC3713",
"#@	c #CC7A67",
"$@	c #461408",
"%@	c #ADC8E3",
"&@	c #331208",
"*@	c #DDA593",
"=@	c #B8421D",
"-@	c #BA441D",
";@	c #BA461C",
">@	c #BD471C",
",@	c #C0491C",
"'@	c #C34A1C",
")@	c #C54C1C",
"!@	c #C94F1C",
"~@	c #CB511B",
"{@	c #CE521B",
"]@	c #D0551B",
"^@	c #D4561B",
"/@	c #D7581B",
"(@	c #8A5747",
"_@	c #8B5846",
":@	c #DB5B1A",
"<@	c #D8591B",
"[@	c #D5571B",
"}@	c #D3561B",
"|@	c #D0541B",
"1@	c #CD521B",
"2@	c #CB501B",
"3@	c #C94D1C",
"4@	c #C64B1C",
"5@	c #C24A1C",
"6@	c #C0481C",
"7@	c #BC471C",
"8@	c #BA451C",
"9@	c #BB4721",
"0@	c #D08771",
"a@	c #4D1B0C",
"b@	c #B1C8E7",
"c@	c #35170B",
"d@	c #E2AD98",
"e@	c #C35328",
"f@	c #C35628",
"g@	c #C45727",
"h@	c #C65827",
"i@	c #CA5B27",
"j@	c #CC5D27",
"k@	c #CF6127",
"l@	c #D16226",
"m@	c #D36626",
"n@	c #D66826",
"o@	c #D86B26",
"p@	c #DB6C26",
"q@	c #DD6E25",
"r@	c #DF7126",
"s@	c #E07326",
"t@	c #E17326",
"u@	c #E07226",
"v@	c #DE6F25",
"w@	c #DC6D26",
"x@	c #DA6B26",
"y@	c #D76926",
"z@	c #D36726",
"A@	c #D26526",
"B@	c #D06126",
"C@	c #CF6027",
"D@	c #CB5C27",
"E@	c #C95A27",
"F@	c #C76136",
"G@	c #CD947F",
"H@	c #5E2C18",
"I@	c #B3C9E5",
"J@	c #381C0E",
"K@	c #E6B59D",
"L@	c #CB6432",
"M@	c #CC6532",
"N@	c #CE6831",
"O@	c #D06B31",
"P@	c #D26E30",
"Q@	c #D47330",
"R@	c #D5762F",
"S@	c #D77A2F",
"T@	c #DB7D2F",
"U@	c #DC832F",
"V@	c #DE862F",
"W@	c #E08A2F",
"X@	c #E28F30",
"Y@	c #E3912F",
"Z@	c #E5942F",
"`@	c #E69530",
" #	c #E6952F",
".#	c #E4922E",
"+#	c #E2902E",
"@#	c #E18C2F",
"##	c #DF882F",
"$#	c #DE852F",
"%#	c #DC802F",
"&#	c #DA7C2F",
"*#	c #D7782F",
"=#	c #D57530",
"-#	c #D37130",
";#	c #D06C34",
">#	c #D27443",
",#	c #DB916D",
"'#	c #A78372",
")#	c #916556",
"!#	c #B3CDE4",
"~#	c #3B2011",
"{#	c #F2D4C3",
"]#	c #E9AC81",
"^#	c #EAB080",
"/#	c #EBB380",
"(#	c #EDB57F",
"_#	c #EFB97D",
":#	c #EFBE7D",
"<#	c #F1C37D",
"[#	c #F1C97C",
"}#	c #F3CC7B",
"|#	c #F3D17A",
"1#	c #F3D57A",
"2#	c #F5D97A",
"3#	c #F5DC79",
"4#	c #F5DE79",
"5#	c #F5E279",
"6#	c #F5E478",
"7#	c #F5E678",
"8#	c #F5E878",
"9#	c #F5DF79",
"0#	c #F5DD79",
"a#	c #F4D67A",
"b#	c #F3D27B",
"c#	c #F3CE7A",
"d#	c #F2CA7C",
"e#	c #F1C67D",
"f#	c #F0C17D",
"g#	c #EFBB7D",
"h#	c #EDB87E",
"i#	c #EDB986",
"j#	c #D2A985",
"k#	c #A07E69",
"l#	c #5B3621",
"m#	c #FAA18C",
"n#	c #B4D1E6",
"o#	c #29160A",
"p#	c #592F16",
"q#	c #593016",
"r#	c #5A3115",
"s#	c #5A3315",
"t#	c #5C3515",
"u#	c #5C3715",
"v#	c #5D3916",
"w#	c #5E3C16",
"x#	c #5F3E15",
"y#	c #604116",
"z#	c #614416",
"A#	c #624616",
"B#	c #624816",
"C#	c #634A16",
"D#	c #634C17",
"E#	c #644C17",
"F#	c #624916",
"G#	c #614516",
"H#	c #604216",
"I#	c #604016",
"J#	c #5F3E16",
"K#	c #5E3B16",
"L#	c #5D3816",
"M#	c #5C3615",
"N#	c #5B3515",
"O#	c #5A3316",
"P#	c #764220",
"Q#	c #A26F53",
"R#	c #B5D3EA",
"S#	c #FAA08C",
"T#	c #F9A38F",
"U#	c #F9A28E",
"V#	c #F9A18D",
"W#	c #FAA28C",
"X#	c #F99F8A",
"Y#	c #B7D1ED",
"Z#	c #B9D1F0",
"`#	c #BDD0EE",
" $	c #CEDBF0",
". + . @ # # . # . # # # @ . . # # # # $ % # # # % & * # . . = . . . . . . - ; . > . . , , , ",
"' ) ! ! ~ { ] ^ / ( _ : : < [ } | 1 1 1 1 1 1 1 1 1 | } [ 2 3 : 4 5 ( / ^ 6 { ~ ! 7 8 9 9 9 ",
"' ) ! ! ~ { ] ^ / ( _ : : < [ } | 1 1 1 1 1 1 1 1 1 | } [ 2 3 : 4 5 ( / ^ 6 { ~ ! 7 8 0 0 0 ",
"' ) ! ! ~ { ] ^ / ( _ : : < [ } | 1 1 1 1 1 1 1 1 1 | } [ 2 3 : 4 5 ( / ^ 6 { ~ ! 7 8 a a a ",
"' ) ! ! ~ { ] ^ / ( _ : : < [ } | 1 1 1 1 1 1 1 1 1 | } [ 2 3 : 4 5 ( / ^ 6 { ~ ! b c d d d ",
"e ) ! ! ~ { ] ^ / ( _ : : < [ f g h h h i 1 i h h h g f [ 2 3 : 4 5 ( / ^ 6 { ~ ! b j k k k ",
"l m n o p q r s t u v w x y z h h A A A h B h A A A h h z y C D E v u t s F q p o G H k k k ",
"I J K L M N O P Q R S T U V W X Y h Z Z Z h Z Z Z h Y X W V `  ...R +.@.P #.$.M L %.&.*.*.*.",
"=.-.;.>.,.'.).!.~.{.].^./.(._.:.<.[.h }.}.}.}.}.h [.<.:._.(.|./.1.2.3.~.4.5.6.,.>.7.8.9.9.9.",
"0.a.b.c.d.e.f.g.h.i.j.k.l.m.n.n.o.p.q.h r.r.r.h q.p.s.t.n.m.u.v.k.j.w.h.x.y.z.d.c.A.B.C.C.C.",
"D.E.F.G.H.I.J.K.L.M.N.O.P.Q.R.S.T.U.V.h r.r.r.h V.U.W.X.R.Y.Z.`. +N.M.L.K..+++H.G.@+#+$+$+$+",
"%+&+*+=+-+;+>+,+'+)+!+~+{+]+^+/+(+_+h :+:+:+:+:+h _+(+<+/+[+}+|+1+2+3+4+5+6+7+-+=+8+9+0+0+0+",
"a+b+c+d+e+f+g+h+i+j+k+l+m+n+o+p+q+h r+r+r+h r+r+r+h q+s+t+u+v+w+x+y+z+A+B+g+C+e+d+D+E+F+F+F+",
"G+H+I+J+K+L+M+N+O+P+Q+R+S+T+U+h h V+V+V+h W+h V+V+V+h h X+Y+Z+`+ @.@P++@@@M+L+K+J+#@$@%@%@%@",
"&@*@=@-@;@>@,@'@)@!@~@{@]@^@/@(@_@h h h _@:@_@h h h _@_@<@[@}@|@1@2@3@4@5@6@7@8@9@0@a@b@b@b@",
"c@d@e@f@g@h@i@j@k@l@m@n@o@p@q@r@s@t@t@t@t@t@t@t@t@t@s@u@v@w@x@y@z@A@B@C@D@E@h@g@F@G@H@I@I@I@",
"J@K@L@M@N@O@P@Q@R@S@T@U@V@W@X@Y@Z@`@`@`@`@`@`@`@`@`@ #.#+#@###$#%#&#*#=#-#P@;#>#,#'#)#!#!#!#",
"~#{#]#^#/#(#_#:#<#[#}#|#1#2#3#4#5#6#6#7#8#8#8#7#6#6#5#9#0#2#a#b#c#d#e#f#g#h#i#j#k#l#m#n#n#n#",
"o#p#p#q#r#s#t#u#v#w#x#y#z#A#B#C#D#E#E#E#E#E#E#E#E#E#E#C#F#A#G#H#I#J#K#L#M#N#O#P#Q#m#R#R#R#R#",
"S#T#U#V#m#S#S#S#S#S#S#S#S#S#S#S#S#S#S#S#S#S#S#S#S#S#S#S#S#S#S#S#S#S#S#S#S#S#m#W#X#Y#Y#Y#Y#Y#",
"Z#Z#Z#Z#Z#Z#Z#Z#Z#Z#Z#Z#Z#Z#Z#Z#Z#Z#Z#Z#Z#Z#Z#Z#Z#Z#Z#Z#Z#Z#Z#Z#Z#Z#Z#Z#Z#Z#Z#Z#Z#Z#Z#Z#Z#Z#",
"`#`#`#`#`#`#`#`#`#`#`#`#`#`#`#`#`#`#`#`#`#`#`#`#`#`#`#`#`#`#`#`#`#`#`#`#`#`#`#`#`#`#`#`#`#`#",
" $ $ $ $ $ $ $ $ $ $ $ $ $ $ $ $ $ $ $ $ $ $ $ $ $ $ $ $ $ $ $ $ $ $ $ $ $ $ $ $ $ $ $ $ $ $",
". + . @ # # . # . # # # @ . . # # # # $ % # # # % & * # . . = . . . . . . - ; . > . . , , , ",
"' ) ! ! ~ { ] ^ / ( _ : : < [ } | 1 1 1 1 1 1 1 1 1 | } [ 2 3 : 4 5 ( / ^ 6 { ~ ! 7 8 9 9 9 ",
"' ) ! ! ~ { ] ^ / ( _ : : < [ } | 1 1 1 1 1 1 1 1 1 | } [ 2 3 : 4 5 ( / ^ 6 { ~ ! 7 8 0 0 0 ",
"' ) ! ! ~ { ] ^ / ( _ : : < [ } | 1 1 1 1 1 1 1 1 1 | } [ 2 3 : 4 5 ( / ^ 6 { ~ ! 7 8 a a a ",
"' ) ! ! ~ { ] ^ / ( _ : : < [ } | 1 1 1 1 1 1 1 1 1 | } [ 2 3 : 4 5 ( / ^ 6 { ~ ! b c d d d ",
"e ) ! ! ~ { ] ^ / ( _ : : < < < < < < < < < < < < < < < [ 2 3 : 4 5 ( / ^ 6 { ~ ! b j k k k ",
"l m n o p q r s t u v w x y z f g h h h i 1 i h h h g f z y C D E v u t s F q p o G H k k k ",
"I J K L M N O P Q R S T U V W h h A A A h B h A A A h h W V `  ...R +.@.P #.$.M L %.&.*.*.*.",
"=.-.;.>.,.'.).!.~.{.].^./.(._.X Y h Z Z Z h Z Z Z h Y X _.(.|./.1.2.3.~.4.5.6.,.>.7.8.9.9.9.",
"0.a.b.c.d.e.f.g.h.i.j.k.l.m.n.m.m.[.h }.}.}.}.}.h [.m.m.n.m.u.v.k.j.w.h.x.y.z.d.c.A.B.C.C.C.",
"D.E.F.G.H.I.J.K.L.M.N.O.P.Q.R.R.R.R.q.h r.r.r.h q.R.R.R.R.Y.Z.`. +N.M.L.K..+++H.G.@+#+$+$+$+",
"%+&+*+=+-+;+>+,+'+)+!+~+{+]+^+^+^+^+V.h r.r.r.h V.^+^+^+/+[+}+|+1+2+3+4+5+6+7+-+=+8+9+0+0+0+",
"a+b+c+d+e+f+g+h+i+j+k+l+m+n+o+n+n+_+h :+:+:+:+:+h _+n+n+t+u+v+w+x+y+z+A+B+g+C+e+d+D+E+F+F+F+",
"G+H+I+J+K+L+M+N+O+P+Q+R+S+T+U+p+q+h r+r+r+h r+r+r+h q+s+X+Y+Z+`+ @.@P++@@@M+L+K+J+#@$@%@%@%@",
"&@*@=@-@;@>@,@'@)@!@~@{@]@^@/@h h V+V+V+h W+h V+V+V+h h <@[@}@|@1@2@3@4@5@6@7@8@9@0@a@b@b@b@",
"c@d@e@f@g@h@i@j@k@l@m@n@o@p@q@(@_@h h h _@:@_@h h h _@_@v@w@x@y@z@A@B@C@D@E@h@g@F@G@H@I@I@I@",
"J@K@L@M@N@O@P@Q@R@S@T@U@V@W@X@Y@Z@`@`@`@`@`@`@`@`@`@ #.#+#@###$#%#&#*#=#-#P@;#>#,#'#)#!#!#!#",
"~#{#]#^#/#(#_#:#<#[#}#|#1#2#3#4#5#6#6#7#8#8#8#7#6#6#5#9#0#2#a#b#c#d#e#f#g#h#i#j#k#l#m#n#n#n#",
"o#p#p#q#r#s#t#u#v#w#x#y#z#A#B#C#D#E#E#E#E#E#E#E#E#E#E#C#F#A#G#H#I#J#K#L#M#N#O#P#Q#m#R#R#R#R#",
"S#T#U#V#m#S#S#S#S#S#S#S#S#S#S#S#S#S#S#S#S#S#S#S#S#S#S#S#S#S#S#S#S#S#S#S#S#S#m#W#X#Y#Y#Y#Y#Y#",
"Z#Z#Z#Z#Z#Z#Z#Z#Z#Z#Z#Z#Z#Z#Z#Z#Z#Z#Z#Z#Z#Z#Z#Z#Z#Z#Z#Z#Z#Z#Z#Z#Z#Z#Z#Z#Z#Z#Z#Z#Z#Z#Z#Z#Z#Z#",
"`#`#`#`#`#`#`#`#`#`#`#`#`#`#`#`#`#`#`#`#`#`#`#`#`#`#`#`#`#`#`#`#`#`#`#`#`#`#`#`#`#`#`#`#`#`#",
" $ $ $ $ $ $ $ $ $ $ $ $ $ $ $ $ $ $ $ $ $ $ $ $ $ $ $ $ $ $ $ $ $ $ $ $ $ $ $ $ $ $ $ $ $ $"};
