/* XPM */
static char * frameAT_xpm[] = {
"6 28 23 1",
" 	c None",
".	c #003259",
"+	c #E9F0F4",
"@	c #98B5D1",
"#	c #9CB7D1",
"$	c #9DB8D3",
"%	c #9FBAD5",
"&	c #A1BCD7",
"*	c #A3BED9",
"=	c #A5C0DB",
"-	c #A7C2DD",
";	c #A9C4DF",
">	c #ABC6E1",
",	c #ADC8E3",
"'	c #B1C8E7",
")	c #B3C9E5",
"!	c #B3CDE4",
"~	c #B4D1E6",
"{	c #B5D3EA",
"]	c #B7D1ED",
"^	c #B9D1F0",
"/	c #BDD0EE",
"(	c #CEDBF0",
"      ",
"      ",
"      ",
"      ",
"      ",
"......",
"++++++",
"@@@@@@",
"######",
"$$$$$$",
"%%%%%%",
"%%%%%%",
"&&&&&&",
"******",
"======",
"------",
";;;;;;",
">>>>>>",
",,,,,,",
"''''''",
"))))))",
"!!!!!!",
"~~~~~~",
"{{{{{{",
"]]]]]]",
"^^^^^^",
"//////",
"(((((("};
