/* XPM */
static char * minimizeA_xpm[] = {
"26 46 154 2",
"  	c None",
". 	c #003259",
"+ 	c #293357",
"@ 	c #273457",
"# 	c #E9F0F4",
"$ 	c #505568",
"% 	c #EBF4FF",
"& 	c #EAF5FF",
"* 	c #ECF5FF",
"= 	c #98B5D1",
"- 	c #EEF1F8",
"; 	c #E4E7EE",
"> 	c #EFEFF7",
", 	c #9CB7D1",
"' 	c #525661",
") 	c #E4E7F0",
"! 	c #E6E6EE",
"~ 	c #9DB8D3",
"{ 	c #EBEFFA",
"] 	c #E3E7F2",
"^ 	c #E3E7F0",
"/ 	c #E4E6F2",
"( 	c #ECEFF6",
"_ 	c #9FBAD5",
": 	c #525662",
"< 	c #ECF0FB",
"[ 	c #E3E7F3",
"} 	c #EDF0F9",
"| 	c #E0E4F0",
"1 	c #DEE4F0",
"2 	c #E0E4EF",
"3 	c #EAEDF6",
"4 	c #A1BCD7",
"5 	c #E8ECF7",
"6 	c #DCE0EC",
"7 	c #DAE0EC",
"8 	c #E7E9F5",
"9 	c #A3BED9",
"0 	c #E5E9F4",
"a 	c #D6DCE8",
"b 	c #D5DBE9",
"c 	c #D7DAE9",
"d 	c #E3E5F1",
"e 	c #A5C0DB",
"f 	c #E0E7F1",
"g 	c #CFD5E3",
"h 	c #CFD5E5",
"i 	c #CFD5E1",
"j 	c #D1D5E1",
"k 	c #CFD4E7",
"l 	c #DFE3EF",
"m 	c #A7C2DD",
"n 	c #505662",
"o 	c #CAD0DE",
"p 	c #AAAFC2",
"q 	c #A9AFC5",
"r 	c #A9B0C3",
"s 	c #757B8B",
"t 	c #535762",
"u 	c #545760",
"v 	c #545662",
"w 	c #767C8C",
"x 	c #AAAFC3",
"y 	c #C3C9D7",
"z 	c #A9C4DF",
"A 	c #505664",
"B 	c #C9CFDF",
"C 	c #AAB0C6",
"D 	c #A8B0C7",
"E 	c #A8B0C5",
"F 	c #535667",
"G 	c #FCFFFF",
"H 	c #FEFFFF",
"I 	c #FEFEFF",
"J 	c #FDFEFF",
"K 	c #525566",
"L 	c #A9AFC7",
"M 	c #C5CADD",
"N 	c #ABC6E1",
"O 	c #525564",
"P 	c #CAD0E0",
"Q 	c #A9B0CA",
"R 	c #A9B1C8",
"S 	c #535669",
"T 	c #DBDBE3",
"U 	c #DDDDDF",
"V 	c #DCDCDE",
"W 	c #DCDBE0",
"X 	c #DBDCE1",
"Y 	c #AAB0C8",
"Z 	c #C4C9DC",
"` 	c #ADC8E3",
" .	c #CDD3E3",
"..	c #ACB2C8",
"+.	c #ABB2CC",
"@.	c #AAB4CD",
"#.	c #ACB2CA",
"$.	c #51566A",
"%.	c #D4D6E2",
"&.	c #D6D7DC",
"*.	c #D5D5DD",
"=.	c #D7D8DD",
"-.	c #D4D7E0",
";.	c #C7CCDF",
">.	c #B1C8E7",
",.	c #595C6B",
"'.	c #B2B8CE",
").	c #AFB6D0",
"!.	c #ADB7D0",
"~.	c #AEB8D1",
"{.	c #787E96",
"].	c #515669",
"^.	c #515767",
"/.	c #AFB7CE",
"(.	c #B0B6CE",
"_.	c #C8CDE0",
":.	c #B3C9E5",
"<.	c #666978",
"[.	c #C6CCDA",
"}.	c #BBC2D5",
"|.	c #B5BDD4",
"1.	c #B6BCD4",
"2.	c #B6BCD2",
"3.	c #B7BCD2",
"4.	c #B6BCD6",
"5.	c #CCD1E4",
"6.	c #B3CDE4",
"7.	c #9194A3",
"8.	c #858897",
"9.	c #D2D8E8",
"0.	c #C1C8DB",
"a.	c #BEC5D8",
"b.	c #BCC2D8",
"c.	c #BCC3D6",
"d.	c #BDC3D9",
"e.	c #BDC4D7",
"f.	c #D1D6E9",
"g.	c #B4D1E6",
"h.	c #545A68",
"i.	c #7D8393",
"j.	c #C7CDDD",
"k.	c #DFE5F5",
"l.	c #DCE3F5",
"m.	c #DDE2F5",
"n.	c #DEE3F6",
"o.	c #DBE2F4",
"p.	c #DDE3F3",
"q.	c #B5D3EA",
"r.	c #979DAD",
"s.	c #6A6D7C",
"t.	c #B7D1ED",
"u.	c #B9D1F0",
"v.	c #BDD0EE",
"w.	c #CEDBF0",
". + + + @ @ @ + + + + + + + + + + + + + + + + + + + ",
"# $ % & & & & % % % * % % % % % % % % % % % % % % % ",
"= $ - ; ; ; ; ; ; ; ; ; ; ; ; ; ; ; ; ; ; ; ; ; ; > ",
", ' - ; ; ; ; ) ) ; ; ; ; ; ; ) ) ; ; ) ) ) ) ) ! > ",
"~ ' { ] ] ] ] ] ] ] ] ] ] ] ] ] ] ] ^ ] / / / / ) ( ",
"_ : < [ [ [ [ [ [ [ [ [ [ [ [ [ [ ] ] [ [ [ [ ] ] } ",
"_ ' { ) | 1 1 | | 1 1 | | 1 | | | | 1 | | 1 1 | 2 3 ",
"4 ' 5 6 6 7 7 6 6 7 7 6 6 7 7 6 6 7 7 6 7 7 7 7 6 8 ",
"9 ' 0 a b b b b b b b b b b b b b b b b b b b b c d ",
"e : f g h h h h g i j j j j j j j j i g h h h k h l ",
"m n o p q r r p s t u v v u u v u u t w x r q q x y ",
"z A B C D D E q F G H I I H H I J H G K q L D L q M ",
"N O P C Q Q R L S T U V V V V W V V X F Y Y Q Q C Z ",
"` O  ...+.@.+.#.$.%.&.&.&.&.&.*.=.&.-.$.#.+.+.+.#.;.",
">.,.B '.).!.~.).{.].F F F ^.^.K F ^.].{.)./.).).(._.",
":.<.[.}.|.|.|.|.1.2.3.3.3.2.2.3.3.2.2.|.|.|.|.4.1.5.",
"6.7.8.9.0.a.b.b.b.b.c.b.d.c.e.b.b.}.b.b.b.b.b.b.b.f.",
"g.g.h.i.j.k.l.m.l.m.l.m.l.m.l.m.l.m.l.m.l.n.o.m.m.p.",
"q.q.q.r.s.: n : n : n : n : n : n : n : n : n : : ' ",
"t.t.t.t.t.t.t.t.t.t.t.t.t.t.t.t.t.t.t.t.t.t.t.t.t.t.",
"u.u.u.u.u.u.u.u.u.u.u.u.u.u.u.u.u.u.u.u.u.u.u.u.u.u.",
"v.v.v.v.v.v.v.v.v.v.v.v.v.v.v.v.v.v.v.v.v.v.v.v.v.v.",
"w.w.w.w.w.w.w.w.w.w.w.w.w.w.w.w.w.w.w.w.w.w.w.w.w.w.",
". + + + @ @ @ + + + + + + + + + + + + + + + + + + + ",
"# $ % & & & & % % % * % % % % % % % % % % % % % % % ",
"= $ - ) ) ) ) ) ) ) ) ) ) ) ) ) ) ) ) ) ) ) ) ) ) - ",
", ' - ; ; ; ; ) ) ; ; ) ) ; ; ) ) ; ; ) ) ) ) ) ! > ",
"~ ' { ] ] ] ] ] ] ] ] ] ] ] ] ] ] ] ^ ] / / / / ) ( ",
"_ : < [ [ [ [ [ [ [ [ [ [ [ [ [ [ ] ] [ [ [ [ ] ] } ",
"_ ' { | | 1 1 | | 1 1 | | 1 | | | | 1 | | 1 1 | 2 3 ",
"4 ' 5 6 6 7 7 6 6 7 7 6 6 7 7 6 6 7 7 6 7 7 7 7 6 8 ",
"9 ' 0 a b b b b b b b b b b b b b b b b b b b b c d ",
"e : f g h h h h g i j j j j j j j j i g h h h k h l ",
"m n o p q r r p s t u v v u u v u u t w x r q q x y ",
"z A B C D D E q F G H I I H H I J H G K q L D L q M ",
"N O P C Q Q R L S T U V V V V W V V X F Y Y Q Q C Z ",
"` O  ...+.@.+.#.$.%.&.&.&.&.&.*.=.&.-.$.#.+.+.+.#.;.",
">.,.B '.).!.~.).{.].F F F ^.^.K F ^.].{.)./.).).(._.",
":.<.[.}.|.|.|.|.1.2.3.3.3.2.2.3.3.2.2.|.|.|.|.4.1.5.",
"6.7.8.9.0.a.b.b.b.b.c.b.d.c.e.b.b.}.b.b.b.b.b.b.b.f.",
"g.g.h.i.j.k.l.m.l.m.l.m.l.m.l.m.l.m.l.m.l.n.o.m.m.p.",
"q.q.q.r.s.: n : n : n : n : n : n : n : n : n : : ' ",
"t.t.t.t.t.t.t.t.t.t.t.t.t.t.t.t.t.t.t.t.t.t.t.t.t.t.",
"u.u.u.u.u.u.u.u.u.u.u.u.u.u.u.u.u.u.u.u.u.u.u.u.u.u.",
"v.v.v.v.v.v.v.v.v.v.v.v.v.v.v.v.v.v.v.v.v.v.v.v.v.v.",
"w.w.w.w.w.w.w.w.w.w.w.w.w.w.w.w.w.w.w.w.w.w.w.w.w.w."};
