/* XPM */
static char * restoreA_xpm[] = {
"26 46 84 1",
" 	c None",
".	c #293454",
"+	c #8B8E9D",
"@	c #EBF4FF",
"#	c #EAF5FF",
"$	c #EAF3FF",
"%	c #ECF5FF",
"&	c #EDF4FF",
"*	c #EFF4FF",
"=	c #E4E7F0",
"-	c #8C8D92",
";	c #F3F4F9",
">	c #E4E7EE",
",	c #E3E7F3",
"'	c #8E92A0",
")	c #535666",
"!	c #E8E6EB",
"~	c #FAEAEB",
"{	c #8A8D94",
"]	c #F2F4FA",
"^	c #FCFCFC",
"/	c #ECEFF7",
"(	c #878A91",
"_	c #8D909E",
":	c #999AA4",
"<	c #858891",
"[	c #F0F1F7",
"}	c #E0E4F1",
"|	c #E9ECF5",
"1	c #83868F",
"2	c #EEF0F7",
"3	c #DBE0ED",
"4	c #E9E9E9",
"5	c #E7EAF3",
"6	c #80838C",
"7	c #EBEDF4",
"8	c #D6DBE9",
"9	c #E3E6F0",
"0	c #7B7F8A",
"a	c #E8EAF1",
"b	c #D0D5E4",
"c	c #E2E2E2",
"d	c #DFE3ED",
"e	c #636977",
"f	c #D5D8E3",
"g	c #A8AFC6",
"h	c #DCDCDC",
"i	c #C4C9D9",
"j	c #636979",
"k	c #D6D9E5",
"l	c #A8B0C7",
"m	c #D7D7D7",
"n	c #C4CADA",
"o	c #646A7A",
"p	c #D6DAE6",
"q	c #A9B0CA",
"r	c #777C8F",
"s	c #C5CADB",
"t	c #666C7C",
"u	c #D7DAE6",
"v	c #ABB2CC",
"w	c #AEB7D0",
"x	c #C7CBDD",
"y	c #686E7E",
"z	c #D8DBE8",
"A	c #7B8094",
"B	c #B4BCD7",
"C	c #C8CDDF",
"D	c #6B7181",
"E	c #DBDFEC",
"F	c #CCD1E3",
"G	c #6F7585",
"H	c #DEE2EF",
"I	c #BBC2DE",
"J	c #D1D7E8",
"K	c #777D8B",
"L	c #EFF0F8",
"M	c #DEE3F1",
"N	c #535762",
"O	c #545761",
"P	c #B7D1ED",
"Q	c #B9D1F0",
"R	c #BDD0EE",
"S	c #CEDBF0",
"..........................",
"+@@##$@@@@@##@@@@@@@@@%@&*",
"+@=======================@",
"-;>>>==,,'))))))))'>>>>>!~",
"{],,,,,,,)^^^^^^^^),,,,,,/",
"(],,,,,_)))))))):^),,,,,,/",
"<[}}}}})^^^^^^^^)^)}}}}}}|",
"1233333)^^^^^^^^)4)3333335",
"6788888)^^))))^^)4)8888889",
"0abbbbb)44)^^)44)c)bbbbbbd",
"efggggg)44)^^)44)h)ggggggi",
"jklllll)cc))))cc)m)lllllln",
"opqqqqq)hhhhhhhh))rqqqqqqs",
"tuvvvvv)mmmmmmmm)wwvvvvvvx",
"yzwwwwwA))))))))ABBwwwwwwC",
"DEBBBBBBBBBBBBBBBBBBBBBBBF",
"GHIIIIIIIIIIIIIIIIIIIIIIIJ",
"KLMMMMMMMMMMMMMMMMMMMMMMMM",
"NOOOOOOOOOOOOOOOOOOOOOOOOO",
"PPPPPPPPPPPPPPPPPPPPPPPPPP",
"QQQQQQQQQQQQQQQQQQQQQQQQQQ",
"RRRRRRRRRRRRRRRRRRRRRRRRRR",
"SSSSSSSSSSSSSSSSSSSSSSSSSS",
"..........................",
"+@@##$@@@@@##@@@@@@@@@%@&*",
"+@=======================@",
"-;>>>==,,'))))))))'>>>>>!~",
"{],,,,,,,)^^^^^^^^),,,,,,/",
"(],,,,,_)))))))):^),,,,,,/",
"<[}}}}})^^^^^^^^)^)}}}}}}|",
"1233333)^^^^^^^^)4)3333335",
"6788888)^^))))^^)4)8888889",
"0abbbbb)44)^^)44)c)bbbbbbd",
"efggggg)44)^^)44)h)ggggggi",
"jklllll)cc))))cc)m)lllllln",
"opqqqqq)hhhhhhhh))rqqqqqqs",
"tuvvvvv)mmmmmmmm)wwvvvvvvx",
"yzwwwwwA))))))))ABBwwwwwwC",
"DEBBBBBBBBBBBBBBBBBBBBBBBF",
"GHIIIIIIIIIIIIIIIIIIIIIIIJ",
"KLMMMMMMMMMMMMMMMMMMMMMMMM",
"NOOOOOOOOOOOOOOOOOOOOOOOOO",
"PPPPPPPPPPPPPPPPPPPPPPPPPP",
"QQQQQQQQQQQQQQQQQQQQQQQQQQ",
"RRRRRRRRRRRRRRRRRRRRRRRRRR",
"SSSSSSSSSSSSSSSSSSSSSSSSSS"};
