/* XPM */
static char * closeA_xpm[] = {
"26 50 55 1",
" 	c None",
".	c #EDEDED",
"+	c #ECECEC",
"@	c #FE787E",
"#	c #FE6C72",
"$	c #FE7379",
"%	c #FF878D",
"&	c #FFB4B7",
"*	c #FFC6C9",
"=	c #FFB3B7",
"-	c #FF868D",
";	c #FE737A",
">	c #FF9DA2",
",	c #FFC9CC",
"'	c #FE747A",
")	c #FF888D",
"!	c #FE767C",
"~	c #FFB4B8",
"{	c #FFB2B7",
"]	c #FFC7CA",
"^	c #FFC6CA",
"/	c #FE6C74",
"(	c #FFC8CB",
"_	c #FE6B73",
":	c #FE777C",
"<	c #FFB4B9",
"[	c #FE767E",
"}	c #FF888E",
"|	c #FE7279",
"1	c #FFA0A4",
"2	c #FF9EA3",
"3	c #FE7278",
"4	c #FE6A71",
"5	c #FE777D",
"6	c #FF7379",
"7	c #FF737A",
"8	c #FF747A",
"9	c #FFBABD",
"0	c #FFBDC1",
"a	c #FE767D",
"b	c #FF4750",
"c	c #FFA7AC",
"d	c #FFACB0",
"e	c #FFB8BD",
"f	c #FFAAAE",
"g	c #FFA6AA",
"h	c #FFADB1",
"i	c #FFBEC0",
"j	c #FFA5AA",
"k	c #FFBABE",
"l	c #FFBBBF",
"m	c #FFB8BB",
"n	c #FF7279",
"o	c #FF7278",
"p	c #FE777E",
"..........................",
"..........................",
"..........................",
"...........+..............",
"..........................",
"..........................",
"..........................",
"...........@##@...........",
".........$%&**=-;.........",
"........$>,,,,,,>'........",
"........),,,,,,,,-........",
".......!~,,,,,,,,{@.......",
".......#],,,,,,,,^/.......",
".......#(,,,,,,,,^_.......",
".......:<,,,,,,,,=[.......",
"........},,,,,,,,%........",
"........|1,,,,,,2'........",
".........3}<((~)$.........",
"...........:445...........",
"..........................",
"..........................",
"..........................",
"..........................",
"..........................",
"..........................",
"..........................",
"..........................",
"..........................",
"..........................",
"..........................",
"..........................",
"..........................",
"...........@##@...........",
".........6%&**=-7.........",
"........6>,,,,,,>8........",
"........),(9,,0(,-........",
".......a~,9bcdbe,{@.......",
".......#],,fbbg,,^/.......",
".......#(,,hbbd,,^_.......",
".......5<,ibjgbk,=[.......",
"........},(l,,m],%........",
"........n1,,,,,,28........",
".........o}<((~)6.........",
"...........544p...........",
"..........................",
"..........................",
"..........................",
"..........................",
"..........................",
".........................."};
