/* XPM */
static char * maximizeA_xpm[] = {
"26 50 44 1",
" 	c None",
".	c #EDEDED",
"+	c #1CAC3B",
"@	c #079E28",
"#	c #13A735",
"$	c #33BB52",
"%	c #7BE995",
"&	c #99FCB2",
"*	c #7AE895",
"=	c #32BA52",
"-	c #13A634",
";	c #13A734",
">	c #58D275",
",	c #9DFFB6",
"'	c #56D173",
")	c #14A735",
"!	c #34BB52",
"~	c #32BA51",
"{	c #1BAA3B",
"]	c #7CEA96",
"^	c #79E895",
"/	c #9AFDB3",
"(	c #99FDB3",
"_	c #079F29",
":	c #9BFDB4",
"<	c #7CEA97",
"[	c #1BAB3C",
"}	c #35BC53",
"|	c #5AD376",
"1	c #59D275",
"2	c #13A635",
"3	c #069D28",
"4	c #1BAB3B",
"5	c #32BA53",
"6	c #94F9AD",
"7	c #039C25",
"8	c #94F9AE",
"9	c #69DE85",
"0	c #029C24",
"a	c #009A22",
"b	c #66DC82",
"c	c #6ADE86",
"d	c #029B24",
"e	c #6BDF86",
"..........................",
"..........................",
"..........................",
"..........................",
"..........................",
"..........................",
"..........................",
"...........+@@+...........",
".........#$%&&*=-.........",
"........;>,,,,,,')........",
"........!,,,,,,,,~........",
".......{],,,,,,,,^+.......",
".......@/,,,,,,,,(_.......",
".......@:,,,,,,,,(_.......",
".......{<,,,,,,,,*[.......",
"........},,,,,,,,$........",
"........-|,,,,,,12........",
".........-}<::]!#.........",
"...........{334...........",
"..........................",
"..........................",
"..........................",
"..........................",
"..........................",
"..........................",
"..........................",
"..........................",
"..........................",
"..........................",
"..........................",
"..........................",
"..........................",
"...........+@@+...........",
".........#$%&&*5-.........",
"........;>,,,,,,')........",
"........!,,67777,=........",
".......{],8,90a7,^+.......",
".......@/,7b,c77,(_.......",
".......@:,7db,c7,(_.......",
".......{<,7a7e,6,*[.......",
"........},77776,,$........",
"........-|,,,,,,12........",
".........-}<::]!#.........",
"...........{334...........",
"..........................",
"..........................",
"..........................",
"..........................",
"..........................",
".........................."};
