/* XPM */
static char * accessories_text_editor_xpm[] = {
"16 16 149 2",
"  	c None",
". 	c #7F939A",
"+ 	c #9BD2DE",
"@ 	c #465256",
"# 	c #C8E5EC",
"$ 	c #454F53",
"% 	c #BEE0E9",
"& 	c #B1DBE5",
"* 	c #A4D5E1",
"= 	c #8CC8D5",
"- 	c #8DC4D0",
"; 	c #A48A50",
"> 	c #8ECCDA",
", 	c #DCEEF3",
"' 	c #D7ECF1",
") 	c #D0E9EF",
"! 	c #C9E6ED",
"~ 	c #C1E3EB",
"{ 	c #B8DFE8",
"] 	c #AFDBE5",
"^ 	c #A5D6E1",
"/ 	c #9DD2DE",
"( 	c #84C1CE",
"_ 	c #8BC3CF",
": 	c #918461",
"< 	c #97D0DC",
"[ 	c #DAEDF1",
"} 	c #D5EAF1",
"| 	c #CEE7EE",
"1 	c #C6E4EC",
"2 	c #BEE1E9",
"3 	c #B5DDE6",
"4 	c #ADDAE3",
"5 	c #A3D6E0",
"6 	c #9AD0DD",
"7 	c #80BDCB",
"8 	c #9DCCD7",
"9 	c #A6D6E1",
"0 	c #C8DEE3",
"a 	c #C3DDE2",
"b 	c #BEDAE0",
"c 	c #B6D6DE",
"d 	c #AFD3DB",
"e 	c #A7CFD8",
"f 	c #9FCDD6",
"g 	c #96C8D3",
"h 	c #71AEBB",
"i 	c #A8CDD5",
"j 	c #8FCDDA",
"k 	c #B2DCE5",
"l 	c #D2EAF0",
"m 	c #CDE8EE",
"n 	c #C7E6ED",
"o 	c #C0E2E9",
"p 	c #B7DFE7",
"q 	c #AFDBE4",
"r 	c #A6D7E1",
"s 	c #9DD3DF",
"t 	c #91CDDB",
"u 	c #73B3C2",
"v 	c #D0E8ED",
"w 	c #8ACAD8",
"x 	c #BBDFE9",
"y 	c #C1DCE2",
"z 	c #BCD9E0",
"A 	c #AED3DB",
"B 	c #A8CFD9",
"C 	c #A0CDD7",
"D 	c #96C8D4",
"E 	c #8FC5D2",
"F 	c #83C0CD",
"G 	c #68A6B5",
"H 	c #DFE9EC",
"I 	c #8BCBD9",
"J 	c #B3DDE6",
"K 	c #CAE7ED",
"L 	c #C5E4EB",
"M 	c #B6DEE7",
"N 	c #AFDAE4",
"O 	c #9ED3DE",
"P 	c #95CFDD",
"Q 	c #86C7D4",
"R 	c #77B6C4",
"S 	c #FDFEFE",
"T 	c #94CFDC",
"U 	c #ABD9E3",
"V 	c #B9D8DF",
"W 	c #B2D5DD",
"X 	c #ACD2DA",
"Y 	c #A6CFD8",
"Z 	c #9ECCD6",
"` 	c #8FC4D1",
" .	c #85C2CE",
"..	c #7AB6C5",
"+.	c #7BB2BF",
"@.	c #EEF1F1",
"#.	c #A4D5E0",
"$.	c #C1E4EA",
"%.	c #BAE0E8",
"&.	c #B3DCE6",
"*.	c #ABDAE3",
"=.	c #A4D6E0",
"-.	c #9CD2DF",
";.	c #93CEDB",
">.	c #89CBD8",
",.	c #7FBECD",
"'.	c #95C7D3",
").	c #FFFFFF",
"!.	c #87C9D7",
"~.	c #A3D5E0",
"{.	c #AFD4DC",
"].	c #AAD1DA",
"^.	c #A3CED7",
"/.	c #9BCCD5",
"(.	c #95C8D3",
"_.	c #8DC4D1",
":.	c #85C1CE",
"<.	c #7BBCCC",
"[.	c #73AFBE",
"}.	c #A1C8D1",
"|.	c #85C8D7",
"1.	c #9ED3DF",
"2.	c #96CFDD",
"3.	c #B6DEE6",
"4.	c #AEDAE4",
"5.	c #A7D7E2",
"6.	c #9FD4E0",
"7.	c #87C9D8",
"8.	c #7DC4D4",
"9.	c #77B6C5",
"0.	c #CBE4EA",
"a.	c #89CAD8",
"b.	c #99CAD5",
"c.	c #92C6D2",
"d.	c #8BC4D1",
"e.	c #86C1CE",
"f.	c #7DBECB",
"g.	c #6AA7B6",
"h.	c #D9E6E9",
"i.	c #84C8D6",
"j.	c #91CEDB",
"k.	c #90CDDB",
"l.	c #90CDDA",
"m.	c #8ECDDA",
"n.	c #8ECCD9",
"o.	c #92CEDB",
"p.	c #8ECBD9",
"q.	c #76B8C7",
"r.	c #DBDEE0",
"          .   .   .   .   .     ",
"      + @ # $ % $ & $ * $ = - ; ",
"      > , ' ) ! ~ { ] ^ / ( _ : ",
"      < [ } | 1 2 3 4 5 6 7 8 : ",
"    < 9 0 a b c d e f g _ h i : ",
"    j k l m n o p q r s t u v : ",
"    w x y z c A B C D E F G H : ",
"    I J K L 2 M N r O P Q R S : ",
"    T U V W X Y Z D `  ...+.@.: ",
"  I / #.$.%.&.*.=.-.;.>.,.'.).: ",
"  !.~./ {.].^./.(._.:.<.[.}.@.: ",
"  |.1.2.3.4.5.6.< j 7.8.9.0.).: ",
"  a.1.+ X Y C b.c.d.e.f.g.h.@.: ",
"  i.a.j j.k.l.m.n.o.o.p.q.).).: ",
"        r.@.@.@.@.@.@.@.@.@.@.: ",
"        : : : : : : : : : : : ; "};
