/* XPM */
static char * frameAB_xpm[] = {
"1 5 5 1",
" 	c None",
".	c #0D243A",
"+	c #7292B3",
"@	c #6D8DAE",
"#	c #6686A7",
".",
"+",
"@",
"#",
"."};
