/* XPM */
static char * frameAT_xpm[] = {
"5 21 18 1",
" 	c None",
".	c #0D243A",
"+	c #A2C1DE",
"@	c #8EB2D7",
"#	c #85A7C9",
"$	c #7C9AB8",
"%	c #7090B0",
"&	c #6384A6",
"*	c #55779A",
"=	c #4C6F93",
"-	c #2A4158",
";	c #35516D",
">	c #3F5F80",
",	c #496E94",
"'	c #4E7AA7",
")	c #6084A9",
"!	c #6E91B5",
"~	c #7A9BBC",
"     ",
"     ",
"     ",
".....",
"+++++",
"@@@@@",
"#####",
"$$$$$",
"%%%%%",
"&&&&&",
"*****",
"=====",
"-----",
";;;;;",
">>>>>",
",,,,,",
"'''''",
")))))",
"!!!!!",
"~~~~~",
"....."};
