/* XPM */
static char * windows_xpm[] = {
"24 20 8 1",
" 	c None",
".	c #FFFFFF",
"+	c #272727",
"@	c #333333",
"#	c #3A3A3A",
"$	c #434343",
"%	c #4E4E4E",
"&	c #535353",
"                        ",
"                        ",
"                        ",
"   ...........          ",
"   ...........          ",
"   .+++++++++.          ",
"   .@@@@@@@@@.          ",
"   .#########.          ",
"   .$$$$$$$$$.          ",
"   .%%%%%%%%%.......    ",
"   .&&&&&&&&&.......    ",
"   ...........+++++.    ",
"         .@@@@@@@@@.    ",
"         .#########.    ",
"         .$$$$$$$$$.    ",
"         .%%%%%%%%%.    ",
"         .&&&&&&&&&.    ",
"         ...........    ",
"                        ",
"                        "};
