/* XPM */
static char * icewm_xpm[] = {
"60 25 103 2",
"  	c None",
". 	c #212121",
"+ 	c #243E44",
"@ 	c #7AE1FF",
"# 	c #4AA6C1",
"$ 	c #5AA6BC",
"% 	c #56A2B8",
"& 	c #509DB3",
"* 	c #4A96AC",
"= 	c #000000",
"- 	c #010202",
"; 	c #408295",
"> 	c #4691A7",
", 	c #1C3A42",
"' 	c #1B3942",
") 	c #418CA1",
"! 	c #0F2025",
"~ 	c #010303",
"{ 	c #397C8F",
"] 	c #0F2126",
"^ 	c #3B869B",
"/ 	c #295F6E",
"( 	c #193942",
"_ 	c #2A5F6E",
": 	c #2D6676",
"< 	c #0F2329",
"[ 	c #030607",
"} 	c #030708",
"| 	c #0D1E23",
"1 	c #275A68",
"2 	c #0D1D22",
"3 	c #010404",
"4 	c #04090A",
"5 	c #11282E",
"6 	c #337486",
"7 	c #337E94",
"8 	c #09171B",
"9 	c #010405",
"0 	c #2E7387",
"a 	c #2E7286",
"b 	c #09181C",
"c 	c #265E6E",
"d 	c #000102",
"e 	c #0C1E23",
"f 	c #2C6C7F",
"g 	c #2F758A",
"h 	c #122D35",
"i 	c #204F5D",
"j 	c #296678",
"k 	c #30778C",
"l 	c #1A404C",
"m 	c #0C1F24",
"n 	c #2F788D",
"o 	c #1F4F5D",
"p 	c #153741",
"q 	c #153740",
"r 	c #1F505E",
"s 	c #0B1D22",
"t 	c #266274",
"u 	c #2A6D80",
"v 	c #071115",
"w 	c #245E6E",
"x 	c #2C7286",
"y 	c #000101",
"z 	c #327D92",
"A 	c #071216",
"B 	c #020607",
"C 	c #020506",
"D 	c #020405",
"E 	c #317B90",
"F 	c #327D93",
"G 	c #24515E",
"H 	c #24525F",
"I 	c #367A8E",
"J 	c #398297",
"K 	c #3F899D",
"L 	c #070F11",
"M 	c #102328",
"N 	c #2B5E6C",
"O 	c #3E879B",
"P 	c #336E7E",
"Q 	c #356F80",
"R 	c #091215",
"S 	c #367182",
"T 	c #448DA3",
"U 	c #3D7F93",
"V 	c #2B5A68",
"W 	c #102126",
"X 	c #112328",
"Y 	c #254D59",
"Z 	c #428A9F",
"` 	c #397688",
" .	c #0D1B20",
"..	c #3A7788",
"+.	c #172F35",
"@.	c #050B0C",
"#.	c #19343C",
"$.	c #387182",
"%.	c #162D33",
"&.	c #050A0C",
"*.	c #04080A",
"=.	c #102227",
"-.	c #316473",
". . . . . . . . . . . . . . . . . . . . . . . . . . . . . . . . . . . . . . . . . . . . . . . . . . . . . . . . . . . . ",
". + + + + + + + + + + + + + + + + + + + + + + + + + + + + + + + + + + + + + + + + + + + + + + + + + + + + + + + + + + . ",
". + @ @ @ @ @ @ @ @ @ @ @ @ @ @ @ @ @ @ @ @ @ @ @ @ @ @ @ @ @ @ @ @ @ @ @ @ @ @ @ @ @ @ @ @ @ @ @ @ @ @ @ @ @ @ @ @ + . ",
". + # # # # # # # # # # # # # # # # # # # # # # # # # # # # # # # # # # # # # # # # # # # # # # # # # # # # # # # # + . ",
". + $ $ $ $ $ $ $ $ $ $ $ $ $ $ $ $ $ $ $ $ $ $ $ $ $ $ $ $ $ $ $ $ $ $ $ $ $ $ $ $ $ $ $ $ $ $ $ $ $ $ $ $ $ $ $ $ + . ",
". + % % % % % % % % % % % % % % % % % % % % % % % % % % % % % % % % % % % % % % % % % % % % % % % % % % % % % % % % + . ",
". + & & & & & & & & & & & & & & & & & & & & & & & & & & & & & & & & & & & & & & & & & & & & & & & & & & & & & & & & + . ",
". + * * * * * * * = = - ; * * * * ; - = = * * * * * * * * * * * * * * * * * * * * * * * * * * * * * * * * * * * * * + . ",
". + > > > > > > > = = = , > > > > ' = = = > > > > > > > > > > > > > > > > > > > > > > > > > > > > > > > > > > > > > + . ",
". + ) ) ) ) ) ) ) = = ! ~ { ) ) { ~ ] = = ) ) ) ) ) ) ) ) ) ) ) ) ) ) ) ) ) ) ) ) ) ) ) ) ) ) ) ) ) ) ) ) ) ) ) ) ) + . ",
". + ^ ^ ^ ^ ^ ^ ^ = = / = ( ^ ^ ( = _ = = ^ ^ ^ : < [ } | / ^ ^ ^ = = 1 2 3 4 5 6 ^ ^ = = ^ ^ ^ ^ = = ^ ^ ^ ^ ^ ^ ^ + . ",
". + 7 7 7 7 7 7 7 = = 7 8 9 0 a 9 b 7 = = 7 7 c d e f g h = i 7 7 = = 8 j k l = m 7 7 = = 7 7 7 7 = = 7 7 7 7 7 7 7 + . ",
". + n n n n n n n = = n o = p q = r n = = n n s = t n n u = v n n = = w n n x = ~ n n = y n n n n = = n n n n n n n + . ",
". + 7 7 7 7 7 7 7 = = 7 z A B C A z 7 = = 7 7 D = = = = = = y 7 7 = = E 7 7 F = = 7 7 = y 7 7 7 7 = = 7 7 7 7 7 7 7 + . ",
". + ^ ^ ^ ^ ^ ^ ^ = = ^ ^ G = = H ^ ^ = = ^ ^ C = I ^ ^ ^ ^ ^ ^ ^ = = ^ ^ ^ ^ = = ^ ^ = y ^ ^ ^ J = = ^ ^ ^ ^ ^ ^ ^ + . ",
". + ) ) ) ) ) ) ) = = ) ) K L L K ) ) = = ) ) M = N ) ) ) ) ) ) ) = = ) ) ) ) = = ) ) ~ = O ) ) P = = ) ) ) ) ) ) ) + . ",
". + > > > > > > > = = > > > > > > > > = = > > Q ~ R S T U V W > > = = > > > > = = > > X = Y Z `  .= = > > > > > > > + . ",
". + * * * * * * * = = * * * * * * * * = = * * * ..+.@.- L #.$.* * = = * * * * = = * * ; %.&.*.=.-.= = * * * * * * * + . ",
". + & & & & & & & & & & & & & & & & & & & & & & & & & & & & & & & & & & & & & & & & & & & & & & & & & & & & & & & & + . ",
". + % % % % % % % % % % % % % % % % % % % % % % % % % % % % % % % % % % % % % % % % % % % % % % % % % % % % % % % % + . ",
". + $ $ $ $ $ $ $ $ $ $ $ $ $ $ $ $ $ $ $ $ $ $ $ $ $ $ $ $ $ $ $ $ $ $ $ $ $ $ $ $ $ $ $ $ $ $ $ $ $ $ $ $ $ $ $ $ + . ",
". + # # # # # # # # # # # # # # # # # # # # # # # # # # # # # # # # # # # # # # # # # # # # # # # # # # # # # # # # + . ",
". + @ @ @ @ @ @ @ @ @ @ @ @ @ @ @ @ @ @ @ @ @ @ @ @ @ @ @ @ @ @ @ @ @ @ @ @ @ @ @ @ @ @ @ @ @ @ @ @ @ @ @ @ @ @ @ @ + . ",
". + + + + + + + + + + + + + + + + + + + + + + + + + + + + + + + + + + + + + + + + + + + + + + + + + + + + + + + + + + . ",
". . . . . . . . . . . . . . . . . . . . . . . . . . . . . . . . . . . . . . . . . . . . . . . . . . . . . . . . . . . . "};
