/* XPM */
static char * workspacebuttonactive_xpm[] = {
"1 27 13 1",
" 	c None",
".	c #7AE1FF",
"+	c #49A6C1",
"@	c #5AA7BD",
"#	c #57A4BA",
"$	c #529FB5",
"%	c #4E9BB1",
"&	c #4995AB",
"*	c #4691A7",
"=	c #418CA2",
"-	c #3C869B",
";	c #358298",
">	c #30798E",
".",
"+",
"@",
"#",
"$",
"%",
"%",
"&",
"*",
"=",
"-",
";",
">",
">",
">",
";",
"-",
"=",
"*",
"&",
"%",
"%",
"$",
"#",
"@",
"+",
"."};
