/* XPM */
static char * taskbuttonbg_xpm[] = {
"1 25 3 1",
" 	c None",
".	c #FFFFFF",
"+	c #1A1A1A",
".",
".",
".",
"+",
"+",
"+",
"+",
"+",
"+",
"+",
"+",
"+",
"+",
"+",
"+",
"+",
"+",
"+",
"+",
"+",
"+",
"+",
"+",
"+",
"+"};
