/* XPM */
static char * close_xpm[] = {
"21 32 24 1",
" 	c None",
".	c #98A4B1",
"+	c #8E9CA9",
"@	c #000000",
"#	c #83909D",
"$	c #667380",
"%	c #76828F",
"&	c #B6C2CB",
"*	c #CFD1D4",
"=	c #6D7B8A",
"-	c #A8B4BF",
";	c #64717E",
">	c #99A6B1",
",	c #5C6772",
"'	c #7D8893",
")	c #363F47",
"!	c #707B85",
"~	c #3E4852",
"{	c #4B5763",
"]	c #566370",
"^	c #5F6D7C",
"/	c #6D7D8E",
"(	c #78899A",
"_	c #8294A6",
".....................",
"++++++++@@@@@++++++++",
"######@@$$$$$@@######",
"%%%%%@@$@&*&@$@@%%%%%",
"=====@$@-----@$@=====",
";;;;@$@>>>>>>>@$@;;;;",
",,,,@$'''''''''$@,,,,",
"))))@$!!!!!!!!!$@))))",
"~~~~@$'''''''''$@~~~~",
"{{{{@$@>>>>>>>@$@{{{{",
"]]]]]@$@-----@$@]]]]]",
"^^^^^@@$@&*&@$@@^^^^^",
"//////@@$$$$$@@//////",
"((((((((@@@@@((((((((",
"_____________________",
"@@@@@@@@@@@@@@@@@@@@@",
".....................",
"++++++++@@@@@++++++++",
"######@@$$$$$@@######",
"%%%%%@@$@&*&@$@@%%%%%",
"=====@$@-----@$@=====",
";;;;@$@>>>>>>>@$@;;;;",
",,,,@$'''''''''$@,,,,",
"))))@$!!!!!!!!!$@))))",
"~~~~@$'''''''''$@~~~~",
"{{{{@$@>>>>>>>@$@{{{{",
"]]]]]@$@-----@$@]]]]]",
"^^^^^@@$@&*&@$@@^^^^^",
"//////@@$$$$$@@//////",
"((((((((@@@@@((((((((",
"_____________________",
"@@@@@@@@@@@@@@@@@@@@@"};
