/* XPM */
static char * m_xpm[] = {
"15 20 25 1",
" 	c None",
".	c #212121",
"+	c #243E44",
"@	c #7AE1FF",
"#	c #49A6C1",
"$	c #57A4BA",
"%	c #529FB5",
"&	c #4E9BB1",
"*	c #418CA2",
"=	c #3C869B",
"-	c #000000",
";	c #020506",
">	c #0A181B",
",	c #071012",
"'	c #010303",
")	c #060F11",
"!	c #285B69",
"~	c #30798E",
"{	c #1C4855",
"]	c #266273",
"^	c #276374",
"/	c #050C0F",
"(	c #2E7488",
"_	c #2F778C",
":	c #4691A7",
"...............",
"+++++++++++++++",
"@@@@@@@@@@@@@@@",
"###############",
"$$$$$$$$$$$$$$$",
"%%%%%%%%%%%%%%%",
"&&&&&&&&&&&&&&&",
"***************",
"=----;>,')!====",
"~--{]--{^-/~~~~",
"~--(_--(~--~~~~",
"=--==--==--====",
"*--**--**--****",
":--::--::--::::",
"%%%%%%%%%%%%%%%",
"$$$$$$$$$$$$$$$",
"###############",
"@@@@@@@@@@@@@@@",
"+++++++++++++++",
"..............."};
