/* XPM */
static char * n3_xpm[] = {
"8 20 45 1",
" 	c None",
".	c #212121",
"+	c #243E44",
"@	c #7AE1FF",
"#	c #49A6C1",
"$	c #57A4BA",
"%	c #529FB5",
"&	c #4E9BB1",
"*	c #356978",
"=	c #102024",
"-	c #010304",
";	c #050A0B",
">	c #12252B",
",	c #397283",
"'	c #418CA2",
")	c #163139",
"!	c #377689",
"~	c #3F889E",
"{	c #2C606F",
"]	c #000000",
"^	c #050C0D",
"/	c #3C869B",
"(	c #3A8196",
"_	c #285967",
":	c #0E2025",
"<	c #30798E",
"[	c #050E11",
"}	c #29697B",
"|	c #2D7286",
"1	c #183D47",
"2	c #0B1C21",
"3	c #398094",
"4	c #020506",
"5	c #17323A",
"6	c #37778A",
"7	c #3E879C",
"8	c #244F5B",
"9	c #11252B",
"0	c #4691A7",
"a	c #2D5E6D",
"b	c #0B181C",
"c	c #010303",
"d	c #070F11",
"e	c #1A373F",
"f	c #3F8397",
"........",
"++++++++",
"@@@@@@@@",
"########",
"$$$$$$$$",
"%%%%%%%%",
"&*=-;>,&",
"')!~{]^'",
"///(_]:/",
"<<]]][}<",
"<<<|1]2<",
"////3]4/",
"'5678]9'",
"0abcdef0",
"%%%%%%%%",
"$$$$$$$$",
"########",
"@@@@@@@@",
"++++++++",
"........"};
