/* XPM */
static char * applications_internet_xpm[] = {
"16 16 153 2",
"  	c None",
". 	c #E45009",
"+ 	c #C5AFA1",
"@ 	c #ADD5E0",
"# 	c #C1E1E8",
"$ 	c #5295B5",
"% 	c #92C0D1",
"& 	c #B8DCE3",
"* 	c #B2D7E0",
"= 	c #F26B15",
"- 	c #DF5C19",
"; 	c #BBBDBD",
"> 	c #B1D8E6",
", 	c #4690B5",
"' 	c #4A8FB0",
") 	c #B0D4DF",
"! 	c #BEDFE6",
"~ 	c #A3CAD5",
"{ 	c #E8550C",
"] 	c #EC5A0E",
"^ 	c #EC5A0F",
"/ 	c #F66D16",
"( 	c #FA7318",
"_ 	c #E75E1C",
": 	c #DED4CC",
"< 	c #4894BB",
"[ 	c #448DB2",
"} 	c #498BAC",
"| 	c #BBDDE6",
"1 	c #8BB6C5",
"2 	c #5F91A5",
"3 	c #F36312",
"4 	c #FB6F16",
"5 	c #CD4F21",
"6 	c #4998BF",
"7 	c #4691B6",
"8 	c #4187AB",
"9 	c #6CA2BA",
"0 	c #CCE9EF",
"a 	c #B7DBE3",
"b 	c #E74F0C",
"c 	c #EB540E",
"d 	c #F76512",
"e 	c #FC6A14",
"f 	c #DD5418",
"g 	c #688DA5",
"h 	c #4B9AC2",
"i 	c #4792B8",
"j 	c #4289AD",
"k 	c #3C7FA0",
"l 	c #D4EEF4",
"m 	c #C2E2E9",
"n 	c #ABD3DC",
"o 	c #72B6D4",
"p 	c #B2DBE8",
"q 	c #63B2D9",
"r 	c #F45B0F",
"s 	c #DD5118",
"t 	c #6A91AA",
"u 	c #4EA0CA",
"v 	c #4C9BC3",
"w 	c #4793B9",
"x 	c #428AAE",
"y 	c #3C7FA1",
"z 	c #D8F1F6",
"A 	c #C7E6EC",
"B 	c #ADD4DC",
"C 	c #50A3CD",
"D 	c #9FD0E4",
"E 	c #5AACD4",
"F 	c #D64716",
"G 	c #4D9FC8",
"H 	c #4A99C0",
"I 	c #4692B8",
"J 	c #4189AD",
"K 	c #3C7F9F",
"L 	c #AFD3DE",
"M 	c #C9E7ED",
"N 	c #AED4DD",
"O 	c #4E9FC8",
"P 	c #6FB4D4",
"Q 	c #ADD9EA",
"R 	c #B1B9C0",
"S 	c #7DBEDC",
"T 	c #4B9BC4",
"U 	c #4995BC",
"V 	c #458FB4",
"W 	c #4086A9",
"X 	c #3B7D9D",
"Y 	c #5389A2",
"Z 	c #97BDC9",
"` 	c #477689",
" .	c #4B9AC1",
"..	c #4C9DC5",
"+.	c #B2DBE9",
"@.	c #DDF5FA",
"#.	c #E2F8FD",
"$.	c #BEE2EF",
"%.	c #66A9C9",
"&.	c #4591B6",
"*.	c #3E82A4",
"=.	c #387897",
"-.	c #336D8A",
";.	c #2C617B",
">.	c #25546A",
",.	c #4895BB",
"'.	c #4997BD",
").	c #ACD4E3",
"!.	c #D7F0F6",
"~.	c #DEF5FA",
"{.	c #E1F8FC",
"].	c #CFEBF4",
"^.	c #74ADC7",
"/.	c #488BAB",
"(.	c #3A7C9C",
"_.	c #357391",
":.	c #306883",
"<.	c #2A5C74",
"[.	c #235267",
"}.	c #458EB3",
"|.	c #5D9FBE",
"1.	c #C3E3EB",
"2.	c #D5EFF4",
"3.	c #DAF3F8",
"4.	c #DCF4F9",
"5.	c #9EC6D4",
"6.	c #377593",
"7.	c #326C88",
"8.	c #2C617A",
"9.	c #25556C",
"0.	c #4187A9",
"a.	c #68A2BC",
"b.	c #C5E4EB",
"c.	c #CFEBF1",
"d.	c #BDDDE6",
"e.	c #3F7B97",
"f.	c #2D647D",
"g.	c #275970",
"h.	c #235167",
"i.	c #5490AA",
"j.	c #ABD2DB",
"k.	c #B5D9E1",
"l.	c #689BB0",
"m.	c #346F8D",
"n.	c #316A85",
"o.	c #2D637C",
"p.	c #285A71",
"q.	c #245368",
"r.	c #8CBDC8",
"s.	c #669AAC",
"t.	c #306984",
"u.	c #2E657F",
"v.	c #2B5F78",
"                                ",
"        . + @ # $ % &           ",
"      * = - ; > , ' ) ! ~       ",
"{ ] ] ^ / ( _ : < [ } | 1 2     ",
"3 4 4 4 4 4 4 5 6 7 8 9 0 a     ",
"b c c c d e f g h i j k l m n   ",
"  o p q r s t u v w x y z A B   ",
"  C D E F t C G H I J K L M N   ",
"  O P Q R S O T U V W X Y Z `   ",
"   ...+.@.#.$.%.&.x *.=.-.;.>.  ",
"  ,.'.).!.~.{.].^./.(._.:.<.[.  ",
"    }.|.1.2.3.4.4.5.6.7.8.9.    ",
"    0.W a.b.0 c.d.e.7.f.g.h.    ",
"      k i.j.k.l.m.n.o.p.q.      ",
"          r.s.t.u.v.p.          ",
"                                "};
