/* XPM */
static char * view_refresh_xpm[] = {
"16 16 101 2",
"  	c None",
". 	c #568FC7",
"+ 	c #5992C9",
"@ 	c #5590C7",
"# 	c #548FC6",
"$ 	c #5891C7",
"% 	c #5892C8",
"& 	c #548FC5",
"* 	c #5891C8",
"= 	c #8AB3DA",
"- 	c #B5CFE7",
"; 	c #C7DBED",
"> 	c #CADDEE",
", 	c #BCD4E9",
"' 	c #99BBDE",
") 	c #5A94C8",
"! 	c #5C94CA",
"~ 	c #538EC6",
"{ 	c #5E94CA",
"] 	c #B0CBE5",
"^ 	c #BCD3EA",
"/ 	c #B3CDE7",
"( 	c #B6CFE7",
"_ 	c #B4CEE7",
": 	c #B9D1E8",
"< 	c #BAD2E8",
"[ 	c #7AA7D4",
"} 	c #AFCBE4",
"| 	c #5790C7",
"1 	c #A8C5E2",
"2 	c #AECAE5",
"3 	c #AAC8E3",
"4 	c #9DBFDF",
"5 	c #98BBDD",
"6 	c #AFCAE5",
"7 	c #ABC8E4",
"8 	c #B9D2E8",
"9 	c #BAD2E9",
"0 	c #79A8D3",
"a 	c #AAC7E3",
"b 	c #A2C1E0",
"c 	c #A1C1E0",
"d 	c #6198CB",
"e 	c #5891C9",
"f 	c #87B0D7",
"g 	c #9EBFDF",
"h 	c #5791C8",
"i 	c #94B8DB",
"j 	c #A0C0E0",
"k 	c #5D94C9",
"l 	c #5691C8",
"m 	c #A5C4E1",
"n 	c #548EC6",
"o 	c #96B9DC",
"p 	c #90B5DA",
"q 	c #83ADD6",
"r 	c #5892C7",
"s 	c #548FC7",
"t 	c #8EB4D9",
"u 	c #8AB1D7",
"v 	c #7DA9D3",
"w 	c #5591C6",
"x 	c #5590C6",
"y 	c #80ABD4",
"z 	c #86AED6",
"A 	c #88AFD7",
"B 	c #5791C9",
"C 	c #548EC7",
"D 	c #6B9DCE",
"E 	c #85ADD6",
"F 	c #84ADD5",
"G 	c #7BA7D2",
"H 	c #578FC6",
"I 	c #568DC2",
"J 	c #528BBF",
"K 	c #6B9CCB",
"L 	c #81A8D0",
"M 	c #83ACD5",
"N 	c #80AAD4",
"O 	c #74A1D0",
"P 	c #73A2D0",
"Q 	c #7EA9D3",
"R 	c #81A9D1",
"S 	c #79A4CC",
"T 	c #568EC1",
"U 	c #5790C5",
"V 	c #7AA6D2",
"W 	c #7BA7D3",
"X 	c #548DC3",
"Y 	c #6599CA",
"Z 	c #77A5D1",
"` 	c #78A5D2",
" .	c #6598CA",
"..	c #548DC4",
"+.	c #406B96",
"@.	c #4577A5",
"#.	c #528ABF",
"$.	c #558FC6",
"%.	c #538DC5",
"&.	c #538BBE",
"*.	c #4677A6",
"                                ",
"          . + @ # $ %       &   ",
"        * = - ; > , ' ) # ! ~   ",
"      { ] ^ / - ( _ : < [ } ~   ",
"    | 1 2 3 ( 4 5 6 _ 7 8 9 ~   ",
"    0 a b c d * e . f 6 g ] ~   ",
"  h i 5 j k       l i m m m ~   ",
"  n o p q r     & ~ ~ ~ ~ ~ s   ",
"  n t u v w                     ",
"  x y z A B                     ",
"  C D E F G H I J ~ K L         ",
"    # G M M N O P Q M R S T     ",
"      U V M M M M M M W U       ",
"        X Y Z N N `  ...+.      ",
"          @.#.$.%.&.*.          ",
"                                "};
