/* XPM */
static char * a_xpm[] = {
"10 20 34 1",
" 	c None",
".	c #FFFFFF",
"+	c #D0D0D0",
"@	c #585858",
"#	c #282828",
"$	c #343434",
"%	c #939393",
"&	c #3B3B3B",
"*	c #1A1A1A",
"=	c #D6D6D6",
"-	c #1E1E1E",
";	c #5B5B5B",
">	c #636363",
",	c #1F1F1F",
"'	c #6B6B6B",
")	c #ABABAB",
"!	c #CDCDCD",
"~	c #474747",
"{	c #F2F2F2",
"]	c #2F2F2F",
"^	c #686868",
"/	c #B4B4B4",
"(	c #D5D5D5",
"_	c #D2D2D2",
":	c #1D1D1D",
"<	c #1C1C1C",
"[	c #5D5D5D",
"}	c #656565",
"|	c #232323",
"1	c #545454",
"2	c #262626",
"3	c #363636",
"4	c #9C9C9C",
"5	c #5F5F5F",
"..........",
"..........",
"..........",
"..........",
"..........",
"..........",
"..........",
"..........",
"..........",
"..+@#$%&*.",
".=-*;>,**.",
".'*)..!**.",
".~*{...]*.",
".^*/..(**.",
"._:<[}|**.",
"..!1234&*.",
"..........",
"..........",
"..........",
"5555555555"};
