/* XPM */
static char * n8_xpm[] = {
"10 20 47 1",
" 	c None",
".	c #FFFFFF",
"+	c #F8F8F8",
"@	c #838383",
"#	c #2F2F2F",
"$	c #2D2D2D",
"%	c #787878",
"&	c #F3F3F3",
"*	c #1A1A1A",
"=	c #1E1E1E",
"-	c #202020",
";	c #757575",
">	c #323232",
",	c #D4D4D4",
"'	c #DCDCDC",
")	c #2A2A2A",
"!	c #3B3B3B",
"~	c #B4B4B4",
"{	c #BBBBBB",
"]	c #363636",
"^	c #AAAAAA",
"/	c #D9D9D9",
"(	c #3C3C3C",
"_	c #272727",
":	c #282828",
"<	c #373737",
"[	c #D6D6D6",
"}	c #525252",
"|	c #8C8C8C",
"1	c #FCFCFC",
"2	c #8B8B8B",
"3	c #2B2B2B",
"4	c #F1F1F1",
"5	c #F0F0F0",
"6	c #2C2C2C",
"7	c #555555",
"8	c #909090",
"9	c #FDFDFD",
"0	c #929292",
"a	c #565656",
"b	c #CFCFCF",
"c	c #1D1D1D",
"d	c #CECECE",
"e	c #5C5C5C",
"f	c #5B5B5B",
"g	c #D2D2D2",
"h	c #5F5F5F",
"..........",
"..........",
"..........",
"..........",
"..........",
"..+@#$%&..",
"..@*=-*;..",
"..>*,'*)..",
"..!*~{*]..",
"..~****^..",
"./(*_:*<[.",
".}*|112*}.",
".3*4..5*6.",
".7*8990*a.",
".bc*6$*cd.",
"..,e63fg..",
"..........",
"..........",
"..........",
"hhhhhhhhhh"};
