/* XPM */
static char * percent_xpm[] = {
"10 20 48 1",
" 	c None",
".	c #FFFFFF",
"+	c #E3E3E3",
"@	c #575757",
"#	c #232323",
"$	c #4A4A4A",
"%	c #D4D4D4",
"&	c #BABABA",
"*	c #262626",
"=	c #F1F1F1",
"-	c #626262",
";	c #1A1A1A",
">	c #929292",
",	c #1D1D1D",
"'	c #404040",
")	c #4E4E4E",
"!	c #858585",
"~	c #515151",
"{	c #CECECE",
"]	c #2E2E2E",
"^	c #C8C8C8",
"/	c #1F1F1F",
"(	c #E8E8E8",
"_	c #CDCDCD",
":	c #313131",
"<	c #B5B5B5",
"[	c #5D5D5D",
"}	c #777777",
"|	c #FCFCFC",
"1	c #F9F9F9",
"2	c #D6D6D6",
"3	c #DFDFDF",
"4	c #6D6D6D",
"5	c #6A6A6A",
"6	c #434343",
"7	c #222222",
"8	c #535353",
"9	c #E2E2E2",
"0	c #D5D5D5",
"a	c #333333",
"b	c #AFAFAF",
"c	c #7C7C7C",
"d	c #5C5C5C",
"e	c #393939",
"f	c #939393",
"g	c #ECECEC",
"h	c #212121",
"i	c #454545",
"..........",
"..........",
"..........",
"..........",
"..........",
"..........",
"+@#$%.&*=.",
"-;>,'.)!..",
"~;{*]^/(..",
"_:;*<[}...",
".|+12,3...",
"....45^678",
"...9,0a#b;",
"...cd.e/f;",
"..gh^.{ih8",
"..........",
"..........",
"..........",
"..........",
".........."};
