/* XPM */
static char * slash_xpm[] = {
"10 20 29 1",
" 	c None",
".	c #FFFFFF",
"+	c #F3F3F3",
"@	c #242424",
"#	c #DFDFDF",
"$	c #A8A8A8",
"%	c #515151",
"&	c #525252",
"*	c #A6A6A6",
"=	c #E1E1E1",
"-	c #232323",
";	c #F1F1F1",
">	c #8D8D8D",
",	c #6C6C6C",
"'	c #FEFEFE",
")	c #383838",
"!	c #C1C1C1",
"~	c #C8C8C8",
"{	c #323232",
"]	c #FCFCFC",
"^	c #727272",
"/	c #878787",
"(	c #F5F5F5",
"_	c #262626",
":	c #DBDBDB",
"<	c #ADADAD",
"[	c #4C4C4C",
"}	c #C5C5C5",
"|	c #CECECE",
"..........",
"..........",
"..........",
"..........",
".....+@#..",
".....$%...",
".....&*...",
"....=-;...",
"....>,....",
"...')!....",
"...~{]....",
"...^/.....",
"..(_:.....",
"..<[......",
"..}|......",
"..........",
"..........",
"..........",
"..........",
".........."};
