/* XPM */
static char * maximizeI_xpm[] = {
"18 38 3 1",
" 	c None",
".	c #444444",
"+	c #FFFFFF",
"..................",
"..................",
"..................",
"..................",
"....+++++++++.....",
"....+++++++++.....",
"....++.....++.....",
"....++.....++.....",
"....++.....++.....",
"....++.....++.....",
"....++.....++.....",
"....+++++++++.....",
"....+++++++++.....",
"..................",
"..................",
"..................",
"..................",
"..................",
"..................",
"..................",
"..................",
"..................",
"..................",
"..................",
"....+++++++++.....",
"....+++++++++.....",
"....++.....++.....",
"....++.....++.....",
"....++.....++.....",
"....++.....++.....",
"....++.....++.....",
"....+++++++++.....",
"....+++++++++.....",
"..................",
"..................",
"..................",
"..................",
".................."};
