/* XPM */
static char * app_11x11_xpm[] = {
"16 16 14 1",
" 	c None",
".	c #555753",
"+	c #9FA09E",
"@	c #A8A9A7",
"#	c #81837E",
"$	c #878984",
"%	c #888A85",
"&	c #FFFFFF",
"*	c #E5E5E3",
"=	c #E3E4E0",
"-	c #DFE0DD",
";	c #E0E1DE",
">	c #DFDFDC",
",	c #868783",
"                ",
"................",
".+@@@@@@@@@@@@+.",
".@############@.",
".@$$$$$$$$$$$$@.",
"%&************&%",
"%&************&%",
"%&============&%",
"%&============&%",
"%&------------&%",
"%&------------&%",
"%&;;;;;;;;;;;;&%",
"%&>>>>>>>>>>>>&%",
"%&&&&&&&&&&&&&&%",
"%%%%%%%%%%,%%%%%",
"                "};
