/* XPM */
static char * gimp_11x11_xpm[] = {
"20 20 84 1",
" 	c None",
".	c #050505",
"+	c #000000",
"@	c #0D0D0D",
"#	c #151515",
"$	c #272727",
"%	c #0A0A0A",
"&	c #1B1B1B",
"*	c #121212",
"=	c #4E4E4E",
"-	c #C2C2C2",
";	c #848484",
">	c #353535",
",	c #B8B8B8",
"'	c #CCCCCC",
")	c #626262",
"!	c #2F2F2F",
"~	c #181818",
"{	c #0F0F0F",
"]	c #131313",
"^	c #313131",
"/	c #BEBEBE",
"(	c #F7F7F7",
"_	c #666666",
":	c #A5A5A5",
"<	c #F2F2F2",
"[	c #D2D2D2",
"}	c #7E7E7E",
"|	c #373737",
"1	c #222222",
"2	c #1A1A1A",
"3	c #111111",
"4	c #141414",
"5	c #FFFFFF",
"6	c #717171",
"7	c #070707",
"8	c #969696",
"9	c #434343",
"0	c #A0A0A0",
"a	c #818181",
"b	c #868686",
"c	c #424242",
"d	c #232323",
"e	c #1D1D1D",
"f	c #171717",
"g	c #7B7B7B",
"h	c #5B5B5B",
"i	c #585858",
"j	c #9D9D9D",
"k	c #444444",
"l	c #575757",
"m	c #282828",
"n	c #212121",
"o	c #191919",
"p	c #030303",
"q	c #383838",
"r	c #3A3A3A",
"s	c #3D3D3D",
"t	c #2A2A2A",
"u	c #1A1A19",
"v	c #1E1E1E",
"w	c #2B2B2B",
"x	c #2E2E2E",
"y	c #2C2C2C",
"z	c #100F0D",
"A	c #001E4D",
"B	c #061532",
"C	c #0D0D0C",
"D	c #101010",
"E	c #2D2D2D",
"F	c #161616",
"G	c #0D1629",
"H	c #00419E",
"I	c #004DB8",
"J	c #00245F",
"K	c #090909",
"L	c #1C1C1C",
"M	c #090807",
"N	c #001746",
"O	c #02429E",
"P	c #B3B1AE",
"Q	c #737373",
"R	c #6C6C6C",
"S	c #020202",
"                    ",
"                    ",
"                    ",
"                    ",
"               .    ",
"    +         @#    ",
"    $%       &#*    ",
"    =-;>,')$!~{]    ",
" ^# /(_:<[}|123]    ",
"456789+0ab#cd&**    ",
"@;e+fghijklmno#@    ",
" p++.|q|rstue#o     ",
"  ++vwxydezAB*C     ",
"    DyEnvF#GHIJ     ",
"      K2eLo]MNOP    ",
"                QRS ",
"                 @+ ",
"                    ",
"                    ",
"                    "};
