/* XPM */
static char * midori_11x11_xpm[] = {
"48 48 824 2",
"  	c None",
". 	c #6DA5C3",
"+ 	c #74A3C2",
"@ 	c #90B17D",
"# 	c #AAC250",
"$ 	c #A5C153",
"% 	c #A6C26E",
"& 	c #90B355",
"* 	c #528CAE",
"= 	c #629AB5",
"- 	c #6694A8",
"; 	c #6697A6",
"> 	c #598A99",
", 	c #4F8090",
"' 	c #4D7A83",
") 	c #4F7D76",
"! 	c #59856A",
"~ 	c #83B389",
"{ 	c #B0CB86",
"] 	c #CCDD9B",
"^ 	c #B9CE78",
"/ 	c #97B95A",
"( 	c #6293AE",
"_ 	c #4D849E",
": 	c #4B8EA8",
"< 	c #4FB1D5",
"[ 	c #4093B1",
"} 	c #39768B",
"| 	c #3F798C",
"1 	c #457B8C",
"2 	c #467B8C",
"3 	c #467A8C",
"4 	c #457D92",
"5 	c #5FB6D9",
"6 	c #54AED1",
"7 	c #5EA397",
"8 	c #93BA6D",
"9 	c #C9DB6E",
"0 	c #B6CF62",
"a 	c #B0CA74",
"b 	c #67A9D1",
"c 	c #67ABCF",
"d 	c #357D9F",
"e 	c #3DA6D4",
"f 	c #318AAF",
"g 	c #307894",
"h 	c #4FB4DA",
"i 	c #4390AC",
"j 	c #3B778B",
"k 	c #3F798D",
"l 	c #41798B",
"m 	c #417889",
"n 	c #498CA1",
"o 	c #59AECB",
"p 	c #60C7EB",
"q 	c #53BAE4",
"r 	c #449FC2",
"s 	c #6FA574",
"t 	c #BBD24D",
"u 	c #ADCA3C",
"v 	c #B8D063",
"w 	c #ADC676",
"x 	c #5893B8",
"y 	c #4E94BD",
"z 	c #28749D",
"A 	c #3698C7",
"B 	c #3491BB",
"C 	c #42BBED",
"D 	c #3FA9D2",
"E 	c #48B2DA",
"F 	c #377D98",
"G 	c #36758D",
"H 	c #3C7C94",
"I 	c #4A96B1",
"J 	c #5DBDDD",
"K 	c #53ABCA",
"L 	c #53B2D4",
"M 	c #58C4EC",
"N 	c #50C0EA",
"O 	c #48BCE9",
"P 	c #3899C5",
"Q 	c #7CA66E",
"R 	c #B2CD43",
"S 	c #A8C630",
"T 	c #B4CE4B",
"U 	c #B1C973",
"V 	c #5386A9",
"W 	c #3B7599",
"X 	c #2D83B6",
"Y 	c #3FAEED",
"Z 	c #41B4EF",
"` 	c #41B5EC",
" .	c #40B5E9",
"..	c #42BAEC",
"+.	c #43B4E1",
"@.	c #307792",
"#.	c #357D98",
"$.	c #52BBE2",
"%.	c #5AC6EF",
"&.	c #59C4EC",
"*.	c #54C4ED",
"=.	c #4AB3DB",
"-.	c #47BBE8",
";.	c #40B4E2",
">.	c #318AB1",
",.	c #2B6779",
"'.	c #A8C365",
").	c #AECB38",
"!.	c #A8C730",
"~.	c #AAC838",
"{.	c #B4CC66",
"].	c #96B565",
"^.	c #4F84AA",
"/.	c #2D6A96",
"(.	c #348FCB",
"_.	c #3DA7E9",
":.	c #3799D1",
"<.	c #2F80AD",
"[.	c #3FB2EB",
"}.	c #40B3E9",
"|.	c #41B5EA",
"1.	c #389EC6",
"2.	c #42AFD9",
"3.	c #4BBFEB",
"4.	c #4DBEEA",
"5.	c #4CBEEA",
"6.	c #49BEEB",
"7.	c #3DA7D0",
"8.	c #3AA4CF",
"9.	c #399FCD",
"0.	c #266B8B",
"a.	c #22668E",
"b.	c #569275",
"c.	c #C2D85C",
"d.	c #ABC933",
"e.	c #A7C632",
"f.	c #A5C431",
"g.	c #B5CD62",
"h.	c #84A955",
"i.	c #5187AF",
"j.	c #2F628D",
"k.	c #348FD3",
"l.	c #3BA0E7",
"m.	c #3DA6EA",
"n.	c #296F9B",
"o.	c #25668C",
"p.	c #2E80AC",
"q.	c #3EACE4",
"r.	c #40B2E9",
"s.	c #40B4E9",
"t.	c #41B7EB",
"u.	c #41B9EA",
"v.	c #41B9E9",
"w.	c #43BAEA",
"x.	c #42B9E9",
"y.	c #2E83A6",
"z.	c #3DACDC",
"A.	c #2E81A7",
"B.	c #3EADE1",
"C.	c #3BA2D5",
"D.	c #3593C4",
"E.	c #2C7CAC",
"F.	c #AEC756",
"G.	c #B0CD37",
"H.	c #AAC834",
"I.	c #A5C531",
"J.	c #A0C12B",
"K.	c #BACF72",
"L.	c #578EB7",
"M.	c #366996",
"N.	c #1F5888",
"O.	c #246190",
"P.	c #2C78B1",
"Q.	c #3186C0",
"R.	c #25648C",
"S.	c #24638A",
"T.	c #24658B",
"U.	c #3590C3",
"V.	c #40B0EB",
"W.	c #3FB1E8",
"X.	c #40B5EA",
"Y.	c #41B6EA",
"Z.	c #3FB2E7",
"`.	c #3CA7D9",
" +	c #379ACB",
".+	c #3696C7",
"++	c #2A739B",
"@+	c #2E80AE",
"#+	c #1F5D8C",
"$+	c #799D52",
"%+	c #BCD549",
"&+	c #ACC935",
"*+	c #A8C733",
"=+	c #A3C32E",
"-+	c #A1C12E",
";+	c #B0C86B",
">+	c #376898",
",+	c #20578A",
"'+	c #225A8B",
")+	c #225B8A",
"!+	c #235D8B",
"~+	c #24628E",
"{+	c #235F89",
"]+	c #286D99",
"^+	c #2D7CAC",
"/+	c #2F80B1",
"(+	c #3DA7E3",
"_+	c #3FADE9",
":+	c #3FAFE8",
"<+	c #40B0E9",
"[+	c #40B1E9",
"}+	c #389BCF",
"|+	c #276C92",
"1+	c #24648B",
"2+	c #205C88",
"3+	c #5A844E",
"4+	c #C2DA54",
"5+	c #AECB36",
"6+	c #A9C834",
"7+	c #A5C430",
"8+	c #A0C12C",
"9+	c #A2C137",
"0+	c #A0BE67",
"a+	c #4677A4",
"b+	c #24578B",
"c+	c #21568A",
"d+	c #21588B",
"e+	c #225A8A",
"f+	c #235C8A",
"g+	c #225D8A",
"h+	c #266695",
"i+	c #2F80B7",
"j+	c #3A9DDE",
"k+	c #3BA0DF",
"l+	c #3EA8EA",
"m+	c #3DAAE8",
"n+	c #3EABE9",
"o+	c #3EACE9",
"p+	c #3EADE8",
"q+	c #3EADE9",
"r+	c #3CA5E0",
"s+	c #286F98",
"t+	c #25658D",
"u+	c #25648B",
"v+	c #215B89",
"w+	c #537D56",
"x+	c #AFCC38",
"y+	c #ABC935",
"z+	c #A6C531",
"A+	c #A1C22E",
"B+	c #9CBE2A",
"C+	c #A7C353",
"D+	c #356496",
"E+	c #205289",
"F+	c #215589",
"G+	c #225A88",
"H+	c #2C76B0",
"I+	c #3286C5",
"J+	c #3CA3E8",
"K+	c #3CA4E7",
"L+	c #3DA5E8",
"M+	c #3DA7E8",
"N+	c #3DA8E8",
"O+	c #3DA8E9",
"P+	c #3EA9E9",
"Q+	c #3EAAE9",
"R+	c #3BA1DF",
"S+	c #2D7BAB",
"T+	c #276992",
"U+	c #2C77A7",
"V+	c #3289C3",
"W+	c #2970A0",
"X+	c #25669B",
"Y+	c #5B8250",
"Z+	c #C4DC54",
"`+	c #B0CD39",
" @	c #ABCA36",
".@	c #A2C22E",
"+@	c #9DBF2B",
"@@	c #A1C135",
"#@	c #9DB95E",
"$@	c #487AA6",
"%@	c #204F84",
"&@	c #1F5188",
"*@	c #20538A",
"=@	c #21578B",
"-@	c #22598D",
";@	c #2E7BBD",
">@	c #3998E5",
",@	c #3A9BE8",
"'@	c #3B9CE8",
")@	c #3B9FE8",
"!@	c #3CA0E8",
"~@	c #3CA2E7",
"{@	c #3CA3E7",
"]@	c #3DA4E8",
"^@	c #3DA7EA",
"/@	c #3591CD",
"(@	c #235D83",
"_@	c #2A74A5",
":@	c #3A9EE3",
"<@	c #3CA0EA",
"[@	c #338ACB",
"}@	c #2A79BE",
"|@	c #7B9D52",
"1@	c #C0D94C",
"2@	c #B1CE3A",
"3@	c #ACCA36",
"4@	c #A7C733",
"5@	c #A3C32F",
"6@	c #9EBF2B",
"7@	c #98BB24",
"8@	c #B1CB60",
"9@	c #71983D",
"0@	c #386392",
"a@	c #1D4B80",
"b@	c #1F4F85",
"c@	c #205188",
"d@	c #205488",
"e@	c #296CAC",
"f@	c #3997ED",
"g@	c #3895E7",
"h@	c #3997E6",
"i@	c #3999E6",
"j@	c #3A9BE7",
"k@	c #3A9CE7",
"l@	c #3B9DE8",
"m@	c #3BA0E8",
"n@	c #3BA1E7",
"o@	c #3BA1E8",
"p@	c #3B9DE3",
"q@	c #2E7DB5",
"r@	c #3388C8",
"s@	c #348CCE",
"t@	c #338ACD",
"u@	c #3896E3",
"v@	c #2E7BB5",
"w@	c #B5CC5B",
"x@	c #B8D33C",
"y@	c #ADCB37",
"z@	c #9EC02C",
"A@	c #99BC28",
"B@	c #97BA25",
"C@	c #A2BC6A",
"D@	c #4A7AA4",
"E@	c #204A7A",
"F@	c #1E4B7E",
"G@	c #1E4D82",
"H@	c #1E4E83",
"I@	c #1F5187",
"J@	c #2865A7",
"K@	c #3589DF",
"L@	c #3790E7",
"M@	c #3891E7",
"N@	c #3893E6",
"O@	c #3996E7",
"P@	c #3A98E7",
"Q@	c #3A9AE7",
"R@	c #3A9DE8",
"S@	c #2B73AB",
"T@	c #225C8A",
"U@	c #215886",
"V@	c #215F9C",
"W@	c #5D8F71",
"X@	c #C9DE5D",
"Y@	c #B6D23C",
"Z@	c #B2CE3A",
"`@	c #93B720",
" #	c #AEC767",
".#	c #3E6993",
"+#	c #1B4575",
"@#	c #1D4878",
"##	c #1E497B",
"$#	c #265FA0",
"%#	c #235793",
"&#	c #3483DA",
"*#	c #3689E6",
"=#	c #378CE6",
"-#	c #378EE6",
";#	c #3890E7",
">#	c #3894E6",
",#	c #3995E6",
"'#	c #3A99E7",
")#	c #3A9AEA",
"!#	c #2A6FA8",
"~#	c #225A89",
"{#	c #21578A",
"]#	c #27576C",
"^#	c #B2C96F",
"/#	c #BBD640",
"(#	c #B6D23E",
"_#	c #ADCA36",
":#	c #9ABC28",
"<#	c #94B823",
"[#	c #9BBB3F",
"}#	c #325882",
"|#	c #1C4573",
"1#	c #265F9E",
"2#	c #3179C9",
"3#	c #337FD4",
"4#	c #2E74C3",
"5#	c #3381D8",
"6#	c #3586E1",
"7#	c #3589E5",
"8#	c #368BE5",
"9#	c #368CE5",
"0#	c #3790E6",
"a#	c #3791E7",
"b#	c #3892E7",
"c#	c #3893E7",
"d#	c #3894E7",
"e#	c #2F7BBF",
"f#	c #22598B",
"g#	c #22588B",
"h#	c #24547A",
"i#	c #83A266",
"j#	c #C1DA4C",
"k#	c #BBD541",
"l#	c #B5D13D",
"m#	c #A2C32F",
"n#	c #99BB27",
"o#	c #94B824",
"p#	c #91B429",
"q#	c #99B566",
"r#	c #274C75",
"s#	c #1D4877",
"t#	c #2F74BF",
"u#	c #327ACA",
"v#	c #317ACB",
"w#	c #337ED1",
"x#	c #3380D5",
"y#	c #3482DA",
"z#	c #3584DE",
"A#	c #3587E2",
"B#	c #3688E5",
"C#	c #368AE6",
"D#	c #368CE6",
"E#	c #378DE6",
"F#	c #378FE6",
"G#	c #368EE2",
"H#	c #26639F",
"I#	c #1D508A",
"J#	c #21516E",
"K#	c #7F9E67",
"L#	c #C6DC56",
"M#	c #BED843",
"N#	c #B9D440",
"O#	c #A6C632",
"P#	c #98BB27",
"Q#	c #94B723",
"R#	c #92B52A",
"S#	c #91B05B",
"T#	c #21476D",
"U#	c #1D4572",
"V#	c #2E70B9",
"W#	c #23548A",
"X#	c #3076C3",
"Y#	c #327CCE",
"Z#	c #337ED2",
"`#	c #3380D6",
" $	c #3587E0",
".$	c #3688E4",
"+$	c #3689E5",
"@$	c #368BE6",
"#$	c #378BE6",
"$$	c #378BE5",
"%$	c #378BE4",
"&$	c #3486DC",
"*$	c #225790",
"=$	c #1E4F87",
"-$	c #19497F",
";$	c #406B5C",
">$	c #A9C16F",
",$	c #C7DE52",
"'$	c #C1DA45",
")$	c #BCD642",
"!$	c #B7D23E",
"~$	c #B3CF3B",
"{$	c #AECC38",
"]$	c #A0C12D",
"^$	c #9CBD29",
"/$	c #97BA26",
"($	c #92B623",
"_$	c #92B150",
":$	c #265485",
"<$	c #1B416A",
"[$	c #1B406A",
"}$	c #1C436F",
"|$	c #2F71BC",
"1$	c #3075C2",
"2$	c #3078C6",
"3$	c #317BCB",
"4$	c #327ED2",
"5$	c #3381D9",
"6$	c #3483DB",
"7$	c #3484DE",
"8$	c #3484DF",
"9$	c #3381DA",
"0$	c #3480CD",
"a$	c #397FC2",
"b$	c #3C7DB8",
"c$	c #3C77A2",
"d$	c #3B6468",
"e$	c #537952",
"f$	c #9BB75C",
"g$	c #D0E36A",
"h$	c #C9DF4A",
"i$	c #C3DB46",
"j$	c #BFD743",
"k$	c #BAD541",
"l$	c #B6D13D",
"m$	c #A4C430",
"n$	c #9FC02C",
"o$	c #9BBD29",
"p$	c #96B925",
"q$	c #91B523",
"r$	c #90B328",
"s$	c #92B14A",
"t$	c #2E67A3",
"u$	c #285D97",
"v$	c #225083",
"w$	c #1E4874",
"x$	c #1F4B7B",
"y$	c #3074BF",
"z$	c #3076C2",
"A$	c #2C6BB1",
"B$	c #3178C7",
"C$	c #327CCF",
"D$	c #327DD1",
"E$	c #337FD3",
"F$	c #2E78CE",
"G$	c #3373A4",
"H$	c #629188",
"I$	c #91B171",
"J$	c #ADC765",
"K$	c #BFD458",
"L$	c #C5D957",
"M$	c #CFE361",
"N$	c #D9EB66",
"O$	c #D1E552",
"P$	c #C7DE47",
"Q$	c #C3DB47",
"R$	c #C0D844",
"S$	c #B8D23E",
"T$	c #B3D03C",
"U$	c #9EBE2A",
"V$	c #95B724",
"W$	c #90B421",
"X$	c #8EB127",
"Y$	c #91B04A",
"Z$	c #2E659E",
"`$	c #2B63A0",
" %	c #2B65A4",
".%	c #2B65A6",
"+%	c #1E4875",
"@%	c #2962A1",
"#%	c #24588F",
"$%	c #1C4673",
"%%	c #22538A",
"&%	c #245892",
"*%	c #2F71BA",
"=%	c #3279C8",
"-%	c #296CBD",
";%	c #477A6E",
">%	c #B4CC70",
",%	c #CBE059",
"'%	c #D0E556",
")%	c #D0E554",
"!%	c #CFE551",
"~%	c #CDE34F",
"{%	c #CBE24D",
"]%	c #C9E04C",
"^%	c #C7DD49",
"/%	c #BFD945",
"(%	c #B8D33F",
"_%	c #B4D03C",
":%	c #B0CE3A",
"<%	c #93B623",
"[%	c #8DB121",
"}%	c #8DAF27",
"|%	c #8EAD4E",
"1%	c #3167A0",
"2%	c #2A629F",
"3%	c #2A62A0",
"4%	c #2B64A2",
"5%	c #235387",
"6%	c #1C416B",
"7%	c #1B416B",
"8%	c #1B426C",
"9%	c #1B416D",
"0%	c #245790",
"a%	c #2B69AE",
"b%	c #5E8A60",
"c%	c #CFE26D",
"d%	c #CAE14D",
"e%	c #C9E04B",
"f%	c #CAE04C",
"g%	c #C8DF4B",
"h%	c #C7DE4A",
"i%	c #C4DC48",
"j%	c #C2DB47",
"k%	c #BFD844",
"l%	c #B2CF3B",
"m%	c #AECB37",
"n%	c #95B925",
"o%	c #91B522",
"p%	c #8CB020",
"q%	c #8AAD26",
"r%	c #88A753",
"s%	c #3569A1",
"t%	c #2B639F",
"u%	c #2B63A1",
"v%	c #295F9A",
"w%	c #1B4069",
"x%	c #1A3F67",
"y%	c #1C426A",
"z%	c #597E5E",
"A%	c #C4DA5C",
"B%	c #C1DA43",
"C%	c #C4DD49",
"D%	c #C5DD49",
"E%	c #C3DC48",
"F%	c #C0D945",
"G%	c #BED743",
"H%	c #93B723",
"I%	c #8EB221",
"J%	c #89AD1F",
"K%	c #86A924",
"L%	c #88A856",
"M%	c #356697",
"N%	c #224E7F",
"O%	c #1A3B60",
"P%	c #1A3C61",
"Q%	c #1A3D64",
"R%	c #1A3E65",
"S%	c #2C505B",
"T%	c #ADC84D",
"U%	c #BDD743",
"V%	c #BAD440",
"W%	c #8BAF20",
"X%	c #86AA1D",
"Y%	c #8CAD36",
"Z%	c #315E84",
"`%	c #2D65A2",
" &	c #2A619E",
".&	c #1F4774",
"+&	c #193A5F",
"@&	c #1A3A5F",
"#&	c #193B60",
"$&	c #163862",
"%&	c #6D8F40",
"&&	c #BFD847",
"*&	c #B8D440",
"=&	c #A1C12D",
"-&	c #9DBE2A",
";&	c #8DB120",
">&	c #82A71A",
",&	c #92B047",
"'&	c #3368A0",
")&	c #2A609C",
"!&	c #1D436D",
"~&	c #193961",
"{&	c #20444F",
"]&	c #AECA48",
"^&	c #B1CE38",
"/&	c #B4CF3B",
"(&	c #B1CD39",
"_&	c #A3C430",
":&	c #85A91D",
"<&	c #85A821",
"[&	c #789B42",
"}&	c #2D5B86",
"|&	c #2C65A2",
"1&	c #235081",
"2&	c #163762",
"3&	c #446940",
"4&	c #B3D03F",
"5&	c #AAC935",
"6&	c #A8C632",
"7&	c #A0C02C",
"8&	c #8EB321",
"9&	c #81A51A",
"0&	c #8BAB37",
"a&	c #2F639B",
"b&	c #29609B",
"c&	c #1C4068",
"d&	c #143562",
"e&	c #65893B",
"f&	c #A9C832",
"g&	c #A9C733",
"h&	c #8FB221",
"i&	c #87AB1E",
"j&	c #82A61C",
"k&	c #82A51F",
"l&	c #6A9030",
"m&	c #2C5A89",
"n&	c #2B64A1",
"o&	c #285B94",
"p&	c #1C426B",
"q&	c #133361",
"r&	c #6D9332",
"s&	c #A3C32D",
"t&	c #A3C22E",
"u&	c #9BBC28",
"v&	c #95B824",
"w&	c #8FB321",
"x&	c #83A71C",
"y&	c #7FA31B",
"z&	c #789C28",
"A&	c #30669E",
"B&	c #2B629F",
"C&	c #153868",
"D&	c #648A32",
"E&	c #9FC02B",
"F&	c #8EB220",
"G&	c #8AAE1F",
"H&	c #86AA1E",
"I&	c #7EA21B",
"J&	c #7C9F1D",
"K&	c #6B8F2D",
"L&	c #264C6F",
"M&	c #2E66A1",
"N&	c #2A63A0",
"O&	c #193F70",
"P&	c #4B7236",
"Q&	c #9DBF2A",
"R&	c #97BB27",
"S&	c #92B523",
"T&	c #85A91E",
"U&	c #7C9F1A",
"V&	c #75982E",
"W&	c #264F77",
"X&	c #2D649F",
"Y&	c #1C4270",
"Z&	c #274D45",
"`&	c #95B828",
" *	c #95B823",
".*	c #88AC1E",
"+*	c #84A81D",
"@*	c #81A51C",
"#*	c #7DA11B",
"$*	c #719628",
"%*	c #28547F",
"&*	c #2D64A1",
"**	c #214C7B",
"=*	c #17385F",
"-*	c #6E9623",
";*	c #93B722",
">*	c #93B724",
",*	c #90B422",
"'*	c #8FB322",
")*	c #8AAE20",
"!*	c #83A71D",
"~*	c #80A41B",
"{*	c #7CA01A",
"]*	c #7A9E19",
"^*	c #729627",
"/*	c #2B537C",
"(*	c #2D639D",
"_*	c #1F4875",
":*	c #183960",
"<*	c #335843",
"[*	c #8AAE25",
"}*	c #88AC1F",
"|*	c #7DA11A",
"1*	c #7B9F19",
"2*	c #7A9E1B",
"3*	c #789A2F",
"4*	c #436822",
"5*	c #234668",
"6*	c #25486E",
"7*	c #1C3D61",
"8*	c #1B3C5D",
"9*	c #5D843C",
"0*	c #89AC21",
"a*	c #87AB1F",
"b*	c #84A81E",
"c*	c #7EA21A",
"d*	c #799D17",
"e*	c #7EA028",
"f*	c #6B8E32",
"g*	c #234261",
"h*	c #2B517C",
"i*	c #2B6085",
"j*	c #699034",
"k*	c #88AB22",
"l*	c #81A51B",
"m*	c #82A61D",
"n*	c #81A51D",
"o*	c #80A41C",
"p*	c #779B16",
"q*	c #7C9F1F",
"r*	c #7FA03A",
"s*	c #52772B",
"t*	c #17344E",
"u*	c #346090",
"v*	c #2C608F",
"w*	c #5D863F",
"x*	c #7FA328",
"y*	c #7DA11C",
"z*	c #799D19",
"A*	c #799C1C",
"B*	c #769A1E",
"C*	c #7F9F36",
"D*	c #648837",
"E*	c #223F5D",
"F*	c #284F75",
"G*	c #43674F",
"H*	c #5E803B",
"I*	c #769A2F",
"J*	c #80A22E",
"K*	c #84A52E",
"L*	c #85A52E",
"M*	c #83A42D",
"N*	c #80A12E",
"O*	c #779A2C",
"P*	c #6F922D",
"Q*	c #6B8E30",
"R*	c #608137",
"S*	c #375A2A",
"T*	c #48711C",
"U*	c #4B7519",
"V*	c #49711D",
"W*	c #406522",
"                                                                                                ",
"                                                                                                ",
"                                                                                                ",
"                                                                                                ",
"                                                                                                ",
"                                          . + @ # $ % &                                         ",
"                                  * = - ; > , ' ) ! ~ { ] ^ /                                   ",
"                              ( _ : < [ } | 1 2 3 4 5 6 7 8 9 0 a                               ",
"                          b c d e f g h i j k l m n o p q r s t u v w                           ",
"                        x y z A B C D E F G H I J K L M N O P Q R S T U                         ",
"                      V W X Y Z `  ...+.@.#.$.%.&.M *.=.-.;.>.,.'.).!.~.{.].                    ",
"                    ^./.(._.:.<.[.}.|...1.2.3.4.4.5.6.7.8.9.0.a.b.c.d.e.f.g.h.                  ",
"                  i.j.k.l.m.n.o.p.q.r.s.t.u.v.w.w.x.y.z.A.B.C.D.E.F.G.H.I.J.K.                  ",
"                L.M.N.O.P.Q.R.S.T.U.V.W.}.s.X.Y.Y.|.Z.`. +.+++@+#+$+%+&+*+=+-+;+                ",
"                >+,+'+)+!+~+{+]+^+/+(+_+:+<+[+[+r.[+<+:+}+|+T.1+2+3+4+5+6+7+8+9+0+              ",
"              a+b+c+d+e+f+g+h+i+j+k+l+m+n+o+p+q+q+p+o+r+s+S.t+u+v+w+4+x+y+z+A+B+C+              ",
"              D+E+F+c+d+e+G+H+I+l.J+K+L+M+N+O+P+P+Q+R+S+T+U+V+W+X+Y+Z+`+ @e..@+@@@#@            ",
"            $@%@&@*@F+=@-@;@>@,@'@)@!@~@{@]@L+L+L+^@/@(@_@:@<@[@}@|@1@2@3@4@5@6@7@8@9@          ",
"            0@a@b@c@*@d@e@f@g@h@i@j@k@l@)@m@n@o@o@o@p@q@r@s@t@u@v@w@x@2@y@*+5@z@A@B@C@          ",
"          D@E@F@G@H@I@J@K@L@M@N@O@h@P@Q@j@k@l@R@l@l@'@S@T@U@U@V@W@X@Y@Z@y@*+5@z@A@`@ #          ",
"          .#+#@###$#%#&#*#=#-#;#M@>#,#,#h@P@'#'#'#)#!#~#e+'+{#]#^#/#(#2@_#4@5@z@:#<#[#          ",
"          }#|#1#2#3#4#5#6#7#8#9#-#0#a#b#c#d#>#g@g@e#f#d+g#c+h#i#j#k#l#2@3@e.m#6@n#o#p#q#        ",
"          r#s#t#u#v#w#x#y#z#A#B#C#D#E#-#F#0#;#L@G#H#c+c+I#J#K#L#M#N#l#`+y+O#.@+@P#Q#R#S#        ",
"          T#U#V#W#X#2#Y#Z#`#&#z# $.$+$C#@$#$$$%$&$*$=$-$;$>$,$'$)$!$~${$H.I.]$^$/$($p#_$        ",
"          :$<$[$}$|$1$2$3$Y#4$`#5$6$7$8$9$0$a$b$c$d$e$f$g$h$i$j$k$l$2@y@*+m$n$o$p$q$r$s$        ",
"          t$u$v$w$x$y$z$A$B$Y#C$D$E$F$G$H$I$J$K$L$M$N$O$P$Q$R$)$S$T$x+y+O#.@U$A@V$W$X$Y$        ",
"          Z$`$ %.%+%@%#%$%%%&%*%=%-%;%>%,%'%)%!%~%{%]%^%Q$/%)$(%_%:%3@*+m$]$o$/$<%[%}%|%        ",
"          1%2%3%4%.%5%6%7%8%9%0%a%b%c%d%e%f%d%]%g%h%i%j%k%)$N#l$l%m%H.O#.@6@:#n%o%p%q%r%        ",
"          s%2%t%2%u%v%w%x%w%y%<$z%A%B%Q$i%C%D%i%E%j%F%G%k#(%l$Z@{$y+e.5@n$o$/$H%I%J%K%L%        ",
"          M%3%`$`$2%N%O%P%Q%R%S%T%)$U%k%/%F%F%/%k%G%k#V%!$_%Z@{$y+e.m$]$^$P#o#W$W%X%Y%          ",
"          Z%`%2%`$ &.&+&@&#&$&%&&&!$(%N#k$k#k#k$V%*&!$l#~$`+m%y+4@m$=&-&:#p$($;&J%>&,&          ",
"            '&2%`$)&!&+&O%~&{&]&^&Z@_%l#l$(#(#l$l#/&l%(&x+3@H.e._&=&+@A@p$<%I%J%:&<&[&          ",
"            }&|&2%`$1&O%O%2&3&4&y+y@x+`+`+2@2@`+`+x+y@3@5&6&z+5@7&+@A@p$<%8&W%X%9&0&            ",
"              a&`$`$b&c&+&d&e&f&4@g&H.y+3@3@3@3@y+5&g&6&I.5@.@n$^$A@p$<%h&W%i&j&k&l&            ",
"              m&t%t%n&o&p&q&r&s&t&m$I.O#O#e.e.O#O#I.m$5@A+n$-&u&P#v&($w&W%i&x&y&z&              ",
"                A&2%B&`$u$C&D&E&6@n$]$A+.@m#.@.@A+A+n$6@-&:#n#p$H%o%F&G&H&x&I&J&K&              ",
"                L&M&N&2%)&O&P&Q&n#o$o$B++@+@+@-&-&o$o$:#R&p$o#S&w&p%J%T&j&I&U&V&                ",
"                  W&X&N&)&Y&Z&`& *n%/$/$P#P#P#R&/$/$p$o#H%q$w&;&G&.*+*@*#*#*$*                  ",
"                    %*&*2%**=*-*;*o%q$<%>*>*>*H%($($,*'*I%p%)*.*H&!*~*{*]*^*                    ",
"                      /*(*_*:*<*[*W%p%;&I%I%I%[%;&p%W%G&}*i&:&x&~*|*1*2*3*4*                    ",
"                        5*6*7*8*9*0*X%a*i&}*}*i&a*H&X%b*!*@*y&c*]*d*e*f*                        ",
"                            g*h*i*j*k*l*m*m*m*m*n*@*o*y&I&{*]*p*q*r*s*                          ",
"                              t*u*v*w*x*y*|*|*{*{*1*]*]*z*A*B*C*D*                              ",
"                                  E*F*G*H*I*J*K*L*M*N*O*P*Q*R*                                  ",
"                                            S*T*U*V*W*                                          ",
"                                                                                                ",
"                                                                                                ",
"                                                                                                "};
