/* XPM */
static char * sakura_11x11_xpm[] = {
"16 16 58 1",
" 	c None",
".	c #9D9D9D",
"+	c #9B9B9B",
"@	c #9A9A9A",
"#	c #E4E4E4",
"$	c #F0F0F0",
"%	c #EFEFEF",
"&	c #979797",
"*	c #EDEDED",
"=	c #5D5D5D",
"-	c #1E1F1F",
";	c #959595",
">	c #EAEAEA",
",	c #545454",
"'	c #555555",
")	c #535353",
"!	c #939393",
"~	c #E7E7E7",
"{	c #515151",
"]	c #505050",
"^	c #919191",
"/	c #4D4D4D",
"(	c #4C4C4C",
"_	c #8F8F8F",
":	c #E2E2E2",
"<	c #494949",
"[	c #EEEEEC",
"}	c #484848",
"|	c #E1E1E1",
"1	c #8E8E8E",
"2	c #DFDFDF",
"3	c #454545",
"4	c #444444",
"5	c #8C8C8C",
"6	c #DCDCDC",
"7	c #414141",
"8	c #404040",
"9	c #8A8A8A",
"0	c #D9D9D9",
"a	c #3D3D3D",
"b	c #3C3C3C",
"c	c #888888",
"d	c #D6D6D6",
"e	c #393939",
"f	c #383838",
"g	c #868686",
"h	c #D4D4D4",
"i	c #353535",
"j	c #343434",
"k	c #D3D3D3",
"l	c #848484",
"m	c #D1D1D1",
"n	c #535454",
"o	c #838383",
"p	c #C4C4C4",
"q	c #CECECE",
"r	c #828282",
"s	c #818181",
" .++++++++++++. ",
"@#$$$%%%%%%%%%#@",
"&*=----------=*&",
";>-,'''''',,)->;",
"!~-{{{{{{{]]]-~!",
"^#-///////(((-#^",
"_:-<[<<<}}}}}-|_",
"12-33[3344444-21",
"56-777[788888-65",
"90-aa[bbbbbbb-09",
"cd-e[eff[[[ff-dc",
"gh-iiijjjjjjj-kg",
"lmn----------nml",
"opqqqqqqqqqqqqpo",
" rssssssssssssr ",
"                "};
