/* XPM */
static char * xterm_xpm[] = {
"20 20 125 2",
"  	c None",
". 	c #E0E0E0",
"+ 	c #E8E8E8",
"@ 	c #E9E9E9",
"# 	c #EAEAEA",
"$ 	c #ECECEC",
"% 	c #EDEDED",
"& 	c #EFEFEF",
"* 	c #F0F0F0",
"= 	c #F2F2F2",
"- 	c #EBEBEB",
"; 	c #D8D8D8",
"> 	c #828282",
", 	c #616161",
"' 	c #676767",
") 	c #6B6B6B",
"! 	c #6E6E6E",
"~ 	c #727272",
"{ 	c #777777",
"] 	c #7C7C7C",
"^ 	c #7B7B7B",
"/ 	c #717171",
"( 	c #6D6D6D",
"_ 	c #696969",
": 	c #666666",
"< 	c #A8A8A8",
"[ 	c #D9D9D9",
"} 	c #DBDBDB",
"| 	c #444444",
"1 	c #4A4A4A",
"2 	c #4E4E4E",
"3 	c #545454",
"4 	c #585858",
"5 	c #5D5D5D",
"6 	c #606060",
"7 	c #5F5F5F",
"8 	c #5C5C5C",
"9 	c #575757",
"0 	c #525252",
"a 	c #4D4D4D",
"b 	c #484848",
"c 	c #434343",
"d 	c #9A9A9A",
"e 	c #D5D5D5",
"f 	c #D7D7D7",
"g 	c #404040",
"h 	c #454545",
"i 	c #494949",
"j 	c #4F4F4F",
"k 	c #535353",
"l 	c #565656",
"m 	c #515151",
"n 	c #3E3E3E",
"o 	c #979797",
"p 	c #D3D3D3",
"q 	c #D4D4D4",
"r 	c #686868",
"s 	c #3A3A3A",
"t 	c #424242",
"u 	c #474747",
"v 	c #4C4C4C",
"w 	c #464646",
"x 	c #414141",
"y 	c #3D3D3D",
"z 	c #373737",
"A 	c #939393",
"B 	c #CECECE",
"C 	c #D0D0D0",
"D 	c #646464",
"E 	c #323232",
"F 	c #3B3B3B",
"G 	c #363636",
"H 	c #313131",
"I 	c #909090",
"J 	c #CBCBCB",
"K 	c #CCCCCC",
"L 	c #2B2B2B",
"M 	c #555555",
"N 	c #636363",
"O 	c #3C3C3C",
"P 	c #393939",
"Q 	c #333333",
"R 	c #2E2E2E",
"S 	c #8C8C8C",
"T 	c #C5C5C5",
"U 	c #C8C8C8",
"V 	c #282828",
"W 	c #303030",
"X 	c #2D2D2D",
"Y 	c #878787",
"Z 	c #C3C3C3",
"` 	c #242424",
" .	c #262626",
"..	c #7E7E7E",
"+.	c #292929",
"@.	c #272727",
"#.	c #252525",
"$.	c #BEBEBE",
"%.	c #202020",
"&.	c #2A2A2A",
"*.	c #808080",
"=.	c #BBBBBB",
"-.	c #C0C0C0",
";.	c #1D1D1D",
">.	c #5B5B5B",
",.	c #1E1E1E",
"'.	c #232323",
").	c #222222",
"!.	c #7D7D7D",
"~.	c #191919",
"{.	c #1C1C1C",
"].	c #3F3F3F",
"^.	c #B8B8B8",
"/.	c #151515",
"(.	c #787878",
"_.	c #B6B6B6",
":.	c #A2A2A2",
"<.	c #929292",
"[.	c #949494",
"}.	c #959595",
"|.	c #969696",
"1.	c #919191",
"2.	c #AEAEAE",
"3.	c #9F9F9F",
"4.	c #747474",
"                                        ",
"                                        ",
"                                        ",
"                                        ",
"  . + @ # $ % & * = = * & % - # @ + ;   ",
"  . > , ' ) ! ~ { ] ^ { / ( _ : , < [   ",
"  } / | 1 2 3 4 5 6 7 8 9 0 a b c d e   ",
"  f ! g h i j k 9 4 4 l m a b | n o p   ",
"  q r s n t u 1 a 2 2 v 1 w x y z A B   ",
"  C D E z F g t | h h | x n s G H I J   ",
"  K 7 L M N z s O y y F P G Q R L S T   ",
"  U 8 V V y ! s H E E H W X L V V Y Z   ",
"  T 4 ` ` `  ...V +.+.V @.#.` ` ` > $.  ",
"  Z 3 %.%.&.D E %.%.%.%.%.%.%.%.%.*.=.  ",
"  -.m ;.F >.,.;.'.'.).;.;.;.;.;.;.!.=.  ",
"  $.j ~.;.~.~.{.x x ].~.~.~.~.~.~.] ^.  ",
"  =.1 /./././././././././././././.(._.  ",
"  _.:.<.A A [.}.|.|.|.}.}.[.A <.1.2.3.  ",
"  > I I I I I I I I I I I I I I I I 4.  ",
"                                        "};
