/* XPM */
static char * frameABL_xpm[] = {
"6 6 5 1",
" 	c None",
".	c #1D254A",
"+	c #CEDBF0",
"@	c #0B2848",
"#	c #0E2A52",
".+++++",
" .++++",
" .++++",
"  @+++",
"   @@+",
"     #"};
