/* XPM */
static char * frameATR_xpm[] = {
"6 28 30 1",
" 	c None",
".	c #003259",
"+	c #E9F0F4",
"@	c #98B5D1",
"#	c #9CB7D1",
"$	c #9DB8D3",
"%	c #9FBAD5",
"&	c #003562",
"*	c #A1BCD7",
"=	c #00345B",
"-	c #A3BED9",
";	c #00335A",
">	c #A5C0DB",
",	c #A7C2DD",
"'	c #003157",
")	c #A9C4DF",
"!	c #003156",
"~	c #ABC6E1",
"{	c #ADC8E3",
"]	c #003155",
"^	c #B1C8E7",
"/	c #B3C9E5",
"(	c #003054",
"_	c #B3CDE4",
":	c #B4D1E6",
"<	c #B5D3EA",
"[	c #B7D1ED",
"}	c #B9D1F0",
"|	c #BDD0EE",
"1	c #CEDBF0",
"      ",
"      ",
"      ",
"      ",
"      ",
"..    ",
"+...  ",
"@@@.. ",
"####. ",
"$$$$..",
"%%%%%.",
"%%%%%&",
"*****=",
"-----;",
">>>>>.",
",,,,,'",
")))))!",
"~~~~~!",
"{{{{{]",
"^^^^^]",
"/////(",
"_____]",
":::::]",
"<<<<<]",
"[[[[[]",
"}}}}}]",
"|||||]",
"11111]"};
