/* XPM */
static char * restoreI_xpm[] = {
"26 46 28 1",
" 	c None",
".	c #293454",
"+	c #8B8E9D",
"@	c #E7EBF8",
"#	c #D1D7E7",
"$	c #8C8D92",
"%	c #E7EAF9",
"&	c #D1D7E5",
"*	c #D1D6E9",
"=	c #D0D7E9",
"-	c #858B9F",
";	c #535666",
">	c #7B8091",
",	c #CDD6F2",
"'	c #FCFCFC",
")	c #DDE3F6",
"!	c #999AA4",
"~	c #E9E9E9",
"{	c #E2E2E2",
"]	c #DCDCDC",
"^	c #D7D7D7",
"/	c #F0F3FB",
"(	c #E1E6F7",
"_	c #525661",
":	c #B7D1ED",
"<	c #B9D1F0",
"[	c #BDD0EE",
"}	c #CEDBF0",
"..........................",
"+@@@@@@@@@@@@@@@@@@@@@@@@@",
"+@#######################@",
"$%&#*=***-;;;;;;;;-##==*#@",
">@,,,,,,,;'''''''';,,,,,,)",
">@,,,,,-;;;;;;;;!';,,,,,,)",
">@,,,,,;'''''''';';,,,,,,)",
">@,,,,,;'''''''';~;,,,,,,)",
">@,,,,,;'';;;;'';~;,,,,,,)",
">@,,,,,;~~;'';~~;{;,,,,,,)",
">@,,,,,;~~;'';~~;];,,,,,,)",
">@,,,,,;{{;;;;{{;^;,,,,,,)",
">@,,,,,;]]]]]]]];;-,,,,,,)",
">@,,,,,;^^^^^^^^;,,,,,,,,)",
">@,,,,,-;;;;;;;;-,,,,,,,,)",
">@,,,,,,,,,,,,,,,,,,,,,,,)",
">@,,,,,,,,,,,,,,,,,,,,,,,)",
">/((((((((((((((((((((((((",
"__________________________",
"::::::::::::::::::::::::::",
"<<<<<<<<<<<<<<<<<<<<<<<<<<",
"[[[[[[[[[[[[[[[[[[[[[[[[[[",
"}}}}}}}}}}}}}}}}}}}}}}}}}}",
"..........................",
"+@@@@@@@@@@@@@@@@@@@@@@@@@",
"+@#######################@",
"$%&#*=***-;;;;;;;;-##==*#@",
">@,,,,,,,;'''''''';,,,,,,)",
">@,,,,,-;;;;;;;;!';,,,,,,)",
">@,,,,,;'''''''';';,,,,,,)",
">@,,,,,;'''''''';~;,,,,,,)",
">@,,,,,;'';;;;'';~;,,,,,,)",
">@,,,,,;~~;'';~~;{;,,,,,,)",
">@,,,,,;~~;'';~~;];,,,,,,)",
">@,,,,,;{{;;;;{{;^;,,,,,,)",
">@,,,,,;]]]]]]]];;-,,,,,,)",
">@,,,,,;^^^^^^^^;,,,,,,,,)",
">@,,,,,-;;;;;;;;-,,,,,,,,)",
">@,,,,,,,,,,,,,,,,,,,,,,,)",
">@,,,,,,,,,,,,,,,,,,,,,,,)",
">/((((((((((((((((((((((((",
"__________________________",
"::::::::::::::::::::::::::",
"<<<<<<<<<<<<<<<<<<<<<<<<<<",
"[[[[[[[[[[[[[[[[[[[[[[[[[[",
"}}}}}}}}}}}}}}}}}}}}}}}}}}"};
