<?xml version="1.0" encoding="UTF-8" standalone="no"?>
<svg
   xmlns:dc="http://purl.org/dc/elements/1.1/"
   xmlns:cc="http://creativecommons.org/ns#"
   xmlns:rdf="http://www.w3.org/1999/02/22-rdf-syntax-ns#"
   xmlns:svg="http://www.w3.org/2000/svg"
   xmlns="http://www.w3.org/2000/svg"
   xmlns:xlink="http://www.w3.org/1999/xlink"
   xmlns:sodipodi="http://sodipodi.sourceforge.net/DTD/sodipodi-0.dtd"
   xmlns:inkscape="http://www.inkscape.org/namespaces/inkscape"
   version="1.0"
   width="61"
   height="25"
   id="svg2250"
   sodipodi:docname="icewm.svg"
   inkscape:version="0.92.2 (unknown)"
   inkscape:export-filename="/home/wachin/RisenPC-iceWM/.icewm/themes/plastiKO2/taskbar/icewm.png"
   inkscape:export-xdpi="96"
   inkscape:export-ydpi="96">
  <metadata
     id="metadata68">
    <rdf:RDF>
      <cc:Work
         rdf:about="">
        <dc:format>image/svg+xml</dc:format>
        <dc:type
           rdf:resource="http://purl.org/dc/dcmitype/StillImage" />
        <dc:title />
      </cc:Work>
    </rdf:RDF>
  </metadata>
  <sodipodi:namedview
     pagecolor="#ffffff"
     bordercolor="#666666"
     borderopacity="1"
     objecttolerance="10"
     gridtolerance="10"
     guidetolerance="10"
     inkscape:pageopacity="0"
     inkscape:pageshadow="2"
     inkscape:window-width="1280"
     inkscape:window-height="720"
     id="namedview66"
     showgrid="false"
     inkscape:zoom="2.5978726"
     inkscape:cx="25.667273"
     inkscape:cy="30.150526"
     inkscape:window-x="-4"
     inkscape:window-y="-2"
     inkscape:window-maximized="1"
     inkscape:current-layer="layer3"
     inkscape:snap-global="false"
     fit-margin-top="0"
     fit-margin-left="0"
     fit-margin-right="0"
     fit-margin-bottom="0" />
  <defs
     id="defs2252">
    <linearGradient
       inkscape:collect="always"
       id="linearGradient1077">
      <stop
         style="stop-color:#ffffff;stop-opacity:1;"
         offset="0"
         id="stop1073" />
      <stop
         style="stop-color:#cacfd0;stop-opacity:1"
         offset="1"
         id="stop1075" />
    </linearGradient>
    <radialGradient
       cx="76.764198"
       cy="58.0625"
       r="66.164497"
       id="XMLID_27_"
       gradientUnits="userSpaceOnUse"
       gradientTransform="matrix(0.9397,0,0,0.9397,4.2153,4.1331)">
      <stop
         style="stop-color:#ffffff;stop-opacity:1"
         offset="0"
         id="stop107" />
      <stop
         style="stop-color:#fdfdfc;stop-opacity:1"
         offset="0.32780001"
         id="stop109" />
      <stop
         style="stop-color:#f4f5f4;stop-opacity:1"
         offset="0.6773591"
         id="stop111" />
      <stop
         style="stop-color:#cacfd0;stop-opacity:1"
         offset="1"
         id="stop113" />
    </radialGradient>
    <radialGradient
       cx="66.136703"
       cy="0.75440001"
       r="81.971497"
       id="XMLID_25_"
       gradientUnits="userSpaceOnUse"
       gradientTransform="matrix(0.9459,0,0,1,1051.1319,-330.17143)">
      <stop
         style="stop-color:#ffffff;stop-opacity:1"
         offset="0.1302"
         id="stop95" />
      <stop
         style="stop-color:#ffffff;stop-opacity:0.16862746"
         offset="0.5"
         id="stop97" />
    </radialGradient>
    <filter
       x="-0.29221493"
       width="1.5844299"
       y="-0.057434313"
       height="1.1148686"
       id="filter4446">
      <feGaussianBlur
         collect="always"
         stdDeviation="2.4087233"
         id="feGaussianBlur4448" />
    </filter>
    <filter
       x="-0.29221493"
       width="1.5844299"
       y="-0.057434313"
       height="1.1148686"
       id="filter4442">
      <feGaussianBlur
         collect="always"
         stdDeviation="2.4087233"
         id="feGaussianBlur4444" />
    </filter>
    <linearGradient
       x1="115.9771"
       y1="72.399902"
       x2="115.9771"
       y2="120.3999"
       id="XMLID_23_"
       gradientUnits="userSpaceOnUse">
      <stop
         style="stop-color:#00316e;stop-opacity:0"
         offset="0"
         id="stop79" />
      <stop
         style="stop-color:#00316e;stop-opacity:1"
         offset="1"
         id="stop81" />
    </linearGradient>
    <clipPath
       id="clipPath4458">
      <use
         id="use4460"
         x="0"
         y="0"
         width="1"
         height="1"
         xlink:href="#XMLID_10_" />
    </clipPath>
    <filter
       id="AI_Sfocatura_4">
      <feGaussianBlur
         stdDeviation="4"
         id="feGaussianBlur6" />
    </filter>
    <radialGradient
       cx="69.600098"
       cy="145.3999"
       r="141"
       id="XMLID_21_"
       gradientUnits="userSpaceOnUse"
       gradientTransform="translate(1047.3429,-330.17143)">
      <stop
         style="stop-color:#2c72c7;stop-opacity:0"
         offset="0.3373"
         id="stop58" />
      <stop
         style="stop-color:#2c72c7;stop-opacity:1"
         offset="0.57990003"
         id="stop60" />
      <stop
         style="stop-color:#2c72c7;stop-opacity:0"
         offset="1"
         id="stop62" />
    </radialGradient>
    <radialGradient
       cx="69.600098"
       cy="68.399902"
       r="85"
       id="XMLID_20_"
       gradientUnits="userSpaceOnUse"
       gradientTransform="translate(1047.3429,-330.17143)">
      <stop
         style="stop-color:#6193ff;stop-opacity:1"
         offset="0.5"
         id="stop47" />
      <stop
         style="stop-color:#003685;stop-opacity:1"
         offset="0.91816783"
         id="stop49" />
      <stop
         style="stop-color:#709dff;stop-opacity:1"
         offset="1"
         id="stop51" />
    </radialGradient>
    <linearGradient
       x1="9.5995998"
       y1="68.399902"
       x2="129.6001"
       y2="68.399902"
       id="XMLID_18_"
       gradientUnits="userSpaceOnUse"
       gradientTransform="rotate(-180,593.2718,-96.685728)">
      <stop
         style="stop-color:#003685;stop-opacity:1"
         offset="0"
         id="stop13" />
      <stop
         style="stop-color:#083c8f;stop-opacity:1"
         offset="0.0105"
         id="stop15" />
      <stop
         style="stop-color:#2451b1;stop-opacity:1"
         offset="0.0533"
         id="stop17" />
      <stop
         style="stop-color:#3b63cd;stop-opacity:1"
         offset="0.099"
         id="stop19" />
      <stop
         style="stop-color:#4d71e3;stop-opacity:1"
         offset="0.1477"
         id="stop21" />
      <stop
         style="stop-color:#597bf3;stop-opacity:1"
         offset="0.20100001"
         id="stop23" />
      <stop
         style="stop-color:#6180fc;stop-opacity:1"
         offset="0.2622"
         id="stop25" />
      <stop
         style="stop-color:#6382ff;stop-opacity:1"
         offset="0.34909999"
         id="stop27" />
      <stop
         style="stop-color:#6382ff;stop-opacity:1"
         offset="0.58579999"
         id="stop31" />
      <stop
         style="stop-color:#003685;stop-opacity:1"
         offset="1"
         id="stop33" />
    </linearGradient>
    <filter
       id="filter2904">
      <feGaussianBlur
         collect="always"
         stdDeviation="2.32"
         id="feGaussianBlur2906" />
    </filter>
    <linearGradient
       x1="9.5995998"
       y1="68.399902"
       x2="129.6001"
       y2="68.399902"
       id="linearGradient2235"
       xlink:href="#XMLID_18_"
       gradientUnits="userSpaceOnUse"
       gradientTransform="rotate(-180,66.800351,66.199999)" />
    <radialGradient
       cx="69.600098"
       cy="68.399902"
       r="85"
       id="radialGradient2237"
       xlink:href="#XMLID_20_"
       gradientUnits="userSpaceOnUse"
       gradientTransform="matrix(1.0131901,0,0,0.9824561,-6.5696522,-3.2)" />
    <radialGradient
       cx="69.600098"
       cy="145.3999"
       r="141"
       id="radialGradient2239"
       xlink:href="#XMLID_21_"
       gradientUnits="userSpaceOnUse"
       gradientTransform="translate(-5.8186007,-1.1349632)" />
    <linearGradient
       x1="108.00493"
       y1="72.341148"
       x2="115.9771"
       y2="102.0937"
       id="linearGradient2241"
       xlink:href="#XMLID_23_"
       gradientUnits="userSpaceOnUse"
       gradientTransform="translate(14.864856,91.965278)" />
    <linearGradient
       x1="108.00493"
       y1="72.341148"
       x2="115.9771"
       y2="102.0937"
       id="linearGradient2243"
       xlink:href="#XMLID_23_"
       gradientUnits="userSpaceOnUse" />
    <radialGradient
       cx="110.74259"
       cy="123.17536"
       r="81.292717"
       fx="110.74259"
       fy="123.17536"
       id="radialGradient2247"
       xlink:href="#XMLID_27_"
       gradientUnits="userSpaceOnUse"
       gradientTransform="matrix(0.4136693,-0.5587442,-0.4989925,-0.3694316,79.652783,167.07706)" />
    <linearGradient
       x1="67.629204"
       y1="-2.1941743"
       x2="67.629204"
       y2="78.850853"
       id="linearGradient2802"
       xlink:href="#XMLID_25_"
       gradientUnits="userSpaceOnUse"
       gradientTransform="translate(0,2)" />
    <linearGradient
       inkscape:collect="always"
       xlink:href="#XMLID_25_-3"
       id="linearGradient886"
       gradientUnits="userSpaceOnUse"
       gradientTransform="matrix(0.53952062,0,0,0.20446116,97.921682,36.680849)"
       x1="67.629204"
       y1="-2.1941743"
       x2="67.629204"
       y2="78.850853" />
    <radialGradient
       cx="66.136703"
       cy="0.75440001"
       r="81.971497"
       id="XMLID_25_-3"
       gradientUnits="userSpaceOnUse"
       gradientTransform="matrix(0.9459,0,0,1,1051.1319,-330.17143)">
      <stop
         style="stop-color:#ffffff;stop-opacity:1"
         offset="0.1302"
         id="stop95-6" />
      <stop
         style="stop-color:#ffffff;stop-opacity:0.16862746"
         offset="0.5"
         id="stop97-7" />
    </radialGradient>
    <radialGradient
       cx="110.74259"
       cy="123.17536"
       r="81.292717"
       fx="110.74259"
       fy="123.17536"
       id="radialGradient2247-5"
       xlink:href="#XMLID_27_-3"
       gradientUnits="userSpaceOnUse"
       gradientTransform="matrix(1.0263595,-0.55689565,-1.2380558,-0.36820937,194.52592,164.31888)" />
    <radialGradient
       cx="76.764198"
       cy="58.0625"
       r="66.164497"
       id="XMLID_27_-3"
       gradientUnits="userSpaceOnUse"
       gradientTransform="matrix(0.9397,0,0,0.9397,4.2153,4.1331)">
      <stop
         style="stop-color:#ffffff;stop-opacity:1"
         offset="0"
         id="stop107-5" />
      <stop
         style="stop-color:#fdfdfc;stop-opacity:1"
         offset="0.32780001"
         id="stop109-6" />
      <stop
         style="stop-color:#f4f5f4;stop-opacity:1"
         offset="0.6773591"
         id="stop111-2" />
      <stop
         style="stop-color:#cacfd0;stop-opacity:1"
         offset="1"
         id="stop113-9" />
    </radialGradient>
    <linearGradient
       inkscape:collect="always"
       xlink:href="#linearGradient1077"
       id="linearGradient1079"
       x1="167.46968"
       y1="82.606804"
       x2="177.16486"
       y2="-56.261864"
       gradientUnits="userSpaceOnUse"
       gradientTransform="matrix(0.18781639,0,0,0.18781639,104.27049,39.13959)" />
    <radialGradient
       cx="66.136703"
       cy="0.75440001"
       r="81.971497"
       id="XMLID_25_-3-6"
       gradientUnits="userSpaceOnUse"
       gradientTransform="matrix(0.9459,0,0,1,1051.1319,-330.17143)">
      <stop
         style="stop-color:#0a3f90;stop-opacity:1"
         offset="0.1302"
         id="stop95-6-7" />
      <stop
         style="stop-color:#ffffff;stop-opacity:0.16862746"
         offset="0.5"
         id="stop97-7-5" />
    </radialGradient>
    <linearGradient
       inkscape:collect="always"
       xlink:href="#XMLID_25_-3-6-5"
       id="linearGradient886-3"
       gradientUnits="userSpaceOnUse"
       gradientTransform="matrix(-0.53952062,0,0,-0.20446116,65.28601,24.869808)"
       x1="67.629204"
       y1="-2.1941743"
       x2="67.629204"
       y2="78.850853" />
    <radialGradient
       cx="66.136703"
       cy="0.75440001"
       r="81.971497"
       id="XMLID_25_-3-6-5"
       gradientUnits="userSpaceOnUse"
       gradientTransform="matrix(0.9459,0,0,1,1051.1319,-330.17143)">
      <stop
         style="stop-color:#0a3f90;stop-opacity:1"
         offset="0.1302"
         id="stop95-6-7-6" />
      <stop
         style="stop-color:#ffffff;stop-opacity:0.16862746"
         offset="0.72175008"
         id="stop97-7-5-2" />
    </radialGradient>
  </defs>
  <g
     transform="matrix(0.2117792,0,0,0.21650855,-2.2392311,-2.6197358)"
     style="opacity:0.8;filter:url(#filter2904)"
     id="g8">
    <path
       d="m 300.66933,113.8 c 0,8.8 -0.87403,17.78162 -22.92432,17.6352 L 31.495471,129.8 C 9.4451848,129.65358 10,122.6 10,113.8 V 29.800002 c 0,-8.8 3.448213,-16.807625 25.498959,-16.77084 l 244.255081,0.407463 c 22.05075,0.03679 20.91529,7.563377 20.91529,16.363377 z"
       id="path10"
       inkscape:connector-curvature="0"
       style="stroke-width:1.58296239"
       sodipodi:nodetypes="sssssssss" />
  </g>
  <g
     transform="matrix(0.50045893,0,0,0.20446115,-1.4046971,-0.74481546)"
     id="g2221">
    <path
       d="m 4.000002,20 c 0,-8.8 3.1012351,-15.7207041 11.901235,-15.7279134 L 113.17823,4.1923943 C 121.97823,4.1851851 124,11.2 124,20 v 88 c 0,8.8 0.83783,16.62551 -7.96215,16.57718 L 10.928068,124 C 2.1280895,123.9517 4.000002,116.8 4.000002,108 Z"
       style="fill:url(#linearGradient2235)"
       id="path35"
       inkscape:connector-curvature="0"
       sodipodi:nodetypes="sssssssss" />
    <path
       d="M 14.54951,7.4558268 C 7.2869731,7.4296352 6.1965433,13.729684 6.1965433,20.77193 v 86.45614 c 0,7.04225 2.6401378,12.68708 9.9026027,12.77193 l 98.798664,1.15437 c 7.26247,0.0849 6.80241,-6.88405 6.80241,-13.9263 V 20.77193 c 0,-7.042246 -2.34529,-12.9381326 -9.60785,-12.9643243 z"
       style="fill:url(#radialGradient2237);stroke-width:1.01552093"
       id="path53"
       inkscape:connector-curvature="0"
       sodipodi:nodetypes="sssssssss" />
    <path
       d="m 63.807399,10.279037 h -0.053 c -23.021,-0.2960002 -47.076,4.131 -47.316,4.176 -2.455,0.458 -5.009999,3.012 -5.466999,5.467 -0.045,0.241 -4.4720002,24.295003 -4.1760002,47.316003 -0.296,23.074 4.1310002,47.129 4.1760002,47.369 0.457,2.454 3.012999,5.01 5.467999,5.469 0.24,0.044 24.294,4.47 47.316,4.174 23.075,0.296 47.128991,-4.13 47.368991,-4.174 2.454,-0.458 5.011,-3.015 5.469,-5.47 0.044,-0.239 4.47,-24.293 4.174,-47.315 0.296,-23.074 -4.13,-47.128003 -4.174,-47.369003 -0.459,-2.455 -3.015,-5.01 -5.469,-5.467 -0.24,-0.045 -24.294991,-4.4720002 -47.316991,-4.176 z"
       style="fill:url(#radialGradient2239);filter:url(#AI_Sfocatura_4)"
       id="path64"
       inkscape:connector-curvature="0" />
    <g
       transform="translate(-5.5999858,-4.4)"
       style="opacity:0.6"
       id="g66">
      <defs
         id="defs68">
        <path
           d="m 69.626,12.145 h -0.052 c -22.727,-0.292 -46.472,4.077 -46.709,4.122 -2.424,0.451 -4.946,2.974 -5.397,5.397 -0.044,0.237 -4.414,23.983 -4.122,46.71 -0.292,22.777 4.078,46.523 4.122,46.761 0.451,2.423 2.974,4.945 5.398,5.398 0.237,0.044 23.982,4.413 46.709,4.121 22.779,0.292 46.524,-4.077 46.761,-4.121 2.423,-0.452 4.946,-2.976 5.398,-5.399 0.044,-0.236 4.413,-23.981 4.121,-46.709 0.292,-22.777 -4.077,-46.523 -4.121,-46.761 -0.453,-2.423 -2.976,-4.946 -5.398,-5.397 -0.238,-0.045 -23.984,-4.414 -46.71,-4.122 z"
           id="XMLID_10_"
           inkscape:connector-curvature="0" />
      </defs>
    </g>
    <path
       d=""
       style="fill:url(#XMLID_29_);stroke:#2c72c7;stroke-width:2;stroke-linejoin:round"
       id="path159"
       inkscape:connector-curvature="0" />
  </g>
  <g
     inkscape:groupmode="layer"
     id="layer1"
     inkscape:label="luces"
     style="display:inline"
     transform="translate(-101.56262,-37.016739)">
    <path
       d="m 160.91117,47.191879 c 0.10451,-3.020545 0.35029,-5.55012 -0.62461,-6.785091 -0.82497,-1.045062 -2.66357,-1.494646 -3.95156,-1.586343 -0.12659,-0.0089 -12.04781,-0.151535 -24.13316,-0.09215 h -0.0277 c -12.08482,-0.05931 -24.26316,0.04639 -24.38967,0.05541 -3.95374,0.309562 -4.75916,2.417394 -4.71547,4.937769 l 0.0708,4.086186 c 0.0127,0.737519 1.44609,1.989833 2.94049,2.200058 1.51676,0.21335 2.61173,1.803234 23.85522,1.803234 21.24403,0 27.78181,-1.294024 29.11628,-2.227335 1.00454,-0.92154 1.26526,-1.348883 1.8594,-2.391744 z"
       style="opacity:0.7;fill:url(#linearGradient886);fill-opacity:1;stroke-width:0.332131"
       id="path99"
       inkscape:connector-curvature="0"
       sodipodi:nodetypes="csccccssssccc" />
  </g>
  <g
     inkscape:groupmode="layer"
     id="layer2"
     inkscape:label="fonde celeste"
     style="display:inline">
    <path
       d="m 2.29652,14.358778 c -0.10451,3.020545 -0.35029,5.55012 0.62461,6.785091 0.82497,1.045062 2.66357,1.494646 3.95156,1.586343 0.12659,0.0089 12.04781,0.151535 24.13316,0.09215 h 0.0277 c 12.08482,0.05931 24.26316,-0.04639 24.38967,-0.05541 3.95374,-0.309562 4.75916,-2.417394 4.71547,-4.937769 l -0.0708,-4.086186 C 60.05519,13.005478 58.6218,11.753164 57.1274,11.542939 55.61064,11.329589 54.51567,9.739705 33.27218,9.739705 c -21.24403,0 -27.78181,1.294024 -29.11628,2.227335 -1.00454,0.92154 -1.26526,1.348883 -1.8594,2.391744 z"
       style="display:inline;opacity:0.7;fill:url(#linearGradient886-3);fill-opacity:1;stroke-width:0.332131"
       id="path99-3"
       inkscape:connector-curvature="0"
       sodipodi:nodetypes="csccccssssccc" />
  </g>
  <g
     inkscape:groupmode="layer"
     id="layer3"
     inkscape:label="letras wachin"
     style="display:inline"
     transform="translate(-101.56262,-37.016739)">
    <text
       xml:space="preserve"
       style="font-style:normal;font-weight:normal;font-size:16.78941154px;line-height:1.25;font-family:sans-serif;letter-spacing:0px;word-spacing:0px;fill:#ffffff;fill-opacity:1;stroke:none;stroke-width:0.41973528"
       x="112.36433"
       y="52.906261"
       id="text1071"
       transform="scale(0.93928262,1.0646423)"><tspan
         sodipodi:role="line"
         id="tspan1069"
         x="112.36433"
         y="52.906261"
         style="font-style:normal;font-variant:normal;font-weight:500;font-stretch:normal;font-family:Ubuntu;-inkscape-font-specification:'Ubuntu Medium';fill:#ffffff;fill-opacity:1;stroke-width:0.41973528">Wachín</tspan></text>
  </g>
</svg>
