/* XPM */
static char * closeA_xpm[] = {
"26 52 36 1",
" 	c None",
".	c #9A9A9A",
"+	c #E8E8E7",
"@	c #B1B1B1",
"#	c #B0B0B0",
"$	c #B3B3B3",
"%	c #C3C3C3",
"&	c #F2F2F2",
"*	c #FFFFFF",
"=	c #E7E7E7",
"-	c #B2B2B2",
";	c #F6F6F6",
">	c #A6A6A6",
",	c #F5F5F5",
"'	c #FBFBFB",
")	c #F4F4F4",
"!	c #FAFAFA",
"~	c #F8F8F8",
"{	c #F1F1F1",
"]	c #EEEEEE",
"^	c #EDEDED",
"/	c #F3F3F3",
"(	c #ECECEC",
"_	c #EBEBEB",
":	c #E9E9E9",
"<	c #A5A5A5",
"[	c #E8E8E8",
"}	c #E5E5E5",
"|	c #EAEAEA",
"1	c #E3E3E3",
"2	c #E2E2E2",
"3	c #A4A4A4",
"4	c #D1D1D1",
"5	c #ACACAC",
"6	c #AEAEAE",
"7	c #BFBFBF",
"..........................",
"++++++++++++++++++++++++++",
"++++++++++++++++++++++++++",
"@@@@@@@@@@@@@@@@@@@@@@#$%&",
".***********************=-",
".;;;;;;;;;;;;;;;;;;;;;;;*>",
".,,,,,,,,,,,,,,,,,,,,,,,'>",
".)))))))))))))))))))))))!>",
".&&&&&&&&&&&&&&&&&&&&&&&~>",
".{{{{{{{...{{{...{{{{{{{;>",
".]]]]]]]]...]...]]]]]]]])>",
".^^^^^^^^^.....^^^^^^^^^/>",
".((((((((((...(((((((((({>",
".__________...__________{>",
".:::::::::.....:::::::::]<",
".::::::::...:...::::::::]<",
".[[[[[[[...[[[...[[[[[[[^<",
".=======================(<",
".}}}}}}}}}}}}}}}}}}}}}}}|<",
".}}}}}}}}}}}}}}}}}}}}}}}:<",
".11111111111111111111111[<",
".22222222222222222222222[3",
".::::::::::::::::::::::[4@",
".555555555555555555555567{",
"++++++++++++++++++++++++++",
"++++++++++++++++++++++++++",
"..........................",
"++++++++++++++++++++++++++",
"++++++++++++++++++++++++++",
".@@@@@@@@@@@@@@@@@@@@@#$%&",
".***********************=-",
".;;;;;;;;;;;;;;;;;;;;;;;*>",
".,,,,,,,,,,,,,,,,,,,,,,,'>",
".)))))))))))))))))))))))!>",
".&&&&&&&&&&&&&&&&&&&&&&&~>",
".{{{{{{{...{{{...{{{{{{{;>",
".]]]]]]]]...]...]]]]]]]])>",
".^^^^^^^^^.....^^^^^^^^^/>",
".((((((((((...(((((((((({>",
".__________...__________{>",
".:::::::::.....:::::::::]<",
".::::::::...:...::::::::]<",
".[[[[[[[...[[[...[[[[[[[^<",
".=======================(<",
".}}}}}}}}}}}}}}}}}}}}}}}|<",
".}}}}}}}}}}}}}}}}}}}}}}}:<",
".11111111111111111111111[<",
".22222222222222222222222[3",
".::::::::::::::::::::::[4@",
".555555555555555555555567{",
"++++++++++++++++++++++++++",
"++++++++++++++++++++++++++"};
